<svg width="96" height="96" viewBox="0 0 96 96" fill="none" xmlns="http://www.w3.org/2000/svg">
<g opacity="0.15">
<mask id="path-1-inside-1_1680_16531" fill="white">
<path d="M79.1689 12C84.2787 12.0001 88.4207 16.1422 88.4209 21.252V64.6084C88.4209 69.7183 84.2789 73.8603 79.1689 73.8604H55.1484L49.3008 83.6719C48.5831 84.876 46.8388 84.876 46.1211 83.6719L40.2734 73.8604H16.252C11.1422 73.8601 7 69.7182 7 64.6084L7 21.252C7.00017 16.1423 11.1423 12.0002 16.252 12L79.1689 12Z"/>
</mask>
<path d="M79.1689 12L79.169 8H79.1689V12ZM88.4209 21.252H92.4209V21.2518L88.4209 21.252ZM79.1689 73.8604V77.8604H79.169L79.1689 73.8604ZM55.1484 73.8604V69.8604H52.8759L51.7124 71.8125L55.1484 73.8604ZM49.3008 83.6719L52.7368 85.7198L52.7368 85.7197L49.3008 83.6719ZM46.1211 83.6719L42.6851 85.7197L42.6851 85.7198L46.1211 83.6719ZM40.2734 73.8604L43.7095 71.8125L42.546 69.8604H40.2734V73.8604ZM16.252 73.8604L16.2518 77.8604H16.252V73.8604ZM7 21.252L3 21.2518V21.252H7ZM16.252 12V8H16.2518L16.252 12ZM79.1689 12L79.1689 16C82.0695 16 84.4208 18.3513 84.4209 21.2521L88.4209 21.252L92.4209 21.2518C92.4207 13.9331 86.488 8.0001 79.169 8L79.1689 12ZM88.4209 21.252H84.4209V64.6084H88.4209H92.4209V21.252H88.4209ZM88.4209 64.6084H84.4209C84.4209 67.5091 82.0698 69.8603 79.1689 69.8604L79.1689 73.8604L79.169 77.8604C86.488 77.8603 92.4209 71.9275 92.4209 64.6084H88.4209ZM79.1689 73.8604V69.8604H55.1484V73.8604V77.8604H79.1689V73.8604ZM55.1484 73.8604L51.7124 71.8125L45.8648 81.624L49.3008 83.6719L52.7368 85.7197L58.5845 75.9082L55.1484 73.8604ZM49.3008 83.6719L45.8648 81.624C46.6984 80.2253 48.7235 80.2253 49.5571 81.624L46.1211 83.6719L42.6851 85.7198C44.954 89.5267 50.4678 89.5267 52.7368 85.7198L49.3008 83.6719ZM46.1211 83.6719L49.5571 81.624L43.7095 71.8125L40.2734 73.8604L36.8374 75.9082L42.6851 85.7197L46.1211 83.6719ZM40.2734 73.8604V69.8604H16.252V73.8604V77.8604H40.2734V73.8604ZM16.252 73.8604L16.2522 69.8604C13.3512 69.8602 11 67.5089 11 64.6084H7H3C3 71.9275 8.93322 77.86 16.2518 77.8604L16.252 73.8604ZM7 64.6084H11V21.252H7H3L3 64.6084H7ZM7 21.252L11 21.2521C11.0001 18.3515 13.3514 16.0001 16.2521 16L16.252 12L16.2518 8C8.93318 8.00036 3.00024 13.9331 3 21.2518L7 21.252ZM16.252 12V16H79.1689V12V8L16.252 8V12Z" fill="#FF7710" mask="url(#path-1-inside-1_1680_16531)"/>
<path d="M74.5044 37.1172C75.609 37.1172 76.5044 36.2218 76.5044 35.1172C76.5044 34.0126 75.609 33.1172 74.5044 33.1172V37.1172ZM18.5273 35.1172V37.1172H74.5044V35.1172V33.1172H18.5273V35.1172Z" fill="#FF7710"/>
<path d="M66.348 51.9062C67.4526 51.9062 68.348 51.0108 68.348 49.9062C68.348 48.8017 67.4526 47.9062 66.348 47.9062V51.9062ZM20.0859 49.9062V51.9062H66.348V49.9062V47.9062H20.0859V49.9062Z" fill="#FF7710"/>
</g>
</svg>
