<svg width="139" height="104" viewBox="0 0 139 104" fill="none" xmlns="http://www.w3.org/2000/svg">
<rect x="0.5" y="0.5" width="138" height="103" rx="3.5" stroke="#C4C4C4"/>
<path d="M1 18.5H139" stroke="#C4C4C4"/>
<circle cx="11" cy="10" r="3.5" stroke="#C4C4C4"/>
<circle cx="23" cy="10" r="3.5" stroke="#C4C4C4"/>
<circle cx="35" cy="10" r="3.5" stroke="#C4C4C4"/>
<path d="M43.6459 52.5V49.2461L52.0131 36.2031H57.1811V49.1914H59.6967V52.5H57.1811V56H53.2709V52.5H43.6459ZM47.8022 49.1914H53.3256V40.7148H53.1342L47.8022 49.0273V49.1914ZM69.5 56.2734C64.5508 56.2734 61.543 52.582 61.543 46.1016C61.543 39.6211 64.5508 35.9297 69.5 35.9297C74.4492 35.9297 77.457 39.6484 77.457 46.1016C77.457 52.6094 74.4492 56.2734 69.5 56.2734ZM69.5 52.8828C71.7969 52.8828 73.2734 50.668 73.2461 46.1016C73.2461 41.5898 71.7969 39.293 69.5 39.293C67.2031 39.293 65.7539 41.5898 65.7539 46.1016C65.7266 50.668 67.2031 52.8828 69.5 52.8828ZM79.4127 52.5V49.2461L87.7798 36.2031H92.9478V49.1914H95.4634V52.5H92.9478V56H89.0377V52.5H79.4127ZM83.5689 49.1914H89.0923V40.7148H88.9009L83.5689 49.0273V49.1914Z" fill="#C4C4C4"/>
<path d="M39.6262 87V72.8594H48.8254V74.9883H42.1652V78.8555H48.3371V80.9844H42.1652V84.8516H48.8645V87H39.6262ZM50.8668 87V72.8594H56.1793C59.4215 72.8594 61.1598 74.6758 61.1598 77.3711C61.1598 79.2949 60.2809 80.7207 58.6207 81.3945L61.6676 87H58.8355L56.0621 81.8242H53.4059V87H50.8668ZM53.4059 79.6953H55.7887C57.7027 79.6953 58.5621 78.875 58.5621 77.3711C58.5621 75.8672 57.7027 74.9883 55.7887 74.9883H53.4059V79.6953ZM62.9473 87V72.8594H68.2598C71.502 72.8594 73.2402 74.6758 73.2402 77.3711C73.2402 79.2949 72.3613 80.7207 70.7012 81.3945L73.748 87H70.916L68.1426 81.8242H65.4863V87H62.9473ZM65.4863 79.6953H67.8691C69.7832 79.6953 70.6426 78.875 70.6426 77.3711C70.6426 75.8672 69.7832 74.9883 67.8691 74.9883H65.4863V79.6953ZM87.6449 79.9297C87.6449 84.5 84.8715 87.1953 81.1605 87.1953C77.4496 87.1953 74.6762 84.4805 74.6762 79.9297C74.6762 75.3594 77.4496 72.6641 81.1605 72.6641C84.8715 72.6641 87.6449 75.3594 87.6449 79.9297ZM85.0863 79.9297C85.0863 76.707 83.4652 74.9492 81.1605 74.9492C78.8559 74.9492 77.2348 76.707 77.2348 79.9297C77.2348 83.1523 78.8559 84.9102 81.1605 84.9102C83.4652 84.9102 85.0863 83.1523 85.0863 79.9297ZM89.5105 87V72.8594H94.823C98.0652 72.8594 99.8035 74.6758 99.8035 77.3711C99.8035 79.2949 98.9246 80.7207 97.2645 81.3945L100.311 87H97.4793L94.7059 81.8242H92.0496V87H89.5105ZM92.0496 79.6953H94.4324C96.3465 79.6953 97.2059 78.875 97.2059 77.3711C97.2059 75.8672 96.3465 74.9883 94.4324 74.9883H92.0496V79.6953Z" fill="#C4C4C4"/>
</svg>
