<svg width="96" height="96" viewBox="0 0 96 96" fill="none" xmlns="http://www.w3.org/2000/svg">
<g opacity="0.3">
<path fill-rule="evenodd" clip-rule="evenodd" d="M41.9991 8.00781C36.5774 8.00827 31.2345 9.30527 26.4161 11.7906C21.5977 14.2759 17.4434 17.8775 14.3 22.2948C11.1566 26.7122 9.1151 31.8172 8.34589 37.184C7.57669 42.5508 8.10206 48.0237 9.87817 53.1461C11.6543 58.2686 14.6296 62.892 18.556 66.6307C22.4824 70.3694 27.2459 73.1149 32.4491 74.6382C37.6524 76.1615 43.1444 76.4184 48.4671 75.3875C53.7899 74.3565 58.7888 72.0677 63.0471 68.7118L77.6551 83.3198C78.4095 84.0484 79.4199 84.4516 80.4687 84.4425C81.5175 84.4334 82.5207 84.0127 83.2623 83.2711C84.004 82.5295 84.4246 81.5262 84.4338 80.4774C84.4429 79.4286 84.0397 78.4182 83.3111 77.6638L68.7031 63.0558C72.655 58.0423 75.1157 52.0174 75.8035 45.6707C76.4912 39.324 75.3783 32.9119 72.592 27.1682C69.8057 21.4245 65.4586 16.5812 60.0483 13.1927C54.6379 9.80424 48.3829 8.00738 41.9991 8.00781ZM15.9991 42.0078C15.9991 35.1122 18.7383 28.499 23.6143 23.623C28.4902 18.7471 35.1034 16.0078 41.9991 16.0078C48.8947 16.0078 55.5079 18.7471 60.3838 23.623C65.2598 28.499 67.9991 35.1122 67.9991 42.0078C67.9991 48.9034 65.2598 55.5166 60.3838 60.3926C55.5079 65.2685 48.8947 68.0078 41.9991 68.0078C35.1034 68.0078 28.4902 65.2685 23.6143 60.3926C18.7383 55.5166 15.9991 48.9034 15.9991 42.0078Z" fill="#FF7710"/>
</g>
</svg>
