<svg xmlns="http://www.w3.org/2000/svg" width="330" height="186" viewBox="0 0 330 186"><rect width="100%" height="100%" fill="#DDDDDD"/><path fill="#999999" d="m70.22 86.465-2.86-.51q.33-2.28 1.28-4.01t2.36-2.88q1.42-1.16 3.26-1.74t3.95-.58q2.2 0 3.97.62 1.77.63 3.03 1.74 1.25 1.11 1.92 2.61.67 1.49.67 3.23 0 1.52-.34 2.67-.34 1.16-.98 2.02t-1.58 1.45q-.95.59-2.14.99 2.86.9 4.27 2.75t1.41 4.64q0 2.38-.88 4.2-.88 1.83-2.38 3.07-1.49 1.25-3.46 1.88-1.97.64-4.17.64-2.4 0-4.18-.55t-3.1-1.63q-1.32-1.07-2.25-2.64-.92-1.56-1.58-3.6l2.4-.99q.94-.4 1.77-.21.82.18 1.2.89.39.77.87 1.52.47.74 1.13 1.33.66.58 1.55.94.89.37 2.12.37 1.39 0 2.42-.45 1.04-.46 1.73-1.18.69-.73 1.03-1.62.35-.89.35-1.79 0-1.15-.25-2.08-.24-.94-1.01-1.6t-2.21-1.03-3.86-.37v-3.88q2-.02 3.32-.37t2.1-.98 1.09-1.51.31-1.93q0-2.25-1.25-3.41-1.26-1.17-3.35-1.17-.97 0-1.78.28-.81.27-1.46.77-.65.49-1.09 1.15t-.66 1.45q-.38 1.02-.98 1.35-.61.33-1.71.15m25.52 0-2.86-.51q.33-2.28 1.28-4.01t2.36-2.88q1.42-1.16 3.26-1.74t3.95-.58q2.2 0 3.97.62 1.77.63 3.03 1.74 1.25 1.11 1.92 2.61.67 1.49.67 3.23 0 1.52-.34 2.67-.34 1.16-.98 2.02t-1.58 1.45q-.95.59-2.14.99 2.86.9 4.27 2.75t1.41 4.64q0 2.38-.88 4.2-.88 1.83-2.38 3.07-1.49 1.25-3.46 1.88-1.97.64-4.17.64-2.4 0-4.18-.55t-3.1-1.63q-1.32-1.07-2.25-2.64-.92-1.56-1.58-3.6l2.4-.99q.94-.4 1.77-.21.82.18 1.2.89.39.77.87 1.52.47.74 1.13 1.33.66.58 1.55.94.89.37 2.12.37 1.39 0 2.42-.45 1.04-.46 1.73-1.18.69-.73 1.03-1.62.35-.89.35-1.79 0-1.15-.25-2.08-.24-.94-1.01-1.6t-2.21-1.03-3.86-.37v-3.88q2-.02 3.32-.37t2.1-.98 1.09-1.51.31-1.93q0-2.25-1.25-3.41-1.26-1.17-3.35-1.17-.97 0-1.78.28-.81.27-1.46.77-.65.49-1.09 1.15t-.66 1.45q-.38 1.02-.98 1.35-.61.33-1.71.15m44.71 6.53q0 4.16-.89 7.23t-2.47 5.07q-1.57 2-3.72 2.98-2.14.98-4.63.98-2.48 0-4.61-.98-2.12-.98-3.68-2.98t-2.44-5.07-.88-7.23q0-4.18.88-7.23.88-3.06 2.44-5.06 1.56-2.01 3.68-2.98 2.13-.98 4.61-.98 2.49 0 4.63.98 2.15.97 3.72 2.98 1.58 2 2.47 5.06.89 3.05.89 7.23m-5.61 0q0-3.45-.51-5.72-.5-2.26-1.35-3.6-.85-1.35-1.95-1.88-1.1-.54-2.29-.54-1.16 0-2.25.54-1.09.53-1.93 1.88-.83 1.34-1.33 3.6-.49 2.27-.49 5.72 0 3.46.49 5.72.5 2.27 1.33 3.61.84 1.34 1.93 1.88t2.25.54q1.19 0 2.29-.54t1.95-1.88 1.35-3.61q.51-2.26.51-5.72m40.54 8.63-2.88 2.84-7.46-7.46-7.52 7.5-2.88-2.84 7.52-7.54-7.17-7.18 2.86-2.86 7.17 7.18 7.13-7.13 2.9 2.86-7.15 7.15zm30.12 3.21h5.72v4.07h-17.6v-4.07h6.45v-18.55q0-1.1.06-2.26l-4.57 3.83q-.4.3-.78.38-.39.08-.73.01-.34-.06-.6-.23-.27-.16-.4-.36l-1.72-2.36 9.71-8.25h4.46zm21.23.18q1.34 0 2.36-.39 1.01-.38 1.7-1.07.69-.68 1.05-1.62.35-.95.35-2.05 0-2.62-1.45-3.96-1.46-1.34-4.01-1.34t-4 1.34-1.45 3.96q0 1.1.35 2.05.35.94 1.04 1.62.7.69 1.71 1.07 1.01.39 2.35.39m0-24.18q-1.21 0-2.09.37-.88.38-1.46 1-.58.63-.86 1.44-.27.82-.27 1.72 0 .95.23 1.84t.78 1.58 1.45 1.11 2.22.42 2.22-.42q.91-.42 1.46-1.11t.78-1.58.23-1.84q0-.9-.29-1.72-.28-.81-.86-1.44-.57-.62-1.45-1-.88-.37-2.09-.37m5.37 11.48q2.9.95 4.29 2.9 1.39 1.94 1.39 4.76 0 2.11-.81 3.83-.8 1.71-2.25 2.92t-3.49 1.87q-2.03.66-4.5.66-2.46 0-4.5-.66-2.03-.66-3.48-1.87-1.46-1.21-2.26-2.92-.8-1.72-.8-3.83 0-2.82 1.38-4.76 1.39-1.95 4.29-2.9-2.31-.97-3.46-2.75-1.16-1.78-1.16-4.29 0-1.8.74-3.36.74-1.57 2.06-2.72 1.32-1.16 3.15-1.8 1.84-.65 4.04-.65t4.04.65q1.84.64 3.16 1.8 1.32 1.15 2.05 2.72.74 1.56.74 3.36 0 2.51-1.16 4.29-1.15 1.78-3.46 2.75m28.31-15.22-9.43 11.55-1.1 1.36q.92-.46 1.99-.71 1.06-.26 2.3-.26 1.8 0 3.5.6 1.71.59 3.01 1.79t2.09 2.98.79 4.16q0 2.22-.81 4.17-.82 1.95-2.29 3.4-1.48 1.45-3.56 2.29-2.07.83-4.58.83-2.55 0-4.58-.81-2.02-.82-3.45-2.28t-2.19-3.52-.76-4.56q0-2.25.91-4.61.92-2.37 2.83-4.92l7.59-10.19q.4-.52 1.15-.9.76-.37 1.75-.37zm-8.2 27.72q1.3 0 2.38-.44 1.09-.44 1.87-1.23.79-.8 1.23-1.86.44-1.07.44-2.32 0-1.37-.42-2.46t-1.19-1.84q-.77-.76-1.85-1.16t-2.37-.4q-1.3 0-2.36.44-1.05.44-1.8 1.23-.75.78-1.17 1.84-.42 1.07-.42 2.3 0 1.32.37 2.41.36 1.09 1.07 1.86.72.77 1.78 1.2 1.05.43 2.44.43"/></svg>