<svg width="254" height="254" viewBox="0 0 254 254" fill="none" xmlns="http://www.w3.org/2000/svg">
<circle cx="127" cy="127" r="127" fill="#C4C4C4"/>
<mask id="mask0_2122_28141" style="mask-type:alpha" maskUnits="userSpaceOnUse" x="0" y="0" width="254" height="254">
<circle cx="127" cy="127" r="127" fill="#C4C4C4"/>
</mask>
<g mask="url(#mask0_2122_28141)">
<path d="M127.475 31.7128C138.841 26.8173 145.763 26.6425 156.471 31.9081C157.713 32.519 157.916 34.1883 156.888 35.1141L154 37.7128C170.329 38.327 176.906 43.1766 183.171 58.6073C183.622 59.7185 182.975 60.9688 181.812 61.2597L178 62.2128C188.939 74.5537 188.947 83.0958 188.196 96.7138C188.111 98.2587 186.374 99.1295 185.087 98.2714L182 96.2128C185.029 111.62 181.454 119.788 169.312 131.946C168.261 132.997 166.479 132.545 166.035 131.127L164.5 126.213C155.147 140.127 144.966 144.111 127.475 151.713C109.984 144.111 99.8272 140.127 90.4746 126.213L88.9394 131.127C88.4959 132.545 86.7131 132.997 85.6631 131.946C73.5204 119.788 69.9454 111.62 72.9746 96.2128L69.8877 98.2714C68.6001 99.1296 66.8637 98.2587 66.7783 96.7138C66.028 83.0958 66.0354 74.5537 76.9746 62.2128L73.1631 61.2597C71.9996 60.9688 71.3527 59.7185 71.8037 58.6073C78.0683 43.1766 84.6457 38.327 100.975 37.7128L98.0869 35.1141C97.0581 34.1882 97.2619 32.5189 98.5039 31.9081C109.212 26.6425 116.108 26.8173 127.475 31.7128ZM133.549 92.5936C128.705 91.4327 124.902 91.3986 120.046 92.579C118.043 93.066 117.3 95.4618 118.547 97.1034L124.437 104.855C125.637 106.436 128.013 106.435 129.214 104.855L135.074 97.1415C136.329 95.4889 135.567 93.0773 133.549 92.5936ZM103.621 54.3329C97.6485 50.61 90.3266 51.4085 87.0039 56.2538C83.6774 61.105 86.1283 68.3605 91.8037 72.5966C92.0769 72.8004 92.4651 72.6588 92.5615 72.3319C95.153 63.5203 97.4427 59.661 103.638 55.1454C103.919 54.9405 103.916 54.517 103.621 54.3329ZM167.717 56.2538C164.394 51.4085 157.072 50.61 151.1 54.3329C150.804 54.517 150.802 54.9405 151.083 55.1454C157.278 59.661 159.568 63.5203 162.159 72.3319C162.256 72.6588 162.644 72.8004 162.917 72.5966C168.592 68.3605 171.043 61.105 167.717 56.2538Z" fill="white"/>
<rect x="45.5" y="159" width="163" height="191" rx="81.5" fill="white"/>
</g>
</svg>
