<svg width="1440" height="448" viewBox="0 0 1440 448" fill="none" xmlns="http://www.w3.org/2000/svg">
<g clip-path="url(#clip0_1332_22827)">
<rect width="1440" height="448" fill="url(#paint0_linear_1332_22827)"/>
<path opacity="0.1" d="M809.525 -113.322C601.525 -17.3219 283.525 344.678 446.525 668.178" stroke="url(#paint1_linear_1332_22827)" stroke-width="300" stroke-linecap="round"/>
<path opacity="0.2" d="M-23.4752 -74.327C108.025 259.173 822.025 551.673 1633.52 478.172" stroke="url(#paint2_linear_1332_22827)" stroke-width="300" stroke-linecap="round"/>
<g opacity="0.5">
<circle cx="1262" cy="234" r="68" fill="white" stroke="url(#paint3_linear_1332_22827)" stroke-width="14"/>
<path d="M1254.5 249.828L1252 187.328H1272.83L1269.5 249.828H1254.5Z" fill="#FF7710"/>
<circle cx="1262" cy="267.328" r="10" fill="#FF7710"/>
</g>
<g opacity="0.5">
<circle cx="1436" cy="234" r="68" fill="white" stroke="url(#paint4_linear_1332_22827)" stroke-width="14"/>
<path d="M1425.74 248.759C1425.85 234.666 1429.6 230.233 1436.42 226.028C1441.31 222.846 1445.06 219.323 1445.06 214.095C1445.06 208.412 1440.63 204.661 1435.17 204.661C1429.83 204.661 1424.94 208.185 1424.72 214.89H1408.58C1408.92 198.865 1420.74 191.25 1435.29 191.25C1451.08 191.25 1462.34 199.547 1462.34 213.526C1462.34 222.846 1457.56 228.869 1450.06 233.302C1443.7 237.166 1440.86 240.803 1440.74 248.759V250.009H1425.74V248.759ZM1433.58 275.695C1428.24 275.695 1423.92 271.376 1424.03 266.148C1423.92 260.92 1428.24 256.715 1433.58 256.715C1438.58 256.715 1443.01 260.92 1443.01 266.148C1443.01 271.376 1438.58 275.695 1433.58 275.695Z" fill="#FF7710"/>
</g>
<g opacity="0.5">
<rect x="-39" y="166" width="136" height="136" rx="23.9278" fill="white" stroke="url(#paint5_linear_1332_22827)" stroke-width="14"/>
<path d="M32.0938 199.841C32.0941 197.023 35.554 195.674 37.4619 197.747L69.5996 232.673C70.6887 233.856 70.6886 235.678 69.5996 236.861L37.4619 271.788C35.5539 273.861 32.0938 272.511 32.0938 269.693V254.872H-10.4326C-12.1406 254.872 -13.5252 253.487 -13.5254 251.779V217.759C-13.5254 216.051 -12.1407 214.666 -10.4326 214.666H32.0938V199.841Z" fill="#FF7710"/>
</g>
<path opacity="0.5" d="M1055.63 168.001C1055.7 164.535 1059.87 162.818 1062.36 165.226L1142.89 243.023C1145.23 245.291 1143.99 249.267 1140.77 249.798L1104.4 255.795L1121.13 296.37C1121.96 298.398 1121 300.719 1118.97 301.555L1111.63 304.583C1109.6 305.419 1107.28 304.453 1106.44 302.425L1089.71 261.833L1059.61 283.26C1056.95 285.153 1053.27 283.206 1053.33 279.942L1055.63 168.001Z" fill="#FF7710"/>
<path d="M231.502 162.021V194.189H225.648V178.422H216.051V187.123H193.639V165.449H216.051V173.676H225.648V162.021H231.502ZM199.492 170.195V182.43H210.25V170.195H199.492ZM218.74 192.607C218.688 198.197 224.646 203.471 234.297 204.842L231.977 209.43C224.33 208.27 218.503 204.71 215.629 199.779C212.702 204.631 206.849 208.27 199.281 209.43L197.172 204.842C206.506 203.418 212.676 197.934 212.676 192.607V191.078H218.74V192.607ZM254.205 173.465C254.152 181.955 258.424 190.604 265.807 194.137L262.221 198.83C257.053 196.22 253.335 191.184 251.305 185.119C249.222 191.605 245.319 196.984 239.861 199.727L236.275 195.033C243.922 191.395 248.299 182.271 248.352 173.465V165.871H254.205V173.465ZM274.508 162.021V180.689H281.838V185.699H274.508V209.693H268.654V162.021H274.508ZM297 164.975C304.33 164.975 309.92 169.721 309.973 176.471C309.92 182.298 305.807 186.596 300.006 187.703V194.717C303.961 194.532 307.943 194.216 311.66 193.715L312.082 198.092C302.115 199.885 291.199 199.938 283.026 199.832L282.182 195.033C285.768 195.033 289.881 195.033 294.152 194.928V187.703C288.167 186.701 284.027 182.377 284.08 176.471C284.027 169.721 289.512 164.975 297 164.975ZM297 169.932C292.834 169.984 289.776 172.463 289.776 176.471C289.776 180.479 292.834 183.01 297 182.957C301.113 183.01 304.172 180.479 304.172 176.471C304.172 172.463 301.113 169.984 297 169.932ZM320.256 162.021V181.059H327.164V186.016H320.256V209.693H314.402V162.021H320.256ZM377.686 162.021V174.098H384.33V179.002H377.686V190.762H371.832V162.021H377.686ZM377.686 193.029V209.113H346.889V193.029H377.686ZM352.69 197.67V204.367H371.885V197.67H352.69ZM368.405 166.609V171.303H340.139V166.609H351.371V161.705H357.225V166.609H368.405ZM354.272 173.043C361.18 173.043 365.873 176.523 365.926 181.586C365.873 186.701 361.18 190.129 354.272 190.129C347.311 190.129 342.565 186.701 342.565 181.586C342.565 176.523 347.311 173.043 354.272 173.043ZM354.272 177.473C350.633 177.473 348.26 179.002 348.26 181.586C348.26 184.223 350.633 185.752 354.272 185.752C357.91 185.752 360.336 184.223 360.336 181.586C360.336 179.002 357.91 177.473 354.272 177.473ZM397.436 167.611C397.383 178.844 396.118 189.707 389.789 199.094L385.202 196.615C390.475 189.206 392.004 181.48 392.373 172.357H386.573V167.611H397.436ZM408.088 167.611C408.062 171.698 407.983 175.943 407.561 180.162H412.36V163.182H417.897V207.426H412.36V184.908H406.928C405.873 190.814 403.949 196.562 400.442 201.73L395.959 199.199C401.681 190.999 402.788 181.823 403.026 172.357H398.86V167.611H408.088ZM427.125 162.021V209.693H421.483V162.021H427.125ZM468.602 162.021V181.006H475.932V185.857H468.602V209.693H462.801V162.021H468.602ZM459.11 169.352V174.045H431.002V169.352H442.288V162.707H448.141V169.352H459.11ZM445.241 177.156C452.096 177.156 457.211 181.797 457.211 188.389C457.211 194.98 452.096 199.568 445.241 199.568C438.28 199.568 433.165 194.98 433.217 188.389C433.165 181.797 438.28 177.156 445.241 177.156ZM445.241 181.955C441.497 181.955 438.807 184.486 438.807 188.389C438.807 192.291 441.497 194.77 445.241 194.717C448.879 194.77 451.569 192.291 451.622 188.389C451.569 184.486 448.879 181.955 445.241 181.955ZM515.458 175.521V180.162H482.446V163.762H488.247V175.521H515.458ZM520.362 185.699V190.34H476.803V185.699H520.362ZM515.774 203.84V208.586H482.024V194.559H487.878V203.84H515.774ZM551.266 166.82V205H544.358V173.518H544.147L535.235 179.213V172.938L544.675 166.82H551.266ZM573.337 205.527C565.163 205.527 559.362 201.098 559.204 194.664H566.112C566.323 197.723 569.382 199.727 573.337 199.727C577.555 199.727 580.561 197.406 580.561 194.031C580.561 190.604 577.608 188.125 572.651 188.125H569.223V182.852H572.651C576.712 182.852 579.559 180.584 579.507 177.262C579.559 174.045 577.134 171.883 573.389 171.883C569.804 171.883 566.692 173.887 566.587 177.104H559.995C560.153 170.67 565.954 166.293 573.442 166.293C581.194 166.293 586.204 171.039 586.151 176.893C586.204 181.164 583.356 184.275 579.19 185.119V185.436C584.569 186.174 587.628 189.602 587.575 194.4C587.628 200.834 581.616 205.527 573.337 205.527ZM630.739 162.021V209.693H624.833V162.021H630.739ZM616.501 167.084C616.501 181.27 611.016 193.346 594.3 201.256L591.241 196.562C603.713 190.63 609.514 182.562 610.542 171.725H593.667V167.084H616.501ZM689.013 162.074V189.602H683.423V162.074H689.013ZM679.521 162.971V189.074H673.983V178.211H668.868V186.438H650.095V165.502H668.868V173.359H673.983V162.971H679.521ZM655.632 170.037V182.061H663.437V170.037H655.632ZM689.013 191.605V209.113H656.897V191.605H689.013ZM662.646 196.193V204.367H683.212V196.193H662.646ZM733.812 162.021V209.746H728.011V183.906H718.308V198.197H695.632V165.713H701.538V177.578H712.56V165.713H718.308V179.107H728.011V162.021H733.812ZM701.538 193.504H712.56V182.166H701.538V193.504ZM782.935 183.643V188.072H739.376V183.643H782.935ZM777.661 190.92V201.783H750.345V205.105H779.085V209.166H744.491V197.986H771.861V195.033H744.439V190.92H777.661ZM777.556 163.076V173.834H750.714V176.945H778.4V180.953H744.913V170.037H771.702V167.137H744.755V163.076H777.556ZM235.141 275.041V279.787H191.582V275.041H210.25V264.02H216.051V275.041H235.141ZM216.209 244.402C216.209 251.627 223.434 258.746 233.453 260.328L230.922 265.18C222.854 263.65 216.262 259.036 213.098 252.787C209.934 259.01 203.395 263.703 195.379 265.18L192.848 260.328C202.814 258.746 209.934 251.574 209.986 244.402V240.922H216.209V244.402ZM278.094 238.021V285.693H272.451V261.225H267.336V283.479H261.852V239.287H267.336V256.479H272.451V238.021H278.094ZM257.791 244.033C257.791 256.9 253.731 267.975 240.178 275.727L236.803 271.666C246.954 265.786 251.252 258.245 252.096 248.727H239.018V244.033H257.791ZM320.361 238.021V249.781H327.006V254.633H320.361V265.865H314.508V238.021H320.361ZM295.365 267.764V271.877H314.508V267.764H320.361V285.113H289.565V267.764H295.365ZM295.365 280.473H314.508V276.412H295.365V280.473ZM311.08 242.451V247.145H282.815V242.451H294.047V237.652H299.901V242.451H311.08ZM296.947 248.779C303.856 248.779 308.549 252.102 308.602 257.164C308.549 262.227 303.856 265.549 296.947 265.549C289.986 265.549 285.24 262.227 285.24 257.164C285.24 252.102 289.986 248.779 296.947 248.779ZM296.947 253.104C293.309 253.104 290.936 254.633 290.936 257.164C290.936 259.748 293.309 261.225 296.947 261.225C300.586 261.225 303.012 259.748 303.012 257.164C303.012 254.633 300.586 253.104 296.947 253.104ZM368.114 238.021V285.693H362.313V238.021H368.114ZM336.895 242.662V268.713C343.592 268.607 350.711 268.001 358.041 266.551L358.78 271.455C350.395 273.195 342.59 273.723 335.207 273.723H331.094V242.662H336.895ZM411.278 238.021V256.109H418.608V260.908H411.278V285.746H405.424V238.021H411.278ZM398.2 242.557V247.303H381.746V269.188C389.156 269.188 395.009 268.818 401.575 267.658L402.26 272.615C394.877 273.881 388.444 274.092 379.848 274.092H375.893V242.557H398.2ZM429.34 242.82L428.76 269.768H422.801L422.168 242.82H429.34ZM425.807 281.422C423.539 281.422 421.694 279.576 421.694 277.309C421.694 275.094 423.539 273.248 425.807 273.248C427.969 273.248 429.868 275.094 429.868 277.309C429.868 279.576 427.969 281.422 425.807 281.422Z" fill="#FF7710"/>
</g>
<defs>
<linearGradient id="paint0_linear_1332_22827" x1="-213" y1="-256" x2="1476.2" y2="252.869" gradientUnits="userSpaceOnUse">
<stop stop-color="#F9EEE5"/>
<stop offset="1" stop-color="#FFF3E5"/>
</linearGradient>
<linearGradient id="paint1_linear_1332_22827" x1="684.677" y1="568.83" x2="494.993" y2="313.423" gradientUnits="userSpaceOnUse">
<stop stop-color="#FFAA69" stop-opacity="0.1"/>
<stop offset="1" stop-color="#FFAA69"/>
</linearGradient>
<linearGradient id="paint2_linear_1332_22827" x1="1459.52" y1="494.673" x2="109.17" y2="-86.6357" gradientUnits="userSpaceOnUse">
<stop stop-color="#FF7710" stop-opacity="0.6"/>
<stop offset="1" stop-color="#FF7710" stop-opacity="0.3"/>
</linearGradient>
<linearGradient id="paint3_linear_1332_22827" x1="1262" y1="159" x2="1262" y2="309" gradientUnits="userSpaceOnUse">
<stop stop-color="#FF7710"/>
<stop offset="1" stop-color="#FD903D"/>
</linearGradient>
<linearGradient id="paint4_linear_1332_22827" x1="1436" y1="159" x2="1436" y2="309" gradientUnits="userSpaceOnUse">
<stop stop-color="#FF7710"/>
<stop offset="1" stop-color="#FD903D"/>
</linearGradient>
<linearGradient id="paint5_linear_1332_22827" x1="29" y1="159" x2="29" y2="309" gradientUnits="userSpaceOnUse">
<stop stop-color="#FF7710"/>
<stop offset="1" stop-color="#FF8E38"/>
</linearGradient>
<clipPath id="clip0_1332_22827">
<rect width="1440" height="448" fill="white"/>
</clipPath>
</defs>
</svg>
