<svg width="334" height="221" viewBox="0 0 334 221" fill="none" xmlns="http://www.w3.org/2000/svg">
<g opacity="0.1">
<circle cx="169.79" cy="168.768" r="27.155" transform="rotate(-15 169.79 168.768)" fill="white" stroke="#FF7710" stroke-width="14"/>
<circle cx="132.207" cy="40.1231" r="10.3104" transform="rotate(-15 132.207 40.1231)" fill="white" stroke="#FF7710" stroke-width="14"/>
<path d="M208.987 113.557C200.386 84.2011 173.269 35.7101 133.001 46.4999C95.6728 56.5029 96.9705 111.364 106.339 141.703C107.058 144.031 106.093 146.526 104.027 147.818C97.5775 151.851 90.3321 158.418 93.972 172.002C96.4545 181.267 109.974 185.031 117.656 182.972L220.225 155.489C228.133 153.37 239.765 143.186 236.677 131.662C233.517 119.87 223.183 117.214 215.023 117.607C212.331 117.737 209.744 116.143 208.987 113.557Z" fill="white" stroke="#FF7710" stroke-width="14" stroke-linecap="round"/>
</g>
<path opacity="0.1" d="M44.183 87.996C36.7976 78.895 34.3177 66.0351 38.4062 53.5304C43.1577 38.9978 54.2223 29.6906 63.6311 28.514" stroke="#FF7710" stroke-width="14" stroke-linecap="round"/>
<path opacity="0.1" d="M18.4043 91.5268C9.71647 79.367 7.34196 61.6414 13.1226 43.9613C19.8406 23.4142 34.1264 9.70692 45.9014 7.42687" stroke="#FF7710" stroke-width="14" stroke-linecap="round"/>
<path opacity="0.1" d="M282.266 112.313C292.364 119.495 297.908 131.585 296.17 144.927C294.151 160.433 284.061 172.32 274 175.777" stroke="#FF7710" stroke-width="14" stroke-linecap="round"/>
<path opacity="0.1" d="M309.721 102.841C321.926 112.671 328.437 129.484 325.996 148.222C323.16 169.998 310.519 186.892 298.112 191.971" stroke="#FF7710" stroke-width="14" stroke-linecap="round"/>
</svg>
