<svg viewBox="0 0 1440 448" fill="none" xmlns="http://www.w3.org/2000/svg" preserveAspectRatio="xMidYMid slice">
<g clip-path="url(#clip0_853_39993)">
<rect width="1440" height="448" fill="url(#paint0_linear_853_39993)"/>
<path opacity="0.1" d="M809.525 -113.326C601.525 -17.3258 283.525 344.674 446.525 668.174" stroke="url(#paint1_linear_853_39993)" stroke-width="300" stroke-linecap="round"/>
<path opacity="0.2" d="M-23.4752 -74.327C108.025 259.173 822.025 551.673 1633.52 478.172" stroke="url(#paint2_linear_853_39993)" stroke-width="300" stroke-linecap="round"/>
<g opacity="0.5">
<circle cx="1262" cy="234" r="68" fill="white" stroke="url(#paint3_linear_853_39993)" stroke-width="14"/>
<path d="M1254.5 249.832L1252 187.332H1272.83L1269.5 249.832H1254.5Z" fill="#FF7710"/>
<circle cx="1262" cy="267.332" r="10" fill="#FF7710"/>
</g>
<g opacity="0.5">
<circle cx="1436" cy="234" r="68" fill="white" stroke="url(#paint4_linear_853_39993)" stroke-width="14"/>
<path d="M1425.74 249.747C1425.82 235.602 1429.64 231.261 1436.39 227.002C1441.33 223.867 1445.11 220.331 1445.11 215.026C1445.11 209.4 1440.69 205.703 1435.14 205.703C1429.88 205.703 1424.97 209.239 1424.69 215.87H1408.54C1408.86 199.916 1420.75 192.24 1435.26 192.24C1451.14 192.24 1462.35 200.478 1462.35 214.504C1462.35 223.867 1457.53 229.815 1450.01 234.316C1443.66 238.133 1440.81 241.831 1440.77 249.747V251.033H1425.74V249.747ZM1424.01 267.148C1423.93 261.924 1428.31 257.664 1433.57 257.664C1438.64 257.664 1443.06 261.924 1443.1 267.148C1443.06 272.413 1438.64 276.673 1433.57 276.673C1428.31 276.673 1423.93 272.413 1424.01 267.148Z" fill="#FF7710"/>
</g>
<g opacity="0.5">
<rect x="-39" y="166" width="136" height="136" rx="23.9278" fill="white" stroke="url(#paint5_linear_853_39993)" stroke-width="14"/>
<path d="M32.0938 199.845C32.0941 197.027 35.554 195.678 37.4619 197.751L69.5996 232.677C70.6887 233.86 70.6886 235.681 69.5996 236.865L37.4619 271.792C35.5539 273.865 32.0938 272.515 32.0938 269.697V254.876H-10.4326C-12.1406 254.876 -13.5252 253.491 -13.5254 251.783V217.763C-13.5254 216.055 -12.1407 214.67 -10.4326 214.67H32.0938V199.845Z" fill="#FF7710"/>
</g>
<path opacity="0.5" d="M1055.63 168.001C1055.7 164.535 1059.87 162.818 1062.36 165.226L1142.89 243.023C1145.23 245.291 1143.99 249.267 1140.77 249.798L1104.4 255.795L1121.13 296.37C1121.96 298.398 1121 300.719 1118.97 301.555L1111.63 304.583C1109.6 305.419 1107.28 304.453 1106.44 302.425L1089.71 261.833L1059.61 283.26C1056.95 285.153 1053.27 283.206 1053.33 279.942L1055.63 168.001Z" fill="#FF7710"/>
<path d="M231.47 195.185H225.615V179.429H216.03V188.137H193.655V166.451H216.03V174.655H225.615V163.039H231.47V195.185ZM197.16 205.851C200.193 205.378 202.885 204.521 205.234 203.278C207.596 202.022 209.423 200.543 210.716 198.84C212.021 197.124 212.68 195.372 212.693 193.581V192.09H218.715V193.581C218.703 195.459 219.331 197.255 220.599 198.97C221.867 200.673 223.682 202.134 226.044 203.352C228.405 204.57 231.159 205.403 234.304 205.851L231.992 210.438C228.213 209.866 224.906 208.735 222.072 207.044C219.238 205.354 217.099 203.271 215.657 200.798C214.675 202.426 213.383 203.899 211.779 205.217C210.188 206.522 208.329 207.622 206.204 208.517C204.078 209.412 201.766 210.052 199.267 210.438L197.16 205.851ZM210.269 183.438V171.224H199.472V183.438H210.269ZM254.199 174.488C254.187 177.334 254.64 180.125 255.56 182.86C256.48 185.582 257.816 188.025 259.569 190.188C261.322 192.338 263.398 193.992 265.797 195.148L262.236 199.847C259.712 198.579 257.524 196.758 255.672 194.383C253.82 192.009 252.372 189.262 251.327 186.142C250.246 189.473 248.729 192.407 246.778 194.943C244.839 197.466 242.539 199.399 239.879 200.742L236.261 196.006C238.747 194.837 240.898 193.128 242.713 190.878C244.54 188.615 245.932 186.061 246.89 183.214C247.847 180.355 248.332 177.446 248.344 174.488V166.861H254.199V174.488ZM268.631 163.039H274.505V181.722H281.852V186.701H274.505V210.662H268.631V163.039ZM297.011 165.966C299.435 165.966 301.629 166.457 303.593 167.439C305.557 168.421 307.105 169.789 308.236 171.541C309.367 173.282 309.939 175.258 309.951 177.471C309.939 179.385 309.51 181.126 308.665 182.692C307.819 184.258 306.645 185.557 305.14 186.589C303.636 187.621 301.921 188.317 299.994 188.677V195.707C304.457 195.496 308.354 195.166 311.685 194.719L312.096 199.064C308.317 199.747 304.37 200.22 300.255 200.481C296.14 200.742 291.87 200.872 287.445 200.872C286.364 200.872 284.89 200.86 283.026 200.835L282.187 196.061H282.597C287.656 196.037 291.504 195.993 294.139 195.931V188.715C292.15 188.367 290.391 187.677 288.862 186.645C287.333 185.613 286.146 184.308 285.301 182.729C284.468 181.151 284.058 179.398 284.07 177.471C284.058 175.246 284.605 173.263 285.711 171.523C286.817 169.782 288.352 168.421 290.317 167.439C292.293 166.457 294.524 165.966 297.011 165.966ZM289.776 177.471C289.776 178.776 290.08 179.926 290.69 180.921C291.311 181.903 292.169 182.661 293.263 183.195C294.369 183.73 295.618 183.991 297.011 183.979C298.366 183.991 299.584 183.73 300.665 183.195C301.759 182.661 302.617 181.903 303.239 180.921C303.86 179.926 304.177 178.776 304.19 177.471C304.177 176.153 303.86 175.003 303.239 174.021C302.617 173.039 301.765 172.287 300.684 171.765C299.602 171.231 298.378 170.957 297.011 170.945C295.618 170.957 294.369 171.231 293.263 171.765C292.169 172.287 291.311 173.039 290.69 174.021C290.08 175.003 289.776 176.153 289.776 177.471ZM314.389 163.039H320.244V182.058H327.143V186.999H320.244V210.662H314.389V163.039ZM377.699 175.084H384.356V180.026H377.699V191.754H371.807V163.039H377.699V175.084ZM340.126 167.607H351.37V162.722H357.207V167.607H368.413V172.287H340.126V167.607ZM342.588 182.58C342.588 180.902 343.073 179.416 344.042 178.124C345.024 176.831 346.404 175.83 348.182 175.122C349.959 174.401 351.998 174.04 354.298 174.04C356.56 174.04 358.568 174.401 360.321 175.122C362.086 175.83 363.459 176.831 364.441 178.124C365.423 179.416 365.914 180.902 365.914 182.58C365.914 184.271 365.423 185.769 364.441 187.074C363.459 188.367 362.086 189.367 360.321 190.076C358.568 190.785 356.56 191.139 354.298 191.139C351.986 191.139 349.941 190.785 348.163 190.076C346.398 189.367 345.024 188.367 344.042 187.074C343.073 185.769 342.588 184.271 342.588 182.58ZM346.914 194.048H377.699V210.102H346.914V194.048ZM348.275 182.58C348.262 183.45 348.505 184.202 349.002 184.836C349.499 185.458 350.202 185.936 351.109 186.272C352.017 186.595 353.079 186.763 354.298 186.776C355.504 186.763 356.56 186.595 357.468 186.272C358.375 185.936 359.077 185.458 359.575 184.836C360.084 184.202 360.345 183.45 360.358 182.58C360.345 181.735 360.084 181.008 359.575 180.398C359.077 179.777 358.369 179.305 357.449 178.981C356.542 178.646 355.491 178.478 354.298 178.478C353.092 178.478 352.029 178.646 351.109 178.981C350.202 179.305 349.499 179.777 349.002 180.398C348.505 181.008 348.262 181.735 348.275 182.58ZM371.9 205.366V198.672H352.694V205.366H371.9ZM397.426 168.595C397.414 172.785 397.196 176.651 396.774 180.193C396.363 183.724 395.599 187.18 394.48 190.561C393.374 193.942 391.814 197.118 389.8 200.089L385.213 197.609C386.904 195.222 388.252 192.755 389.259 190.206C390.266 187.646 391 185.01 391.459 182.3C391.932 179.578 392.23 176.595 392.355 173.35H386.574V168.595H397.426ZM395.972 200.182C397.787 197.597 399.198 194.862 400.205 191.978C401.212 189.081 401.914 186.148 402.312 183.177C402.709 180.193 402.946 176.918 403.02 173.35H398.862V168.595H408.073C408.061 170.982 408.017 173.195 407.943 175.233C407.868 177.26 407.732 179.242 407.533 181.182H412.362V164.195H417.881V208.443H412.362V185.918H406.88C406.346 189.05 405.562 192.021 404.531 194.831C403.499 197.628 402.144 200.257 400.466 202.718L395.972 200.182ZM421.48 163.039H427.111V210.662H421.48V163.039ZM468.599 182.021H475.946V186.85H468.599V210.662H462.8V163.039H468.599V182.021ZM431.008 170.329H442.27V163.71H448.125V170.329H459.127V175.066H431.008V170.329ZM433.208 189.367C433.196 187.204 433.705 185.271 434.737 183.568C435.769 181.865 437.199 180.535 439.026 179.578C440.866 178.621 442.935 178.142 445.235 178.142C447.498 178.142 449.536 178.621 451.351 179.578C453.179 180.535 454.608 181.865 455.64 183.568C456.684 185.271 457.212 187.204 457.225 189.367C457.212 191.53 456.684 193.463 455.64 195.166C454.608 196.869 453.179 198.2 451.351 199.157C449.536 200.102 447.498 200.574 445.235 200.574C442.935 200.574 440.866 200.102 439.026 199.157C437.199 198.2 435.769 196.869 434.737 195.166C433.705 193.463 433.196 191.53 433.208 189.367ZM438.821 189.367C438.808 190.648 439.076 191.773 439.623 192.742C440.17 193.712 440.928 194.458 441.897 194.98C442.88 195.49 443.992 195.738 445.235 195.726C446.453 195.738 447.541 195.49 448.498 194.98C449.468 194.458 450.226 193.712 450.773 192.742C451.32 191.773 451.6 190.648 451.612 189.367C451.6 188.099 451.32 186.981 450.773 186.011C450.226 185.041 449.468 184.289 448.498 183.755C447.541 183.22 446.453 182.953 445.235 182.953C444.005 182.953 442.898 183.22 441.916 183.755C440.934 184.289 440.17 185.041 439.623 186.011C439.076 186.981 438.808 188.099 438.821 189.367ZM515.476 181.144H482.434V164.754H488.271V176.501H515.476V181.144ZM476.803 186.701H520.38V191.325H476.803V186.701ZM482.043 195.539H487.898V204.825H515.774V209.58H482.043V195.539ZM551.263 206H544.364V174.506H544.14L535.209 180.212V173.928L544.681 167.812H551.263V206ZM573.346 206.522C570.661 206.522 568.256 206.062 566.13 205.142C564.004 204.222 562.333 202.942 561.114 201.301C559.896 199.648 559.256 197.758 559.194 195.633H566.13C566.18 196.64 566.522 197.535 567.156 198.318C567.802 199.088 568.66 199.685 569.729 200.108C570.81 200.53 572.01 200.742 573.328 200.742C574.72 200.742 575.963 200.506 577.057 200.033C578.163 199.548 579.021 198.877 579.63 198.019C580.252 197.149 580.563 196.161 580.563 195.055C580.575 193.898 580.264 192.879 579.63 191.997C578.996 191.102 578.076 190.405 576.871 189.908C575.677 189.398 574.266 189.144 572.638 189.144H569.244V183.848H572.638C573.98 183.848 575.174 183.618 576.218 183.158C577.262 182.686 578.076 182.027 578.661 181.182C579.245 180.324 579.537 179.348 579.537 178.254C579.537 177.198 579.282 176.265 578.772 175.457C578.275 174.637 577.56 174.003 576.628 173.555C575.708 173.108 574.639 172.884 573.421 172.884C572.215 172.884 571.096 173.102 570.065 173.537C569.033 173.959 568.2 174.568 567.566 175.364C566.944 176.147 566.615 177.055 566.578 178.086H559.996C560.045 175.998 560.667 174.133 561.86 172.492C563.054 170.852 564.663 169.577 566.69 168.67C568.716 167.75 570.972 167.29 573.458 167.29C575.969 167.29 578.188 167.762 580.115 168.707C582.054 169.64 583.546 170.914 584.59 172.53C585.647 174.133 586.169 175.911 586.156 177.863C586.169 179.28 585.883 180.56 585.299 181.704C584.727 182.847 583.913 183.798 582.856 184.557C581.799 185.302 580.569 185.825 579.164 186.123V186.421C580.942 186.657 582.464 187.18 583.732 187.988C585 188.796 585.964 189.834 586.623 191.102C587.281 192.369 587.605 193.805 587.592 195.409C587.605 197.522 586.996 199.424 585.765 201.115C584.547 202.805 582.85 204.129 580.674 205.086C578.511 206.044 576.069 206.522 573.346 206.522ZM630.719 210.662H624.808V163.039H630.719V210.662ZM591.245 197.553C595.372 195.589 598.796 193.383 601.519 190.934C604.254 188.472 606.354 185.744 607.821 182.748C609.288 179.74 610.196 176.402 610.544 172.735H593.669V168.092H616.51C616.498 173.052 615.777 177.614 614.347 181.778C612.93 185.93 610.581 189.74 607.299 193.209C604.03 196.677 599.704 199.691 594.321 202.252L591.245 197.553ZM689.032 190.579H683.4V163.076H689.032V190.579ZM650.098 166.507H668.894V174.376H673.965V163.952H679.503V190.057H673.965V179.224H668.894V187.465H650.098V166.507ZM663.411 183.084V171.019H655.617V183.084H663.411ZM656.904 192.631H689.032V210.102H656.904V192.631ZM683.214 205.366V197.199H662.647V205.366H683.214ZM733.801 210.773H727.983V184.911H718.287V199.213H695.651V166.731H701.524V178.571H712.563V166.731H718.287V180.137H727.983V163.039H733.801V210.773ZM712.563 194.477V183.177H701.524V194.477H712.563ZM782.953 189.05H739.376V184.65H782.953V189.05ZM744.448 191.903H777.657V202.774H750.34V206.093H779.111V210.158H744.504V198.97H771.839V196.043H744.448V191.903ZM744.783 164.102H777.564V174.842H750.713V177.919H778.384V181.965H744.895V171.038H771.709V168.129H744.783V164.102ZM235.162 280.788H191.585V276.052H210.231V264.994H216.049V276.052H235.162V280.788ZM192.834 261.321C196.091 260.799 199.019 259.736 201.617 258.133C204.227 256.529 206.272 254.602 207.751 252.352C209.231 250.102 209.977 247.79 209.989 245.416V241.929H216.217V245.416C216.217 247.79 216.956 250.102 218.436 252.352C219.915 254.602 221.972 256.529 224.608 258.133C227.243 259.736 230.195 260.799 233.465 261.321L230.929 266.206C228.269 265.697 225.776 264.864 223.452 263.708C221.14 262.539 219.101 261.116 217.336 259.438C215.57 257.747 214.16 255.87 213.103 253.807C212.059 255.87 210.66 257.747 208.907 259.438C207.155 261.128 205.122 262.558 202.81 263.727C200.498 264.883 198.018 265.709 195.37 266.206L192.834 261.321ZM278.104 286.662H272.454V262.216H267.326V284.461H261.863V240.307H267.326V257.461H272.454V239.039H278.104V286.662ZM236.802 272.64C241.725 269.818 245.392 266.53 247.803 262.776C250.227 259.021 251.657 254.683 252.092 249.76H239.002V245.006H257.816C257.804 249.555 257.245 253.732 256.138 257.536C255.044 261.34 253.198 264.864 250.6 268.108C248.015 271.353 244.546 274.224 240.196 276.723L236.802 272.64ZM320.375 250.767H327.031V255.653H320.375V266.859H314.482V239.039H320.375V250.767ZM282.802 243.477H294.046V238.666H299.882V243.477H311.089V248.138H282.802V243.477ZM285.263 258.151C285.263 256.485 285.748 255.019 286.718 253.751C287.7 252.483 289.073 251.501 290.839 250.805C292.616 250.108 294.661 249.76 296.973 249.76C299.248 249.76 301.262 250.115 303.015 250.823C304.768 251.519 306.135 252.501 307.117 253.769C308.099 255.025 308.59 256.485 308.59 258.151C308.59 259.829 308.099 261.309 307.117 262.589C306.135 263.857 304.768 264.839 303.015 265.535C301.262 266.219 299.248 266.555 296.973 266.542C294.661 266.555 292.616 266.219 290.839 265.535C289.073 264.839 287.7 263.857 286.718 262.589C285.748 261.309 285.263 259.829 285.263 258.151ZM289.552 268.761H295.37V272.882H314.482V268.761H320.375V286.102H289.552V268.761ZM290.951 258.151C290.938 258.997 291.181 259.73 291.678 260.352C292.175 260.961 292.877 261.427 293.785 261.75C294.692 262.073 295.755 262.235 296.973 262.235C298.179 262.235 299.236 262.073 300.143 261.75C301.051 261.427 301.753 260.961 302.25 260.352C302.76 259.73 303.021 258.997 303.033 258.151C303.021 257.331 302.76 256.616 302.25 256.007C301.741 255.385 301.032 254.913 300.125 254.59C299.217 254.267 298.167 254.111 296.973 254.124C295.768 254.111 294.705 254.267 293.785 254.59C292.877 254.913 292.175 255.385 291.678 256.007C291.181 256.616 290.938 257.331 290.951 258.151ZM314.482 281.459V277.432H295.37V281.459H314.482ZM368.146 286.662H362.31V239.039H368.146V286.662ZM331.096 243.644H336.895V269.712C344.192 269.625 351.234 268.91 358.021 267.568L358.767 272.453C354.789 273.273 350.861 273.864 346.982 274.224C343.104 274.573 339.17 274.747 335.179 274.747H331.096V243.644ZM411.275 257.107H418.621V261.918H411.275V286.773H405.401V239.039H411.275V257.107ZM375.902 243.532H398.204V248.287H381.739V270.215C385.704 270.191 389.222 270.066 392.293 269.843C395.363 269.606 398.465 269.209 401.597 268.649L402.269 273.59C398.9 274.175 395.574 274.573 392.293 274.784C389.023 274.983 385.176 275.082 380.751 275.082H379.818H375.902V243.532ZM428.765 270.794H422.798L422.182 243.812H429.361L428.765 270.794ZM421.698 278.327C421.685 277.593 421.859 276.916 422.22 276.294C422.593 275.673 423.09 275.182 423.711 274.821C424.345 274.461 425.035 274.28 425.781 274.28C426.502 274.28 427.173 274.461 427.795 274.821C428.429 275.182 428.932 275.673 429.305 276.294C429.678 276.916 429.865 277.593 429.865 278.327C429.865 279.06 429.678 279.744 429.305 280.378C428.932 280.999 428.429 281.497 427.795 281.869C427.173 282.23 426.502 282.41 425.781 282.41C425.035 282.41 424.345 282.23 423.711 281.869C423.09 281.497 422.593 280.999 422.22 280.378C421.859 279.744 421.685 279.06 421.698 278.327Z" fill="#FF7710"/>
</g>
<defs>
<linearGradient id="paint0_linear_853_39993" x1="-213" y1="-256" x2="1476.2" y2="252.869" gradientUnits="userSpaceOnUse">
<stop stop-color="#F9EEE5"/>
<stop offset="1" stop-color="#FFF3E5"/>
</linearGradient>
<linearGradient id="paint1_linear_853_39993" x1="684.677" y1="568.827" x2="494.993" y2="313.42" gradientUnits="userSpaceOnUse">
<stop stop-color="#FFAA69" stop-opacity="0.1"/>
<stop offset="1" stop-color="#FFAA69"/>
</linearGradient>
<linearGradient id="paint2_linear_853_39993" x1="1459.52" y1="494.673" x2="109.17" y2="-86.6357" gradientUnits="userSpaceOnUse">
<stop stop-color="#FF7710" stop-opacity="0.6"/>
<stop offset="1" stop-color="#FF7710" stop-opacity="0.3"/>
</linearGradient>
<linearGradient id="paint3_linear_853_39993" x1="1262" y1="159" x2="1262" y2="309" gradientUnits="userSpaceOnUse">
<stop stop-color="#FF7710"/>
<stop offset="1" stop-color="#FD903D"/>
</linearGradient>
<linearGradient id="paint4_linear_853_39993" x1="1436" y1="159" x2="1436" y2="309" gradientUnits="userSpaceOnUse">
<stop stop-color="#FF7710"/>
<stop offset="1" stop-color="#FD903D"/>
</linearGradient>
<linearGradient id="paint5_linear_853_39993" x1="29" y1="159" x2="29" y2="309" gradientUnits="userSpaceOnUse">
<stop stop-color="#FF7710"/>
<stop offset="1" stop-color="#FF8E38"/>
</linearGradient>
<clipPath id="clip0_853_39993">
<rect width="1440" height="448" fill="white"/>
</clipPath>
</defs>
</svg>
