<svg viewBox="0 0 878 1248" fill="none" xmlns="http://www.w3.org/2000/svg">
    <path d="M31.8315 174.507C33.0691 174.507 34.1842 174.749 35.1768 175.232C36.1694 175.709 36.9494 176.373 37.5166 177.224C38.0838 178.068 38.3674 179.025 38.3674 180.095C38.3674 181.165 38.0838 182.122 37.5166 182.967C36.9494 183.811 36.1694 184.472 35.1768 184.949C34.1842 185.426 33.0691 185.664 31.8315 185.664C30.581 185.664 29.4563 185.426 28.4572 184.949C27.4581 184.472 26.675 183.811 26.1077 182.967C25.547 182.122 25.2666 181.165 25.2666 180.095C25.2666 179.025 25.547 178.068 26.1077 177.224C26.675 176.373 27.4581 175.709 28.4572 175.232C29.4627 174.749 30.5875 174.507 31.8315 174.507ZM28.2251 180.095C28.2187 180.721 28.3702 181.268 28.6796 181.739C28.989 182.203 29.4176 182.564 29.9655 182.822C30.5134 183.073 31.1354 183.199 31.8315 183.199C32.5212 183.199 33.1367 183.073 33.6782 182.822C34.2261 182.564 34.6515 182.203 34.9544 181.739C35.2638 181.268 35.4185 180.721 35.4185 180.095C35.4185 179.477 35.2638 178.935 34.9544 178.471C34.645 178.007 34.2196 177.649 33.6782 177.398C33.1367 177.146 32.5212 177.021 31.8315 177.021C31.1354 177.021 30.5134 177.146 29.9655 177.398C29.4176 177.649 28.989 178.007 28.6796 178.471C28.3702 178.935 28.2187 179.477 28.2251 180.095ZM28.989 187.279H45.3964V193.738H32.0249V195.72H46.1409V198.127H29.0663V191.494H42.3702V189.648H28.989V187.279ZM42.3508 173.724H45.3964V186.196H42.3508V173.724Z" fill="#FF7710"/>
    <path d="M180.551 188.14H177.496V187.153H172.865V185.287H177.496V173.743H180.551V188.14ZM160.876 182.648C163.712 182.648 166.361 182.609 168.823 182.532C171.292 182.454 173.635 182.306 175.852 182.087L176.017 184.001C174.051 184.272 171.762 184.478 169.152 184.62V188.188H166.135V184.736C164.878 184.768 163.428 184.785 161.785 184.785H160.122L159.783 182.648H160.876ZM161.552 177.843C161.552 177.101 161.807 176.45 162.316 175.89C162.832 175.329 163.56 174.897 164.501 174.594C165.442 174.285 166.532 174.13 167.769 174.13C168.988 174.13 170.064 174.285 170.999 174.594C171.933 174.897 172.658 175.329 173.174 175.89C173.696 176.45 173.96 177.101 173.967 177.843C173.96 178.597 173.696 179.254 173.174 179.815C172.658 180.369 171.933 180.795 170.999 181.091C170.07 181.388 168.994 181.536 167.769 181.536C166.525 181.536 165.433 181.388 164.492 181.091C163.557 180.795 162.832 180.369 162.316 179.815C161.807 179.254 161.552 178.597 161.552 177.843ZM163.409 188.923H180.551V194.472H166.493V196.058H181.209V198.214H163.506V192.481H177.525V191.001H163.409V188.923ZM164.424 177.843C164.418 178.184 164.55 178.484 164.82 178.742C165.091 178.993 165.478 179.186 165.981 179.322C166.49 179.457 167.086 179.525 167.769 179.525C168.446 179.525 169.036 179.457 169.539 179.322C170.041 179.186 170.428 178.993 170.699 178.742C170.976 178.484 171.115 178.184 171.115 177.843C171.115 177.501 170.976 177.201 170.699 176.943C170.428 176.686 170.041 176.489 169.539 176.354C169.036 176.212 168.446 176.141 167.769 176.141C167.086 176.141 166.49 176.212 165.981 176.354C165.478 176.489 165.091 176.686 164.82 176.943C164.55 177.201 164.418 177.501 164.424 177.843Z" fill="black"/>
    <path d="M314.372 183.924H317.833V186.448H314.372V198.417H311.316V173.724H314.372V183.924ZM294.522 191.581C296.971 191.581 299.079 191.559 300.845 191.514V189.193C299.949 189.045 299.166 188.765 298.496 188.352C297.826 187.94 297.307 187.424 296.939 186.805C296.578 186.186 296.398 185.494 296.398 184.727C296.398 183.811 296.649 183.006 297.152 182.309C297.655 181.607 298.36 181.062 299.269 180.675C300.178 180.289 301.219 180.095 302.392 180.095C303.552 180.095 304.587 180.289 305.496 180.675C306.405 181.062 307.114 181.607 307.623 182.309C308.139 183.012 308.4 183.818 308.406 184.727C308.4 185.494 308.209 186.19 307.836 186.815C307.462 187.434 306.936 187.949 306.26 188.362C305.583 188.774 304.797 189.055 303.901 189.203V191.398C306.157 191.282 308.187 191.098 309.992 190.847L310.195 193.08C307.849 193.506 305.444 193.779 302.982 193.902C300.526 194.024 297.851 194.086 294.957 194.086L294.522 191.581ZM294.986 176.566H300.845V173.82H303.901V176.566H309.721V178.974H294.986V176.566ZM299.279 184.727C299.279 185.197 299.405 185.603 299.656 185.945C299.914 186.286 300.278 186.547 300.749 186.728C301.219 186.902 301.767 186.989 302.392 186.989C303.005 186.989 303.543 186.902 304.007 186.728C304.477 186.547 304.842 186.286 305.099 185.945C305.357 185.603 305.486 185.197 305.486 184.727C305.486 184.256 305.357 183.847 305.099 183.499C304.842 183.151 304.477 182.886 304.007 182.706C303.543 182.519 303.005 182.425 302.392 182.425C301.767 182.425 301.219 182.519 300.749 182.706C300.278 182.886 299.914 183.151 299.656 183.499C299.405 183.847 299.279 184.256 299.279 184.727Z" fill="black"/>
    <path d="M442.691 175.773C442.691 176.811 443.058 177.823 443.793 178.809C444.528 179.789 445.559 180.63 446.887 181.333C448.221 182.029 449.739 182.487 451.441 182.706L450.242 185.162C448.856 184.955 447.57 184.601 446.384 184.098C445.198 183.589 444.154 182.96 443.251 182.213C442.355 181.459 441.64 180.617 441.105 179.689C440.564 180.617 439.842 181.459 438.939 182.213C438.043 182.96 437.006 183.589 435.826 184.098C434.646 184.601 433.37 184.955 431.997 185.162L430.789 182.706C432.484 182.487 433.992 182.029 435.314 181.333C436.641 180.63 437.669 179.789 438.398 178.809C439.133 177.83 439.5 176.818 439.5 175.773V174.507H442.691V175.773ZM429.822 187.308H452.34V189.812H442.526V198.417H439.519V189.812H429.822V187.308Z" fill="black"/>
    <path d="M584.478 183.305H577.584V185.916H587.34V188.372H564.822V185.916H574.539V183.305H567.655V174.72H584.478V183.305ZM567.316 190.45H584.594V198.417H581.539V192.848H567.316V190.45ZM581.481 180.898V177.108H570.623V180.898H581.481Z" fill="black"/>
    <path d="M719.652 176.837C719.652 177.714 719.642 178.474 719.623 179.119C719.604 179.757 719.549 180.482 719.459 181.294C719.368 182.1 719.227 182.954 719.033 183.856H722.417V186.312H699.822V183.856H715.968C716.233 182.664 716.403 181.575 716.481 180.588C716.564 179.596 716.61 178.519 716.616 177.359H702.616V174.913H719.652V176.837ZM702.539 189.193H719.613V198.127H702.539V189.193ZM716.597 195.671V191.572H705.517V195.671H716.597Z" fill="black"/>
    <path d="M854.913 188.604H847.613V193.09H857.417V195.546H834.822V193.09H844.558V188.604H837.577V175.541H854.691V177.997H840.662V180.811H854.13V183.209H840.662V186.167H854.913V188.604Z" fill="#FF7710"/>
    <path d="M30.8633 438V436.125L36.7461 430.195C38.5977 428.25 39.5352 427.172 39.5352 425.695C39.5352 424.031 38.1758 422.953 36.3945 422.953C34.5195 422.953 33.3008 424.148 33.3008 425.953H30.8633C30.8398 422.859 33.207 420.797 36.4414 420.797C39.7227 420.797 41.9727 422.859 41.9961 425.625C41.9727 427.523 41.082 429.023 37.8945 432.164L34.4492 435.656V435.797H42.2773V438H30.8633Z" fill="#FF7710"/>
    <path d="M171.535 438.234C168.02 438.234 165.512 436.336 165.418 433.57H168.043C168.137 435.07 169.613 436.008 171.512 436.008C173.551 436.008 175.051 434.883 175.051 433.242C175.051 431.578 173.645 430.359 171.23 430.359H169.777V428.25H171.23C173.152 428.25 174.512 427.172 174.512 425.555C174.512 424.008 173.363 422.953 171.559 422.953C169.848 422.953 168.348 423.891 168.277 425.438H165.793C165.863 422.672 168.418 420.797 171.582 420.797C174.91 420.797 177.02 422.906 176.996 425.414C177.02 427.336 175.824 428.742 173.996 429.188V429.305C176.316 429.633 177.652 431.18 177.652 433.336C177.652 436.172 175.051 438.234 171.535 438.234Z" fill="black"/>
    <path d="M299.508 434.695V432.609L307.008 421.031H310.195V432.516H312.516V434.695H310.195V438H307.758V434.695H299.508ZM302.227 432.516H307.758V424.102H307.57L302.227 432.375V432.516Z" fill="black"/>
    <path d="M441.488 438.234C438.277 438.234 435.863 436.266 435.746 433.57H438.254C438.395 435.023 439.777 436.078 441.488 436.078C443.551 436.078 445.027 434.578 445.027 432.562C445.027 430.5 443.504 429 441.371 428.977C440.012 428.977 438.98 429.422 438.395 430.477H435.957L437.059 421.031H446.668V423.234H439.191L438.629 427.992H438.793C439.496 427.312 440.691 426.844 441.98 426.844C445.168 426.844 447.535 429.211 447.535 432.492C447.535 435.844 445.027 438.234 441.488 438.234Z" fill="black"/>
    <path d="M576.664 438.234C573.523 438.211 570.242 436.359 570.242 430.078C570.242 424.172 572.797 420.797 576.875 420.797C579.992 420.797 582.172 422.742 582.57 425.438H580.016C579.688 424.055 578.586 423.047 576.875 423.047C574.25 423.047 572.727 425.344 572.727 429.164H572.914C573.828 427.734 575.422 426.867 577.273 426.867C580.297 426.867 582.734 429.188 582.734 432.445C582.734 435.727 580.32 438.258 576.664 438.234ZM576.641 436.078C578.703 436.078 580.227 434.484 580.227 432.492C580.227 430.547 578.75 428.977 576.711 428.977C574.625 428.977 573.055 430.617 573.031 432.516C573.055 434.391 574.555 436.078 576.641 436.078Z" fill="black"/>
    <path d="M706.371 438L713.941 423.375V423.234H705.199V421.031H716.613V423.328L709.066 438H706.371Z" fill="black"/>
    <path d="M846.512 438.234C842.832 438.234 840.254 436.242 840.277 433.477C840.254 431.297 841.824 429.516 843.816 429.211V429.117C842.082 428.719 840.91 427.172 840.91 425.32C840.91 422.719 843.277 420.797 846.512 420.797C849.723 420.797 852.066 422.719 852.09 425.32C852.066 427.172 850.895 428.719 849.184 429.117V429.211C851.152 429.516 852.723 431.297 852.746 433.477C852.723 436.242 850.145 438.234 846.512 438.234ZM846.512 436.102C848.715 436.102 850.121 434.953 850.121 433.289C850.121 431.531 848.598 430.266 846.512 430.266C844.402 430.266 842.855 431.531 842.902 433.289C842.855 434.953 844.262 436.102 846.512 436.102ZM846.512 428.227C848.293 428.227 849.559 427.148 849.559 425.555C849.559 423.984 848.316 422.906 846.512 422.906C844.637 422.906 843.418 423.961 843.418 425.555C843.418 427.148 844.707 428.227 846.512 428.227Z" fill="#FF7710"/>
    <path d="M36.3594 576.797C39.4766 576.82 42.7578 578.695 42.7578 584.906C42.7578 590.859 40.2031 594.234 36.125 594.234C33.0078 594.234 30.8047 592.312 30.4062 589.547H32.9609C33.3125 590.977 34.4141 591.984 36.125 591.984C38.75 591.984 40.2734 589.688 40.2969 585.82H40.0859C39.1719 587.25 37.5781 588.117 35.75 588.117C32.7031 588.117 30.2656 585.797 30.2656 582.539C30.2656 579.305 32.6797 576.773 36.3594 576.797ZM36.3594 578.953C34.2969 578.953 32.7734 580.547 32.7734 582.492C32.7734 584.461 34.25 586.008 36.3125 586.008C38.3516 586.008 39.9453 584.344 39.9453 582.469C39.9453 580.641 38.4453 578.953 36.3594 578.953Z" fill="#FF7710"/>
    <path d="M166.4 577.031V594H163.799V579.609H163.705L159.65 582.258V579.797L163.869 577.031H166.4ZM176.139 594.234C172.201 594.234 169.905 591.07 169.905 585.516C169.905 580.008 172.248 576.797 176.139 576.797C180.03 576.797 182.373 580.008 182.373 585.516C182.373 591.07 180.053 594.234 176.139 594.234ZM176.139 592.008C178.436 592.008 179.795 589.758 179.795 585.516C179.795 581.297 178.412 578.977 176.139 578.977C173.865 578.977 172.483 581.297 172.483 585.516C172.483 589.758 173.842 592.008 176.139 592.008Z" fill="black"/>
    <path d="M303.427 577.031V594H300.826V579.609H300.732L296.677 582.258V579.797L300.896 577.031H303.427ZM313.705 577.031V594H311.104V579.609H311.01L306.955 582.258V579.797L311.174 577.031H313.705Z" fill="black"/>
    <path d="M437.17 577.031V594H434.568V579.609H434.474L430.42 582.258V579.797L434.638 577.031H437.17ZM441.002 594V592.125L446.885 586.195C448.737 584.25 449.674 583.172 449.674 581.695C449.674 580.031 448.315 578.953 446.533 578.953C444.658 578.953 443.44 580.148 443.44 581.953H441.002C440.979 578.859 443.346 576.797 446.58 576.797C449.862 576.797 452.112 578.859 452.135 581.625C452.112 583.523 451.221 585.023 448.033 588.164L444.588 591.656V591.797H452.416V594H441.002Z" fill="black"/>
    <path d="M571.318 577.031V594H568.717V579.609H568.623L564.568 582.258V579.797L568.787 577.031H571.318ZM581.174 594.234C577.658 594.234 575.151 592.336 575.057 589.57H577.682C577.776 591.07 579.252 592.008 581.151 592.008C583.19 592.008 584.69 590.883 584.69 589.242C584.69 587.578 583.283 586.359 580.869 586.359H579.416V584.25H580.869C582.791 584.25 584.151 583.172 584.151 581.555C584.151 580.008 583.002 578.953 581.198 578.953C579.487 578.953 577.987 579.891 577.916 581.438H575.432C575.502 578.672 578.057 576.797 581.221 576.797C584.549 576.797 586.658 578.906 586.635 581.414C586.658 583.336 585.463 584.742 583.635 585.188V585.305C585.955 585.633 587.291 587.18 587.291 589.336C587.291 592.172 584.69 594.234 581.174 594.234Z" fill="black"/>
    <path d="M706.189 577.031V594H703.588V579.609H703.494L699.439 582.258V579.797L703.658 577.031H706.189ZM709.647 590.695V588.609L717.147 577.031H720.334V588.516H722.655V590.695H720.334V594H717.897V590.695H709.647ZM712.365 588.516H717.897V580.102H717.709L712.365 588.375V588.516Z" fill="black"/>
    <path d="M842.029 577.031V594H839.427V579.609H839.334L835.279 582.258V579.797L839.498 577.031H842.029ZM851.627 594.234C848.416 594.234 846.002 592.266 845.885 589.57H848.393C848.533 591.023 849.916 592.078 851.627 592.078C853.69 592.078 855.166 590.578 855.166 588.562C855.166 586.5 853.643 585 851.51 584.977C850.151 584.977 849.119 585.422 848.533 586.477H846.096L847.198 577.031H856.807V579.234H849.33L848.768 583.992H848.932C849.635 583.312 850.83 582.844 852.119 582.844C855.307 582.844 857.674 585.211 857.674 588.492C857.674 591.844 855.166 594.234 851.627 594.234Z" fill="#FF7710"/>
    <path d="M31.3298 733.031V750H28.7283V735.609H28.6345L24.5798 738.258V735.797L28.7986 733.031H31.3298ZM41.303 750.234C38.1623 750.211 34.8811 748.359 34.8811 742.078C34.8811 736.172 37.4358 732.797 41.5139 732.797C44.6311 732.797 46.8108 734.742 47.2092 737.438H44.6545C44.3264 736.055 43.2248 735.047 41.5139 735.047C38.8889 735.047 37.3655 737.344 37.3655 741.164H37.553C38.467 739.734 40.0608 738.867 41.9123 738.867C44.9358 738.867 47.3733 741.188 47.3733 744.445C47.3733 747.727 44.9592 750.258 41.303 750.234ZM41.2795 748.078C43.342 748.078 44.8655 746.484 44.8655 744.492C44.8655 742.547 43.3889 740.977 41.3498 740.977C39.2639 740.977 37.6936 742.617 37.6702 744.516C37.6936 746.391 39.1936 748.078 41.2795 748.078Z" fill="#FF7710"/>
    <path d="M167.092 733.031V750H164.49V735.609H164.396L160.342 738.258V735.797L164.56 733.031H167.092ZM171.51 750L179.08 735.375V735.234H170.338V733.031H181.752V735.328L174.205 750H171.51Z" fill="black"/>
    <path d="M301.388 733.031V750H298.787V735.609H298.693L294.638 738.258V735.797L298.857 733.031H301.388ZM311.151 750.234C307.471 750.234 304.893 748.242 304.916 745.477C304.893 743.297 306.463 741.516 308.455 741.211V741.117C306.721 740.719 305.549 739.172 305.549 737.32C305.549 734.719 307.916 732.797 311.151 732.797C314.362 732.797 316.705 734.719 316.729 737.32C316.705 739.172 315.533 740.719 313.823 741.117V741.211C315.791 741.516 317.362 743.297 317.385 745.477C317.362 748.242 314.783 750.234 311.151 750.234ZM311.151 748.102C313.354 748.102 314.76 746.953 314.76 745.289C314.76 743.531 313.237 742.266 311.151 742.266C309.041 742.266 307.494 743.531 307.541 745.289C307.494 746.953 308.901 748.102 311.151 748.102ZM311.151 740.227C312.932 740.227 314.198 739.148 314.198 737.555C314.198 735.984 312.955 734.906 311.151 734.906C309.276 734.906 308.057 735.961 308.057 737.555C308.057 739.148 309.346 740.227 311.151 740.227Z" fill="black"/>
    <path d="M436.33 733.031V750H433.728V735.609H433.635L429.58 738.258V735.797L433.799 733.031H436.33ZM445.998 732.797C449.115 732.82 452.397 734.695 452.397 740.906C452.397 746.859 449.842 750.234 445.764 750.234C442.647 750.234 440.444 748.312 440.045 745.547H442.6C442.951 746.977 444.053 747.984 445.764 747.984C448.389 747.984 449.912 745.688 449.936 741.82H449.725C448.811 743.25 447.217 744.117 445.389 744.117C442.342 744.117 439.905 741.797 439.905 738.539C439.905 735.305 442.319 732.773 445.998 732.797ZM445.998 734.953C443.936 734.953 442.412 736.547 442.412 738.492C442.412 740.461 443.889 742.008 445.951 742.008C447.99 742.008 449.584 740.344 449.584 738.469C449.584 736.641 448.084 734.953 445.998 734.953Z" fill="black"/>
    <path d="M563.697 750V748.125L569.58 742.195C571.431 740.25 572.369 739.172 572.369 737.695C572.369 736.031 571.01 734.953 569.228 734.953C567.353 734.953 566.135 736.148 566.135 737.953H563.697C563.674 734.859 566.041 732.797 569.275 732.797C572.556 732.797 574.806 734.859 574.83 737.625C574.806 739.523 573.916 741.023 570.728 744.164L567.283 747.656V747.797H575.111V750H563.697ZM583.397 750.234C579.459 750.234 577.162 747.07 577.162 741.516C577.162 736.008 579.506 732.797 583.397 732.797C587.287 732.797 589.631 736.008 589.631 741.516C589.631 747.07 587.311 750.234 583.397 750.234ZM583.397 748.008C585.694 748.008 587.053 745.758 587.053 741.516C587.053 737.297 585.67 734.977 583.397 734.977C581.123 734.977 579.74 737.297 579.74 741.516C579.74 745.758 581.1 748.008 583.397 748.008Z" fill="black"/>
    <path d="M700.724 750V748.125L706.607 742.195C708.459 740.25 709.396 739.172 709.396 737.695C709.396 736.031 708.037 734.953 706.256 734.953C704.381 734.953 703.162 736.148 703.162 737.953H700.724C700.701 734.859 703.068 732.797 706.302 732.797C709.584 732.797 711.834 734.859 711.857 737.625C711.834 739.523 710.943 741.023 707.756 744.164L704.31 747.656V747.797H712.138V750H700.724ZM720.963 733.031V750H718.362V735.609H718.268L714.213 738.258V735.797L718.432 733.031H720.963Z" fill="black"/>
    <path d="M833.967 750V748.125L839.849 742.195C841.701 740.25 842.638 739.172 842.638 737.695C842.638 736.031 841.279 734.953 839.498 734.953C837.623 734.953 836.404 736.148 836.404 737.953H833.967C833.943 734.859 836.31 732.797 839.545 732.797C842.826 732.797 845.076 734.859 845.099 737.625C845.076 739.523 844.185 741.023 840.998 744.164L837.552 747.656V747.797H845.381V750H833.967ZM847.76 750V748.125L853.643 742.195C855.494 740.25 856.432 739.172 856.432 737.695C856.432 736.031 855.073 734.953 853.291 734.953C851.416 734.953 850.198 736.148 850.198 737.953H847.76C847.737 734.859 850.104 732.797 853.338 732.797C856.619 732.797 858.869 734.859 858.893 737.625C858.869 739.523 857.979 741.023 854.791 744.164L851.346 747.656V747.797H859.174V750H847.76Z" fill="#FF7710"/>
    <path d="M23.615 906V904.125L29.4978 898.195C31.3494 896.25 32.2869 895.172 32.2869 893.695C32.2869 892.031 30.9275 890.953 29.1462 890.953C27.2712 890.953 26.0525 892.148 26.0525 893.953H23.615C23.5916 890.859 25.9587 888.797 29.1931 888.797C32.4744 888.797 34.7244 890.859 34.7478 893.625C34.7244 895.523 33.8337 897.023 30.6462 900.164L27.2009 903.656V903.797H35.0291V906H23.615ZM43.4319 906.234C39.9163 906.234 37.4084 904.336 37.3147 901.57H39.9397C40.0334 903.07 41.51 904.008 43.4084 904.008C45.4475 904.008 46.9475 902.883 46.9475 901.242C46.9475 899.578 45.5413 898.359 43.1272 898.359H41.6741V896.25H43.1272C45.0491 896.25 46.4084 895.172 46.4084 893.555C46.4084 892.008 45.26 890.953 43.4553 890.953C41.7444 890.953 40.2444 891.891 40.1741 893.438H37.6897C37.76 890.672 40.3147 888.797 43.4788 888.797C46.8069 888.797 48.9163 890.906 48.8928 893.414C48.9163 895.336 47.7209 896.742 45.8928 897.188V897.305C48.2131 897.633 49.5491 899.18 49.5491 901.336C49.5491 904.172 46.9475 906.234 43.4319 906.234Z" fill="#FF7710"/>
    <path d="M158.674 906V904.125L164.556 898.195C166.408 896.25 167.345 895.172 167.345 893.695C167.345 892.031 165.986 890.953 164.205 890.953C162.33 890.953 161.111 892.148 161.111 893.953H158.674C158.65 890.859 161.017 888.797 164.252 888.797C167.533 888.797 169.783 890.859 169.806 893.625C169.783 895.523 168.892 897.023 165.705 900.164L162.26 903.656V903.797H170.088V906H158.674ZM171.717 902.695V900.609L179.217 889.031H182.405V900.516H184.725V902.695H182.405V906H179.967V902.695H171.717ZM174.436 900.516H179.967V892.102H179.78L174.436 900.375V900.516Z" fill="black"/>
    <path d="M293.826 906V904.125L299.709 898.195C301.56 896.25 302.498 895.172 302.498 893.695C302.498 892.031 301.138 890.953 299.357 890.953C297.482 890.953 296.263 892.148 296.263 893.953H293.826C293.802 890.859 296.17 888.797 299.404 888.797C302.685 888.797 304.935 890.859 304.959 893.625C304.935 895.523 304.045 897.023 300.857 900.164L297.412 903.656V903.797H305.24V906H293.826ZM313.385 906.234C310.174 906.234 307.76 904.266 307.643 901.57H310.151C310.291 903.023 311.674 904.078 313.385 904.078C315.448 904.078 316.924 902.578 316.924 900.562C316.924 898.5 315.401 897 313.268 896.977C311.908 896.977 310.877 897.422 310.291 898.477H307.854L308.955 889.031H318.565V891.234H311.088L310.526 895.992H310.69C311.393 895.312 312.588 894.844 313.877 894.844C317.065 894.844 319.432 897.211 319.432 900.492C319.432 903.844 316.924 906.234 313.385 906.234Z" fill="black"/>
    <path d="M428.627 906V904.125L434.51 898.195C436.361 896.25 437.299 895.172 437.299 893.695C437.299 892.031 435.939 890.953 434.158 890.953C432.283 890.953 431.064 892.148 431.064 893.953H428.627C428.603 890.859 430.97 888.797 434.205 888.797C437.486 888.797 439.736 890.859 439.76 893.625C439.736 895.523 438.845 897.023 435.658 900.164L432.213 903.656V903.797H440.041V906H428.627ZM448.561 906.234C445.42 906.211 442.139 904.359 442.139 898.078C442.139 892.172 444.694 888.797 448.772 888.797C451.889 888.797 454.069 890.742 454.467 893.438H451.912C451.584 892.055 450.483 891.047 448.772 891.047C446.147 891.047 444.623 893.344 444.623 897.164H444.811C445.725 895.734 447.319 894.867 449.17 894.867C452.194 894.867 454.631 897.188 454.631 900.445C454.631 903.727 452.217 906.258 448.561 906.234ZM448.537 904.078C450.6 904.078 452.123 902.484 452.123 900.492C452.123 898.547 450.647 896.977 448.608 896.977C446.522 896.977 444.951 898.617 444.928 900.516C444.951 902.391 446.451 904.078 448.537 904.078Z" fill="black"/>
    <path d="M563.888 906V904.125L569.771 898.195C571.623 896.25 572.56 895.172 572.56 893.695C572.56 892.031 571.201 890.953 569.42 890.953C567.545 890.953 566.326 892.148 566.326 893.953H563.888C563.865 890.859 566.232 888.797 569.467 888.797C572.748 888.797 574.998 890.859 575.021 893.625C574.998 895.523 574.107 897.023 570.92 900.164L567.474 903.656V903.797H575.302V906H563.888ZM578.268 906L585.838 891.375V891.234H577.096V889.031H588.51V891.328L580.963 906H578.268Z" fill="black"/>
    <path d="M698.685 906V904.125L704.568 898.195C706.42 896.25 707.357 895.172 707.357 893.695C707.357 892.031 705.998 890.953 704.217 890.953C702.342 890.953 701.123 892.148 701.123 893.953H698.685C698.662 890.859 701.029 888.797 704.263 888.797C707.545 888.797 709.795 890.859 709.818 893.625C709.795 895.523 708.904 897.023 705.717 900.164L702.271 903.656V903.797H710.099V906H698.685ZM718.408 906.234C714.729 906.234 712.151 904.242 712.174 901.477C712.151 899.297 713.721 897.516 715.713 897.211V897.117C713.979 896.719 712.807 895.172 712.807 893.32C712.807 890.719 715.174 888.797 718.408 888.797C721.619 888.797 723.963 890.719 723.987 893.32C723.963 895.172 722.791 896.719 721.08 897.117V897.211C723.049 897.516 724.619 899.297 724.643 901.477C724.619 904.242 722.041 906.234 718.408 906.234ZM718.408 904.102C720.612 904.102 722.018 902.953 722.018 901.289C722.018 899.531 720.494 898.266 718.408 898.266C716.299 898.266 714.752 899.531 714.799 901.289C714.752 902.953 716.158 904.102 718.408 904.102ZM718.408 896.227C720.19 896.227 721.455 895.148 721.455 893.555C721.455 891.984 720.213 890.906 718.408 890.906C716.533 890.906 715.315 891.961 715.315 893.555C715.315 895.148 716.604 896.227 718.408 896.227Z" fill="black"/>
    <path opacity="0.3" d="M849.066 889.031V906H846.465V891.609H846.371L842.316 894.258V891.797L846.535 889.031H849.066Z" fill="#FF7710"/>
    <path opacity="0.3" d="M30.8633 1062V1060.12L36.7461 1054.2C38.5977 1052.25 39.5352 1051.17 39.5352 1049.7C39.5352 1048.03 38.1758 1046.95 36.3945 1046.95C34.5195 1046.95 33.3008 1048.15 33.3008 1049.95H30.8633C30.8398 1046.86 33.207 1044.8 36.4414 1044.8C39.7227 1044.8 41.9727 1046.86 41.9961 1049.62C41.9727 1051.52 41.082 1053.02 37.8945 1056.16L34.4492 1059.66V1059.8H42.2773V1062H30.8633Z" fill="#FF7710"/>
    <path opacity="0.3" d="M171.535 1062.23C168.02 1062.23 165.512 1060.34 165.418 1057.57H168.043C168.137 1059.07 169.613 1060.01 171.512 1060.01C173.551 1060.01 175.051 1058.88 175.051 1057.24C175.051 1055.58 173.645 1054.36 171.23 1054.36H169.777V1052.25H171.23C173.152 1052.25 174.512 1051.17 174.512 1049.55C174.512 1048.01 173.363 1046.95 171.559 1046.95C169.848 1046.95 168.348 1047.89 168.277 1049.44H165.793C165.863 1046.67 168.418 1044.8 171.582 1044.8C174.91 1044.8 177.02 1046.91 176.996 1049.41C177.02 1051.34 175.824 1052.74 173.996 1053.19V1053.3C176.316 1053.63 177.652 1055.18 177.652 1057.34C177.652 1060.17 175.051 1062.23 171.535 1062.23Z" fill="black"/>
    <path opacity="0.3" d="M299.508 1058.7V1056.61L307.008 1045.03H310.195V1056.52H312.516V1058.7H310.195V1062H307.758V1058.7H299.508ZM302.227 1056.52H307.758V1048.1H307.57L302.227 1056.38V1056.52Z" fill="black"/>
    <path opacity="0.3" d="M441.488 1062.23C438.277 1062.23 435.863 1060.27 435.746 1057.57H438.254C438.395 1059.02 439.777 1060.08 441.488 1060.08C443.551 1060.08 445.027 1058.58 445.027 1056.56C445.027 1054.5 443.504 1053 441.371 1052.98C440.012 1052.98 438.98 1053.42 438.395 1054.48H435.957L437.059 1045.03H446.668V1047.23H439.191L438.629 1051.99H438.793C439.496 1051.31 440.691 1050.84 441.98 1050.84C445.168 1050.84 447.535 1053.21 447.535 1056.49C447.535 1059.84 445.027 1062.23 441.488 1062.23Z" fill="black"/>
    <path opacity="0.3" d="M576.664 1062.23C573.523 1062.21 570.242 1060.36 570.242 1054.08C570.242 1048.17 572.797 1044.8 576.875 1044.8C579.992 1044.8 582.172 1046.74 582.57 1049.44H580.016C579.688 1048.05 578.586 1047.05 576.875 1047.05C574.25 1047.05 572.727 1049.34 572.727 1053.16H572.914C573.828 1051.73 575.422 1050.87 577.273 1050.87C580.297 1050.87 582.734 1053.19 582.734 1056.45C582.734 1059.73 580.32 1062.26 576.664 1062.23ZM576.641 1060.08C578.703 1060.08 580.227 1058.48 580.227 1056.49C580.227 1054.55 578.75 1052.98 576.711 1052.98C574.625 1052.98 573.055 1054.62 573.031 1056.52C573.055 1058.39 574.555 1060.08 576.641 1060.08Z" fill="black"/>
    <path opacity="0.3" d="M706.371 1062L713.941 1047.38V1047.23H705.199V1045.03H716.613V1047.33L709.066 1062H706.371Z" fill="black"/>
    <path opacity="0.3" d="M846.512 1062.23C842.832 1062.23 840.254 1060.24 840.277 1057.48C840.254 1055.3 841.824 1053.52 843.816 1053.21V1053.12C842.082 1052.72 840.91 1051.17 840.91 1049.32C840.91 1046.72 843.277 1044.8 846.512 1044.8C849.723 1044.8 852.066 1046.72 852.09 1049.32C852.066 1051.17 850.895 1052.72 849.184 1053.12V1053.21C851.152 1053.52 852.723 1055.3 852.746 1057.48C852.723 1060.24 850.145 1062.23 846.512 1062.23ZM846.512 1060.1C848.715 1060.1 850.121 1058.95 850.121 1057.29C850.121 1055.53 848.598 1054.27 846.512 1054.27C844.402 1054.27 842.855 1055.53 842.902 1057.29C842.855 1058.95 844.262 1060.1 846.512 1060.1ZM846.512 1052.23C848.293 1052.23 849.559 1051.15 849.559 1049.55C849.559 1047.98 848.316 1046.91 846.512 1046.91C844.637 1046.91 843.418 1047.96 843.418 1049.55C843.418 1051.15 844.707 1052.23 846.512 1052.23Z" fill="#FF7710"/>
    <path opacity="0.3" d="M23.6267 282V280.125L29.5095 274.195C31.3611 272.25 32.2986 271.172 32.2986 269.695C32.2986 268.031 30.9392 266.953 29.158 266.953C27.283 266.953 26.0642 268.148 26.0642 269.953H23.6267C23.6033 266.859 25.9705 264.797 29.2048 264.797C32.4861 264.797 34.7361 266.859 34.7595 269.625C34.7361 271.523 33.8455 273.023 30.658 276.164L27.2127 279.656V279.797H35.0408V282H23.6267ZM43.5608 282.234C40.4202 282.211 37.1389 280.359 37.1389 274.078C37.1389 268.172 39.6936 264.797 43.7717 264.797C46.8889 264.797 49.0686 266.742 49.467 269.438H46.9123C46.5842 268.055 45.4827 267.047 43.7717 267.047C41.1467 267.047 39.6233 269.344 39.6233 273.164H39.8108C40.7248 271.734 42.3186 270.867 44.1702 270.867C47.1936 270.867 49.6311 273.188 49.6311 276.445C49.6311 279.727 47.217 282.258 43.5608 282.234ZM43.5373 280.078C45.5998 280.078 47.1233 278.484 47.1233 276.492C47.1233 274.547 45.6467 272.977 43.6077 272.977C41.5217 272.977 39.9514 274.617 39.928 276.516C39.9514 278.391 41.4514 280.078 43.5373 280.078Z" fill="#FF7710"/>
    <path opacity="0.3" d="M158.888 282V280.125L164.771 274.195C166.623 272.25 167.56 271.172 167.56 269.695C167.56 268.031 166.201 266.953 164.42 266.953C162.545 266.953 161.326 268.148 161.326 269.953H158.888C158.865 266.859 161.232 264.797 164.467 264.797C167.748 264.797 169.998 266.859 170.021 269.625C169.998 271.523 169.107 273.023 165.92 276.164L162.474 279.656V279.797H170.302V282H158.888ZM173.268 282L180.838 267.375V267.234H172.096V265.031H183.51V267.328L175.963 282H173.268Z" fill="black"/>
    <path opacity="0.3" d="M293.685 282V280.125L299.568 274.195C301.42 272.25 302.357 271.172 302.357 269.695C302.357 268.031 300.998 266.953 299.217 266.953C297.342 266.953 296.123 268.148 296.123 269.953H293.685C293.662 266.859 296.029 264.797 299.263 264.797C302.545 264.797 304.795 266.859 304.818 269.625C304.795 271.523 303.904 273.023 300.717 276.164L297.271 279.656V279.797H305.099V282H293.685ZM313.408 282.234C309.729 282.234 307.151 280.242 307.174 277.477C307.151 275.297 308.721 273.516 310.713 273.211V273.117C308.979 272.719 307.807 271.172 307.807 269.32C307.807 266.719 310.174 264.797 313.408 264.797C316.619 264.797 318.963 266.719 318.987 269.32C318.963 271.172 317.791 272.719 316.08 273.117V273.211C318.049 273.516 319.619 275.297 319.643 277.477C319.619 280.242 317.041 282.234 313.408 282.234ZM313.408 280.102C315.612 280.102 317.018 278.953 317.018 277.289C317.018 275.531 315.494 274.266 313.408 274.266C311.299 274.266 309.752 275.531 309.799 277.289C309.752 278.953 311.158 280.102 313.408 280.102ZM313.408 272.227C315.19 272.227 316.455 271.148 316.455 269.555C316.455 267.984 315.213 266.906 313.408 266.906C311.533 266.906 310.315 267.961 310.315 269.555C310.315 271.148 311.604 272.227 313.408 272.227Z" fill="black"/>
    <path opacity="0.3" d="M428.627 282V280.125L434.51 274.195C436.361 272.25 437.299 271.172 437.299 269.695C437.299 268.031 435.939 266.953 434.158 266.953C432.283 266.953 431.064 268.148 431.064 269.953H428.627C428.603 266.859 430.97 264.797 434.205 264.797C437.486 264.797 439.736 266.859 439.76 269.625C439.736 271.523 438.845 273.023 435.658 276.164L432.213 279.656V279.797H440.041V282H428.627ZM448.256 264.797C451.373 264.82 454.655 266.695 454.655 272.906C454.655 278.859 452.1 282.234 448.022 282.234C444.905 282.234 442.701 280.312 442.303 277.547H444.858C445.209 278.977 446.311 279.984 448.022 279.984C450.647 279.984 452.17 277.688 452.194 273.82H451.983C451.069 275.25 449.475 276.117 447.647 276.117C444.6 276.117 442.162 273.797 442.162 270.539C442.162 267.305 444.576 264.773 448.256 264.797ZM448.256 266.953C446.194 266.953 444.67 268.547 444.67 270.492C444.67 272.461 446.147 274.008 448.209 274.008C450.248 274.008 451.842 272.344 451.842 270.469C451.842 268.641 450.342 266.953 448.256 266.953Z" fill="black"/>
    <path opacity="0.3" d="M568.869 282.234C565.353 282.234 562.845 280.336 562.752 277.57H565.377C565.47 279.07 566.947 280.008 568.845 280.008C570.885 280.008 572.385 278.883 572.385 277.242C572.385 275.578 570.978 274.359 568.564 274.359H567.111V272.25H568.564C570.486 272.25 571.845 271.172 571.845 269.555C571.845 268.008 570.697 266.953 568.892 266.953C567.181 266.953 565.681 267.891 565.611 269.438H563.127C563.197 266.672 565.752 264.797 568.916 264.797C572.244 264.797 574.353 266.906 574.33 269.414C574.353 271.336 573.158 272.742 571.33 273.188V273.305C573.65 273.633 574.986 275.18 574.986 277.336C574.986 280.172 572.385 282.234 568.869 282.234ZM583.248 282.234C579.311 282.234 577.014 279.07 577.014 273.516C577.014 268.008 579.358 264.797 583.248 264.797C587.139 264.797 589.483 268.008 589.483 273.516C589.483 279.07 587.162 282.234 583.248 282.234ZM583.248 280.008C585.545 280.008 586.905 277.758 586.905 273.516C586.905 269.297 585.522 266.977 583.248 266.977C580.975 266.977 579.592 269.297 579.592 273.516C579.592 277.758 580.951 280.008 583.248 280.008Z" fill="black"/>
    <path opacity="0.3" d="M705.896 282.234C702.381 282.234 699.873 280.336 699.779 277.57H702.404C702.498 279.07 703.974 280.008 705.873 280.008C707.912 280.008 709.412 278.883 709.412 277.242C709.412 275.578 708.006 274.359 705.592 274.359H704.138V272.25H705.592C707.513 272.25 708.873 271.172 708.873 269.555C708.873 268.008 707.724 266.953 705.92 266.953C704.209 266.953 702.709 267.891 702.638 269.438H700.154C700.224 266.672 702.779 264.797 705.943 264.797C709.271 264.797 711.381 266.906 711.357 269.414C711.381 271.336 710.185 272.742 708.357 273.188V273.305C710.677 273.633 712.013 275.18 712.013 277.336C712.013 280.172 709.412 282.234 705.896 282.234ZM720.815 265.031V282H718.213V267.609H718.119L714.065 270.258V267.797L718.283 265.031H720.815Z" fill="black"/>
    <path d="M849.066 265.031V282H846.465V267.609H846.371L842.316 270.258V267.797L846.535 265.031H849.066Z" fill="#FF7710"/>
    <path d="M664 789C664 777.954 672.954 769 684 769H878V809H684C672.954 809 664 800.046 664 789Z" fill="url(#paint0_linear_2336_19150)"/>
    <path d="M685.531 783.688V795H683.484V785.672H683.422L680.781 787.359V785.5L683.578 783.688H685.531ZM692.071 795.156C689.649 795.156 687.93 793.844 687.883 791.938H689.93C689.992 792.844 690.899 793.438 692.071 793.438C693.321 793.438 694.211 792.75 694.211 791.75C694.211 790.734 693.336 790 691.867 790H690.852V788.438H691.867C693.071 788.438 693.914 787.766 693.899 786.781C693.914 785.828 693.196 785.188 692.086 785.188C691.024 785.188 690.102 785.781 690.071 786.734H688.117C688.164 784.828 689.883 783.531 692.102 783.531C694.399 783.531 695.883 784.938 695.867 786.672C695.883 787.938 695.039 788.859 693.805 789.109V789.203C695.399 789.422 696.305 790.438 696.289 791.859C696.305 793.766 694.524 795.156 692.071 795.156ZM709.079 782.266V796.391H707.329V782.266H709.079ZM704.86 783.766C704.86 787.969 703.235 791.547 698.282 793.891L697.376 792.5C701.071 790.742 702.79 788.352 703.094 785.141H698.094V783.766H704.86ZM718.064 783.297C720.189 783.297 721.72 785.234 721.736 788.281C721.72 791.359 720.189 793.281 718.064 793.281C715.923 793.281 714.376 791.359 714.392 788.281C714.376 785.234 715.923 783.297 718.064 783.297ZM718.064 784.859C716.876 784.859 716.064 786.125 716.064 788.281C716.064 790.453 716.876 791.719 718.064 791.719C719.267 791.719 720.064 790.453 720.064 788.281C720.064 786.125 719.267 784.859 718.064 784.859ZM725.329 782.266V787.688H727.501V789.156H725.329V796.391H723.595V782.266H725.329ZM739.572 782.266V796.391H737.822V782.266H739.572ZM735.353 783.766C735.353 787.969 733.728 791.547 728.775 793.891L727.869 792.5C731.564 790.742 733.283 788.352 733.588 785.141H728.588V783.766H735.353ZM746.33 785.656C746.314 788.172 747.58 790.734 749.768 791.781L748.705 793.172C747.174 792.398 746.072 790.906 745.471 789.109C744.853 791.031 743.697 792.625 742.08 793.438L741.018 792.047C743.283 790.969 744.58 788.266 744.596 785.656V783.406H746.33V785.656ZM752.346 782.266V787.797H754.518V789.281H752.346V796.391H750.611V782.266H752.346ZM759.854 786.281C759.854 788.469 761.151 790.953 763.385 791.984L762.416 793.359C760.823 792.609 759.643 791.094 759.01 789.328C758.369 791.266 757.135 792.922 755.51 793.703L754.494 792.344C756.744 791.281 758.104 788.625 758.119 786.281V785.094H755.041V783.656H762.807V785.094H759.854V786.281ZM765.854 782.266V787.766H768.026V789.219H765.854V796.391H764.119V782.266H765.854ZM784.683 793.25V794.672H771.776V793.25H777.339V790.172H773.198V783.359H783.198V790.172H779.058V793.25H784.683ZM774.901 784.75V788.812H781.479V784.75H774.901ZM793.613 783.109V784.5H790.644C790.667 786.156 791.886 787.742 794.113 788.375L793.238 789.734C791.605 789.25 790.425 788.227 789.784 786.922C789.152 788.328 787.941 789.438 786.253 789.969L785.378 788.609C787.636 787.945 788.855 786.25 788.894 784.5H785.847V783.109H793.613ZM797.05 782.266V789.922H795.3V782.266H797.05ZM789.425 790.547V792H795.316V790.547H797.05V796.219H787.706V790.547H789.425ZM789.425 794.812H795.316V793.344H789.425V794.812Z" fill="white"/>
    <rect width="878" height="40" transform="translate(0 925)" fill="url(#paint1_linear_2336_19150)"/>
    <path d="M21.5312 939.688V951H19.4844V941.672H19.4219L16.7812 943.359V941.5L19.5781 939.688H21.5312ZM28.0706 951.156C25.6487 951.156 23.93 949.844 23.8831 947.938H25.93C25.9925 948.844 26.8987 949.438 28.0706 949.438C29.3206 949.438 30.2112 948.75 30.2112 947.75C30.2112 946.734 29.3362 946 27.8675 946H26.8519V944.438H27.8675C29.0706 944.438 29.9144 943.766 29.8987 942.781C29.9144 941.828 29.1956 941.188 28.0862 941.188C27.0237 941.188 26.1019 941.781 26.0706 942.734H24.1175C24.1644 940.828 25.8831 939.531 28.1019 939.531C30.3987 939.531 31.8831 940.938 31.8675 942.672C31.8831 943.938 31.0394 944.859 29.805 945.109V945.203C31.3987 945.422 32.305 946.438 32.2894 947.859C32.305 949.766 30.5237 951.156 28.0706 951.156ZM45.0788 938.266V952.391H43.3288V938.266H45.0788ZM40.86 939.766C40.86 943.969 39.235 947.547 34.2819 949.891L33.3756 948.5C37.0709 946.742 38.7897 944.352 39.0944 941.141H34.0944V939.766H40.86ZM54.0638 939.297C56.1888 939.297 57.72 941.234 57.7356 944.281C57.72 947.359 56.1888 949.281 54.0638 949.281C51.9231 949.281 50.3763 947.359 50.3919 944.281C50.3763 941.234 51.9231 939.297 54.0638 939.297ZM54.0638 940.859C52.8763 940.859 52.0638 942.125 52.0638 944.281C52.0638 946.453 52.8763 947.719 54.0638 947.719C55.2669 947.719 56.0638 946.453 56.0638 944.281C56.0638 942.125 55.2669 940.859 54.0638 940.859ZM61.3294 938.266V943.688H63.5013V945.156H61.3294V952.391H59.595V938.266H61.3294ZM75.5719 938.266V952.391H73.8219V938.266H75.5719ZM71.3531 939.766C71.3531 943.969 69.7281 947.547 64.775 949.891L63.8688 948.5C67.5641 946.742 69.2828 944.352 69.5875 941.141H64.5875V939.766H71.3531ZM82.33 941.656C82.3144 944.172 83.58 946.734 85.7675 947.781L84.705 949.172C83.1738 948.398 82.0722 946.906 81.4706 945.109C80.8534 947.031 79.6972 948.625 78.08 949.438L77.0175 948.047C79.2831 946.969 80.58 944.266 80.5956 941.656V939.406H82.33V941.656ZM88.3456 938.266V943.797H90.5175V945.281H88.3456V952.391H86.6113V938.266H88.3456ZM95.8538 942.281C95.8538 944.469 97.1506 946.953 99.385 947.984L98.4163 949.359C96.8225 948.609 95.6428 947.094 95.01 945.328C94.3694 947.266 93.135 948.922 91.51 949.703L90.4944 948.344C92.7444 947.281 94.1038 944.625 94.1194 942.281V941.094H91.0413V939.656H98.8069V941.094H95.8538V942.281ZM101.854 938.266V943.766H104.026V945.219H101.854V952.391H100.119V938.266H101.854ZM120.683 949.25V950.672H107.776V949.25H113.339V946.172H109.198V939.359H119.198V946.172H115.058V949.25H120.683ZM110.901 940.75V944.812H117.479V940.75H110.901ZM129.613 939.109V940.5H126.644C126.667 942.156 127.886 943.742 130.113 944.375L129.238 945.734C127.605 945.25 126.425 944.227 125.784 942.922C125.152 944.328 123.941 945.438 122.253 945.969L121.378 944.609C123.636 943.945 124.855 942.25 124.894 940.5H121.847V939.109H129.613ZM133.05 938.266V945.922H131.3V938.266H133.05ZM125.425 946.547V948H131.316V946.547H133.05V952.219H123.706V946.547H125.425ZM125.425 950.812H131.316V949.344H125.425V950.812Z" fill="white"/>
    <g opacity="0.4">
    <path d="M0 1081H468C479.046 1081 488 1089.95 488 1101C488 1112.05 479.046 1121 468 1121H0V1081Z" fill="url(#paint2_linear_2336_19150)"/>
    <path d="M21.5312 1095.69V1107H19.4844V1097.67H19.4219L16.7812 1099.36V1097.5L19.5781 1095.69H21.5312ZM28.0706 1107.16C25.6487 1107.16 23.93 1105.84 23.8831 1103.94H25.93C25.9925 1104.84 26.8987 1105.44 28.0706 1105.44C29.3206 1105.44 30.2112 1104.75 30.2112 1103.75C30.2112 1102.73 29.3362 1102 27.8675 1102H26.8519V1100.44H27.8675C29.0706 1100.44 29.9144 1099.77 29.8987 1098.78C29.9144 1097.83 29.1956 1097.19 28.0862 1097.19C27.0237 1097.19 26.1019 1097.78 26.0706 1098.73H24.1175C24.1644 1096.83 25.8831 1095.53 28.1019 1095.53C30.3987 1095.53 31.8831 1096.94 31.8675 1098.67C31.8831 1099.94 31.0394 1100.86 29.805 1101.11V1101.2C31.3987 1101.42 32.305 1102.44 32.2894 1103.86C32.305 1105.77 30.5237 1107.16 28.0706 1107.16ZM45.0788 1094.27V1108.39H43.3288V1094.27H45.0788ZM40.86 1095.77C40.86 1099.97 39.235 1103.55 34.2819 1105.89L33.3756 1104.5C37.0709 1102.74 38.7897 1100.35 39.0944 1097.14H34.0944V1095.77H40.86ZM54.0638 1095.3C56.1888 1095.3 57.72 1097.23 57.7356 1100.28C57.72 1103.36 56.1888 1105.28 54.0638 1105.28C51.9231 1105.28 50.3763 1103.36 50.3919 1100.28C50.3763 1097.23 51.9231 1095.3 54.0638 1095.3ZM54.0638 1096.86C52.8763 1096.86 52.0638 1098.12 52.0638 1100.28C52.0638 1102.45 52.8763 1103.72 54.0638 1103.72C55.2669 1103.72 56.0638 1102.45 56.0638 1100.28C56.0638 1098.12 55.2669 1096.86 54.0638 1096.86ZM61.3294 1094.27V1099.69H63.5013V1101.16H61.3294V1108.39H59.595V1094.27H61.3294ZM75.5719 1094.27V1108.39H73.8219V1094.27H75.5719ZM71.3531 1095.77C71.3531 1099.97 69.7281 1103.55 64.775 1105.89L63.8688 1104.5C67.5641 1102.74 69.2828 1100.35 69.5875 1097.14H64.5875V1095.77H71.3531ZM82.33 1097.66C82.3144 1100.17 83.58 1102.73 85.7675 1103.78L84.705 1105.17C83.1738 1104.4 82.0722 1102.91 81.4706 1101.11C80.8534 1103.03 79.6972 1104.62 78.08 1105.44L77.0175 1104.05C79.2831 1102.97 80.58 1100.27 80.5956 1097.66V1095.41H82.33V1097.66ZM88.3456 1094.27V1099.8H90.5175V1101.28H88.3456V1108.39H86.6113V1094.27H88.3456ZM95.8538 1098.28C95.8538 1100.47 97.1506 1102.95 99.385 1103.98L98.4163 1105.36C96.8225 1104.61 95.6428 1103.09 95.01 1101.33C94.3694 1103.27 93.135 1104.92 91.51 1105.7L90.4944 1104.34C92.7444 1103.28 94.1038 1100.62 94.1194 1098.28V1097.09H91.0413V1095.66H98.8069V1097.09H95.8538V1098.28ZM101.854 1094.27V1099.77H104.026V1101.22H101.854V1108.39H100.119V1094.27H101.854ZM120.683 1105.25V1106.67H107.776V1105.25H113.339V1102.17H109.198V1095.36H119.198V1102.17H115.058V1105.25H120.683ZM110.901 1096.75V1100.81H117.479V1096.75H110.901ZM129.613 1095.11V1096.5H126.644C126.667 1098.16 127.886 1099.74 130.113 1100.38L129.238 1101.73C127.605 1101.25 126.425 1100.23 125.784 1098.92C125.152 1100.33 123.941 1101.44 122.253 1101.97L121.378 1100.61C123.636 1099.95 124.855 1098.25 124.894 1096.5H121.847V1095.11H129.613ZM133.05 1094.27V1101.92H131.3V1094.27H133.05ZM125.425 1102.55V1104H131.316V1102.55H133.05V1108.22H123.706V1102.55H125.425ZM125.425 1106.81H131.316V1105.34H125.425V1106.81Z" fill="white"/>
    </g>
    <g filter="url(#filter0_d_2336_19150)">
    <rect x="330" y="20" width="222" height="76" rx="38" fill="white" shape-rendering="crispEdges"/>
    <path d="M362.107 69L362.076 65.5938L370.201 58.125C372.326 56.0938 373.451 54.8438 373.451 53.0625C373.451 51.0625 371.92 49.8125 369.857 49.8125C367.732 49.8125 366.357 51.1562 366.357 53.3125H361.889C361.857 48.875 365.139 46.0625 369.92 46.0625C374.764 46.0625 377.982 48.8125 377.982 52.75C377.982 55.3125 376.732 57.4375 372.076 61.6562L368.639 65V65.125H378.295V69H362.107ZM404.155 43.4688V59.9375H400.155V59.0312H394.999V56.625H400.155V43.4688H404.155ZM380.061 53.4688C385.561 53.5 392.374 53.4375 398.467 52.875L398.655 55.3438C396.139 55.6875 393.561 55.9062 391.03 56.0312V60H387.092V56.1875C384.764 56.25 382.53 56.25 380.467 56.2188L380.061 53.4688ZM404.155 60.7812V67.4375H388.155V68.9062H404.811V71.6875H384.249V64.875H400.186V63.4688H384.124V60.7812H404.155ZM389.217 43.8438C393.436 43.8438 396.342 45.5625 396.374 48.125C396.342 50.7812 393.436 52.375 389.217 52.375C384.874 52.375 381.999 50.7812 381.999 48.125C381.999 45.5625 384.874 43.8438 389.217 43.8438ZM389.217 46.4688C387.061 46.4375 385.749 47.0938 385.78 48.125C385.749 49.1875 387.061 49.7812 389.217 49.7812C391.311 49.7812 392.655 49.1875 392.655 48.125C392.655 47.0938 391.311 46.4375 389.217 46.4688ZM428.406 46.1562C428.375 54.9062 426.031 62.25 415.781 67.5625L413.594 64.5625C418.094 62.1875 420.891 59.5469 422.531 56.4062L414.281 57.1562L413.75 53.7812L423.781 53.1875C424.109 51.9844 424.312 50.7031 424.438 49.3438H415.281V46.1562H428.406ZM437.781 43.4375V71.875H433.812V57.625H428.344V54.375H433.812V43.4375H437.781ZM464.673 43.4375V71.9375H460.704V43.4375H464.673ZM455.86 45.8125V56.7812H446.485V62C450.813 61.9844 454.501 61.7344 458.673 61.0625L459.016 64.2812C454.329 65.0938 450.11 65.2812 444.923 65.2812H442.36V53.625H451.798V49.0312H442.329V45.8125H455.86ZM490.783 44.2812V46.7812C490.783 48.9688 490.783 51.2812 490.251 54.125H493.72V57.25H487.345V59.25H490.908V66.7812H474.72V68.5H491.908V71.5625H470.751V63.9375H486.939V62.2812H470.72V59.25H474.158V57.25H467.908V54.125H486.251C486.392 53.2969 486.517 52.5156 486.595 51.7812L470.689 52.4688L470.251 49.3438L486.814 49C486.814 48.4531 486.814 47.9375 486.814 47.4062H471.033V44.2812H490.783ZM478.158 59.25H483.376V57.25H478.158V59.25ZM518.83 61.4062V71.5625H499.611V61.4062H518.83ZM503.58 64.4688V68.375H514.893V64.4688H503.58ZM518.83 43.4688V60.1562H514.861V52.5625H510.268V49.3438H514.861V43.4688H518.83ZM508.83 44.75V53.4688H499.924V56.1562C504.236 56.125 507.33 55.9844 510.893 55.4062L511.174 58.625C507.111 59.3125 503.549 59.4062 498.299 59.375H495.986V50.4688H504.924V47.9688H495.924V44.75H508.83Z" fill="#FF7710"/>
    </g>
    <path d="M178.569 1229.81C179.265 1229.81 179.891 1229.94 180.447 1230.21C181.003 1230.48 181.44 1230.85 181.757 1231.33C182.073 1231.8 182.234 1232.34 182.237 1232.94C182.234 1233.55 182.073 1234.08 181.757 1234.56C181.44 1235.03 181.003 1235.4 180.447 1235.66C179.891 1235.93 179.265 1236.06 178.569 1236.06C177.865 1236.06 177.234 1235.93 176.674 1235.66C176.114 1235.4 175.675 1235.03 175.359 1234.56C175.042 1234.09 174.884 1233.55 174.884 1232.94C174.884 1232.34 175.042 1231.8 175.359 1231.33C175.675 1230.85 176.114 1230.48 176.674 1230.21C177.234 1229.94 177.865 1229.81 178.569 1229.81ZM176.331 1232.94C176.327 1233.32 176.421 1233.65 176.613 1233.94C176.804 1234.23 177.071 1234.46 177.414 1234.62C177.757 1234.78 178.141 1234.86 178.569 1234.86C178.992 1234.86 179.373 1234.78 179.712 1234.62C180.051 1234.46 180.316 1234.23 180.508 1233.94C180.703 1233.65 180.801 1233.32 180.801 1232.94C180.801 1232.57 180.703 1232.24 180.508 1231.95C180.316 1231.66 180.051 1231.43 179.712 1231.28C179.373 1231.12 178.992 1231.04 178.569 1231.04C178.141 1231.04 177.757 1231.12 177.414 1231.28C177.071 1231.43 176.804 1231.66 176.613 1231.95C176.421 1232.24 176.327 1232.57 176.331 1232.94ZM177.005 1237.1H186.215V1240.62H178.491V1241.96H186.674V1243.15H177.049V1239.51H184.74V1238.28H177.005V1237.1ZM184.729 1229.33H186.215V1236.45H184.729V1229.33ZM199.778 1237.66H198.298V1234.12H195.685V1232.9H198.298V1229.33H199.778V1237.66ZM188.115 1236.4C188.823 1236.15 189.44 1235.79 189.966 1235.31C190.497 1234.84 190.904 1234.3 191.187 1233.69C191.471 1233.08 191.613 1232.46 191.613 1231.81V1231.5H188.574V1230.29H196.132V1231.5H193.115V1231.8C193.115 1232.39 193.25 1232.97 193.519 1233.52C193.791 1234.08 194.182 1234.58 194.69 1235.01C195.202 1235.45 195.802 1235.78 196.491 1236.01L195.734 1237.19C194.961 1236.92 194.289 1236.52 193.718 1235.99C193.147 1235.46 192.707 1234.85 192.397 1234.14C192.088 1234.94 191.631 1235.63 191.027 1236.23C190.423 1236.82 189.708 1237.27 188.883 1237.57L188.115 1236.4ZM190.359 1240.69C190.355 1240.14 190.543 1239.66 190.922 1239.27C191.301 1238.87 191.847 1238.57 192.557 1238.36C193.268 1238.15 194.112 1238.05 195.088 1238.05C196.064 1238.05 196.906 1238.15 197.613 1238.36C198.324 1238.57 198.869 1238.87 199.248 1239.27C199.631 1239.66 199.823 1240.14 199.823 1240.69C199.823 1241.24 199.631 1241.71 199.248 1242.1C198.869 1242.5 198.324 1242.8 197.613 1243.01C196.906 1243.22 196.064 1243.32 195.088 1243.33C194.112 1243.32 193.268 1243.22 192.557 1243.01C191.847 1242.8 191.301 1242.5 190.922 1242.1C190.543 1241.71 190.355 1241.24 190.359 1240.69ZM191.828 1240.69C191.824 1241 191.952 1241.27 192.209 1241.49C192.467 1241.71 192.841 1241.88 193.331 1241.99C193.821 1242.11 194.406 1242.16 195.088 1242.16C195.766 1242.16 196.349 1242.11 196.839 1241.99C197.329 1241.88 197.703 1241.71 197.961 1241.49C198.222 1241.27 198.353 1241 198.353 1240.69C198.353 1240.38 198.222 1240.11 197.961 1239.88C197.703 1239.66 197.329 1239.49 196.839 1239.38C196.349 1239.26 195.766 1239.2 195.088 1239.2C194.406 1239.2 193.821 1239.26 193.331 1239.38C192.841 1239.49 192.467 1239.66 192.209 1239.88C191.952 1240.11 191.824 1240.38 191.828 1240.69ZM214.381 1237.82H201.618V1236.64H214.381V1237.82ZM202.983 1232.6C202.983 1232.02 203.187 1231.52 203.596 1231.09C204.005 1230.67 204.587 1230.35 205.342 1230.13C206.097 1229.9 206.979 1229.79 207.988 1229.8C208.994 1229.79 209.872 1229.9 210.624 1230.13C211.379 1230.35 211.961 1230.67 212.369 1231.09C212.778 1231.52 212.983 1232.02 212.983 1232.6C212.983 1233.18 212.778 1233.68 212.369 1234.11C211.961 1234.54 211.379 1234.87 210.624 1235.09C209.872 1235.32 208.994 1235.43 207.988 1235.43C206.979 1235.43 206.097 1235.32 205.342 1235.09C204.587 1234.87 204.005 1234.54 203.596 1234.11C203.187 1233.68 202.983 1233.18 202.983 1232.6ZM203.226 1238.96H204.718V1241.82H212.944V1243.04H203.226V1238.96ZM204.524 1232.6C204.52 1232.94 204.657 1233.23 204.933 1233.48C205.213 1233.72 205.613 1233.9 206.132 1234.03C206.655 1234.16 207.274 1234.22 207.988 1234.22C208.703 1234.22 209.32 1234.16 209.839 1234.03C210.362 1233.9 210.764 1233.72 211.043 1233.48C211.323 1233.23 211.463 1232.94 211.463 1232.6C211.463 1232.27 211.323 1231.98 211.043 1231.73C210.764 1231.49 210.362 1231.31 209.839 1231.18C209.316 1231.05 208.699 1230.98 207.988 1230.98C207.277 1230.98 206.66 1231.05 206.137 1231.18C205.618 1231.31 205.218 1231.49 204.939 1231.73C204.659 1231.98 204.52 1232.27 204.524 1232.6ZM230.701 1243.33H229.265V1236.16H227.48V1242.61H226.088V1229.61H227.48V1234.93H229.265V1229.33H230.701V1243.33ZM219.364 1230.98H220.851V1238.46C221.565 1238.45 222.272 1238.41 222.972 1238.35C223.676 1238.28 224.398 1238.18 225.138 1238.03L225.304 1239.33C224.401 1239.49 223.543 1239.6 222.729 1239.67C221.919 1239.73 221.099 1239.77 220.27 1239.77H219.364V1230.98ZM245.011 1238.74H239.298V1243.33H237.839V1238.74H232.198V1237.56H245.011V1238.74ZM233.795 1229.9H235.265V1231.72H241.928V1229.9H243.408V1235.97H233.795V1229.9ZM241.928 1234.78V1232.91H235.265V1234.78H241.928ZM254.166 1232.89C254.162 1233.71 254.308 1234.52 254.602 1235.31C254.901 1236.11 255.317 1236.83 255.851 1237.46C256.389 1238.1 256.998 1238.58 257.68 1238.92L256.768 1240.1C256.013 1239.71 255.348 1239.15 254.774 1238.41C254.199 1237.67 253.755 1236.83 253.442 1235.88C253.125 1236.89 252.669 1237.79 252.072 1238.57C251.475 1239.36 250.785 1239.96 250 1240.37L249.077 1239.18C249.781 1238.84 250.405 1238.34 250.95 1237.68C251.499 1237.02 251.925 1236.27 252.227 1235.43C252.532 1234.59 252.687 1233.74 252.691 1232.89V1230.49H254.166V1232.89ZM258.735 1229.33H260.221V1234.91H262.464V1236.18H260.221V1243.33H258.735V1229.33ZM274.492 1237.66H273.011V1234.12H270.398V1232.9H273.011V1229.33H274.492V1237.66ZM262.829 1236.4C263.536 1236.15 264.153 1235.79 264.679 1235.31C265.21 1234.84 265.617 1234.3 265.9 1233.69C266.184 1233.08 266.326 1232.46 266.326 1231.81V1231.5H263.287V1230.29H270.845V1231.5H267.829V1231.8C267.829 1232.39 267.963 1232.97 268.232 1233.52C268.504 1234.08 268.895 1234.58 269.403 1235.01C269.915 1235.45 270.516 1235.78 271.204 1236.01L270.447 1237.19C269.674 1236.92 269.002 1236.52 268.431 1235.99C267.86 1235.46 267.42 1234.85 267.11 1234.14C266.801 1234.94 266.344 1235.63 265.74 1236.23C265.136 1236.82 264.422 1237.27 263.597 1237.57L262.829 1236.4ZM265.072 1240.69C265.068 1240.14 265.256 1239.66 265.635 1239.27C266.015 1238.87 266.56 1238.57 267.271 1238.36C267.981 1238.15 268.825 1238.05 269.801 1238.05C270.777 1238.05 271.619 1238.15 272.326 1238.36C273.037 1238.57 273.582 1238.87 273.961 1239.27C274.344 1239.66 274.536 1240.14 274.536 1240.69C274.536 1241.24 274.344 1241.71 273.961 1242.1C273.582 1242.5 273.037 1242.8 272.326 1243.01C271.619 1243.22 270.777 1243.32 269.801 1243.33C268.825 1243.32 267.981 1243.22 267.271 1243.01C266.56 1242.8 266.015 1242.5 265.635 1242.1C265.256 1241.71 265.068 1241.24 265.072 1240.69ZM266.541 1240.69C266.538 1241 266.665 1241.27 266.923 1241.49C267.18 1241.71 267.554 1241.88 268.044 1241.99C268.534 1242.11 269.12 1242.16 269.801 1242.16C270.479 1242.16 271.062 1242.11 271.552 1241.99C272.042 1241.88 272.416 1241.71 272.674 1241.49C272.935 1241.27 273.066 1241 273.066 1240.69C273.066 1240.38 272.935 1240.11 272.674 1239.88C272.416 1239.66 272.042 1239.49 271.552 1239.38C271.062 1239.26 270.479 1239.2 269.801 1239.2C269.12 1239.2 268.534 1239.26 268.044 1239.38C267.554 1239.49 267.18 1239.66 266.923 1239.88C266.665 1240.11 266.538 1240.38 266.541 1240.69ZM288.37 1243.33H286.944V1229.33H288.37V1243.33ZM276.486 1235.37C276.486 1234.37 276.609 1233.5 276.856 1232.76C277.107 1232.02 277.458 1231.45 277.911 1231.05C278.364 1230.65 278.893 1230.45 279.497 1230.45C280.06 1230.45 280.56 1230.62 280.994 1230.96C281.432 1231.3 281.782 1231.79 282.044 1232.43C282.309 1233.07 282.471 1233.82 282.53 1234.69H284.11V1229.6H285.525V1242.64H284.11V1235.9H282.536C282.491 1236.8 282.339 1237.59 282.077 1238.25C281.816 1238.92 281.464 1239.43 281.022 1239.78C280.58 1240.14 280.072 1240.31 279.497 1240.31C278.893 1240.31 278.364 1240.12 277.911 1239.72C277.458 1239.32 277.107 1238.74 276.856 1238C276.609 1237.25 276.486 1236.38 276.486 1235.37ZM277.867 1235.37C277.863 1236.11 277.926 1236.74 278.055 1237.27C278.188 1237.8 278.377 1238.21 278.624 1238.49C278.871 1238.77 279.162 1238.9 279.497 1238.9C279.839 1238.9 280.136 1238.77 280.386 1238.49C280.641 1238.21 280.834 1237.81 280.967 1237.28C281.103 1236.74 281.171 1236.11 281.171 1235.37C281.171 1234.63 281.103 1234 280.967 1233.48C280.834 1232.94 280.641 1232.54 280.386 1232.26C280.136 1231.98 279.839 1231.84 279.497 1231.84C279.162 1231.84 278.871 1231.98 278.624 1232.26C278.377 1232.54 278.188 1232.94 278.055 1233.48C277.926 1234.01 277.863 1234.64 277.867 1235.37ZM297.984 1230.32C298.713 1230.32 299.367 1230.46 299.945 1230.75C300.523 1231.03 300.974 1231.42 301.299 1231.93C301.626 1232.43 301.792 1233.01 301.796 1233.66C301.792 1234.31 301.626 1234.88 301.299 1235.39C300.974 1235.9 300.523 1236.29 299.945 1236.57C299.367 1236.85 298.713 1236.99 297.984 1236.99C297.254 1236.99 296.599 1236.85 296.017 1236.57C295.438 1236.29 294.985 1235.9 294.658 1235.39C294.33 1234.88 294.168 1234.31 294.171 1233.66C294.168 1233.01 294.33 1232.44 294.658 1231.93C294.985 1231.43 295.438 1231.03 296.017 1230.75C296.599 1230.46 297.254 1230.32 297.984 1230.32ZM293.978 1239.1C295.584 1239.1 297.107 1239.07 298.547 1239.01C299.991 1238.95 301.356 1238.83 302.641 1238.64L302.757 1239.72C301.777 1239.91 300.761 1240.05 299.707 1240.14C298.658 1240.23 297.672 1240.29 296.752 1240.31C295.834 1240.33 294.81 1240.34 293.68 1240.34L293.497 1239.1H293.978ZM295.636 1233.66C295.632 1234.06 295.729 1234.42 295.928 1234.73C296.131 1235.04 296.411 1235.28 296.768 1235.45C297.129 1235.62 297.534 1235.71 297.984 1235.71C298.433 1235.71 298.836 1235.62 299.194 1235.45C299.555 1235.28 299.836 1235.04 300.039 1234.73C300.245 1234.42 300.348 1234.06 300.348 1233.66C300.348 1233.25 300.245 1232.9 300.039 1232.59C299.836 1232.28 299.555 1232.04 299.194 1231.87C298.836 1231.69 298.433 1231.61 297.984 1231.61C297.534 1231.61 297.129 1231.69 296.768 1231.87C296.411 1232.04 296.131 1232.28 295.928 1232.59C295.729 1232.9 295.632 1233.25 295.636 1233.66ZM303.52 1229.33H305V1243.35H303.52V1229.33ZM313.845 1232.85H306.901V1231.65H309.652V1229.74H311.122V1231.65H313.845V1232.85ZM307.354 1236.91C307.35 1236.29 307.477 1235.73 307.735 1235.24C307.996 1234.75 308.357 1234.37 308.818 1234.1C309.282 1233.82 309.805 1233.69 310.387 1233.69C310.969 1233.69 311.49 1233.82 311.95 1234.1C312.411 1234.37 312.772 1234.75 313.033 1235.24C313.295 1235.73 313.427 1236.29 313.431 1236.91C313.427 1237.54 313.295 1238.1 313.033 1238.59C312.772 1239.08 312.411 1239.47 311.95 1239.75C311.49 1240.02 310.969 1240.16 310.387 1240.16C309.805 1240.16 309.282 1240.02 308.818 1239.75C308.357 1239.47 307.996 1239.08 307.735 1238.59C307.477 1238.09 307.35 1237.53 307.354 1236.91ZM308.657 1236.91C308.657 1237.3 308.731 1237.64 308.878 1237.94C309.026 1238.24 309.23 1238.48 309.492 1238.64C309.753 1238.81 310.052 1238.89 310.387 1238.88C310.718 1238.89 311.015 1238.81 311.276 1238.64C311.541 1238.48 311.748 1238.24 311.895 1237.94C312.042 1237.64 312.116 1237.3 312.116 1236.91C312.116 1236.52 312.042 1236.18 311.895 1235.88C311.748 1235.58 311.541 1235.35 311.276 1235.18C311.015 1235.01 310.718 1234.92 310.387 1234.92C310.052 1234.92 309.753 1235.01 309.492 1235.18C309.23 1235.35 309.026 1235.58 308.878 1235.88C308.731 1236.18 308.657 1236.52 308.657 1236.91ZM314.497 1229.64H315.895V1235.16H317.508V1229.33H318.923V1243.33H317.508V1236.37H315.895V1242.67H314.497V1229.64ZM335.697 1239.69H334.216V1236.04H331.155V1237.35H324.691V1230.26H326.177V1232.64H329.686V1230.26H331.155V1231.83H334.216V1229.34H335.697V1239.69ZM329.686 1236.16V1233.78H326.177V1236.16H329.686ZM326.553 1238.67H328.05V1241.82H336.011V1243.04H326.553V1238.67ZM334.216 1234.83V1233.04H331.155V1234.83H334.216ZM349.205 1237.64H347.724V1235.92H344.194V1234.7H347.724V1233H344.337C343.888 1234.12 343.151 1235.07 342.127 1235.87C341.103 1236.66 339.827 1237.27 338.299 1237.71L337.702 1236.54C338.803 1236.23 339.75 1235.83 340.542 1235.34C341.337 1234.84 341.96 1234.28 342.409 1233.64C342.862 1233 343.131 1232.31 343.216 1231.56H338.426V1230.34H344.829C344.829 1230.85 344.781 1231.34 344.685 1231.82H347.724V1229.34H349.205V1237.64ZM339.873 1240.51C339.873 1239.95 340.067 1239.47 340.453 1239.06C340.84 1238.65 341.389 1238.33 342.1 1238.12C342.811 1237.9 343.643 1237.78 344.597 1237.78C345.536 1237.78 346.359 1237.9 347.067 1238.12C347.774 1238.33 348.321 1238.65 348.707 1239.06C349.098 1239.47 349.293 1239.95 349.293 1240.51C349.293 1241.07 349.098 1241.56 348.707 1241.98C348.321 1242.39 347.774 1242.71 347.067 1242.93C346.359 1243.15 345.536 1243.26 344.597 1243.26C343.643 1243.26 342.811 1243.15 342.1 1242.93C341.389 1242.71 340.84 1242.39 340.453 1241.98C340.067 1241.56 339.873 1241.07 339.873 1240.51ZM341.348 1240.51C341.348 1240.84 341.479 1241.12 341.741 1241.35C342.002 1241.59 342.376 1241.76 342.862 1241.89C343.352 1242.01 343.93 1242.07 344.597 1242.07C345.249 1242.07 345.816 1242.01 346.299 1241.89C346.781 1241.76 347.153 1241.59 347.415 1241.35C347.68 1241.12 347.812 1240.84 347.812 1240.51C347.812 1240.19 347.68 1239.91 347.415 1239.67C347.153 1239.44 346.781 1239.26 346.299 1239.14C345.816 1239.02 345.249 1238.96 344.597 1238.96C343.93 1238.96 343.352 1239.02 342.862 1239.14C342.376 1239.26 342.002 1239.44 341.741 1239.67C341.479 1239.91 341.348 1240.19 341.348 1240.51ZM359.194 1234.03H356.486V1235.28C357.845 1235.22 359.081 1235.13 360.194 1235L360.265 1236.02C358.914 1236.22 357.484 1236.36 355.978 1236.44C354.472 1236.52 352.914 1236.55 351.304 1236.55L351.122 1235.39C352.54 1235.39 353.829 1235.37 354.989 1235.34V1234.03H352.392V1229.93H359.044V1231.06H353.917V1232.88H359.194V1234.03ZM353.293 1237.4H362.674V1240.8H354.779V1242H363.127V1243.19H353.315V1239.69H361.216V1238.57H353.293V1237.4ZM361.205 1229.34H362.674V1236.82H361.205V1229.34ZM375.299 1230.56C375.299 1231.17 375.525 1231.75 375.979 1232.32C376.432 1232.88 377.043 1233.36 377.813 1233.76C378.583 1234.16 379.42 1234.41 380.327 1234.54L379.735 1235.75C378.973 1235.62 378.251 1235.42 377.57 1235.12C376.892 1234.82 376.29 1234.45 375.763 1234.02C375.24 1233.57 374.829 1233.08 374.531 1232.54C374.233 1233.09 373.82 1233.58 373.293 1234.02C372.77 1234.46 372.17 1234.83 371.492 1235.12C370.815 1235.42 370.096 1235.62 369.338 1235.75L368.741 1234.54C369.647 1234.41 370.483 1234.16 371.249 1233.77C372.015 1233.37 372.623 1232.9 373.072 1232.33C373.525 1231.76 373.752 1231.17 373.752 1230.56V1229.8H375.299V1230.56ZM368.139 1237.12H380.901V1238.35H375.216V1243.33H373.758V1238.35H368.139V1237.12ZM390.084 1238.57C390.084 1238.99 390.152 1239.39 390.288 1239.8C390.428 1240.19 390.638 1240.57 390.918 1240.92C391.198 1241.27 391.542 1241.57 391.951 1241.81C392.364 1241.55 392.714 1241.23 393.001 1240.87C393.288 1240.5 393.504 1240.12 393.647 1239.72C393.795 1239.33 393.868 1238.94 393.868 1238.57V1237.91H395.327V1238.57C395.323 1239.07 395.426 1239.54 395.636 1239.99C395.85 1240.45 396.165 1240.85 396.581 1241.21C397.001 1241.57 397.507 1241.84 398.1 1242.04L397.366 1243.12C396.692 1242.89 396.117 1242.55 395.642 1242.11C395.17 1241.67 394.81 1241.15 394.559 1240.56C394.323 1241.16 393.99 1241.69 393.559 1242.16C393.128 1242.63 392.607 1242.99 391.996 1243.25C391.347 1243.01 390.802 1242.66 390.36 1242.2C389.922 1241.74 389.59 1241.21 389.366 1240.61C389.108 1241.18 388.745 1241.68 388.277 1242.12C387.813 1242.55 387.259 1242.89 386.614 1243.12L385.874 1242.04C386.456 1241.83 386.955 1241.54 387.371 1241.17C387.787 1240.8 388.104 1240.39 388.321 1239.94C388.539 1239.49 388.649 1239.03 388.653 1238.57V1237.91H390.084V1238.57ZM385.515 1233.42C385.515 1232.78 385.675 1232.21 385.996 1231.71C386.316 1231.21 386.76 1230.82 387.327 1230.54C387.894 1230.26 388.533 1230.12 389.244 1230.12C389.951 1230.12 390.587 1230.26 391.15 1230.54C391.717 1230.82 392.161 1231.21 392.482 1231.71C392.802 1232.21 392.962 1232.78 392.962 1233.42C392.962 1234.06 392.802 1234.63 392.482 1235.13C392.161 1235.62 391.717 1236.01 391.15 1236.29C390.587 1236.57 389.951 1236.71 389.244 1236.71C388.533 1236.71 387.894 1236.57 387.327 1236.29C386.763 1236.01 386.32 1235.62 385.996 1235.13C385.675 1234.63 385.515 1234.06 385.515 1233.42ZM386.968 1233.42C386.964 1233.82 387.058 1234.18 387.25 1234.49C387.445 1234.8 387.716 1235.04 388.062 1235.22C388.408 1235.39 388.802 1235.48 389.244 1235.48C389.679 1235.48 390.067 1235.39 390.41 1235.22C390.756 1235.04 391.025 1234.8 391.217 1234.49C391.412 1234.18 391.509 1233.82 391.509 1233.42C391.509 1233.02 391.412 1232.66 391.217 1232.35C391.025 1232.04 390.756 1231.8 390.41 1231.63C390.067 1231.46 389.679 1231.37 389.244 1231.38C388.806 1231.37 388.412 1231.46 388.062 1231.63C387.716 1231.8 387.445 1232.04 387.25 1232.35C387.058 1232.66 386.964 1233.02 386.968 1233.42ZM395.36 1229.34H396.846V1237.3H395.36V1229.34ZM405.111 1230.17C406.087 1230.17 406.968 1230.33 407.752 1230.66C408.54 1230.99 409.159 1231.45 409.609 1232.04C410.062 1232.63 410.288 1233.31 410.288 1234.08C410.288 1234.85 410.062 1235.53 409.609 1236.13C409.159 1236.72 408.54 1237.18 407.752 1237.5C406.968 1237.83 406.087 1237.99 405.111 1237.98C404.139 1237.99 403.261 1237.83 402.476 1237.5C401.691 1237.18 401.075 1236.72 400.625 1236.13C400.176 1235.53 399.951 1234.85 399.951 1234.08C399.951 1233.31 400.176 1232.63 400.625 1232.04C401.075 1231.45 401.691 1230.99 402.476 1230.66C403.261 1230.33 404.139 1230.17 405.111 1230.17ZM398.741 1240.29H411.553V1241.51H398.741V1240.29ZM401.377 1234.08C401.377 1234.61 401.537 1235.08 401.857 1235.49C402.178 1235.9 402.621 1236.21 403.189 1236.44C403.76 1236.66 404.401 1236.77 405.111 1236.77C405.822 1236.77 406.461 1236.66 407.028 1236.44C407.596 1236.21 408.04 1235.9 408.36 1235.49C408.68 1235.08 408.841 1234.61 408.841 1234.08C408.841 1233.55 408.679 1233.08 408.354 1232.67C408.034 1232.26 407.59 1231.94 407.023 1231.71C406.459 1231.48 405.822 1231.37 405.111 1231.38C404.401 1231.37 403.761 1231.48 403.194 1231.71C402.627 1231.94 402.181 1232.26 401.857 1232.67C401.537 1233.08 401.377 1233.55 401.377 1234.08ZM419.288 1232.62H422.454V1229.33H423.923V1243.35H422.454V1237.66H419.288V1239.83H412.796V1230.67H419.288V1232.62ZM417.84 1238.65V1231.83H414.266V1238.65H417.84ZM422.454 1236.46V1233.83H419.288V1236.46H422.454ZM427.017 1245.22H425.691L426.525 1240.9H428.271L427.017 1245.22ZM445.123 1243.33H443.714V1236.09H441.902V1242.61H440.532V1229.61H441.902V1234.88H443.714V1229.33H445.123V1243.33ZM433.587 1231.01H438.825V1232.22H435.073V1238.71C435.99 1238.7 436.791 1238.67 437.477 1238.61C438.165 1238.56 438.865 1238.46 439.576 1238.33L439.698 1239.55C438.913 1239.71 438.141 1239.82 437.383 1239.87C436.624 1239.92 435.668 1239.95 434.515 1239.96H433.587V1231.01ZM459.648 1232.69H457.626V1234.42H459.648V1235.65H457.626V1237.85H456.139V1229.34H457.626V1231.47H459.648V1232.69ZM447.178 1230.15H453.559V1234.15H448.681V1235.95C449.977 1235.95 451.09 1235.92 452.018 1235.86C452.95 1235.79 453.902 1235.68 454.874 1235.51L455.029 1236.72C453.99 1236.9 452.968 1237.02 451.963 1237.08C450.957 1237.15 449.745 1237.18 448.327 1237.18H447.206V1233H452.106V1231.35H447.178V1230.15ZM448.371 1238.55H457.626V1243.31H456.139V1239.75H448.371V1238.55ZM465.139 1231.82C465.139 1232.41 465.274 1232.98 465.543 1233.54C465.815 1234.09 466.206 1234.59 466.714 1235.02C467.226 1235.46 467.826 1235.79 468.515 1236.03L467.758 1237.18C466.985 1236.92 466.31 1236.52 465.736 1235.99C465.165 1235.46 464.725 1234.85 464.415 1234.14C464.102 1234.92 463.644 1235.61 463.04 1236.19C462.439 1236.78 461.729 1237.22 460.907 1237.5L460.139 1236.33C460.843 1236.09 461.458 1235.73 461.985 1235.27C462.515 1234.8 462.922 1234.27 463.206 1233.67C463.493 1233.07 463.636 1232.46 463.636 1231.83V1231.43H460.598V1230.23H468.156V1231.43H465.139V1231.82ZM462.31 1238.4H471.802V1243.33H470.322V1239.6H462.31V1238.4ZM467.725 1232.89H470.322V1229.33H471.802V1237.7H470.322V1234.12H467.725V1232.89ZM485.255 1239.51H483.769V1229.34H485.255V1239.51ZM473.924 1233.75C473.924 1233.09 474.086 1232.49 474.41 1231.97C474.738 1231.44 475.185 1231.03 475.752 1230.73C476.323 1230.44 476.957 1230.29 477.653 1230.29C478.349 1230.29 478.981 1230.44 479.548 1230.73C480.115 1231.03 480.561 1231.44 480.885 1231.97C481.209 1232.49 481.371 1233.09 481.371 1233.75C481.371 1234.43 481.209 1235.03 480.885 1235.56C480.561 1236.08 480.115 1236.5 479.548 1236.79C478.981 1237.08 478.349 1237.23 477.653 1237.23C476.953 1237.23 476.32 1237.08 475.752 1236.79C475.185 1236.5 474.738 1236.08 474.41 1235.56C474.086 1235.03 473.924 1234.43 473.924 1233.75ZM475.377 1233.75C475.373 1234.18 475.469 1234.56 475.664 1234.9C475.863 1235.23 476.135 1235.48 476.482 1235.67C476.828 1235.85 477.218 1235.94 477.653 1235.94C478.08 1235.94 478.465 1235.85 478.808 1235.67C479.154 1235.48 479.425 1235.23 479.62 1234.9C479.819 1234.56 479.918 1234.18 479.918 1233.75C479.918 1233.33 479.819 1232.95 479.62 1232.62C479.425 1232.29 479.154 1232.04 478.808 1231.86C478.461 1231.67 478.076 1231.58 477.653 1231.58C477.222 1231.58 476.832 1231.67 476.482 1231.86C476.135 1232.04 475.863 1232.29 475.664 1232.62C475.469 1232.95 475.373 1233.33 475.377 1233.75ZM476.095 1238.48H477.587V1241.82H485.664V1243.04H476.095V1238.48ZM497.874 1230.75C497.871 1232.23 497.677 1233.58 497.294 1234.82C496.915 1236.05 496.259 1237.2 495.327 1238.27C494.399 1239.33 493.136 1240.27 491.537 1241.08L490.709 1239.95C491.913 1239.34 492.909 1238.66 493.698 1237.91C494.486 1237.15 495.097 1236.32 495.532 1235.41L491.007 1235.85L490.758 1234.56L495.99 1234.24C496.208 1233.53 496.344 1232.77 496.399 1231.96H491.482V1230.75H497.874ZM497.836 1234.87H500.924V1229.33H502.394V1243.33H500.924V1236.1H497.836V1234.87ZM515.858 1243.35H514.388V1229.33H515.858V1243.35ZM505.018 1230.59H511.576V1235.71H506.559V1238.77C507.782 1238.76 508.909 1238.72 509.94 1238.65C510.972 1238.58 512.042 1238.45 513.15 1238.27L513.289 1239.49C512.121 1239.68 510.988 1239.82 509.891 1239.89C508.797 1239.96 507.578 1239.99 506.233 1239.99H505.034V1234.51H510.073V1231.8H505.018V1230.59ZM528.94 1230.98C528.94 1231.71 528.922 1232.36 528.885 1232.92C528.852 1233.49 528.765 1234.11 528.625 1234.8H530.498V1235.99H527.167V1237.31H529.029V1240.72H520.73V1241.98H529.526V1243.15H519.255V1239.63H527.554V1238.46H519.222V1237.31H521.073V1235.99H517.769V1234.8H527.134C527.241 1234.31 527.322 1233.79 527.377 1233.25L519.183 1233.61L519.007 1232.43L527.449 1232.2C527.46 1231.93 527.465 1231.55 527.465 1231.05H519.355V1229.86H528.94V1230.98ZM525.692 1237.31V1235.99H522.554V1237.31H525.692ZM542.929 1243.15H533.636V1238.28H542.929V1243.15ZM531.813 1230.02H538.084V1234.03H533.31V1235.83C534.5 1235.83 535.542 1235.8 536.437 1235.75C537.332 1235.69 538.253 1235.59 539.2 1235.44L539.316 1236.65C538.38 1236.8 537.465 1236.91 536.57 1236.96C535.675 1237.02 534.629 1237.04 533.432 1237.04H532.924H531.841V1232.9H536.642V1231.23H531.813V1230.02ZM541.459 1241.94V1239.44H535.106V1241.94H541.459ZM538.912 1232.4H541.448V1229.34H542.929V1237.56H541.448V1233.61H538.912V1232.4ZM556.371 1231.98H554.924V1238.5C555.69 1238.45 556.368 1238.38 556.957 1238.31L557.034 1239.39C555.734 1239.61 554.373 1239.75 552.952 1239.82C551.534 1239.89 549.999 1239.93 548.349 1239.94L548.173 1238.7C548.946 1238.7 549.543 1238.69 549.963 1238.69V1231.98H548.521V1230.76H556.371V1231.98ZM551.405 1238.66C552.189 1238.64 552.887 1238.62 553.499 1238.59V1231.98H551.405V1238.66ZM557.775 1229.33H559.261V1234.85H561.504V1236.07H559.261V1243.33H557.775V1229.33ZM565.802 1230.14C566.506 1230.14 567.139 1230.29 567.703 1230.57C568.27 1230.85 568.714 1231.25 569.034 1231.76C569.358 1232.26 569.522 1232.84 569.526 1233.48C569.522 1234.13 569.358 1234.71 569.034 1235.22C568.714 1235.72 568.272 1236.12 567.708 1236.4C567.145 1236.69 566.509 1236.83 565.802 1236.83C565.091 1236.83 564.452 1236.69 563.885 1236.4C563.318 1236.12 562.872 1235.72 562.548 1235.22C562.228 1234.71 562.069 1234.13 562.073 1233.48C562.069 1232.84 562.228 1232.26 562.548 1231.76C562.872 1231.25 563.318 1230.85 563.885 1230.57C564.452 1230.29 565.091 1230.14 565.802 1230.14ZM563.526 1233.48C563.522 1233.89 563.618 1234.26 563.813 1234.57C564.009 1234.89 564.279 1235.14 564.626 1235.31C564.975 1235.48 565.368 1235.57 565.802 1235.56C566.233 1235.57 566.622 1235.48 566.968 1235.31C567.314 1235.14 567.585 1234.9 567.78 1234.58C567.979 1234.26 568.08 1233.89 568.084 1233.48C568.08 1233.07 567.979 1232.71 567.78 1232.4C567.585 1232.08 567.314 1231.84 566.968 1231.67C566.626 1231.5 566.237 1231.41 565.802 1231.41C565.364 1231.41 564.972 1231.5 564.626 1231.67C564.279 1231.84 564.009 1232.08 563.813 1232.4C563.618 1232.71 563.522 1233.07 563.526 1233.48ZM563.609 1238.23H572.863V1243.35H571.377V1239.44H563.609V1238.23ZM571.377 1229.33H572.863V1232.83H574.891V1234.06H572.863V1237.55H571.377V1229.33ZM581.741 1229.56C582.791 1229.56 583.69 1229.65 584.438 1229.84C585.185 1230.02 585.754 1230.3 586.145 1230.66C586.539 1231.01 586.736 1231.45 586.736 1231.96C586.736 1232.48 586.539 1232.92 586.145 1233.29C585.754 1233.65 585.185 1233.92 584.438 1234.11C583.693 1234.3 582.795 1234.39 581.741 1234.4C580.688 1234.39 579.787 1234.3 579.04 1234.11C578.292 1233.92 577.721 1233.65 577.327 1233.29C576.933 1232.92 576.736 1232.48 576.736 1231.96C576.736 1231.45 576.933 1231.01 577.327 1230.66C577.721 1230.3 578.292 1230.02 579.04 1229.84C579.791 1229.65 580.692 1229.56 581.741 1229.56ZM575.371 1235.25H588.134V1236.44H575.371V1235.25ZM576.891 1237.51H586.515V1240.79H578.371V1242.04H586.918V1243.19H576.918V1239.72H585.056V1238.62H576.891V1237.51ZM578.288 1231.96C578.285 1232.4 578.577 1232.73 579.167 1232.95C579.76 1233.17 580.618 1233.28 581.741 1233.28C582.868 1233.28 583.728 1233.17 584.321 1232.95C584.918 1232.73 585.217 1232.4 585.217 1231.96C585.217 1231.69 585.084 1231.46 584.819 1231.27C584.554 1231.07 584.163 1230.92 583.647 1230.82C583.135 1230.71 582.513 1230.66 581.78 1230.66C581.036 1230.66 580.403 1230.71 579.879 1230.82C579.356 1230.92 578.959 1231.06 578.686 1231.26C578.417 1231.45 578.285 1231.69 578.288 1231.96ZM597.057 1229.97C597.753 1229.97 598.375 1230.09 598.924 1230.33C599.477 1230.57 599.908 1230.92 600.217 1231.36C600.53 1231.8 600.687 1232.31 600.687 1232.87C600.687 1233.44 600.53 1233.94 600.217 1234.38C599.908 1234.82 599.477 1235.17 598.924 1235.41C598.375 1235.66 597.753 1235.78 597.057 1235.77C596.361 1235.78 595.738 1235.66 595.189 1235.41C594.641 1235.17 594.211 1234.82 593.902 1234.38C593.596 1233.94 593.443 1233.44 593.443 1232.87C593.443 1232.31 593.596 1231.8 593.902 1231.36C594.211 1230.92 594.641 1230.57 595.189 1230.33C595.738 1230.09 596.361 1229.97 597.057 1229.97ZM592.449 1236.86C594.125 1236.86 595.736 1236.82 597.283 1236.76C598.834 1236.69 600.294 1236.55 601.664 1236.35L601.769 1237.45C600.609 1237.67 599.315 1237.83 597.885 1237.93V1242.9H596.399V1238.02C595.416 1238.06 594.164 1238.09 592.642 1238.09L592.449 1236.86ZM594.88 1232.87C594.876 1233.21 594.966 1233.5 595.151 1233.76C595.338 1234.01 595.598 1234.21 595.93 1234.35C596.261 1234.49 596.637 1234.56 597.057 1234.55C597.488 1234.56 597.871 1234.49 598.206 1234.35C598.545 1234.21 598.808 1234.02 598.996 1233.76C599.184 1233.5 599.278 1233.21 599.278 1232.87C599.278 1232.54 599.184 1232.24 598.996 1231.98C598.808 1231.73 598.545 1231.53 598.206 1231.39C597.871 1231.24 597.488 1231.17 597.057 1231.18C596.637 1231.17 596.261 1231.24 595.93 1231.39C595.598 1231.53 595.338 1231.73 595.151 1231.98C594.966 1232.24 594.876 1232.54 594.88 1232.87ZM602.637 1229.34H604.095V1243.33H602.637V1229.34ZM612.885 1232.85H605.941V1231.65H608.692V1229.74H610.162V1231.65H612.885V1232.85ZM606.394 1236.91C606.39 1236.29 606.517 1235.73 606.775 1235.24C607.036 1234.75 607.397 1234.37 607.858 1234.1C608.322 1233.82 608.845 1233.69 609.427 1233.69C610.009 1233.69 610.53 1233.82 610.99 1234.1C611.451 1234.37 611.812 1234.75 612.073 1235.24C612.335 1235.73 612.467 1236.29 612.471 1236.91C612.467 1237.54 612.335 1238.1 612.073 1238.59C611.812 1239.08 611.451 1239.47 610.99 1239.75C610.53 1240.02 610.009 1240.16 609.427 1240.16C608.845 1240.16 608.322 1240.02 607.858 1239.75C607.397 1239.47 607.036 1239.08 606.775 1238.59C606.517 1238.09 606.39 1237.53 606.394 1236.91ZM607.697 1236.91C607.697 1237.3 607.771 1237.64 607.918 1237.94C608.066 1238.24 608.27 1238.48 608.532 1238.64C608.793 1238.81 609.092 1238.89 609.427 1238.88C609.758 1238.89 610.055 1238.81 610.316 1238.64C610.581 1238.48 610.788 1238.24 610.935 1237.94C611.082 1237.64 611.156 1237.3 611.156 1236.91C611.156 1236.52 611.082 1236.18 610.935 1235.88C610.788 1235.58 610.581 1235.35 610.316 1235.18C610.055 1235.01 609.758 1234.92 609.427 1234.92C609.092 1234.92 608.793 1235.01 608.532 1235.18C608.27 1235.35 608.066 1235.58 607.918 1235.88C607.771 1236.18 607.697 1236.52 607.697 1236.91ZM613.537 1229.64H614.935V1235.16H616.548V1229.33H617.963V1243.33H616.548V1236.37H614.935V1242.67H613.537V1229.64ZM627.974 1232.22C627.974 1232.76 628.11 1233.28 628.383 1233.77C628.656 1234.27 629.048 1234.7 629.56 1235.08C630.072 1235.46 630.678 1235.75 631.377 1235.96L630.681 1237.11C629.886 1236.87 629.195 1236.52 628.609 1236.05C628.024 1235.58 627.573 1235.02 627.256 1234.38C626.943 1235.08 626.486 1235.7 625.886 1236.22C625.285 1236.73 624.573 1237.12 623.748 1237.37L623.029 1236.22C623.733 1236.01 624.346 1235.71 624.869 1235.3C625.392 1234.9 625.794 1234.43 626.074 1233.9C626.357 1233.37 626.499 1232.8 626.499 1232.22V1232.08H623.455V1230.9H626.499V1229.27H627.996V1230.9H631.013V1232.08H627.974V1232.22ZM625.118 1238.22H634.068V1243.15H625.118V1238.22ZM632.598 1241.94V1239.39H626.576V1241.94H632.598ZM632.582 1229.33H634.068V1232.79H636.096V1234.03H634.068V1237.59H632.582V1229.33ZM647.902 1232.04C647.899 1232.85 647.887 1233.54 647.869 1234.11C647.851 1234.68 647.803 1235.35 647.725 1236.11C647.652 1236.87 647.532 1237.7 647.366 1238.59L645.875 1238.42C646.037 1237.6 646.156 1236.83 646.234 1236.1C646.315 1235.38 646.364 1234.73 646.383 1234.16C646.405 1233.59 646.418 1232.93 646.422 1232.17V1232.04V1231.88H637.919V1230.67H647.902V1232.04ZM636.576 1240.21H641.427V1235.27H642.897V1240.21H649.339V1241.44H636.576V1240.21ZM656.996 1232.85H650.051V1231.65H652.803V1229.74H654.272V1231.65H656.996V1232.85ZM650.504 1236.91C650.501 1236.29 650.628 1235.73 650.885 1235.24C651.147 1234.75 651.508 1234.37 651.968 1234.1C652.432 1233.82 652.955 1233.69 653.537 1233.69C654.119 1233.69 654.641 1233.82 655.101 1234.1C655.561 1234.37 655.922 1234.75 656.184 1235.24C656.445 1235.73 656.578 1236.29 656.582 1236.91C656.578 1237.54 656.445 1238.1 656.184 1238.59C655.922 1239.08 655.561 1239.47 655.101 1239.75C654.641 1240.02 654.119 1240.16 653.537 1240.16C652.955 1240.16 652.432 1240.02 651.968 1239.75C651.508 1239.47 651.147 1239.08 650.885 1238.59C650.628 1238.09 650.501 1237.53 650.504 1236.91ZM651.808 1236.91C651.808 1237.3 651.882 1237.64 652.029 1237.94C652.176 1238.24 652.381 1238.48 652.642 1238.64C652.904 1238.81 653.202 1238.89 653.537 1238.88C653.869 1238.89 654.165 1238.81 654.427 1238.64C654.692 1238.48 654.898 1238.24 655.046 1237.94C655.193 1237.64 655.267 1237.3 655.267 1236.91C655.267 1236.52 655.193 1236.18 655.046 1235.88C654.898 1235.58 654.692 1235.35 654.427 1235.18C654.165 1235.01 653.869 1234.92 653.537 1234.92C653.202 1234.92 652.904 1235.01 652.642 1235.18C652.381 1235.35 652.176 1235.58 652.029 1235.88C651.882 1236.18 651.808 1236.52 651.808 1236.91ZM657.648 1229.64H659.046V1235.16H660.659V1229.33H662.073V1243.33H660.659V1236.37H659.046V1242.67H657.648V1229.64ZM676.355 1238.43H670.67V1243.32H669.211V1238.43H663.592V1237.22H676.355V1238.43ZM664.305 1234.98C665.167 1234.87 665.964 1234.63 666.697 1234.27C667.43 1233.91 668.016 1233.47 668.454 1232.96C668.893 1232.45 669.119 1231.91 669.134 1231.34H664.775V1230.16H675.156V1231.34H670.813C670.825 1231.91 671.047 1232.45 671.482 1232.96C671.917 1233.47 672.5 1233.91 673.233 1234.27C673.97 1234.63 674.775 1234.87 675.648 1234.98L675.101 1236.15C674.335 1236.03 673.615 1235.83 672.941 1235.55C672.266 1235.26 671.672 1234.91 671.156 1234.49C670.644 1234.06 670.248 1233.59 669.968 1233.07C669.688 1233.59 669.292 1234.06 668.78 1234.49C668.268 1234.91 667.677 1235.26 667.007 1235.55C666.336 1235.83 665.622 1236.03 664.863 1236.15L664.305 1234.98ZM681.366 1233.15C681.366 1233.92 681.471 1234.67 681.681 1235.41C681.894 1236.15 682.213 1236.83 682.636 1237.45C683.06 1238.06 683.574 1238.55 684.178 1238.92L683.344 1240.07C682.71 1239.68 682.169 1239.16 681.719 1238.5C681.27 1237.84 680.92 1237.09 680.67 1236.25C680.404 1237.17 680.031 1237.98 679.548 1238.7C679.069 1239.41 678.498 1239.97 677.835 1240.37L676.907 1239.27C677.548 1238.88 678.095 1238.37 678.548 1237.73C679.005 1237.09 679.349 1236.38 679.581 1235.6C679.813 1234.82 679.929 1234.03 679.929 1233.22V1230.6H681.366V1233.15ZM682.653 1234.25H684.835V1229.6H686.233V1242.64H684.835V1235.48H682.653V1234.25ZM687.714 1229.33H689.139V1243.33H687.714V1229.33ZM703.421 1241.58H690.609V1240.35H693.675V1236.69C693.086 1236.37 692.629 1235.96 692.305 1235.47C691.981 1234.97 691.819 1234.42 691.819 1233.8C691.819 1233.08 692.038 1232.44 692.476 1231.89C692.918 1231.33 693.53 1230.9 694.31 1230.6C695.095 1230.3 695.984 1230.14 696.979 1230.14C697.977 1230.14 698.868 1230.3 699.653 1230.6C700.437 1230.9 701.051 1231.33 701.493 1231.89C701.935 1232.44 702.156 1233.08 702.156 1233.8C702.156 1234.41 701.997 1234.96 701.681 1235.45C701.367 1235.93 700.924 1236.34 700.349 1236.66V1240.35H703.421V1241.58ZM693.261 1233.8C693.261 1234.29 693.417 1234.73 693.73 1235.1C694.043 1235.48 694.482 1235.77 695.045 1235.97C695.609 1236.17 696.253 1236.28 696.979 1236.28C697.701 1236.28 698.343 1236.17 698.907 1235.97C699.474 1235.77 699.916 1235.48 700.233 1235.1C700.55 1234.72 700.708 1234.29 700.708 1233.8C700.708 1233.3 700.55 1232.87 700.233 1232.5C699.916 1232.12 699.476 1231.83 698.913 1231.64C698.349 1231.43 697.704 1231.33 696.979 1231.34C696.253 1231.33 695.609 1231.43 695.045 1231.64C694.482 1231.83 694.043 1232.12 693.73 1232.5C693.417 1232.87 693.261 1233.3 693.261 1233.8ZM698.852 1240.35V1237.23C698.262 1237.37 697.638 1237.44 696.979 1237.44C696.338 1237.44 695.723 1237.37 695.134 1237.24V1240.35H698.852Z" fill="#A0A0A0"/>
    <defs>
    <filter id="filter0_d_2336_19150" x="310" y="0" width="262" height="116" filterUnits="userSpaceOnUse" color-interpolation-filters="sRGB">
    <feFlood flood-opacity="0" result="BackgroundImageFix"/>
    <feColorMatrix in="SourceAlpha" type="matrix" values="0 0 0 0 0 0 0 0 0 0 0 0 0 0 0 0 0 0 127 0" result="hardAlpha"/>
    <feOffset/>
    <feGaussianBlur stdDeviation="10"/>
    <feComposite in2="hardAlpha" operator="out"/>
    <feColorMatrix type="matrix" values="0 0 0 0 0 0 0 0 0 0 0 0 0 0 0 0 0 0 0.08 0"/>
    <feBlend mode="normal" in2="BackgroundImageFix" result="effect1_dropShadow_2336_19150"/>
    <feBlend mode="normal" in="SourceGraphic" in2="effect1_dropShadow_2336_19150" result="shape"/>
    </filter>
    <linearGradient id="paint0_linear_2336_19150" x1="664" y1="789" x2="878" y2="789" gradientUnits="userSpaceOnUse">
    <stop stop-color="#FF7710"/>
    <stop offset="1" stop-color="#FFA159"/>
    </linearGradient>
    <linearGradient id="paint1_linear_2336_19150" x1="878" y1="20" x2="0" y2="20" gradientUnits="userSpaceOnUse">
    <stop stop-color="#FFAF72"/>
    <stop offset="1" stop-color="#FF8528"/>
    </linearGradient>
    <linearGradient id="paint2_linear_2336_19150" x1="488" y1="1101" x2="0" y2="1101" gradientUnits="userSpaceOnUse">
    <stop stop-color="#FFA159"/>
    <stop offset="1" stop-color="#FFA159"/>
    </linearGradient>
    </defs>
    </svg>
    