<svg viewBox="0 0 900 1248" fill="none" xmlns="http://www.w3.org/2000/svg">
    <g filter="url(#filter0_d_2803_22874)">
    <rect x="330" y="20" width="240" height="76" rx="38" fill="white" shape-rendering="crispEdges"/>
    <path d="M375.937 70H371.23V51.8453H371.097L365.904 55.105V50.9282L371.506 47.3702H375.937V70ZM390.297 70H385.59V51.8453H385.457L380.264 55.105V50.9282L385.866 47.3702H390.297V70ZM418.071 60.9503H414.071V60.0221H408.933V57.6354H414.071V44.4641H418.071V60.9503ZM393.972 54.4862C397.574 54.4862 400.859 54.4494 403.828 54.3757C406.804 54.2947 409.651 54.1289 412.369 53.8785L412.579 56.3536C410.178 56.6703 407.636 56.8987 404.955 57.0387V60.9834H400.999V57.1823C399.732 57.2118 398.351 57.2265 396.856 57.2265C395.743 57.2265 394.922 57.2228 394.392 57.2155L393.972 54.4862ZM395.916 49.1271C395.916 48.2799 396.215 47.5359 396.811 46.895C397.408 46.2468 398.252 45.7459 399.342 45.3923C400.432 45.0313 401.692 44.8508 403.121 44.8508C404.52 44.8508 405.762 45.0313 406.845 45.3923C407.927 45.7459 408.771 46.2468 409.375 46.895C409.979 47.5359 410.285 48.2799 410.292 49.1271C410.285 49.9963 409.979 50.7514 409.375 51.3923C408.778 52.0331 407.939 52.5267 406.856 52.8729C405.773 53.2118 404.528 53.3812 403.121 53.3812C401.684 53.3812 400.421 53.2118 399.331 52.8729C398.241 52.5267 397.397 52.0331 396.8 51.3923C396.211 50.7514 395.916 49.9963 395.916 49.1271ZM398.049 61.7901H418.071V68.4309H402.082V69.9006H418.734V72.6851H398.159V65.8564H414.093V64.4751H398.049V61.7901ZM399.684 49.1271C399.677 49.6501 399.975 50.0552 400.579 50.3425C401.191 50.6225 402.038 50.7624 403.121 50.7624C404.189 50.7624 405.029 50.6225 405.64 50.3425C406.252 50.0552 406.557 49.6501 406.557 49.1271C406.557 48.6114 406.252 48.2063 405.64 47.9116C405.036 47.6096 404.215 47.4586 403.176 47.4586C402.078 47.4586 401.22 47.6059 400.601 47.9006C399.983 48.1952 399.677 48.6041 399.684 49.1271ZM442.32 47.1602C442.312 50.3278 441.951 53.175 441.237 55.7017C440.522 58.221 439.24 60.5709 437.391 62.7514C435.542 64.9245 432.975 66.8656 429.69 68.5746L427.502 65.5691C429.727 64.3978 431.568 63.1418 433.027 61.8011C434.485 60.4604 435.627 58.9945 436.452 57.4033L428.209 58.1657L427.657 54.7735L437.69 54.2099C438.014 53.0313 438.231 51.7459 438.342 50.3536H429.181V47.1602H442.32ZM442.264 55.3702H447.723V44.4199H451.69V72.884H447.723V58.6298H442.264V55.3702ZM478.573 72.9503H474.607V44.4199H478.573V72.9503ZM456.253 46.8177H469.767V57.779H460.386V63.0055C462.669 62.9908 464.772 62.9098 466.695 62.7624C468.618 62.6151 470.577 62.3757 472.573 62.0442L472.916 65.2818C470.728 65.6722 468.544 65.9374 466.363 66.0773C464.19 66.2173 461.678 66.2873 458.828 66.2873H456.275V54.6409H465.7V50.0331H456.253V46.8177ZM504.706 47.779C504.706 49.2523 504.673 50.5267 504.606 51.6022C504.547 52.6777 504.396 53.849 504.153 55.116H507.645V58.2541H501.258V60.2431H504.827V67.779H488.628V69.4807H505.822V72.5635H484.684V64.9282H500.86V63.2818H484.639V60.2431H488.076V58.2541H481.822V55.116H500.142C500.312 54.2836 500.433 53.5064 500.507 52.7845L484.617 53.4586L484.164 50.3536L500.706 50L500.728 48.3978H484.949V45.2707H504.706V47.779ZM497.28 60.2431V58.2541H492.065V60.2431H497.28ZM532.75 72.5635H513.534V62.3978H532.75V72.5635ZM509.843 45.768H522.739V54.453H513.832V57.1492C516.131 57.1344 518.109 57.0755 519.766 56.9724C521.424 56.8692 523.099 56.6851 524.794 56.4199L525.081 59.6243C523.195 59.9411 521.309 60.1473 519.424 60.2431C517.545 60.3389 515.136 60.3867 512.197 60.3867H509.888V51.4696H518.849V48.9724H509.843V45.768ZM528.794 69.3702V65.4807H517.49V69.3702H528.794ZM524.175 50.3425H528.772V44.4641H532.75V61.1713H528.772V53.547H524.175V50.3425Z" fill="#FF7710"/>
    </g>
    <path d="M40.8315 174.507C42.0691 174.507 43.1842 174.749 44.1768 175.232C45.1694 175.709 45.9494 176.373 46.5166 177.224C47.0838 178.068 47.3674 179.025 47.3674 180.095C47.3674 181.165 47.0838 182.122 46.5166 182.967C45.9494 183.811 45.1694 184.472 44.1768 184.949C43.1842 185.426 42.0691 185.664 40.8315 185.664C39.581 185.664 38.4563 185.426 37.4572 184.949C36.4581 184.472 35.675 183.811 35.1077 182.967C34.547 182.122 34.2666 181.165 34.2666 180.095C34.2666 179.025 34.547 178.068 35.1077 177.224C35.675 176.373 36.4581 175.709 37.4572 175.232C38.4627 174.749 39.5875 174.507 40.8315 174.507ZM37.2251 180.095C37.2187 180.721 37.3702 181.268 37.6796 181.739C37.989 182.203 38.4176 182.564 38.9655 182.822C39.5134 183.073 40.1354 183.199 40.8315 183.199C41.5212 183.199 42.1367 183.073 42.6782 182.822C43.2261 182.564 43.6515 182.203 43.9544 181.739C44.2638 181.268 44.4185 180.721 44.4185 180.095C44.4185 179.477 44.2638 178.935 43.9544 178.471C43.645 178.007 43.2196 177.649 42.6782 177.398C42.1367 177.146 41.5212 177.021 40.8315 177.021C40.1354 177.021 39.5134 177.146 38.9655 177.398C38.4176 177.649 37.989 178.007 37.6796 178.471C37.3702 178.935 37.2187 179.477 37.2251 180.095ZM37.989 187.279H54.3964V193.738H41.0249V195.72H55.1409V198.127H38.0663V191.494H51.3702V189.648H37.989V187.279ZM51.3508 173.724H54.3964V186.196H51.3508V173.724Z" fill="#FF7710"/>
    <path d="M189.551 188.14H186.496V187.153H181.865V185.287H186.496V173.743H189.551V188.14ZM169.876 182.648C172.712 182.648 175.361 182.609 177.823 182.532C180.292 182.454 182.635 182.306 184.852 182.087L185.017 184.001C183.051 184.272 180.762 184.478 178.152 184.62V188.188H175.135V184.736C173.878 184.768 172.428 184.785 170.785 184.785H169.122L168.783 182.648H169.876ZM170.552 177.843C170.552 177.101 170.807 176.45 171.316 175.89C171.832 175.329 172.56 174.897 173.501 174.594C174.442 174.285 175.532 174.13 176.769 174.13C177.988 174.13 179.064 174.285 179.999 174.594C180.933 174.897 181.658 175.329 182.174 175.89C182.696 176.45 182.96 177.101 182.967 177.843C182.96 178.597 182.696 179.254 182.174 179.815C181.658 180.369 180.933 180.795 179.999 181.091C179.07 181.388 177.994 181.536 176.769 181.536C175.525 181.536 174.433 181.388 173.492 181.091C172.557 180.795 171.832 180.369 171.316 179.815C170.807 179.254 170.552 178.597 170.552 177.843ZM172.409 188.923H189.551V194.472H175.493V196.058H190.209V198.214H172.506V192.481H186.525V191.001H172.409V188.923ZM173.424 177.843C173.418 178.184 173.55 178.484 173.82 178.742C174.091 178.993 174.478 179.186 174.981 179.322C175.49 179.457 176.086 179.525 176.769 179.525C177.446 179.525 178.036 179.457 178.539 179.322C179.041 179.186 179.428 178.993 179.699 178.742C179.976 178.484 180.115 178.184 180.115 177.843C180.115 177.501 179.976 177.201 179.699 176.943C179.428 176.686 179.041 176.489 178.539 176.354C178.036 176.212 177.446 176.141 176.769 176.141C176.086 176.141 175.49 176.212 174.981 176.354C174.478 176.489 174.091 176.686 173.82 176.943C173.55 177.201 173.418 177.501 173.424 177.843Z" fill="black"/>
    <path d="M323.372 183.924H326.833V186.448H323.372V198.417H320.316V173.724H323.372V183.924ZM303.522 191.581C305.971 191.581 308.079 191.559 309.845 191.514V189.193C308.949 189.045 308.166 188.765 307.496 188.352C306.826 187.94 306.307 187.424 305.939 186.805C305.578 186.186 305.398 185.494 305.398 184.727C305.398 183.811 305.649 183.006 306.152 182.309C306.655 181.607 307.36 181.062 308.269 180.675C309.178 180.289 310.219 180.095 311.392 180.095C312.552 180.095 313.587 180.289 314.496 180.675C315.405 181.062 316.114 181.607 316.623 182.309C317.139 183.012 317.4 183.818 317.406 184.727C317.4 185.494 317.209 186.19 316.836 186.815C316.462 187.434 315.936 187.949 315.26 188.362C314.583 188.774 313.797 189.055 312.901 189.203V191.398C315.157 191.282 317.187 191.098 318.992 190.847L319.195 193.08C316.849 193.506 314.444 193.779 311.982 193.902C309.526 194.024 306.851 194.086 303.957 194.086L303.522 191.581ZM303.986 176.566H309.845V173.82H312.901V176.566H318.721V178.974H303.986V176.566ZM308.279 184.727C308.279 185.197 308.405 185.603 308.656 185.945C308.914 186.286 309.278 186.547 309.749 186.728C310.219 186.902 310.767 186.989 311.392 186.989C312.005 186.989 312.543 186.902 313.007 186.728C313.477 186.547 313.842 186.286 314.099 185.945C314.357 185.603 314.486 185.197 314.486 184.727C314.486 184.256 314.357 183.847 314.099 183.499C313.842 183.151 313.477 182.886 313.007 182.706C312.543 182.519 312.005 182.425 311.392 182.425C310.767 182.425 310.219 182.519 309.749 182.706C309.278 182.886 308.914 183.151 308.656 183.499C308.405 183.847 308.279 184.256 308.279 184.727Z" fill="black"/>
    <path d="M451.691 175.773C451.691 176.811 452.058 177.823 452.793 178.809C453.528 179.789 454.559 180.63 455.887 181.333C457.221 182.029 458.739 182.487 460.441 182.706L459.242 185.162C457.856 184.955 456.57 184.601 455.384 184.098C454.198 183.589 453.154 182.96 452.251 182.213C451.355 181.459 450.64 180.617 450.105 179.689C449.564 180.617 448.842 181.459 447.939 182.213C447.043 182.96 446.006 183.589 444.826 184.098C443.646 184.601 442.37 184.955 440.997 185.162L439.789 182.706C441.484 182.487 442.992 182.029 444.314 181.333C445.641 180.63 446.669 179.789 447.398 178.809C448.133 177.83 448.5 176.818 448.5 175.773V174.507H451.691V175.773ZM438.822 187.308H461.34V189.812H451.526V198.417H448.519V189.812H438.822V187.308Z" fill="black"/>
    <path d="M593.478 183.305H586.584V185.916H596.34V188.372H573.822V185.916H583.539V183.305H576.655V174.72H593.478V183.305ZM576.316 190.45H593.594V198.417H590.539V192.848H576.316V190.45ZM590.481 180.898V177.108H579.623V180.898H590.481Z" fill="black"/>
    <path d="M728.652 176.837C728.652 177.714 728.642 178.474 728.623 179.119C728.604 179.757 728.549 180.482 728.459 181.294C728.368 182.1 728.227 182.954 728.033 183.856H731.417V186.312H708.822V183.856H724.968C725.233 182.664 725.403 181.575 725.481 180.588C725.564 179.596 725.61 178.519 725.616 177.359H711.616V174.913H728.652V176.837ZM711.539 189.193H728.613V198.127H711.539V189.193ZM725.597 195.671V191.572H714.517V195.671H725.597Z" fill="black"/>
    <path d="M863.913 188.604H856.613V193.09H866.417V195.546H843.822V193.09H853.558V188.604H846.577V175.541H863.691V177.997H849.662V180.811H863.13V183.209H849.662V186.167H863.913V188.604Z" fill="#FF7710"/>
    <path d="M39.8633 438V436.125L45.7461 430.195C47.5977 428.25 48.5352 427.172 48.5352 425.695C48.5352 424.031 47.1758 422.953 45.3945 422.953C43.5195 422.953 42.3008 424.148 42.3008 425.953H39.8633C39.8398 422.859 42.207 420.797 45.4414 420.797C48.7227 420.797 50.9727 422.859 50.9961 425.625C50.9727 427.523 50.082 429.023 46.8945 432.164L43.4492 435.656V435.797H51.2773V438H39.8633Z" fill="#FF7710"/>
    <path d="M180.535 438.234C177.02 438.234 174.512 436.336 174.418 433.57H177.043C177.137 435.07 178.613 436.008 180.512 436.008C182.551 436.008 184.051 434.883 184.051 433.242C184.051 431.578 182.645 430.359 180.23 430.359H178.777V428.25H180.23C182.152 428.25 183.512 427.172 183.512 425.555C183.512 424.008 182.363 422.953 180.559 422.953C178.848 422.953 177.348 423.891 177.277 425.438H174.793C174.863 422.672 177.418 420.797 180.582 420.797C183.91 420.797 186.02 422.906 185.996 425.414C186.02 427.336 184.824 428.742 182.996 429.188V429.305C185.316 429.633 186.652 431.18 186.652 433.336C186.652 436.172 184.051 438.234 180.535 438.234Z" fill="black"/>
    <path d="M308.508 434.695V432.609L316.008 421.031H319.195V432.516H321.516V434.695H319.195V438H316.758V434.695H308.508ZM311.227 432.516H316.758V424.102H316.57L311.227 432.375V432.516Z" fill="black"/>
    <path d="M450.488 438.234C447.277 438.234 444.863 436.266 444.746 433.57H447.254C447.395 435.023 448.777 436.078 450.488 436.078C452.551 436.078 454.027 434.578 454.027 432.562C454.027 430.5 452.504 429 450.371 428.977C449.012 428.977 447.98 429.422 447.395 430.477H444.957L446.059 421.031H455.668V423.234H448.191L447.629 427.992H447.793C448.496 427.312 449.691 426.844 450.98 426.844C454.168 426.844 456.535 429.211 456.535 432.492C456.535 435.844 454.027 438.234 450.488 438.234Z" fill="black"/>
    <path d="M585.664 438.234C582.523 438.211 579.242 436.359 579.242 430.078C579.242 424.172 581.797 420.797 585.875 420.797C588.992 420.797 591.172 422.742 591.57 425.438H589.016C588.688 424.055 587.586 423.047 585.875 423.047C583.25 423.047 581.727 425.344 581.727 429.164H581.914C582.828 427.734 584.422 426.867 586.273 426.867C589.297 426.867 591.734 429.188 591.734 432.445C591.734 435.727 589.32 438.258 585.664 438.234ZM585.641 436.078C587.703 436.078 589.227 434.484 589.227 432.492C589.227 430.547 587.75 428.977 585.711 428.977C583.625 428.977 582.055 430.617 582.031 432.516C582.055 434.391 583.555 436.078 585.641 436.078Z" fill="black"/>
    <path d="M715.371 438L722.941 423.375V423.234H714.199V421.031H725.613V423.328L718.066 438H715.371Z" fill="black"/>
    <path d="M855.512 438.234C851.832 438.234 849.254 436.242 849.277 433.477C849.254 431.297 850.824 429.516 852.816 429.211V429.117C851.082 428.719 849.91 427.172 849.91 425.32C849.91 422.719 852.277 420.797 855.512 420.797C858.723 420.797 861.066 422.719 861.09 425.32C861.066 427.172 859.895 428.719 858.184 429.117V429.211C860.152 429.516 861.723 431.297 861.746 433.477C861.723 436.242 859.145 438.234 855.512 438.234ZM855.512 436.102C857.715 436.102 859.121 434.953 859.121 433.289C859.121 431.531 857.598 430.266 855.512 430.266C853.402 430.266 851.855 431.531 851.902 433.289C851.855 434.953 853.262 436.102 855.512 436.102ZM855.512 428.227C857.293 428.227 858.559 427.148 858.559 425.555C858.559 423.984 857.316 422.906 855.512 422.906C853.637 422.906 852.418 423.961 852.418 425.555C852.418 427.148 853.707 428.227 855.512 428.227Z" fill="#FF7710"/>
    <path d="M45.3594 576.797C48.4766 576.82 51.7578 578.695 51.7578 584.906C51.7578 590.859 49.2031 594.234 45.125 594.234C42.0078 594.234 39.8047 592.312 39.4062 589.547H41.9609C42.3125 590.977 43.4141 591.984 45.125 591.984C47.75 591.984 49.2734 589.688 49.2969 585.82H49.0859C48.1719 587.25 46.5781 588.117 44.75 588.117C41.7031 588.117 39.2656 585.797 39.2656 582.539C39.2656 579.305 41.6797 576.773 45.3594 576.797ZM45.3594 578.953C43.2969 578.953 41.7734 580.547 41.7734 582.492C41.7734 584.461 43.25 586.008 45.3125 586.008C47.3516 586.008 48.9453 584.344 48.9453 582.469C48.9453 580.641 47.4453 578.953 45.3594 578.953Z" fill="#FF7710"/>
    <path d="M175.4 577.031V594H172.799V579.609H172.705L168.65 582.258V579.797L172.869 577.031H175.4ZM185.139 594.234C181.201 594.234 178.905 591.07 178.905 585.516C178.905 580.008 181.248 576.797 185.139 576.797C189.03 576.797 191.373 580.008 191.373 585.516C191.373 591.07 189.053 594.234 185.139 594.234ZM185.139 592.008C187.436 592.008 188.795 589.758 188.795 585.516C188.795 581.297 187.412 578.977 185.139 578.977C182.865 578.977 181.483 581.297 181.483 585.516C181.483 589.758 182.842 592.008 185.139 592.008Z" fill="black"/>
    <path d="M312.427 577.031V594H309.826V579.609H309.732L305.677 582.258V579.797L309.896 577.031H312.427ZM322.705 577.031V594H320.104V579.609H320.01L315.955 582.258V579.797L320.174 577.031H322.705Z" fill="black"/>
    <path d="M446.17 577.031V594H443.568V579.609H443.474L439.42 582.258V579.797L443.638 577.031H446.17ZM450.002 594V592.125L455.885 586.195C457.737 584.25 458.674 583.172 458.674 581.695C458.674 580.031 457.315 578.953 455.533 578.953C453.658 578.953 452.44 580.148 452.44 581.953H450.002C449.979 578.859 452.346 576.797 455.58 576.797C458.862 576.797 461.112 578.859 461.135 581.625C461.112 583.523 460.221 585.023 457.033 588.164L453.588 591.656V591.797H461.416V594H450.002Z" fill="black"/>
    <path d="M580.318 577.031V594H577.717V579.609H577.623L573.568 582.258V579.797L577.787 577.031H580.318ZM590.174 594.234C586.658 594.234 584.151 592.336 584.057 589.57H586.682C586.776 591.07 588.252 592.008 590.151 592.008C592.19 592.008 593.69 590.883 593.69 589.242C593.69 587.578 592.283 586.359 589.869 586.359H588.416V584.25H589.869C591.791 584.25 593.151 583.172 593.151 581.555C593.151 580.008 592.002 578.953 590.198 578.953C588.487 578.953 586.987 579.891 586.916 581.438H584.432C584.502 578.672 587.057 576.797 590.221 576.797C593.549 576.797 595.658 578.906 595.635 581.414C595.658 583.336 594.463 584.742 592.635 585.188V585.305C594.955 585.633 596.291 587.18 596.291 589.336C596.291 592.172 593.69 594.234 590.174 594.234Z" fill="black"/>
    <path d="M715.189 577.031V594H712.588V579.609H712.494L708.439 582.258V579.797L712.658 577.031H715.189ZM718.647 590.695V588.609L726.147 577.031H729.334V588.516H731.655V590.695H729.334V594H726.897V590.695H718.647ZM721.365 588.516H726.897V580.102H726.709L721.365 588.375V588.516Z" fill="black"/>
    <path d="M851.029 577.031V594H848.427V579.609H848.334L844.279 582.258V579.797L848.498 577.031H851.029ZM860.627 594.234C857.416 594.234 855.002 592.266 854.885 589.57H857.393C857.533 591.023 858.916 592.078 860.627 592.078C862.69 592.078 864.166 590.578 864.166 588.562C864.166 586.5 862.643 585 860.51 584.977C859.151 584.977 858.119 585.422 857.533 586.477H855.096L856.198 577.031H865.807V579.234H858.33L857.768 583.992H857.932C858.635 583.312 859.83 582.844 861.119 582.844C864.307 582.844 866.674 585.211 866.674 588.492C866.674 591.844 864.166 594.234 860.627 594.234Z" fill="#FF7710"/>
    <path d="M40.3298 733.031V750H37.7283V735.609H37.6345L33.5798 738.258V735.797L37.7986 733.031H40.3298ZM50.303 750.234C47.1623 750.211 43.8811 748.359 43.8811 742.078C43.8811 736.172 46.4358 732.797 50.5139 732.797C53.6311 732.797 55.8108 734.742 56.2092 737.438H53.6545C53.3264 736.055 52.2248 735.047 50.5139 735.047C47.8889 735.047 46.3655 737.344 46.3655 741.164H46.553C47.467 739.734 49.0608 738.867 50.9123 738.867C53.9358 738.867 56.3733 741.188 56.3733 744.445C56.3733 747.727 53.9592 750.258 50.303 750.234ZM50.2795 748.078C52.342 748.078 53.8655 746.484 53.8655 744.492C53.8655 742.547 52.3889 740.977 50.3498 740.977C48.2639 740.977 46.6936 742.617 46.6702 744.516C46.6936 746.391 48.1936 748.078 50.2795 748.078Z" fill="#FF7710"/>
    <path d="M176.092 733.031V750H173.49V735.609H173.396L169.342 738.258V735.797L173.56 733.031H176.092ZM180.51 750L188.08 735.375V735.234H179.338V733.031H190.752V735.328L183.205 750H180.51Z" fill="black"/>
    <path d="M310.388 733.031V750H307.787V735.609H307.693L303.638 738.258V735.797L307.857 733.031H310.388ZM320.151 750.234C316.471 750.234 313.893 748.242 313.916 745.477C313.893 743.297 315.463 741.516 317.455 741.211V741.117C315.721 740.719 314.549 739.172 314.549 737.32C314.549 734.719 316.916 732.797 320.151 732.797C323.362 732.797 325.705 734.719 325.729 737.32C325.705 739.172 324.533 740.719 322.823 741.117V741.211C324.791 741.516 326.362 743.297 326.385 745.477C326.362 748.242 323.783 750.234 320.151 750.234ZM320.151 748.102C322.354 748.102 323.76 746.953 323.76 745.289C323.76 743.531 322.237 742.266 320.151 742.266C318.041 742.266 316.494 743.531 316.541 745.289C316.494 746.953 317.901 748.102 320.151 748.102ZM320.151 740.227C321.932 740.227 323.198 739.148 323.198 737.555C323.198 735.984 321.955 734.906 320.151 734.906C318.276 734.906 317.057 735.961 317.057 737.555C317.057 739.148 318.346 740.227 320.151 740.227Z" fill="black"/>
    <path d="M445.33 733.031V750H442.728V735.609H442.635L438.58 738.258V735.797L442.799 733.031H445.33ZM454.998 732.797C458.115 732.82 461.397 734.695 461.397 740.906C461.397 746.859 458.842 750.234 454.764 750.234C451.647 750.234 449.444 748.312 449.045 745.547H451.6C451.951 746.977 453.053 747.984 454.764 747.984C457.389 747.984 458.912 745.688 458.936 741.82H458.725C457.811 743.25 456.217 744.117 454.389 744.117C451.342 744.117 448.905 741.797 448.905 738.539C448.905 735.305 451.319 732.773 454.998 732.797ZM454.998 734.953C452.936 734.953 451.412 736.547 451.412 738.492C451.412 740.461 452.889 742.008 454.951 742.008C456.99 742.008 458.584 740.344 458.584 738.469C458.584 736.641 457.084 734.953 454.998 734.953Z" fill="black"/>
    <path d="M572.697 750V748.125L578.58 742.195C580.431 740.25 581.369 739.172 581.369 737.695C581.369 736.031 580.01 734.953 578.228 734.953C576.353 734.953 575.135 736.148 575.135 737.953H572.697C572.674 734.859 575.041 732.797 578.275 732.797C581.556 732.797 583.806 734.859 583.83 737.625C583.806 739.523 582.916 741.023 579.728 744.164L576.283 747.656V747.797H584.111V750H572.697ZM592.397 750.234C588.459 750.234 586.162 747.07 586.162 741.516C586.162 736.008 588.506 732.797 592.397 732.797C596.287 732.797 598.631 736.008 598.631 741.516C598.631 747.07 596.311 750.234 592.397 750.234ZM592.397 748.008C594.694 748.008 596.053 745.758 596.053 741.516C596.053 737.297 594.67 734.977 592.397 734.977C590.123 734.977 588.74 737.297 588.74 741.516C588.74 745.758 590.1 748.008 592.397 748.008Z" fill="black"/>
    <path d="M709.724 750V748.125L715.607 742.195C717.459 740.25 718.396 739.172 718.396 737.695C718.396 736.031 717.037 734.953 715.256 734.953C713.381 734.953 712.162 736.148 712.162 737.953H709.724C709.701 734.859 712.068 732.797 715.302 732.797C718.584 732.797 720.834 734.859 720.857 737.625C720.834 739.523 719.943 741.023 716.756 744.164L713.31 747.656V747.797H721.138V750H709.724ZM729.963 733.031V750H727.362V735.609H727.268L723.213 738.258V735.797L727.432 733.031H729.963Z" fill="black"/>
    <path d="M842.967 750V748.125L848.849 742.195C850.701 740.25 851.638 739.172 851.638 737.695C851.638 736.031 850.279 734.953 848.498 734.953C846.623 734.953 845.404 736.148 845.404 737.953H842.967C842.943 734.859 845.31 732.797 848.545 732.797C851.826 732.797 854.076 734.859 854.099 737.625C854.076 739.523 853.185 741.023 849.998 744.164L846.552 747.656V747.797H854.381V750H842.967ZM856.76 750V748.125L862.643 742.195C864.494 740.25 865.432 739.172 865.432 737.695C865.432 736.031 864.073 734.953 862.291 734.953C860.416 734.953 859.198 736.148 859.198 737.953H856.76C856.737 734.859 859.104 732.797 862.338 732.797C865.619 732.797 867.869 734.859 867.893 737.625C867.869 739.523 866.979 741.023 863.791 744.164L860.346 747.656V747.797H868.174V750H856.76Z" fill="#FF7710"/>
    <path d="M32.615 906V904.125L38.4978 898.195C40.3494 896.25 41.2869 895.172 41.2869 893.695C41.2869 892.031 39.9275 890.953 38.1462 890.953C36.2712 890.953 35.0525 892.148 35.0525 893.953H32.615C32.5916 890.859 34.9587 888.797 38.1931 888.797C41.4744 888.797 43.7244 890.859 43.7478 893.625C43.7244 895.523 42.8337 897.023 39.6462 900.164L36.2009 903.656V903.797H44.0291V906H32.615ZM52.4319 906.234C48.9163 906.234 46.4084 904.336 46.3147 901.57H48.9397C49.0334 903.07 50.51 904.008 52.4084 904.008C54.4475 904.008 55.9475 902.883 55.9475 901.242C55.9475 899.578 54.5413 898.359 52.1272 898.359H50.6741V896.25H52.1272C54.0491 896.25 55.4084 895.172 55.4084 893.555C55.4084 892.008 54.26 890.953 52.4553 890.953C50.7444 890.953 49.2444 891.891 49.1741 893.438H46.6897C46.76 890.672 49.3147 888.797 52.4788 888.797C55.8069 888.797 57.9163 890.906 57.8928 893.414C57.9163 895.336 56.7209 896.742 54.8928 897.188V897.305C57.2131 897.633 58.5491 899.18 58.5491 901.336C58.5491 904.172 55.9475 906.234 52.4319 906.234Z" fill="#FF7710"/>
    <path d="M167.674 906V904.125L173.556 898.195C175.408 896.25 176.345 895.172 176.345 893.695C176.345 892.031 174.986 890.953 173.205 890.953C171.33 890.953 170.111 892.148 170.111 893.953H167.674C167.65 890.859 170.017 888.797 173.252 888.797C176.533 888.797 178.783 890.859 178.806 893.625C178.783 895.523 177.892 897.023 174.705 900.164L171.26 903.656V903.797H179.088V906H167.674ZM180.717 902.695V900.609L188.217 889.031H191.405V900.516H193.725V902.695H191.405V906H188.967V902.695H180.717ZM183.436 900.516H188.967V892.102H188.78L183.436 900.375V900.516Z" fill="black"/>
    <path d="M302.826 906V904.125L308.709 898.195C310.56 896.25 311.498 895.172 311.498 893.695C311.498 892.031 310.138 890.953 308.357 890.953C306.482 890.953 305.263 892.148 305.263 893.953H302.826C302.802 890.859 305.17 888.797 308.404 888.797C311.685 888.797 313.935 890.859 313.959 893.625C313.935 895.523 313.045 897.023 309.857 900.164L306.412 903.656V903.797H314.24V906H302.826ZM322.385 906.234C319.174 906.234 316.76 904.266 316.643 901.57H319.151C319.291 903.023 320.674 904.078 322.385 904.078C324.448 904.078 325.924 902.578 325.924 900.562C325.924 898.5 324.401 897 322.268 896.977C320.908 896.977 319.877 897.422 319.291 898.477H316.854L317.955 889.031H327.565V891.234H320.088L319.526 895.992H319.69C320.393 895.312 321.588 894.844 322.877 894.844C326.065 894.844 328.432 897.211 328.432 900.492C328.432 903.844 325.924 906.234 322.385 906.234Z" fill="black"/>
    <path d="M437.627 906V904.125L443.51 898.195C445.361 896.25 446.299 895.172 446.299 893.695C446.299 892.031 444.939 890.953 443.158 890.953C441.283 890.953 440.064 892.148 440.064 893.953H437.627C437.603 890.859 439.97 888.797 443.205 888.797C446.486 888.797 448.736 890.859 448.76 893.625C448.736 895.523 447.845 897.023 444.658 900.164L441.213 903.656V903.797H449.041V906H437.627ZM457.561 906.234C454.42 906.211 451.139 904.359 451.139 898.078C451.139 892.172 453.694 888.797 457.772 888.797C460.889 888.797 463.069 890.742 463.467 893.438H460.912C460.584 892.055 459.483 891.047 457.772 891.047C455.147 891.047 453.623 893.344 453.623 897.164H453.811C454.725 895.734 456.319 894.867 458.17 894.867C461.194 894.867 463.631 897.188 463.631 900.445C463.631 903.727 461.217 906.258 457.561 906.234ZM457.537 904.078C459.6 904.078 461.123 902.484 461.123 900.492C461.123 898.547 459.647 896.977 457.608 896.977C455.522 896.977 453.951 898.617 453.928 900.516C453.951 902.391 455.451 904.078 457.537 904.078Z" fill="black"/>
    <path d="M572.888 906V904.125L578.771 898.195C580.623 896.25 581.56 895.172 581.56 893.695C581.56 892.031 580.201 890.953 578.42 890.953C576.545 890.953 575.326 892.148 575.326 893.953H572.888C572.865 890.859 575.232 888.797 578.467 888.797C581.748 888.797 583.998 890.859 584.021 893.625C583.998 895.523 583.107 897.023 579.92 900.164L576.474 903.656V903.797H584.302V906H572.888ZM587.268 906L594.838 891.375V891.234H586.096V889.031H597.51V891.328L589.963 906H587.268Z" fill="black"/>
    <path d="M707.685 906V904.125L713.568 898.195C715.42 896.25 716.357 895.172 716.357 893.695C716.357 892.031 714.998 890.953 713.217 890.953C711.342 890.953 710.123 892.148 710.123 893.953H707.685C707.662 890.859 710.029 888.797 713.263 888.797C716.545 888.797 718.795 890.859 718.818 893.625C718.795 895.523 717.904 897.023 714.717 900.164L711.271 903.656V903.797H719.099V906H707.685ZM727.408 906.234C723.729 906.234 721.151 904.242 721.174 901.477C721.151 899.297 722.721 897.516 724.713 897.211V897.117C722.979 896.719 721.807 895.172 721.807 893.32C721.807 890.719 724.174 888.797 727.408 888.797C730.619 888.797 732.963 890.719 732.987 893.32C732.963 895.172 731.791 896.719 730.08 897.117V897.211C732.049 897.516 733.619 899.297 733.643 901.477C733.619 904.242 731.041 906.234 727.408 906.234ZM727.408 904.102C729.612 904.102 731.018 902.953 731.018 901.289C731.018 899.531 729.494 898.266 727.408 898.266C725.299 898.266 723.752 899.531 723.799 901.289C723.752 902.953 725.158 904.102 727.408 904.102ZM727.408 896.227C729.19 896.227 730.455 895.148 730.455 893.555C730.455 891.984 729.213 890.906 727.408 890.906C725.533 890.906 724.315 891.961 724.315 893.555C724.315 895.148 725.604 896.227 727.408 896.227Z" fill="black"/>
    <path d="M842.618 904.127L848.502 898.185C849.215 897.445 849.759 896.848 850.135 896.395C850.511 895.942 850.798 895.5 850.997 895.069C851.201 894.633 851.304 894.174 851.304 893.693C851.304 893.146 851.165 892.666 850.889 892.251C850.613 891.837 850.234 891.519 849.754 891.298C849.279 891.072 848.746 890.959 848.154 890.959C847.536 890.959 846.991 891.083 846.522 891.331C846.058 891.575 845.699 891.923 845.444 892.376C845.196 892.829 845.071 893.356 845.071 893.959H842.618C842.618 892.942 842.856 892.044 843.331 891.265C843.812 890.481 844.475 889.873 845.32 889.442C846.171 889.011 847.132 888.796 848.204 888.796C849.276 888.796 850.232 889.006 851.071 889.425C851.911 889.845 852.566 890.423 853.036 891.157C853.511 891.887 853.751 892.707 853.757 893.619C853.751 894.271 853.627 894.895 853.384 895.492C853.141 896.088 852.726 896.754 852.141 897.489C851.56 898.218 850.734 899.108 849.663 900.157L846.215 903.663V903.787H854.03V906H842.627L842.618 904.127ZM862.213 888.796C863.351 888.796 864.401 889.052 865.362 889.566C866.329 890.075 867.119 890.934 867.732 892.144C868.346 893.348 868.652 894.936 868.652 896.909C868.652 898.87 868.384 900.55 867.848 901.948C867.312 903.345 866.544 904.409 865.544 905.138C864.55 905.867 863.376 906.232 862.022 906.232C861 906.232 860.08 906.036 859.263 905.644C858.445 905.246 857.782 904.693 857.274 903.986C856.765 903.279 856.445 902.467 856.312 901.55H858.857C859.039 902.29 859.404 902.881 859.951 903.323C860.498 903.76 861.188 903.978 862.022 903.978C862.89 903.978 863.633 903.735 864.252 903.249C864.876 902.757 865.354 902.05 865.685 901.127C866.017 900.204 866.185 899.099 866.191 897.812H865.984C865.52 898.536 864.906 899.102 864.144 899.511C863.387 899.914 862.553 900.116 861.641 900.116C860.636 900.116 859.713 899.878 858.873 899.403C858.039 898.923 857.379 898.26 856.893 897.414C856.406 896.564 856.163 895.608 856.163 894.547C856.163 893.475 856.415 892.503 856.917 891.63C857.42 890.751 858.13 890.061 859.047 889.558C859.964 889.05 861.02 888.796 862.213 888.796ZM858.674 894.472C858.674 895.124 858.823 895.721 859.122 896.262C859.426 896.804 859.846 897.232 860.381 897.547C860.923 897.862 861.533 898.019 862.213 898.019C862.876 898.019 863.484 897.856 864.036 897.53C864.594 897.199 865.033 896.762 865.354 896.221C865.68 895.674 865.843 895.091 865.843 894.472C865.843 893.859 865.685 893.285 865.37 892.749C865.061 892.207 864.633 891.773 864.086 891.448C863.539 891.122 862.931 890.959 862.263 890.959C861.594 890.959 860.986 891.116 860.439 891.431C859.893 891.746 859.462 892.171 859.147 892.707C858.832 893.243 858.674 893.831 858.674 894.472Z" fill="#FF7710"/>
    <path d="M37.862 1062.23C36.7073 1062.23 35.6714 1062.04 34.7543 1061.64C33.8427 1061.25 33.1217 1060.7 32.5913 1059.99C32.0665 1059.29 31.7902 1058.48 31.7626 1057.57H34.3731C34.4007 1058.05 34.5692 1058.48 34.8786 1058.85C35.1935 1059.22 35.6079 1059.51 36.1217 1059.71C36.6355 1059.91 37.2073 1060.01 37.8372 1060.01C38.5167 1060.01 39.1245 1059.9 39.6604 1059.66C40.2018 1059.43 40.6217 1059.1 40.9201 1058.69C41.2239 1058.27 41.3759 1057.79 41.3759 1057.25C41.3814 1056.69 41.2322 1056.19 40.9283 1055.75C40.63 1055.31 40.1908 1054.98 39.6107 1054.73C39.0361 1054.49 38.351 1054.37 37.5554 1054.37H36.1134V1052.26H37.5554C38.1963 1052.26 38.7654 1052.15 39.2626 1051.93C39.7598 1051.7 40.1466 1051.39 40.4228 1050.98C40.7046 1050.57 40.8455 1050.1 40.8455 1049.56C40.8455 1049.05 40.7239 1048.59 40.4808 1048.2C40.2377 1047.8 39.8924 1047.5 39.4449 1047.28C39.0029 1047.07 38.4864 1046.96 37.8952 1046.96C37.3206 1046.96 36.7847 1047.06 36.2875 1047.27C35.7957 1047.46 35.398 1047.75 35.0941 1048.13C34.7902 1048.5 34.6272 1048.94 34.6051 1049.44H32.1189C32.1466 1048.54 32.4201 1047.73 32.9394 1047.03C33.4587 1046.33 34.1549 1045.78 35.0278 1045.38C35.9007 1044.99 36.8648 1044.8 37.9201 1044.8C38.9974 1044.8 39.9477 1045.01 40.7709 1045.43C41.5996 1045.84 42.235 1046.4 42.677 1047.11C43.1245 1047.81 43.3455 1048.58 43.3399 1049.43C43.3455 1050.06 43.2239 1050.63 42.9753 1051.14C42.7322 1051.66 42.3841 1052.09 41.9311 1052.44C41.4781 1052.78 40.9477 1053.02 40.3399 1053.17V1053.31C41.0969 1053.41 41.7488 1053.65 42.2957 1054.01C42.8482 1054.38 43.2681 1054.84 43.5554 1055.41C43.8427 1055.98 43.9836 1056.62 43.9781 1057.34C43.9836 1058.27 43.7212 1059.11 43.1908 1059.85C42.6659 1060.59 41.9366 1061.18 41.0029 1061.6C40.0692 1062.02 39.0223 1062.23 37.862 1062.23ZM52.2426 1062.27C50.9387 1062.27 49.8199 1061.93 48.8862 1061.25C47.9581 1060.56 47.2481 1059.56 46.7564 1058.25C46.2647 1056.94 46.0188 1055.36 46.0188 1053.52C46.0188 1051.69 46.2647 1050.13 46.7564 1048.82C47.2536 1047.51 47.9691 1046.52 48.9028 1045.83C49.8365 1045.14 50.9498 1044.8 52.2426 1044.8C53.5354 1044.8 54.6487 1045.14 55.5824 1045.83C56.5216 1046.52 57.2371 1047.51 57.7288 1048.82C58.226 1050.13 58.4746 1051.69 58.4746 1053.52C58.4746 1055.36 58.2288 1056.94 57.7371 1058.25C57.2453 1059.56 56.5326 1060.56 55.5989 1061.25C54.6652 1061.93 53.5465 1062.27 52.2426 1062.27ZM48.5879 1053.52C48.5879 1054.92 48.7315 1056.11 49.0188 1057.09C49.3061 1058.06 49.7232 1058.8 50.2702 1059.3C50.8227 1059.8 51.4802 1060.05 52.2426 1060.05C53.0105 1060.05 53.668 1059.8 54.215 1059.3C54.7619 1058.8 55.179 1058.06 55.4663 1057.09C55.7592 1056.11 55.9056 1054.92 55.9056 1053.52C55.9056 1052.13 55.7592 1050.94 55.4663 1049.97C55.1735 1048.99 54.7536 1048.25 54.2067 1047.75C53.6597 1047.24 53.005 1046.99 52.2426 1046.99C51.4857 1046.99 50.8337 1047.24 50.2868 1047.75C49.7398 1048.25 49.3199 1048.99 49.0271 1049.97C48.7343 1050.94 48.5879 1052.13 48.5879 1053.52Z" fill="#FF7710"/>
    <path opacity="0.3" d="M183.06 1062H180.475V1047.61H180.375L176.323 1050.26V1047.8L180.541 1045.03H183.06V1062Z" fill="black"/>
    <path opacity="0.3" d="M309.855 1060.13L315.739 1054.19C316.452 1053.44 316.996 1052.85 317.372 1052.4C317.747 1051.94 318.035 1051.5 318.233 1051.07C318.438 1050.63 318.54 1050.17 318.54 1049.69C318.54 1049.15 318.402 1048.67 318.126 1048.25C317.849 1047.84 317.471 1047.52 316.99 1047.3C316.515 1047.07 315.982 1046.96 315.391 1046.96C314.772 1046.96 314.228 1047.08 313.758 1047.33C313.294 1047.57 312.935 1047.92 312.681 1048.38C312.432 1048.83 312.308 1049.36 312.308 1049.96H309.855C309.855 1048.94 310.093 1048.04 310.568 1047.27C311.048 1046.48 311.711 1045.87 312.557 1045.44C313.407 1045.01 314.369 1044.8 315.441 1044.8C316.512 1044.8 317.468 1045.01 318.308 1045.43C319.148 1045.85 319.803 1046.42 320.272 1047.16C320.747 1047.89 320.988 1048.71 320.993 1049.62C320.988 1050.27 320.863 1050.9 320.62 1051.49C320.377 1052.09 319.963 1052.75 319.377 1053.49C318.797 1054.22 317.971 1055.11 316.899 1056.16L313.452 1059.66V1059.79H321.267V1062H309.863L309.855 1060.13Z" fill="black"/>
    <path opacity="0.3" d="M450.528 1062.23C449.374 1062.23 448.338 1062.04 447.421 1061.64C446.509 1061.25 445.788 1060.7 445.258 1059.99C444.733 1059.29 444.456 1058.48 444.429 1057.57H447.039C447.067 1058.05 447.235 1058.48 447.545 1058.85C447.86 1059.22 448.274 1059.51 448.788 1059.71C449.302 1059.91 449.874 1060.01 450.503 1060.01C451.183 1060.01 451.791 1059.9 452.327 1059.66C452.868 1059.43 453.288 1059.1 453.586 1058.69C453.89 1058.27 454.042 1057.79 454.042 1057.25C454.048 1056.69 453.898 1056.19 453.595 1055.75C453.296 1055.31 452.857 1054.98 452.277 1054.73C451.702 1054.49 451.017 1054.37 450.222 1054.37H448.78V1052.26H450.222C450.863 1052.26 451.432 1052.15 451.929 1051.93C452.426 1051.7 452.813 1051.39 453.089 1050.98C453.371 1050.57 453.512 1050.1 453.512 1049.56C453.512 1049.05 453.39 1048.59 453.147 1048.2C452.904 1047.8 452.559 1047.5 452.111 1047.28C451.669 1047.07 451.153 1046.96 450.561 1046.96C449.987 1046.96 449.451 1047.06 448.954 1047.27C448.462 1047.46 448.064 1047.75 447.76 1048.13C447.456 1048.5 447.293 1048.94 447.271 1049.44H444.785C444.813 1048.54 445.086 1047.73 445.606 1047.03C446.125 1046.33 446.821 1045.78 447.694 1045.38C448.567 1044.99 449.531 1044.8 450.586 1044.8C451.664 1044.8 452.614 1045.01 453.437 1045.43C454.266 1045.84 454.901 1046.4 455.343 1047.11C455.791 1047.81 456.012 1048.58 456.006 1049.43C456.012 1050.06 455.89 1050.63 455.642 1051.14C455.398 1051.66 455.05 1052.09 454.597 1052.44C454.144 1052.78 453.614 1053.02 453.006 1053.17V1053.31C453.763 1053.41 454.415 1053.65 454.962 1054.01C455.514 1054.38 455.934 1054.84 456.222 1055.41C456.509 1055.98 456.65 1056.62 456.644 1057.34C456.65 1058.27 456.387 1059.11 455.857 1059.85C455.332 1060.59 454.603 1061.18 453.669 1061.6C452.735 1062.02 451.689 1062.23 450.528 1062.23Z" fill="black"/>
    <path opacity="0.3" d="M578.518 1056.6L586.01 1045.03H589.209V1056.51H591.513V1058.69H589.209V1062H586.747V1058.69H578.518V1056.6ZM586.764 1056.51V1048.09H586.582L581.22 1056.37V1056.51H586.764Z" fill="black"/>
    <path opacity="0.3" d="M720.499 1062.23C719.438 1062.23 718.477 1062.03 717.615 1061.64C716.753 1061.23 716.068 1060.68 715.56 1059.97C715.057 1059.26 714.789 1058.46 714.756 1057.57H717.267C717.306 1058.04 717.471 1058.47 717.764 1058.85C718.062 1059.23 718.449 1059.53 718.924 1059.75C719.405 1059.96 719.93 1060.07 720.499 1060.07C721.173 1060.07 721.778 1059.92 722.314 1059.62C722.855 1059.32 723.275 1058.9 723.573 1058.37C723.877 1057.83 724.029 1057.23 724.029 1056.56C724.029 1055.88 723.869 1055.27 723.549 1054.72C723.234 1054.18 722.797 1053.75 722.239 1053.45C721.681 1053.14 721.051 1052.98 720.35 1052.98C718.93 1052.98 717.941 1053.48 717.383 1054.48H714.955L716.065 1045.03H725.678V1047.24H718.203L717.623 1051.98H717.789C718.154 1051.64 718.618 1051.36 719.181 1051.16C719.75 1050.96 720.35 1050.85 720.98 1050.85C722.035 1050.85 722.985 1051.1 723.83 1051.58C724.676 1052.06 725.336 1052.73 725.811 1053.6C726.292 1054.45 726.532 1055.42 726.532 1056.51C726.532 1057.6 726.275 1058.59 725.761 1059.46C725.248 1060.32 724.532 1061 723.615 1061.49C722.698 1061.99 721.659 1062.23 720.499 1062.23Z" fill="black"/>
    <path opacity="0.3" d="M855.706 1062.23C854.557 1062.23 853.499 1061.98 852.532 1061.47C851.565 1060.96 850.775 1060.09 850.162 1058.88C849.554 1057.67 849.25 1056.07 849.25 1054.08C849.25 1052.13 849.518 1050.46 850.054 1049.07C850.59 1047.68 851.355 1046.62 852.349 1045.89C853.344 1045.16 854.518 1044.8 855.872 1044.8C856.894 1044.8 857.811 1044.99 858.623 1045.39C859.441 1045.78 860.104 1046.33 860.612 1047.03C861.12 1047.73 861.441 1048.54 861.573 1049.44H859.029C858.847 1048.72 858.482 1048.14 857.935 1047.7C857.388 1047.27 856.7 1047.05 855.872 1047.05C855.004 1047.05 854.258 1047.29 853.634 1047.78C853.015 1048.27 852.543 1048.97 852.217 1049.89C851.891 1050.81 851.728 1051.9 851.728 1053.17H851.918C852.377 1052.45 852.988 1051.89 853.75 1051.48C854.512 1051.08 855.355 1050.88 856.278 1050.88C857.278 1050.88 858.195 1051.12 859.029 1051.6C859.863 1052.07 860.523 1052.74 861.01 1053.59C861.496 1054.43 861.739 1055.39 861.739 1056.45C861.739 1057.53 861.488 1058.51 860.985 1059.4C860.482 1060.28 859.772 1060.97 858.855 1061.48C857.938 1061.98 856.888 1062.23 855.706 1062.23ZM852.043 1056.52C852.043 1057.15 852.197 1057.73 852.507 1058.28C852.822 1058.82 853.253 1059.25 853.8 1059.58C854.352 1059.91 854.968 1060.07 855.648 1060.07C856.316 1060.07 856.924 1059.91 857.471 1059.6C858.018 1059.28 858.449 1058.84 858.764 1058.3C859.079 1057.75 859.236 1057.15 859.236 1056.49C859.236 1055.85 859.081 1055.26 858.772 1054.72C858.468 1054.18 858.046 1053.75 857.504 1053.44C856.968 1053.12 856.366 1052.97 855.697 1052.97C855.029 1052.97 854.416 1053.13 853.858 1053.46C853.3 1053.78 852.858 1054.22 852.532 1054.77C852.211 1055.31 852.048 1055.89 852.043 1056.52Z" fill="#FF7710"/>
    <path opacity="0.3" d="M32.6267 282V280.125L38.5095 274.195C40.3611 272.25 41.2986 271.172 41.2986 269.695C41.2986 268.031 39.9392 266.953 38.158 266.953C36.283 266.953 35.0642 268.148 35.0642 269.953H32.6267C32.6033 266.859 34.9705 264.797 38.2048 264.797C41.4861 264.797 43.7361 266.859 43.7595 269.625C43.7361 271.523 42.8455 273.023 39.658 276.164L36.2127 279.656V279.797H44.0408V282H32.6267ZM52.5608 282.234C49.4202 282.211 46.1389 280.359 46.1389 274.078C46.1389 268.172 48.6936 264.797 52.7717 264.797C55.8889 264.797 58.0686 266.742 58.467 269.438H55.9123C55.5842 268.055 54.4827 267.047 52.7717 267.047C50.1467 267.047 48.6233 269.344 48.6233 273.164H48.8108C49.7248 271.734 51.3186 270.867 53.1702 270.867C56.1936 270.867 58.6311 273.188 58.6311 276.445C58.6311 279.727 56.217 282.258 52.5608 282.234ZM52.5373 280.078C54.5998 280.078 56.1233 278.484 56.1233 276.492C56.1233 274.547 54.6467 272.977 52.6077 272.977C50.5217 272.977 48.9514 274.617 48.928 276.516C48.9514 278.391 50.4514 280.078 52.5373 280.078Z" fill="#FF7710"/>
    <path opacity="0.3" d="M167.888 282V280.125L173.771 274.195C175.623 272.25 176.56 271.172 176.56 269.695C176.56 268.031 175.201 266.953 173.42 266.953C171.545 266.953 170.326 268.148 170.326 269.953H167.888C167.865 266.859 170.232 264.797 173.467 264.797C176.748 264.797 178.998 266.859 179.021 269.625C178.998 271.523 178.107 273.023 174.92 276.164L171.474 279.656V279.797H179.302V282H167.888ZM182.268 282L189.838 267.375V267.234H181.096V265.031H192.51V267.328L184.963 282H182.268Z" fill="black"/>
    <path opacity="0.3" d="M302.685 282V280.125L308.568 274.195C310.42 272.25 311.357 271.172 311.357 269.695C311.357 268.031 309.998 266.953 308.217 266.953C306.342 266.953 305.123 268.148 305.123 269.953H302.685C302.662 266.859 305.029 264.797 308.263 264.797C311.545 264.797 313.795 266.859 313.818 269.625C313.795 271.523 312.904 273.023 309.717 276.164L306.271 279.656V279.797H314.099V282H302.685ZM322.408 282.234C318.729 282.234 316.151 280.242 316.174 277.477C316.151 275.297 317.721 273.516 319.713 273.211V273.117C317.979 272.719 316.807 271.172 316.807 269.32C316.807 266.719 319.174 264.797 322.408 264.797C325.619 264.797 327.963 266.719 327.987 269.32C327.963 271.172 326.791 272.719 325.08 273.117V273.211C327.049 273.516 328.619 275.297 328.643 277.477C328.619 280.242 326.041 282.234 322.408 282.234ZM322.408 280.102C324.612 280.102 326.018 278.953 326.018 277.289C326.018 275.531 324.494 274.266 322.408 274.266C320.299 274.266 318.752 275.531 318.799 277.289C318.752 278.953 320.158 280.102 322.408 280.102ZM322.408 272.227C324.19 272.227 325.455 271.148 325.455 269.555C325.455 267.984 324.213 266.906 322.408 266.906C320.533 266.906 319.315 267.961 319.315 269.555C319.315 271.148 320.604 272.227 322.408 272.227Z" fill="black"/>
    <path opacity="0.3" d="M437.627 282V280.125L443.51 274.195C445.361 272.25 446.299 271.172 446.299 269.695C446.299 268.031 444.939 266.953 443.158 266.953C441.283 266.953 440.064 268.148 440.064 269.953H437.627C437.603 266.859 439.97 264.797 443.205 264.797C446.486 264.797 448.736 266.859 448.76 269.625C448.736 271.523 447.845 273.023 444.658 276.164L441.213 279.656V279.797H449.041V282H437.627ZM457.256 264.797C460.373 264.82 463.655 266.695 463.655 272.906C463.655 278.859 461.1 282.234 457.022 282.234C453.905 282.234 451.701 280.312 451.303 277.547H453.858C454.209 278.977 455.311 279.984 457.022 279.984C459.647 279.984 461.17 277.688 461.194 273.82H460.983C460.069 275.25 458.475 276.117 456.647 276.117C453.6 276.117 451.162 273.797 451.162 270.539C451.162 267.305 453.576 264.773 457.256 264.797ZM457.256 266.953C455.194 266.953 453.67 268.547 453.67 270.492C453.67 272.461 455.147 274.008 457.209 274.008C459.248 274.008 460.842 272.344 460.842 270.469C460.842 268.641 459.342 266.953 457.256 266.953Z" fill="black"/>
    <path opacity="0.3" d="M577.869 282.234C574.353 282.234 571.845 280.336 571.752 277.57H574.377C574.47 279.07 575.947 280.008 577.845 280.008C579.885 280.008 581.385 278.883 581.385 277.242C581.385 275.578 579.978 274.359 577.564 274.359H576.111V272.25H577.564C579.486 272.25 580.845 271.172 580.845 269.555C580.845 268.008 579.697 266.953 577.892 266.953C576.181 266.953 574.681 267.891 574.611 269.438H572.127C572.197 266.672 574.752 264.797 577.916 264.797C581.244 264.797 583.353 266.906 583.33 269.414C583.353 271.336 582.158 272.742 580.33 273.188V273.305C582.65 273.633 583.986 275.18 583.986 277.336C583.986 280.172 581.385 282.234 577.869 282.234ZM592.248 282.234C588.311 282.234 586.014 279.07 586.014 273.516C586.014 268.008 588.358 264.797 592.248 264.797C596.139 264.797 598.483 268.008 598.483 273.516C598.483 279.07 596.162 282.234 592.248 282.234ZM592.248 280.008C594.545 280.008 595.905 277.758 595.905 273.516C595.905 269.297 594.522 266.977 592.248 266.977C589.975 266.977 588.592 269.297 588.592 273.516C588.592 277.758 589.951 280.008 592.248 280.008Z" fill="black"/>
    <path opacity="0.3" d="M714.896 282.234C711.381 282.234 708.873 280.336 708.779 277.57H711.404C711.498 279.07 712.974 280.008 714.873 280.008C716.912 280.008 718.412 278.883 718.412 277.242C718.412 275.578 717.006 274.359 714.592 274.359H713.138V272.25H714.592C716.513 272.25 717.873 271.172 717.873 269.555C717.873 268.008 716.724 266.953 714.92 266.953C713.209 266.953 711.709 267.891 711.638 269.438H709.154C709.224 266.672 711.779 264.797 714.943 264.797C718.271 264.797 720.381 266.906 720.357 269.414C720.381 271.336 719.185 272.742 717.357 273.188V273.305C719.677 273.633 721.013 275.18 721.013 277.336C721.013 280.172 718.412 282.234 714.896 282.234ZM729.815 265.031V282H727.213V267.609H727.119L723.065 270.258V267.797L727.283 265.031H729.815Z" fill="black"/>
    <path d="M858.066 265.031V282H855.465V267.609H855.371L851.316 270.258V267.797L855.535 265.031H858.066Z" fill="#FF7710"/>
    <g opacity="0.4">
    <rect x="518" y="301" width="134" height="40" rx="20" fill="url(#paint0_linear_2803_22874)"/>
    <path d="M539.553 316.516C539.553 318.297 540.71 319.969 542.882 320.656L541.944 322.016C540.421 321.5 539.327 320.469 538.725 319.156C538.1 320.656 536.96 321.836 535.335 322.406L534.397 321.047C536.678 320.25 537.803 318.375 537.819 316.359V315.016H539.553V316.516ZM545.694 314.266V317.703H547.663V319.141H545.694V322.719H543.96V314.266H545.694ZM541.1 323.031C544.022 323.016 545.819 324.016 545.835 325.688C545.819 327.391 544.022 328.375 541.1 328.375C538.147 328.375 536.319 327.391 536.319 325.688C536.319 324.016 538.147 323.016 541.1 323.031ZM541.1 324.391C539.163 324.391 538.053 324.859 538.053 325.688C538.053 326.562 539.163 327 541.1 327C543.038 327 544.116 326.562 544.116 325.688C544.116 324.859 543.038 324.391 541.1 324.391ZM560.312 316.156V317.562H548.64V316.156H553.624V314.453H555.343V316.156H560.312ZM560.968 325.469V326.875H548.062V325.469H553.624V323.734C551.179 323.539 549.702 322.562 549.718 321C549.702 319.297 551.53 318.281 554.483 318.281C557.39 318.281 559.233 319.297 559.233 321C559.233 322.555 557.749 323.531 555.343 323.719V325.469H560.968ZM554.483 319.641C552.562 319.656 551.483 320.109 551.499 321C551.483 321.906 552.562 322.359 554.483 322.375C556.374 322.359 557.452 321.906 557.452 321C557.452 320.109 556.374 319.656 554.483 319.641ZM576.843 314.266V328.391H575.093V314.266H576.843ZM573.406 315.641V317.062H572.047V323.391C572.726 323.344 573.39 323.281 574.031 323.203L574.125 324.5C571.093 324.984 567.781 325.047 565.187 325.047L565.015 323.625C565.562 323.625 566.148 323.617 566.765 323.609V317.062H565.39V315.641H573.406ZM568.437 323.562C569.062 323.555 569.703 323.531 570.343 323.5V317.062H568.437V323.562ZM590.023 320.891V322.281H580.117V315.5H589.914V316.906H581.836V320.891H590.023ZM591.461 325.156V326.594H578.555V325.156H591.461ZM594.25 315.172V317.25H596.578V315.172H598.188V321.906H592.61V315.172H594.25ZM594.25 320.531H596.578V318.594H594.25V320.531ZM604.141 314.281V322.766H602.485V319.219H601.078V322.688H599.453V314.547H601.078V317.797H602.485V314.281H604.141ZM604.141 323.484V328.391H602.407V324.891H594.469V323.484H604.141ZM621.235 314.266V328.391H619.548V314.266H621.235ZM618.267 314.547V327.703H616.642V320.922H613.923V319.5H616.642V314.547H618.267ZM614.892 315.922V317.312H611.22V323.703C612.892 323.688 614.087 323.617 615.47 323.328L615.61 324.75C614.017 325.078 612.61 325.141 610.47 325.156H609.517V315.922H614.892ZM634.306 314.266V328.406H632.556V314.266H634.306ZM626.697 315.297C628.822 315.297 630.368 317.234 630.384 320.281C630.368 323.359 628.822 325.281 626.697 325.281C624.556 325.281 623.009 323.359 623.009 320.281C623.009 317.234 624.556 315.297 626.697 315.297ZM626.697 316.859C625.493 316.859 624.681 318.125 624.681 320.281C624.681 322.453 625.493 323.719 626.697 323.719C627.884 323.719 628.697 322.453 628.697 320.281C628.697 318.125 627.884 316.859 626.697 316.859Z" fill="white"/>
    </g>
    <rect x="518" y="613" width="134" height="40" rx="20" fill="url(#paint1_linear_2803_22874)"/>
    <path d="M541.85 628.203C541.85 630.391 543.991 632.578 546.944 633.094L546.163 634.547C543.796 634.047 541.858 632.617 540.944 630.719C540.007 632.602 538.069 634.039 535.71 634.547L534.944 633.094C537.866 632.562 539.991 630.375 540.007 628.203V627.156H541.85V628.203ZM547.46 637.156V638.594H534.553V637.156H547.46ZM559.905 626.266V640.406H558.187V632.781H555.53V631.375H558.187V626.266H559.905ZM555.312 627.484V628.906H550.452V631.438H554.749V632.812H550.452V635.719C552.601 635.711 554.21 635.641 556.03 635.344L556.202 636.75C554.14 637.062 552.343 637.141 549.812 637.156H548.702V627.484H555.312ZM573.32 626.266V640.406H571.57V626.266H573.32ZM569.257 627.547V628.969H564.195V635.531C566.796 635.523 568.429 635.445 570.304 635.109L570.476 636.547C568.46 636.922 566.632 637 563.648 637H562.445V627.547H569.257ZM583.727 628.297C583.711 630.219 584.836 631.969 587.055 632.672L586.117 634.031C584.578 633.492 583.5 632.469 582.898 631.125C582.273 632.664 581.094 633.875 579.383 634.469L578.461 633.062C580.805 632.297 581.977 630.406 581.977 628.375V627.031H583.727V628.297ZM590.383 626.266V634.578H588.648V630.422H585.836V629H588.648V626.266H590.383ZM585.602 634.953C588.602 634.953 590.43 635.953 590.43 637.672C590.43 639.391 588.602 640.375 585.602 640.375C582.617 640.375 580.789 639.391 580.805 637.672C580.789 635.953 582.617 634.953 585.602 634.953ZM585.602 636.297C583.633 636.297 582.523 636.781 582.523 637.672C582.523 638.531 583.633 639.016 585.602 639.016C587.57 639.016 588.695 638.531 588.695 637.672C588.695 636.781 587.57 636.297 585.602 636.297ZM599.953 627.734V628.734C599.953 630 599.953 631.766 599.563 634.203L597.844 634.062C598.18 631.922 598.219 630.344 598.235 629.125H592.688V627.734H599.953ZM596.391 631.766V635.938C597.828 635.883 599.305 635.781 600.657 635.609L600.75 636.906C597.828 637.375 594.594 637.438 592.11 637.422L591.938 636.031C592.774 636.023 593.703 636.016 594.672 635.984V631.766H596.391ZM603.141 626.266V632.016H605.188V633.484H603.141V640.391H601.391V626.266H603.141ZM611.251 626.891V628.688H614.548V626.891H616.267V633.047H609.532V626.891H611.251ZM611.251 631.672H614.548V630H611.251V631.672ZM620.188 626.266V629.125H622.157V630.531H620.188V633.5H618.454V626.266H620.188ZM620.188 634.062V637.766H612.688V638.891H620.626V640.266H610.97V636.5H618.454V635.422H610.954V634.062H620.188ZM635.462 637.359V638.766H622.556V637.359H625.9V634.453H623.665V633.047H625.65V628.859H623.618V627.469H634.337V628.859H632.275V633.047H634.29V634.453H632.056V637.359H635.462ZM627.384 633.047H630.556V628.859H627.384V633.047ZM627.634 637.359H630.322V634.453H627.634V637.359Z" fill="white"/>
    <rect x="486" y="925" width="199" height="40" rx="20" fill="url(#paint2_linear_2803_22874)"/>
    <path d="M507.884 940.812C507.884 942.547 509.009 944.172 511.213 944.844L510.384 946.203C508.798 945.711 507.673 944.703 507.056 943.422C506.431 944.906 505.236 946.086 503.541 946.656L502.666 945.281C504.947 944.531 506.134 942.703 506.134 940.828V940.656H503.15V939.25H510.822V940.656H507.884V940.812ZM513.963 938.266V941.656H515.931V943.078H513.963V946.688H512.228V938.266H513.963ZM509.369 947C512.291 947 514.088 947.984 514.103 949.672C514.088 951.375 512.291 952.375 509.369 952.375C506.416 952.375 504.588 951.375 504.588 949.672C504.588 947.984 506.416 947 509.369 947ZM509.369 948.359C507.431 948.359 506.322 948.812 506.322 949.672C506.322 950.547 507.431 951.016 509.369 951.016C511.306 951.016 512.384 950.547 512.384 949.672C512.384 948.812 511.306 948.359 509.369 948.359ZM528.127 938.266V952.391H526.377V938.266H528.127ZM523.908 939.766C523.908 943.969 522.283 947.547 517.33 949.891L516.424 948.5C520.119 946.742 521.838 944.352 522.143 941.141H517.143V939.766H523.908ZM546.221 949.234V950.688H533.315V949.234H546.221ZM545.096 939.578V940.969H543.034V945.469H545.049V946.844H534.424V945.469H536.409V940.969H534.378V939.578H545.096ZM538.143 945.469H541.315V940.969H538.143V945.469ZM556.12 938.562V946.781H554.464V943.219H552.698V941.812H554.464V938.562H556.12ZM551.183 941.297C551.183 942.812 552.026 944.344 553.823 945.062L552.948 946.391C551.698 945.906 550.854 945 550.37 943.906C549.854 945.133 548.956 946.141 547.62 946.688L546.714 945.328C548.604 944.578 549.495 942.906 549.495 941.297V940.734H547.12V939.344H553.417V940.734H551.183V941.297ZM558.901 938.266V946.875H557.245V938.266H558.901ZM558.901 947.438V952.391H557.167V948.828H549.229V947.438H558.901ZM575.574 938.281V946.266H573.824V938.281H575.574ZM575.574 946.969V952.219H566.199V946.969H575.574ZM567.918 948.344V950.812H573.871V948.344H567.918ZM569.074 940.188C569.074 941.984 570.277 943.672 572.48 944.375L571.636 945.703C570.003 945.195 568.832 944.156 568.199 942.797C567.55 944.258 566.363 945.422 564.668 945.984L563.808 944.609C566.105 943.875 567.277 942.047 567.277 940.188V938.812H569.074V940.188ZM582.363 941.656C582.348 944.172 583.613 946.734 585.801 947.781L584.738 949.172C583.207 948.398 582.105 946.906 581.504 945.109C580.887 947.031 579.73 948.625 578.113 949.438L577.051 948.047C579.316 946.969 580.613 944.266 580.629 941.656V939.406H582.363V941.656ZM588.379 938.266V943.797H590.551V945.281H588.379V952.391H586.644V938.266H588.379ZM601.833 939.141V945.016H595.02V939.141H601.833ZM596.739 940.516V943.656H600.114V940.516H596.739ZM606.036 938.266V946.312H604.317V938.266H606.036ZM606.333 947.141V948.453H602.301C602.465 949.547 604.161 950.75 606.864 951.016L606.27 952.344C603.981 952.109 602.247 951.203 601.395 950.031C600.512 951.219 598.762 952.094 596.458 952.344L595.864 951.016C598.567 950.781 600.301 949.578 600.458 948.453H596.442V947.141H600.504V945.906H602.254V947.141H606.333ZM616.849 945.828V948.109C618.075 948.047 619.31 947.938 620.474 947.766L620.614 949.047C617.443 949.625 614.052 949.656 611.568 949.656L611.349 948.25C612.45 948.242 613.747 948.234 615.114 948.188V945.828H616.849ZM619.896 940V941.406H616.88C616.958 942.914 618.153 944.273 620.286 944.812L619.489 946.172C617.818 945.719 616.622 944.742 615.989 943.484C615.364 944.812 614.185 945.828 612.505 946.281L611.677 944.969C613.81 944.383 614.982 942.992 615.083 941.406H612.099V940H615.114V938.391H616.849V940H619.896ZM623.052 938.266V952.406H621.318V938.266H623.052ZM632.076 943.312V945.109H637.669V946.516H624.794V945.109H630.357V943.312H632.076ZM631.216 947.422C634.279 947.422 636.091 948.297 636.107 949.891C636.091 951.484 634.279 952.375 631.216 952.375C628.138 952.375 626.294 951.484 626.294 949.891C626.294 948.297 628.138 947.422 631.216 947.422ZM631.216 948.75C629.138 948.75 628.044 949.141 628.06 949.891C628.044 950.672 629.138 951.062 631.216 951.062C633.248 951.062 634.357 950.672 634.373 949.891C634.357 949.141 633.248 948.75 631.216 948.75ZM636.513 938.891V940.281H632.451C632.732 941.43 634.427 942.461 637.06 942.719L636.435 944.078C633.873 943.82 631.982 942.82 631.216 941.391C630.451 942.82 628.576 943.82 626.013 944.078L625.404 942.719C628.013 942.461 629.708 941.438 629.998 940.281H625.966V938.891H636.513ZM643.983 938.891V940.688H647.279V938.891H648.998V945.047H642.264V938.891H643.983ZM643.983 943.672H647.279V942H643.983V943.672ZM652.92 938.266V941.125H654.889V942.531H652.92V945.5H651.186V938.266H652.92ZM652.92 946.062V949.766H645.42V950.891H653.358V952.266H643.701V948.5H651.186V947.422H643.686V946.062H652.92ZM668.194 949.359V950.766H655.288V949.359H658.631V946.453H656.397V945.047H658.381V940.859H656.35V939.469H667.069V940.859H665.006V945.047H667.022V946.453H664.788V949.359H668.194ZM660.116 945.047H663.288V940.859H660.116V945.047ZM660.366 949.359H663.053V946.453H660.366V949.359Z" fill="white"/>
    <g opacity="0.4">
    <rect x="527" y="1081" width="117" height="40" rx="20" fill="#F7F7F7"/>
    <path d="M555.343 1094.27V1108.39H553.593V1094.27H555.343ZM551.124 1095.77C551.124 1099.97 549.499 1103.55 544.546 1105.89L543.64 1104.5C547.335 1102.74 549.054 1100.35 549.358 1097.14H544.358V1095.77H551.124ZM568.195 1094.27V1097.11H570.163V1098.55H568.195V1101.36H566.46V1094.27H568.195ZM564.226 1094.98V1100.77H557.538V1094.98H564.226ZM559.242 1096.36V1099.39H562.523V1096.36H559.242ZM568.195 1101.97V1105.67H560.695V1106.84H568.632V1108.22H558.976V1104.41H566.46V1103.31H558.96V1101.97H568.195ZM582.093 1095.56V1096.92C582.078 1098.67 582.078 1100.64 581.531 1103.59L579.781 1103.41C580.328 1100.66 580.328 1098.65 580.343 1096.95H571.906V1095.56H582.093ZM583.437 1105.14V1106.56H570.562V1105.14H575.312V1100.23H577.031V1105.14H583.437ZM589.117 1097.66C589.102 1100.17 590.367 1102.73 592.555 1103.78L591.492 1105.17C589.961 1104.4 588.859 1102.91 588.258 1101.11C587.641 1103.03 586.484 1104.62 584.867 1105.44L583.805 1104.05C586.07 1102.97 587.367 1100.27 587.383 1097.66V1095.41H589.117V1097.66ZM595.133 1094.27V1099.8H597.305V1101.28H595.133V1108.39H593.398V1094.27H595.133ZM613.227 1095.73V1097.11H601.696V1095.73H606.618V1094.23H608.337V1095.73H613.227ZM613.962 1103.3V1104.7H610.837V1108.41H609.087V1104.7H605.915V1108.41H604.18V1104.7H601.055V1103.3H613.962ZM607.477 1097.75C610.462 1097.75 612.258 1098.59 612.258 1100.14C612.258 1101.67 610.462 1102.53 607.477 1102.53C604.493 1102.53 602.696 1101.67 602.696 1100.14C602.696 1098.59 604.493 1097.75 607.477 1097.75ZM607.477 1099.06C605.524 1099.06 604.493 1099.42 604.508 1100.14C604.493 1100.84 605.524 1101.22 607.477 1101.2C609.43 1101.22 610.462 1100.84 610.462 1100.14C610.462 1099.42 609.43 1099.06 607.477 1099.06ZM619.829 1096.28C619.829 1098.14 620.985 1099.89 623.235 1100.59L622.376 1101.97C620.743 1101.42 619.579 1100.35 618.954 1098.97C618.306 1100.45 617.126 1101.63 615.454 1102.2L614.579 1100.84C616.86 1100.06 618.032 1098.2 618.032 1096.28V1094.94H619.829V1096.28ZM626.329 1103.36V1108.39H624.579V1104.75H616.688V1103.36H626.329ZM626.329 1094.27V1102.72H624.579V1094.27H626.329Z" fill="#C4C4C4"/>
    </g>
    <path d="M189.569 1229.81C190.265 1229.81 190.891 1229.94 191.447 1230.21C192.003 1230.48 192.44 1230.85 192.757 1231.33C193.073 1231.8 193.234 1232.34 193.237 1232.94C193.234 1233.55 193.073 1234.08 192.757 1234.56C192.44 1235.03 192.003 1235.4 191.447 1235.66C190.891 1235.93 190.265 1236.06 189.569 1236.06C188.865 1236.06 188.234 1235.93 187.674 1235.66C187.114 1235.4 186.675 1235.03 186.359 1234.56C186.042 1234.09 185.884 1233.55 185.884 1232.94C185.884 1232.34 186.042 1231.8 186.359 1231.33C186.675 1230.85 187.114 1230.48 187.674 1230.21C188.234 1229.94 188.865 1229.81 189.569 1229.81ZM187.331 1232.94C187.327 1233.32 187.421 1233.65 187.613 1233.94C187.804 1234.23 188.071 1234.46 188.414 1234.62C188.757 1234.78 189.141 1234.86 189.569 1234.86C189.992 1234.86 190.373 1234.78 190.712 1234.62C191.051 1234.46 191.316 1234.23 191.508 1233.94C191.703 1233.65 191.801 1233.32 191.801 1232.94C191.801 1232.57 191.703 1232.24 191.508 1231.95C191.316 1231.66 191.051 1231.43 190.712 1231.28C190.373 1231.12 189.992 1231.04 189.569 1231.04C189.141 1231.04 188.757 1231.12 188.414 1231.28C188.071 1231.43 187.804 1231.66 187.613 1231.95C187.421 1232.24 187.327 1232.57 187.331 1232.94ZM188.005 1237.1H197.215V1240.62H189.491V1241.96H197.674V1243.15H188.049V1239.51H195.74V1238.28H188.005V1237.1ZM195.729 1229.33H197.215V1236.45H195.729V1229.33ZM210.778 1237.66H209.298V1234.12H206.685V1232.9H209.298V1229.33H210.778V1237.66ZM199.115 1236.4C199.823 1236.15 200.44 1235.79 200.966 1235.31C201.497 1234.84 201.904 1234.3 202.187 1233.69C202.471 1233.08 202.613 1232.46 202.613 1231.81V1231.5H199.574V1230.29H207.132V1231.5H204.115V1231.8C204.115 1232.39 204.25 1232.97 204.519 1233.52C204.791 1234.08 205.182 1234.58 205.69 1235.01C206.202 1235.45 206.802 1235.78 207.491 1236.01L206.734 1237.19C205.961 1236.92 205.289 1236.52 204.718 1235.99C204.147 1235.46 203.707 1234.85 203.397 1234.14C203.088 1234.94 202.631 1235.63 202.027 1236.23C201.423 1236.82 200.708 1237.27 199.883 1237.57L199.115 1236.4ZM201.359 1240.69C201.355 1240.14 201.543 1239.66 201.922 1239.27C202.301 1238.87 202.847 1238.57 203.557 1238.36C204.268 1238.15 205.112 1238.05 206.088 1238.05C207.064 1238.05 207.906 1238.15 208.613 1238.36C209.324 1238.57 209.869 1238.87 210.248 1239.27C210.631 1239.66 210.823 1240.14 210.823 1240.69C210.823 1241.24 210.631 1241.71 210.248 1242.1C209.869 1242.5 209.324 1242.8 208.613 1243.01C207.906 1243.22 207.064 1243.32 206.088 1243.33C205.112 1243.32 204.268 1243.22 203.557 1243.01C202.847 1242.8 202.301 1242.5 201.922 1242.1C201.543 1241.71 201.355 1241.24 201.359 1240.69ZM202.828 1240.69C202.824 1241 202.952 1241.27 203.209 1241.49C203.467 1241.71 203.841 1241.88 204.331 1241.99C204.821 1242.11 205.406 1242.16 206.088 1242.16C206.766 1242.16 207.349 1242.11 207.839 1241.99C208.329 1241.88 208.703 1241.71 208.961 1241.49C209.222 1241.27 209.353 1241 209.353 1240.69C209.353 1240.38 209.222 1240.11 208.961 1239.88C208.703 1239.66 208.329 1239.49 207.839 1239.38C207.349 1239.26 206.766 1239.2 206.088 1239.2C205.406 1239.2 204.821 1239.26 204.331 1239.38C203.841 1239.49 203.467 1239.66 203.209 1239.88C202.952 1240.11 202.824 1240.38 202.828 1240.69ZM225.381 1237.82H212.618V1236.64H225.381V1237.82ZM213.983 1232.6C213.983 1232.02 214.187 1231.52 214.596 1231.09C215.005 1230.67 215.587 1230.35 216.342 1230.13C217.097 1229.9 217.979 1229.79 218.988 1229.8C219.994 1229.79 220.872 1229.9 221.624 1230.13C222.379 1230.35 222.961 1230.67 223.369 1231.09C223.778 1231.52 223.983 1232.02 223.983 1232.6C223.983 1233.18 223.778 1233.68 223.369 1234.11C222.961 1234.54 222.379 1234.87 221.624 1235.09C220.872 1235.32 219.994 1235.43 218.988 1235.43C217.979 1235.43 217.097 1235.32 216.342 1235.09C215.587 1234.87 215.005 1234.54 214.596 1234.11C214.187 1233.68 213.983 1233.18 213.983 1232.6ZM214.226 1238.96H215.718V1241.82H223.944V1243.04H214.226V1238.96ZM215.524 1232.6C215.52 1232.94 215.657 1233.23 215.933 1233.48C216.213 1233.72 216.613 1233.9 217.132 1234.03C217.655 1234.16 218.274 1234.22 218.988 1234.22C219.703 1234.22 220.32 1234.16 220.839 1234.03C221.362 1233.9 221.764 1233.72 222.043 1233.48C222.323 1233.23 222.463 1232.94 222.463 1232.6C222.463 1232.27 222.323 1231.98 222.043 1231.73C221.764 1231.49 221.362 1231.31 220.839 1231.18C220.316 1231.05 219.699 1230.98 218.988 1230.98C218.277 1230.98 217.66 1231.05 217.137 1231.18C216.618 1231.31 216.218 1231.49 215.939 1231.73C215.659 1231.98 215.52 1232.27 215.524 1232.6ZM241.701 1243.33H240.265V1236.16H238.48V1242.61H237.088V1229.61H238.48V1234.93H240.265V1229.33H241.701V1243.33ZM230.364 1230.98H231.851V1238.46C232.565 1238.45 233.272 1238.41 233.972 1238.35C234.676 1238.28 235.398 1238.18 236.138 1238.03L236.304 1239.33C235.401 1239.49 234.543 1239.6 233.729 1239.67C232.919 1239.73 232.099 1239.77 231.27 1239.77H230.364V1230.98ZM256.011 1238.74H250.298V1243.33H248.839V1238.74H243.198V1237.56H256.011V1238.74ZM244.795 1229.9H246.265V1231.72H252.928V1229.9H254.408V1235.97H244.795V1229.9ZM252.928 1234.78V1232.91H246.265V1234.78H252.928ZM265.166 1232.89C265.162 1233.71 265.308 1234.52 265.602 1235.31C265.901 1236.11 266.317 1236.83 266.851 1237.46C267.389 1238.1 267.998 1238.58 268.68 1238.92L267.768 1240.1C267.013 1239.71 266.348 1239.15 265.774 1238.41C265.199 1237.67 264.755 1236.83 264.442 1235.88C264.125 1236.89 263.669 1237.79 263.072 1238.57C262.475 1239.36 261.785 1239.96 261 1240.37L260.077 1239.18C260.781 1238.84 261.405 1238.34 261.95 1237.68C262.499 1237.02 262.925 1236.27 263.227 1235.43C263.532 1234.59 263.687 1233.74 263.691 1232.89V1230.49H265.166V1232.89ZM269.735 1229.33H271.221V1234.91H273.464V1236.18H271.221V1243.33H269.735V1229.33ZM285.492 1237.66H284.011V1234.12H281.398V1232.9H284.011V1229.33H285.492V1237.66ZM273.829 1236.4C274.536 1236.15 275.153 1235.79 275.679 1235.31C276.21 1234.84 276.617 1234.3 276.9 1233.69C277.184 1233.08 277.326 1232.46 277.326 1231.81V1231.5H274.287V1230.29H281.845V1231.5H278.829V1231.8C278.829 1232.39 278.963 1232.97 279.232 1233.52C279.504 1234.08 279.895 1234.58 280.403 1235.01C280.915 1235.45 281.516 1235.78 282.204 1236.01L281.447 1237.19C280.674 1236.92 280.002 1236.52 279.431 1235.99C278.86 1235.46 278.42 1234.85 278.11 1234.14C277.801 1234.94 277.344 1235.63 276.74 1236.23C276.136 1236.82 275.422 1237.27 274.597 1237.57L273.829 1236.4ZM276.072 1240.69C276.068 1240.14 276.256 1239.66 276.635 1239.27C277.015 1238.87 277.56 1238.57 278.271 1238.36C278.981 1238.15 279.825 1238.05 280.801 1238.05C281.777 1238.05 282.619 1238.15 283.326 1238.36C284.037 1238.57 284.582 1238.87 284.961 1239.27C285.344 1239.66 285.536 1240.14 285.536 1240.69C285.536 1241.24 285.344 1241.71 284.961 1242.1C284.582 1242.5 284.037 1242.8 283.326 1243.01C282.619 1243.22 281.777 1243.32 280.801 1243.33C279.825 1243.32 278.981 1243.22 278.271 1243.01C277.56 1242.8 277.015 1242.5 276.635 1242.1C276.256 1241.71 276.068 1241.24 276.072 1240.69ZM277.541 1240.69C277.538 1241 277.665 1241.27 277.923 1241.49C278.18 1241.71 278.554 1241.88 279.044 1241.99C279.534 1242.11 280.12 1242.16 280.801 1242.16C281.479 1242.16 282.062 1242.11 282.552 1241.99C283.042 1241.88 283.416 1241.71 283.674 1241.49C283.935 1241.27 284.066 1241 284.066 1240.69C284.066 1240.38 283.935 1240.11 283.674 1239.88C283.416 1239.66 283.042 1239.49 282.552 1239.38C282.062 1239.26 281.479 1239.2 280.801 1239.2C280.12 1239.2 279.534 1239.26 279.044 1239.38C278.554 1239.49 278.18 1239.66 277.923 1239.88C277.665 1240.11 277.538 1240.38 277.541 1240.69ZM299.37 1243.33H297.944V1229.33H299.37V1243.33ZM287.486 1235.37C287.486 1234.37 287.609 1233.5 287.856 1232.76C288.107 1232.02 288.458 1231.45 288.911 1231.05C289.364 1230.65 289.893 1230.45 290.497 1230.45C291.06 1230.45 291.56 1230.62 291.994 1230.96C292.432 1231.3 292.782 1231.79 293.044 1232.43C293.309 1233.07 293.471 1233.82 293.53 1234.69H295.11V1229.6H296.525V1242.64H295.11V1235.9H293.536C293.491 1236.8 293.339 1237.59 293.077 1238.25C292.816 1238.92 292.464 1239.43 292.022 1239.78C291.58 1240.14 291.072 1240.31 290.497 1240.31C289.893 1240.31 289.364 1240.12 288.911 1239.72C288.458 1239.32 288.107 1238.74 287.856 1238C287.609 1237.25 287.486 1236.38 287.486 1235.37ZM288.867 1235.37C288.863 1236.11 288.926 1236.74 289.055 1237.27C289.188 1237.8 289.377 1238.21 289.624 1238.49C289.871 1238.77 290.162 1238.9 290.497 1238.9C290.839 1238.9 291.136 1238.77 291.386 1238.49C291.641 1238.21 291.834 1237.81 291.967 1237.28C292.103 1236.74 292.171 1236.11 292.171 1235.37C292.171 1234.63 292.103 1234 291.967 1233.48C291.834 1232.94 291.641 1232.54 291.386 1232.26C291.136 1231.98 290.839 1231.84 290.497 1231.84C290.162 1231.84 289.871 1231.98 289.624 1232.26C289.377 1232.54 289.188 1232.94 289.055 1233.48C288.926 1234.01 288.863 1234.64 288.867 1235.37ZM308.984 1230.32C309.713 1230.32 310.367 1230.46 310.945 1230.75C311.523 1231.03 311.974 1231.42 312.299 1231.93C312.626 1232.43 312.792 1233.01 312.796 1233.66C312.792 1234.31 312.626 1234.88 312.299 1235.39C311.974 1235.9 311.523 1236.29 310.945 1236.57C310.367 1236.85 309.713 1236.99 308.984 1236.99C308.254 1236.99 307.599 1236.85 307.017 1236.57C306.438 1236.29 305.985 1235.9 305.658 1235.39C305.33 1234.88 305.168 1234.31 305.171 1233.66C305.168 1233.01 305.33 1232.44 305.658 1231.93C305.985 1231.43 306.438 1231.03 307.017 1230.75C307.599 1230.46 308.254 1230.32 308.984 1230.32ZM304.978 1239.1C306.584 1239.1 308.107 1239.07 309.547 1239.01C310.991 1238.95 312.356 1238.83 313.641 1238.64L313.757 1239.72C312.777 1239.91 311.761 1240.05 310.707 1240.14C309.658 1240.23 308.672 1240.29 307.752 1240.31C306.834 1240.33 305.81 1240.34 304.68 1240.34L304.497 1239.1H304.978ZM306.636 1233.66C306.632 1234.06 306.729 1234.42 306.928 1234.73C307.131 1235.04 307.411 1235.28 307.768 1235.45C308.129 1235.62 308.534 1235.71 308.984 1235.71C309.433 1235.71 309.836 1235.62 310.194 1235.45C310.555 1235.28 310.836 1235.04 311.039 1234.73C311.245 1234.42 311.348 1234.06 311.348 1233.66C311.348 1233.25 311.245 1232.9 311.039 1232.59C310.836 1232.28 310.555 1232.04 310.194 1231.87C309.836 1231.69 309.433 1231.61 308.984 1231.61C308.534 1231.61 308.129 1231.69 307.768 1231.87C307.411 1232.04 307.131 1232.28 306.928 1232.59C306.729 1232.9 306.632 1233.25 306.636 1233.66ZM314.52 1229.33H316V1243.35H314.52V1229.33ZM324.845 1232.85H317.901V1231.65H320.652V1229.74H322.122V1231.65H324.845V1232.85ZM318.354 1236.91C318.35 1236.29 318.477 1235.73 318.735 1235.24C318.996 1234.75 319.357 1234.37 319.818 1234.1C320.282 1233.82 320.805 1233.69 321.387 1233.69C321.969 1233.69 322.49 1233.82 322.95 1234.1C323.411 1234.37 323.772 1234.75 324.033 1235.24C324.295 1235.73 324.427 1236.29 324.431 1236.91C324.427 1237.54 324.295 1238.1 324.033 1238.59C323.772 1239.08 323.411 1239.47 322.95 1239.75C322.49 1240.02 321.969 1240.16 321.387 1240.16C320.805 1240.16 320.282 1240.02 319.818 1239.75C319.357 1239.47 318.996 1239.08 318.735 1238.59C318.477 1238.09 318.35 1237.53 318.354 1236.91ZM319.657 1236.91C319.657 1237.3 319.731 1237.64 319.878 1237.94C320.026 1238.24 320.23 1238.48 320.492 1238.64C320.753 1238.81 321.052 1238.89 321.387 1238.88C321.718 1238.89 322.015 1238.81 322.276 1238.64C322.541 1238.48 322.748 1238.24 322.895 1237.94C323.042 1237.64 323.116 1237.3 323.116 1236.91C323.116 1236.52 323.042 1236.18 322.895 1235.88C322.748 1235.58 322.541 1235.35 322.276 1235.18C322.015 1235.01 321.718 1234.92 321.387 1234.92C321.052 1234.92 320.753 1235.01 320.492 1235.18C320.23 1235.35 320.026 1235.58 319.878 1235.88C319.731 1236.18 319.657 1236.52 319.657 1236.91ZM325.497 1229.64H326.895V1235.16H328.508V1229.33H329.923V1243.33H328.508V1236.37H326.895V1242.67H325.497V1229.64ZM346.697 1239.69H345.216V1236.04H342.155V1237.35H335.691V1230.26H337.177V1232.64H340.686V1230.26H342.155V1231.83H345.216V1229.34H346.697V1239.69ZM340.686 1236.16V1233.78H337.177V1236.16H340.686ZM337.553 1238.67H339.05V1241.82H347.011V1243.04H337.553V1238.67ZM345.216 1234.83V1233.04H342.155V1234.83H345.216ZM360.205 1237.64H358.724V1235.92H355.194V1234.7H358.724V1233H355.337C354.888 1234.12 354.151 1235.07 353.127 1235.87C352.103 1236.66 350.827 1237.27 349.299 1237.71L348.702 1236.54C349.803 1236.23 350.75 1235.83 351.542 1235.34C352.337 1234.84 352.96 1234.28 353.409 1233.64C353.862 1233 354.131 1232.31 354.216 1231.56H349.426V1230.34H355.829C355.829 1230.85 355.781 1231.34 355.685 1231.82H358.724V1229.34H360.205V1237.64ZM350.873 1240.51C350.873 1239.95 351.067 1239.47 351.453 1239.06C351.84 1238.65 352.389 1238.33 353.1 1238.12C353.811 1237.9 354.643 1237.78 355.597 1237.78C356.536 1237.78 357.359 1237.9 358.067 1238.12C358.774 1238.33 359.321 1238.65 359.707 1239.06C360.098 1239.47 360.293 1239.95 360.293 1240.51C360.293 1241.07 360.098 1241.56 359.707 1241.98C359.321 1242.39 358.774 1242.71 358.067 1242.93C357.359 1243.15 356.536 1243.26 355.597 1243.26C354.643 1243.26 353.811 1243.15 353.1 1242.93C352.389 1242.71 351.84 1242.39 351.453 1241.98C351.067 1241.56 350.873 1241.07 350.873 1240.51ZM352.348 1240.51C352.348 1240.84 352.479 1241.12 352.741 1241.35C353.002 1241.59 353.376 1241.76 353.862 1241.89C354.352 1242.01 354.93 1242.07 355.597 1242.07C356.249 1242.07 356.816 1242.01 357.299 1241.89C357.781 1241.76 358.153 1241.59 358.415 1241.35C358.68 1241.12 358.812 1240.84 358.812 1240.51C358.812 1240.19 358.68 1239.91 358.415 1239.67C358.153 1239.44 357.781 1239.26 357.299 1239.14C356.816 1239.02 356.249 1238.96 355.597 1238.96C354.93 1238.96 354.352 1239.02 353.862 1239.14C353.376 1239.26 353.002 1239.44 352.741 1239.67C352.479 1239.91 352.348 1240.19 352.348 1240.51ZM370.194 1234.03H367.486V1235.28C368.845 1235.22 370.081 1235.13 371.194 1235L371.265 1236.02C369.914 1236.22 368.484 1236.36 366.978 1236.44C365.472 1236.52 363.914 1236.55 362.304 1236.55L362.122 1235.39C363.54 1235.39 364.829 1235.37 365.989 1235.34V1234.03H363.392V1229.93H370.044V1231.06H364.917V1232.88H370.194V1234.03ZM364.293 1237.4H373.674V1240.8H365.779V1242H374.127V1243.19H364.315V1239.69H372.216V1238.57H364.293V1237.4ZM372.205 1229.34H373.674V1236.82H372.205V1229.34ZM386.299 1230.56C386.299 1231.17 386.525 1231.75 386.979 1232.32C387.432 1232.88 388.043 1233.36 388.813 1233.76C389.583 1234.16 390.42 1234.41 391.327 1234.54L390.735 1235.75C389.973 1235.62 389.251 1235.42 388.57 1235.12C387.892 1234.82 387.29 1234.45 386.763 1234.02C386.24 1233.57 385.829 1233.08 385.531 1232.54C385.233 1233.09 384.82 1233.58 384.293 1234.02C383.77 1234.46 383.17 1234.83 382.492 1235.12C381.815 1235.42 381.096 1235.62 380.338 1235.75L379.741 1234.54C380.647 1234.41 381.483 1234.16 382.249 1233.77C383.015 1233.37 383.623 1232.9 384.072 1232.33C384.525 1231.76 384.752 1231.17 384.752 1230.56V1229.8H386.299V1230.56ZM379.139 1237.12H391.901V1238.35H386.216V1243.33H384.758V1238.35H379.139V1237.12ZM401.084 1238.57C401.084 1238.99 401.152 1239.39 401.288 1239.8C401.428 1240.19 401.638 1240.57 401.918 1240.92C402.198 1241.27 402.542 1241.57 402.951 1241.81C403.364 1241.55 403.714 1241.23 404.001 1240.87C404.288 1240.5 404.504 1240.12 404.647 1239.72C404.795 1239.33 404.868 1238.94 404.868 1238.57V1237.91H406.327V1238.57C406.323 1239.07 406.426 1239.54 406.636 1239.99C406.85 1240.45 407.165 1240.85 407.581 1241.21C408.001 1241.57 408.507 1241.84 409.1 1242.04L408.366 1243.12C407.692 1242.89 407.117 1242.55 406.642 1242.11C406.17 1241.67 405.81 1241.15 405.559 1240.56C405.323 1241.16 404.99 1241.69 404.559 1242.16C404.128 1242.63 403.607 1242.99 402.996 1243.25C402.347 1243.01 401.802 1242.66 401.36 1242.2C400.922 1241.74 400.59 1241.21 400.366 1240.61C400.108 1241.18 399.745 1241.68 399.277 1242.12C398.813 1242.55 398.259 1242.89 397.614 1243.12L396.874 1242.04C397.456 1241.83 397.955 1241.54 398.371 1241.17C398.787 1240.8 399.104 1240.39 399.321 1239.94C399.539 1239.49 399.649 1239.03 399.653 1238.57V1237.91H401.084V1238.57ZM396.515 1233.42C396.515 1232.78 396.675 1232.21 396.996 1231.71C397.316 1231.21 397.76 1230.82 398.327 1230.54C398.894 1230.26 399.533 1230.12 400.244 1230.12C400.951 1230.12 401.587 1230.26 402.15 1230.54C402.717 1230.82 403.161 1231.21 403.482 1231.71C403.802 1232.21 403.962 1232.78 403.962 1233.42C403.962 1234.06 403.802 1234.63 403.482 1235.13C403.161 1235.62 402.717 1236.01 402.15 1236.29C401.587 1236.57 400.951 1236.71 400.244 1236.71C399.533 1236.71 398.894 1236.57 398.327 1236.29C397.763 1236.01 397.32 1235.62 396.996 1235.13C396.675 1234.63 396.515 1234.06 396.515 1233.42ZM397.968 1233.42C397.964 1233.82 398.058 1234.18 398.25 1234.49C398.445 1234.8 398.716 1235.04 399.062 1235.22C399.408 1235.39 399.802 1235.48 400.244 1235.48C400.679 1235.48 401.067 1235.39 401.41 1235.22C401.756 1235.04 402.025 1234.8 402.217 1234.49C402.412 1234.18 402.509 1233.82 402.509 1233.42C402.509 1233.02 402.412 1232.66 402.217 1232.35C402.025 1232.04 401.756 1231.8 401.41 1231.63C401.067 1231.46 400.679 1231.37 400.244 1231.38C399.806 1231.37 399.412 1231.46 399.062 1231.63C398.716 1231.8 398.445 1232.04 398.25 1232.35C398.058 1232.66 397.964 1233.02 397.968 1233.42ZM406.36 1229.34H407.846V1237.3H406.36V1229.34ZM416.111 1230.17C417.087 1230.17 417.968 1230.33 418.752 1230.66C419.54 1230.99 420.159 1231.45 420.609 1232.04C421.062 1232.63 421.288 1233.31 421.288 1234.08C421.288 1234.85 421.062 1235.53 420.609 1236.13C420.159 1236.72 419.54 1237.18 418.752 1237.5C417.968 1237.83 417.087 1237.99 416.111 1237.98C415.139 1237.99 414.261 1237.83 413.476 1237.5C412.691 1237.18 412.075 1236.72 411.625 1236.13C411.176 1235.53 410.951 1234.85 410.951 1234.08C410.951 1233.31 411.176 1232.63 411.625 1232.04C412.075 1231.45 412.691 1230.99 413.476 1230.66C414.261 1230.33 415.139 1230.17 416.111 1230.17ZM409.741 1240.29H422.553V1241.51H409.741V1240.29ZM412.377 1234.08C412.377 1234.61 412.537 1235.08 412.857 1235.49C413.178 1235.9 413.621 1236.21 414.189 1236.44C414.76 1236.66 415.401 1236.77 416.111 1236.77C416.822 1236.77 417.461 1236.66 418.028 1236.44C418.596 1236.21 419.04 1235.9 419.36 1235.49C419.68 1235.08 419.841 1234.61 419.841 1234.08C419.841 1233.55 419.679 1233.08 419.354 1232.67C419.034 1232.26 418.59 1231.94 418.023 1231.71C417.459 1231.48 416.822 1231.37 416.111 1231.38C415.401 1231.37 414.761 1231.48 414.194 1231.71C413.627 1231.94 413.181 1232.26 412.857 1232.67C412.537 1233.08 412.377 1233.55 412.377 1234.08ZM430.288 1232.62H433.454V1229.33H434.923V1243.35H433.454V1237.66H430.288V1239.83H423.796V1230.67H430.288V1232.62ZM428.84 1238.65V1231.83H425.266V1238.65H428.84ZM433.454 1236.46V1233.83H430.288V1236.46H433.454ZM438.017 1245.22H436.691L437.525 1240.9H439.271L438.017 1245.22ZM456.123 1243.33H454.714V1236.09H452.902V1242.61H451.532V1229.61H452.902V1234.88H454.714V1229.33H456.123V1243.33ZM444.587 1231.01H449.825V1232.22H446.073V1238.71C446.99 1238.7 447.791 1238.67 448.477 1238.61C449.165 1238.56 449.865 1238.46 450.576 1238.33L450.698 1239.55C449.913 1239.71 449.141 1239.82 448.383 1239.87C447.624 1239.92 446.668 1239.95 445.515 1239.96H444.587V1231.01ZM470.648 1232.69H468.626V1234.42H470.648V1235.65H468.626V1237.85H467.139V1229.34H468.626V1231.47H470.648V1232.69ZM458.178 1230.15H464.559V1234.15H459.681V1235.95C460.977 1235.95 462.09 1235.92 463.018 1235.86C463.95 1235.79 464.902 1235.68 465.874 1235.51L466.029 1236.72C464.99 1236.9 463.968 1237.02 462.963 1237.08C461.957 1237.15 460.745 1237.18 459.327 1237.18H458.206V1233H463.106V1231.35H458.178V1230.15ZM459.371 1238.55H468.626V1243.31H467.139V1239.75H459.371V1238.55ZM476.139 1231.82C476.139 1232.41 476.274 1232.98 476.543 1233.54C476.815 1234.09 477.206 1234.59 477.714 1235.02C478.226 1235.46 478.826 1235.79 479.515 1236.03L478.758 1237.18C477.985 1236.92 477.31 1236.52 476.736 1235.99C476.165 1235.46 475.725 1234.85 475.415 1234.14C475.102 1234.92 474.644 1235.61 474.04 1236.19C473.439 1236.78 472.729 1237.22 471.907 1237.5L471.139 1236.33C471.843 1236.09 472.458 1235.73 472.985 1235.27C473.515 1234.8 473.922 1234.27 474.206 1233.67C474.493 1233.07 474.636 1232.46 474.636 1231.83V1231.43H471.598V1230.23H479.156V1231.43H476.139V1231.82ZM473.31 1238.4H482.802V1243.33H481.322V1239.6H473.31V1238.4ZM478.725 1232.89H481.322V1229.33H482.802V1237.7H481.322V1234.12H478.725V1232.89ZM496.255 1239.51H494.769V1229.34H496.255V1239.51ZM484.924 1233.75C484.924 1233.09 485.086 1232.49 485.41 1231.97C485.738 1231.44 486.185 1231.03 486.752 1230.73C487.323 1230.44 487.957 1230.29 488.653 1230.29C489.349 1230.29 489.981 1230.44 490.548 1230.73C491.115 1231.03 491.561 1231.44 491.885 1231.97C492.209 1232.49 492.371 1233.09 492.371 1233.75C492.371 1234.43 492.209 1235.03 491.885 1235.56C491.561 1236.08 491.115 1236.5 490.548 1236.79C489.981 1237.08 489.349 1237.23 488.653 1237.23C487.953 1237.23 487.32 1237.08 486.752 1236.79C486.185 1236.5 485.738 1236.08 485.41 1235.56C485.086 1235.03 484.924 1234.43 484.924 1233.75ZM486.377 1233.75C486.373 1234.18 486.469 1234.56 486.664 1234.9C486.863 1235.23 487.135 1235.48 487.482 1235.67C487.828 1235.85 488.218 1235.94 488.653 1235.94C489.08 1235.94 489.465 1235.85 489.808 1235.67C490.154 1235.48 490.425 1235.23 490.62 1234.9C490.819 1234.56 490.918 1234.18 490.918 1233.75C490.918 1233.33 490.819 1232.95 490.62 1232.62C490.425 1232.29 490.154 1232.04 489.808 1231.86C489.461 1231.67 489.076 1231.58 488.653 1231.58C488.222 1231.58 487.832 1231.67 487.482 1231.86C487.135 1232.04 486.863 1232.29 486.664 1232.62C486.469 1232.95 486.373 1233.33 486.377 1233.75ZM487.095 1238.48H488.587V1241.82H496.664V1243.04H487.095V1238.48ZM508.874 1230.75C508.871 1232.23 508.677 1233.58 508.294 1234.82C507.915 1236.05 507.259 1237.2 506.327 1238.27C505.399 1239.33 504.136 1240.27 502.537 1241.08L501.709 1239.95C502.913 1239.34 503.909 1238.66 504.698 1237.91C505.486 1237.15 506.097 1236.32 506.532 1235.41L502.007 1235.85L501.758 1234.56L506.99 1234.24C507.208 1233.53 507.344 1232.77 507.399 1231.96H502.482V1230.75H508.874ZM508.836 1234.87H511.924V1229.33H513.394V1243.33H511.924V1236.1H508.836V1234.87ZM526.858 1243.35H525.388V1229.33H526.858V1243.35ZM516.018 1230.59H522.576V1235.71H517.559V1238.77C518.782 1238.76 519.909 1238.72 520.94 1238.65C521.972 1238.58 523.042 1238.45 524.15 1238.27L524.289 1239.49C523.121 1239.68 521.988 1239.82 520.891 1239.89C519.797 1239.96 518.578 1239.99 517.233 1239.99H516.034V1234.51H521.073V1231.8H516.018V1230.59ZM539.94 1230.98C539.94 1231.71 539.922 1232.36 539.885 1232.92C539.852 1233.49 539.765 1234.11 539.625 1234.8H541.498V1235.99H538.167V1237.31H540.029V1240.72H531.73V1241.98H540.526V1243.15H530.255V1239.63H538.554V1238.46H530.222V1237.31H532.073V1235.99H528.769V1234.8H538.134C538.241 1234.31 538.322 1233.79 538.377 1233.25L530.183 1233.61L530.007 1232.43L538.449 1232.2C538.46 1231.93 538.465 1231.55 538.465 1231.05H530.355V1229.86H539.94V1230.98ZM536.692 1237.31V1235.99H533.554V1237.31H536.692ZM553.929 1243.15H544.636V1238.28H553.929V1243.15ZM542.813 1230.02H549.084V1234.03H544.31V1235.83C545.5 1235.83 546.542 1235.8 547.437 1235.75C548.332 1235.69 549.253 1235.59 550.2 1235.44L550.316 1236.65C549.38 1236.8 548.465 1236.91 547.57 1236.96C546.675 1237.02 545.629 1237.04 544.432 1237.04H543.924H542.841V1232.9H547.642V1231.23H542.813V1230.02ZM552.459 1241.94V1239.44H546.106V1241.94H552.459ZM549.912 1232.4H552.448V1229.34H553.929V1237.56H552.448V1233.61H549.912V1232.4ZM567.371 1231.98H565.924V1238.5C566.69 1238.45 567.368 1238.38 567.957 1238.31L568.034 1239.39C566.734 1239.61 565.373 1239.75 563.952 1239.82C562.534 1239.89 560.999 1239.93 559.349 1239.94L559.173 1238.7C559.946 1238.7 560.543 1238.69 560.963 1238.69V1231.98H559.521V1230.76H567.371V1231.98ZM562.405 1238.66C563.189 1238.64 563.887 1238.62 564.499 1238.59V1231.98H562.405V1238.66ZM568.775 1229.33H570.261V1234.85H572.504V1236.07H570.261V1243.33H568.775V1229.33ZM576.802 1230.14C577.506 1230.14 578.139 1230.29 578.703 1230.57C579.27 1230.85 579.714 1231.25 580.034 1231.76C580.358 1232.26 580.522 1232.84 580.526 1233.48C580.522 1234.13 580.358 1234.71 580.034 1235.22C579.714 1235.72 579.272 1236.12 578.708 1236.4C578.145 1236.69 577.509 1236.83 576.802 1236.83C576.091 1236.83 575.452 1236.69 574.885 1236.4C574.318 1236.12 573.872 1235.72 573.548 1235.22C573.228 1234.71 573.069 1234.13 573.073 1233.48C573.069 1232.84 573.228 1232.26 573.548 1231.76C573.872 1231.25 574.318 1230.85 574.885 1230.57C575.452 1230.29 576.091 1230.14 576.802 1230.14ZM574.526 1233.48C574.522 1233.89 574.618 1234.26 574.813 1234.57C575.009 1234.89 575.279 1235.14 575.626 1235.31C575.975 1235.48 576.368 1235.57 576.802 1235.56C577.233 1235.57 577.622 1235.48 577.968 1235.31C578.314 1235.14 578.585 1234.9 578.78 1234.58C578.979 1234.26 579.08 1233.89 579.084 1233.48C579.08 1233.07 578.979 1232.71 578.78 1232.4C578.585 1232.08 578.314 1231.84 577.968 1231.67C577.626 1231.5 577.237 1231.41 576.802 1231.41C576.364 1231.41 575.972 1231.5 575.626 1231.67C575.279 1231.84 575.009 1232.08 574.813 1232.4C574.618 1232.71 574.522 1233.07 574.526 1233.48ZM574.609 1238.23H583.863V1243.35H582.377V1239.44H574.609V1238.23ZM582.377 1229.33H583.863V1232.83H585.891V1234.06H583.863V1237.55H582.377V1229.33ZM592.741 1229.56C593.791 1229.56 594.69 1229.65 595.438 1229.84C596.185 1230.02 596.754 1230.3 597.145 1230.66C597.539 1231.01 597.736 1231.45 597.736 1231.96C597.736 1232.48 597.539 1232.92 597.145 1233.29C596.754 1233.65 596.185 1233.92 595.438 1234.11C594.693 1234.3 593.795 1234.39 592.741 1234.4C591.688 1234.39 590.787 1234.3 590.04 1234.11C589.292 1233.92 588.721 1233.65 588.327 1233.29C587.933 1232.92 587.736 1232.48 587.736 1231.96C587.736 1231.45 587.933 1231.01 588.327 1230.66C588.721 1230.3 589.292 1230.02 590.04 1229.84C590.791 1229.65 591.692 1229.56 592.741 1229.56ZM586.371 1235.25H599.134V1236.44H586.371V1235.25ZM587.891 1237.51H597.515V1240.79H589.371V1242.04H597.918V1243.19H587.918V1239.72H596.056V1238.62H587.891V1237.51ZM589.288 1231.96C589.285 1232.4 589.577 1232.73 590.167 1232.95C590.76 1233.17 591.618 1233.28 592.741 1233.28C593.868 1233.28 594.728 1233.17 595.321 1232.95C595.918 1232.73 596.217 1232.4 596.217 1231.96C596.217 1231.69 596.084 1231.46 595.819 1231.27C595.554 1231.07 595.163 1230.92 594.647 1230.82C594.135 1230.71 593.513 1230.66 592.78 1230.66C592.036 1230.66 591.403 1230.71 590.879 1230.82C590.356 1230.92 589.959 1231.06 589.686 1231.26C589.417 1231.45 589.285 1231.69 589.288 1231.96ZM608.057 1229.97C608.753 1229.97 609.375 1230.09 609.924 1230.33C610.477 1230.57 610.908 1230.92 611.217 1231.36C611.53 1231.8 611.687 1232.31 611.687 1232.87C611.687 1233.44 611.53 1233.94 611.217 1234.38C610.908 1234.82 610.477 1235.17 609.924 1235.41C609.375 1235.66 608.753 1235.78 608.057 1235.77C607.361 1235.78 606.738 1235.66 606.189 1235.41C605.641 1235.17 605.211 1234.82 604.902 1234.38C604.596 1233.94 604.443 1233.44 604.443 1232.87C604.443 1232.31 604.596 1231.8 604.902 1231.36C605.211 1230.92 605.641 1230.57 606.189 1230.33C606.738 1230.09 607.361 1229.97 608.057 1229.97ZM603.449 1236.86C605.125 1236.86 606.736 1236.82 608.283 1236.76C609.834 1236.69 611.294 1236.55 612.664 1236.35L612.769 1237.45C611.609 1237.67 610.315 1237.83 608.885 1237.93V1242.9H607.399V1238.02C606.416 1238.06 605.164 1238.09 603.642 1238.09L603.449 1236.86ZM605.88 1232.87C605.876 1233.21 605.966 1233.5 606.151 1233.76C606.338 1234.01 606.598 1234.21 606.93 1234.35C607.261 1234.49 607.637 1234.56 608.057 1234.55C608.488 1234.56 608.871 1234.49 609.206 1234.35C609.545 1234.21 609.808 1234.02 609.996 1233.76C610.184 1233.5 610.278 1233.21 610.278 1232.87C610.278 1232.54 610.184 1232.24 609.996 1231.98C609.808 1231.73 609.545 1231.53 609.206 1231.39C608.871 1231.24 608.488 1231.17 608.057 1231.18C607.637 1231.17 607.261 1231.24 606.93 1231.39C606.598 1231.53 606.338 1231.73 606.151 1231.98C605.966 1232.24 605.876 1232.54 605.88 1232.87ZM613.637 1229.34H615.095V1243.33H613.637V1229.34ZM623.885 1232.85H616.941V1231.65H619.692V1229.74H621.162V1231.65H623.885V1232.85ZM617.394 1236.91C617.39 1236.29 617.517 1235.73 617.775 1235.24C618.036 1234.75 618.397 1234.37 618.858 1234.1C619.322 1233.82 619.845 1233.69 620.427 1233.69C621.009 1233.69 621.53 1233.82 621.99 1234.1C622.451 1234.37 622.812 1234.75 623.073 1235.24C623.335 1235.73 623.467 1236.29 623.471 1236.91C623.467 1237.54 623.335 1238.1 623.073 1238.59C622.812 1239.08 622.451 1239.47 621.99 1239.75C621.53 1240.02 621.009 1240.16 620.427 1240.16C619.845 1240.16 619.322 1240.02 618.858 1239.75C618.397 1239.47 618.036 1239.08 617.775 1238.59C617.517 1238.09 617.39 1237.53 617.394 1236.91ZM618.697 1236.91C618.697 1237.3 618.771 1237.64 618.918 1237.94C619.066 1238.24 619.27 1238.48 619.532 1238.64C619.793 1238.81 620.092 1238.89 620.427 1238.88C620.758 1238.89 621.055 1238.81 621.316 1238.64C621.581 1238.48 621.788 1238.24 621.935 1237.94C622.082 1237.64 622.156 1237.3 622.156 1236.91C622.156 1236.52 622.082 1236.18 621.935 1235.88C621.788 1235.58 621.581 1235.35 621.316 1235.18C621.055 1235.01 620.758 1234.92 620.427 1234.92C620.092 1234.92 619.793 1235.01 619.532 1235.18C619.27 1235.35 619.066 1235.58 618.918 1235.88C618.771 1236.18 618.697 1236.52 618.697 1236.91ZM624.537 1229.64H625.935V1235.16H627.548V1229.33H628.963V1243.33H627.548V1236.37H625.935V1242.67H624.537V1229.64ZM638.974 1232.22C638.974 1232.76 639.11 1233.28 639.383 1233.77C639.656 1234.27 640.048 1234.7 640.56 1235.08C641.072 1235.46 641.678 1235.75 642.377 1235.96L641.681 1237.11C640.886 1236.87 640.195 1236.52 639.609 1236.05C639.024 1235.58 638.573 1235.02 638.256 1234.38C637.943 1235.08 637.486 1235.7 636.886 1236.22C636.285 1236.73 635.573 1237.12 634.748 1237.37L634.029 1236.22C634.733 1236.01 635.346 1235.71 635.869 1235.3C636.392 1234.9 636.794 1234.43 637.074 1233.9C637.357 1233.37 637.499 1232.8 637.499 1232.22V1232.08H634.455V1230.9H637.499V1229.27H638.996V1230.9H642.013V1232.08H638.974V1232.22ZM636.118 1238.22H645.068V1243.15H636.118V1238.22ZM643.598 1241.94V1239.39H637.576V1241.94H643.598ZM643.582 1229.33H645.068V1232.79H647.096V1234.03H645.068V1237.59H643.582V1229.33ZM658.902 1232.04C658.899 1232.85 658.887 1233.54 658.869 1234.11C658.851 1234.68 658.803 1235.35 658.725 1236.11C658.652 1236.87 658.532 1237.7 658.366 1238.59L656.875 1238.42C657.037 1237.6 657.156 1236.83 657.234 1236.1C657.315 1235.38 657.364 1234.73 657.383 1234.16C657.405 1233.59 657.418 1232.93 657.422 1232.17V1232.04V1231.88H648.919V1230.67H658.902V1232.04ZM647.576 1240.21H652.427V1235.27H653.897V1240.21H660.339V1241.44H647.576V1240.21ZM667.996 1232.85H661.051V1231.65H663.803V1229.74H665.272V1231.65H667.996V1232.85ZM661.504 1236.91C661.501 1236.29 661.628 1235.73 661.885 1235.24C662.147 1234.75 662.508 1234.37 662.968 1234.1C663.432 1233.82 663.955 1233.69 664.537 1233.69C665.119 1233.69 665.641 1233.82 666.101 1234.1C666.561 1234.37 666.922 1234.75 667.184 1235.24C667.445 1235.73 667.578 1236.29 667.582 1236.91C667.578 1237.54 667.445 1238.1 667.184 1238.59C666.922 1239.08 666.561 1239.47 666.101 1239.75C665.641 1240.02 665.119 1240.16 664.537 1240.16C663.955 1240.16 663.432 1240.02 662.968 1239.75C662.508 1239.47 662.147 1239.08 661.885 1238.59C661.628 1238.09 661.501 1237.53 661.504 1236.91ZM662.808 1236.91C662.808 1237.3 662.882 1237.64 663.029 1237.94C663.176 1238.24 663.381 1238.48 663.642 1238.64C663.904 1238.81 664.202 1238.89 664.537 1238.88C664.869 1238.89 665.165 1238.81 665.427 1238.64C665.692 1238.48 665.898 1238.24 666.046 1237.94C666.193 1237.64 666.267 1237.3 666.267 1236.91C666.267 1236.52 666.193 1236.18 666.046 1235.88C665.898 1235.58 665.692 1235.35 665.427 1235.18C665.165 1235.01 664.869 1234.92 664.537 1234.92C664.202 1234.92 663.904 1235.01 663.642 1235.18C663.381 1235.35 663.176 1235.58 663.029 1235.88C662.882 1236.18 662.808 1236.52 662.808 1236.91ZM668.648 1229.64H670.046V1235.16H671.659V1229.33H673.073V1243.33H671.659V1236.37H670.046V1242.67H668.648V1229.64ZM687.355 1238.43H681.67V1243.32H680.211V1238.43H674.592V1237.22H687.355V1238.43ZM675.305 1234.98C676.167 1234.87 676.964 1234.63 677.697 1234.27C678.43 1233.91 679.016 1233.47 679.454 1232.96C679.893 1232.45 680.119 1231.91 680.134 1231.34H675.775V1230.16H686.156V1231.34H681.813C681.825 1231.91 682.047 1232.45 682.482 1232.96C682.917 1233.47 683.5 1233.91 684.233 1234.27C684.97 1234.63 685.775 1234.87 686.648 1234.98L686.101 1236.15C685.335 1236.03 684.615 1235.83 683.941 1235.55C683.266 1235.26 682.672 1234.91 682.156 1234.49C681.644 1234.06 681.248 1233.59 680.968 1233.07C680.688 1233.59 680.292 1234.06 679.78 1234.49C679.268 1234.91 678.677 1235.26 678.007 1235.55C677.336 1235.83 676.622 1236.03 675.863 1236.15L675.305 1234.98ZM692.366 1233.15C692.366 1233.92 692.471 1234.67 692.681 1235.41C692.894 1236.15 693.213 1236.83 693.636 1237.45C694.06 1238.06 694.574 1238.55 695.178 1238.92L694.344 1240.07C693.71 1239.68 693.169 1239.16 692.719 1238.5C692.27 1237.84 691.92 1237.09 691.67 1236.25C691.404 1237.17 691.031 1237.98 690.548 1238.7C690.069 1239.41 689.498 1239.97 688.835 1240.37L687.907 1239.27C688.548 1238.88 689.095 1238.37 689.548 1237.73C690.005 1237.09 690.349 1236.38 690.581 1235.6C690.813 1234.82 690.929 1234.03 690.929 1233.22V1230.6H692.366V1233.15ZM693.653 1234.25H695.835V1229.6H697.233V1242.64H695.835V1235.48H693.653V1234.25ZM698.714 1229.33H700.139V1243.33H698.714V1229.33ZM714.421 1241.58H701.609V1240.35H704.675V1236.69C704.086 1236.37 703.629 1235.96 703.305 1235.47C702.981 1234.97 702.819 1234.42 702.819 1233.8C702.819 1233.08 703.038 1232.44 703.476 1231.89C703.918 1231.33 704.53 1230.9 705.31 1230.6C706.095 1230.3 706.984 1230.14 707.979 1230.14C708.977 1230.14 709.868 1230.3 710.653 1230.6C711.437 1230.9 712.051 1231.33 712.493 1231.89C712.935 1232.44 713.156 1233.08 713.156 1233.8C713.156 1234.41 712.997 1234.96 712.681 1235.45C712.367 1235.93 711.924 1236.34 711.349 1236.66V1240.35H714.421V1241.58ZM704.261 1233.8C704.261 1234.29 704.417 1234.73 704.73 1235.1C705.043 1235.48 705.482 1235.77 706.045 1235.97C706.609 1236.17 707.253 1236.28 707.979 1236.28C708.701 1236.28 709.343 1236.17 709.907 1235.97C710.474 1235.77 710.916 1235.48 711.233 1235.1C711.55 1234.72 711.708 1234.29 711.708 1233.8C711.708 1233.3 711.55 1232.87 711.233 1232.5C710.916 1232.12 710.476 1231.83 709.913 1231.64C709.349 1231.43 708.704 1231.33 707.979 1231.34C707.253 1231.33 706.609 1231.43 706.045 1231.64C705.482 1231.83 705.043 1232.12 704.73 1232.5C704.417 1232.87 704.261 1233.3 704.261 1233.8ZM709.852 1240.35V1237.23C709.262 1237.37 708.638 1237.44 707.979 1237.44C707.338 1237.44 706.723 1237.37 706.134 1237.24V1240.35H709.852Z" fill="#A0A0A0"/>
    <defs>
    <filter id="filter0_d_2803_22874" x="310" y="0" width="280" height="116" filterUnits="userSpaceOnUse" color-interpolation-filters="sRGB">
    <feFlood flood-opacity="0" result="BackgroundImageFix"/>
    <feColorMatrix in="SourceAlpha" type="matrix" values="0 0 0 0 0 0 0 0 0 0 0 0 0 0 0 0 0 0 127 0" result="hardAlpha"/>
    <feOffset/>
    <feGaussianBlur stdDeviation="10"/>
    <feComposite in2="hardAlpha" operator="out"/>
    <feColorMatrix type="matrix" values="0 0 0 0 0 0 0 0 0 0 0 0 0 0 0 0 0 0 0.08 0"/>
    <feBlend mode="normal" in2="BackgroundImageFix" result="effect1_dropShadow_2803_22874"/>
    <feBlend mode="normal" in="SourceGraphic" in2="effect1_dropShadow_2803_22874" result="shape"/>
    </filter>
    <linearGradient id="paint0_linear_2803_22874" x1="518" y1="321" x2="652" y2="321" gradientUnits="userSpaceOnUse">
    <stop stop-color="#FF7710"/>
    <stop offset="1" stop-color="#FFA159"/>
    </linearGradient>
    <linearGradient id="paint1_linear_2803_22874" x1="518" y1="633" x2="652" y2="633" gradientUnits="userSpaceOnUse">
    <stop stop-color="#FF7710"/>
    <stop offset="1" stop-color="#FFA159"/>
    </linearGradient>
    <linearGradient id="paint2_linear_2803_22874" x1="486" y1="945" x2="685" y2="945" gradientUnits="userSpaceOnUse">
    <stop stop-color="#FF7710"/>
    <stop offset="1" stop-color="#FFA159"/>
    </linearGradient>
    </defs>
    </svg>
    