<svg viewBox="0 0 840 1248" fill="none" xmlns="http://www.w3.org/2000/svg">
    <path d="M10.8315 174.507C12.0691 174.507 13.1842 174.749 14.1768 175.232C15.1694 175.709 15.9494 176.373 16.5166 177.224C17.0838 178.068 17.3674 179.025 17.3674 180.095C17.3674 181.165 17.0838 182.122 16.5166 182.967C15.9494 183.811 15.1694 184.472 14.1768 184.949C13.1842 185.426 12.0691 185.664 10.8315 185.664C9.58103 185.664 8.45626 185.426 7.45718 184.949C6.4581 184.472 5.67495 183.811 5.10773 182.967C4.54696 182.122 4.26657 181.165 4.26657 180.095C4.26657 179.025 4.54696 178.068 5.10773 177.224C5.67495 176.373 6.4581 175.709 7.45718 175.232C8.46271 174.749 9.58748 174.507 10.8315 174.507ZM7.22514 180.095C7.21869 180.721 7.37017 181.268 7.67956 181.739C7.98895 182.203 8.41759 182.564 8.96547 182.822C9.51335 183.073 10.1354 183.199 10.8315 183.199C11.5212 183.199 12.1367 183.073 12.6782 182.822C13.2261 182.564 13.6515 182.203 13.9544 181.739C14.2638 181.268 14.4185 180.721 14.4185 180.095C14.4185 179.477 14.2638 178.935 13.9544 178.471C13.645 178.007 13.2196 177.649 12.6782 177.398C12.1367 177.146 11.5212 177.021 10.8315 177.021C10.1354 177.021 9.51335 177.146 8.96547 177.398C8.41759 177.649 7.98895 178.007 7.67956 178.471C7.37017 178.935 7.21869 179.477 7.22514 180.095ZM7.98895 187.279H24.3964V193.738H11.0249V195.72H25.1409V198.127H8.0663V191.494H21.3702V189.648H7.98895V187.279ZM21.3508 173.724H24.3964V186.196H21.3508V173.724Z" fill="#FF7710"/>
    <path d="M159.551 188.14H156.496V187.153H151.865V185.287H156.496V173.743H159.551V188.14ZM139.876 182.648C142.712 182.648 145.361 182.609 147.823 182.532C150.292 182.454 152.635 182.306 154.852 182.087L155.017 184.001C153.051 184.272 150.762 184.478 148.152 184.62V188.188H145.135V184.736C143.878 184.768 142.428 184.785 140.785 184.785H139.122L138.783 182.648H139.876ZM140.552 177.843C140.552 177.101 140.807 176.45 141.316 175.89C141.832 175.329 142.56 174.897 143.501 174.594C144.442 174.285 145.532 174.13 146.769 174.13C147.988 174.13 149.064 174.285 149.999 174.594C150.933 174.897 151.658 175.329 152.174 175.89C152.696 176.45 152.96 177.101 152.967 177.843C152.96 178.597 152.696 179.254 152.174 179.815C151.658 180.369 150.933 180.795 149.999 181.091C149.07 181.388 147.994 181.536 146.769 181.536C145.525 181.536 144.433 181.388 143.492 181.091C142.557 180.795 141.832 180.369 141.316 179.815C140.807 179.254 140.552 178.597 140.552 177.843ZM142.409 188.923H159.551V194.472H145.493V196.058H160.209V198.214H142.506V192.481H156.525V191.001H142.409V188.923ZM143.424 177.843C143.418 178.184 143.55 178.484 143.82 178.742C144.091 178.993 144.478 179.186 144.981 179.322C145.49 179.457 146.086 179.525 146.769 179.525C147.446 179.525 148.036 179.457 148.539 179.322C149.041 179.186 149.428 178.993 149.699 178.742C149.976 178.484 150.115 178.184 150.115 177.843C150.115 177.501 149.976 177.201 149.699 176.943C149.428 176.686 149.041 176.489 148.539 176.354C148.036 176.212 147.446 176.141 146.769 176.141C146.086 176.141 145.49 176.212 144.981 176.354C144.478 176.489 144.091 176.686 143.82 176.943C143.55 177.201 143.418 177.501 143.424 177.843Z" fill="black"/>
    <path d="M293.372 183.924H296.833V186.448H293.372V198.417H290.316V173.724H293.372V183.924ZM273.522 191.581C275.971 191.581 278.079 191.559 279.845 191.514V189.193C278.949 189.045 278.166 188.765 277.496 188.352C276.826 187.94 276.307 187.424 275.939 186.805C275.578 186.186 275.398 185.494 275.398 184.727C275.398 183.811 275.649 183.006 276.152 182.309C276.655 181.607 277.36 181.062 278.269 180.675C279.178 180.289 280.219 180.095 281.392 180.095C282.552 180.095 283.587 180.289 284.496 180.675C285.405 181.062 286.114 181.607 286.623 182.309C287.139 183.012 287.4 183.818 287.406 184.727C287.4 185.494 287.209 186.19 286.836 186.815C286.462 187.434 285.936 187.949 285.26 188.362C284.583 188.774 283.797 189.055 282.901 189.203V191.398C285.157 191.282 287.187 191.098 288.992 190.847L289.195 193.08C286.849 193.506 284.444 193.779 281.982 193.902C279.526 194.024 276.851 194.086 273.957 194.086L273.522 191.581ZM273.986 176.566H279.845V173.82H282.901V176.566H288.721V178.974H273.986V176.566ZM278.279 184.727C278.279 185.197 278.405 185.603 278.656 185.945C278.914 186.286 279.278 186.547 279.749 186.728C280.219 186.902 280.767 186.989 281.392 186.989C282.005 186.989 282.543 186.902 283.007 186.728C283.477 186.547 283.842 186.286 284.099 185.945C284.357 185.603 284.486 185.197 284.486 184.727C284.486 184.256 284.357 183.847 284.099 183.499C283.842 183.151 283.477 182.886 283.007 182.706C282.543 182.519 282.005 182.425 281.392 182.425C280.767 182.425 280.219 182.519 279.749 182.706C279.278 182.886 278.914 183.151 278.656 183.499C278.405 183.847 278.279 184.256 278.279 184.727Z" fill="black"/>
    <path d="M421.691 175.773C421.691 176.811 422.058 177.823 422.793 178.809C423.528 179.789 424.559 180.63 425.887 181.333C427.221 182.029 428.739 182.487 430.441 182.706L429.242 185.162C427.856 184.955 426.57 184.601 425.384 184.098C424.198 183.589 423.154 182.96 422.251 182.213C421.355 181.459 420.64 180.617 420.105 179.689C419.564 180.617 418.842 181.459 417.939 182.213C417.043 182.96 416.006 183.589 414.826 184.098C413.646 184.601 412.37 184.955 410.997 185.162L409.789 182.706C411.484 182.487 412.992 182.029 414.314 181.333C415.641 180.63 416.669 179.789 417.398 178.809C418.133 177.83 418.5 176.818 418.5 175.773V174.507H421.691V175.773ZM408.822 187.308H431.34V189.812H421.526V198.417H418.519V189.812H408.822V187.308Z" fill="black"/>
    <path d="M563.478 183.305H556.584V185.916H566.34V188.372H543.822V185.916H553.539V183.305H546.655V174.72H563.478V183.305ZM546.316 190.45H563.594V198.417H560.539V192.848H546.316V190.45ZM560.481 180.898V177.108H549.623V180.898H560.481Z" fill="black"/>
    <path d="M698.652 176.837C698.652 177.714 698.642 178.474 698.623 179.119C698.604 179.757 698.549 180.482 698.459 181.294C698.368 182.1 698.227 182.954 698.033 183.856H701.417V186.312H678.822V183.856H694.968C695.233 182.664 695.403 181.575 695.481 180.588C695.564 179.596 695.61 178.519 695.616 177.359H681.616V174.913H698.652V176.837ZM681.539 189.193H698.613V198.127H681.539V189.193ZM695.597 195.671V191.572H684.517V195.671H695.597Z" fill="black"/>
    <path d="M833.913 188.604H826.613V193.09H836.417V195.546H813.822V193.09H823.558V188.604H816.577V175.541H833.691V177.997H819.662V180.811H833.13V183.209H819.662V186.167H833.913V188.604Z" fill="#FF7710"/>
    <path d="M9.86328 438V436.125L15.7461 430.195C17.5977 428.25 18.5352 427.172 18.5352 425.695C18.5352 424.031 17.1758 422.953 15.3945 422.953C13.5195 422.953 12.3008 424.148 12.3008 425.953H9.86328C9.83984 422.859 12.207 420.797 15.4414 420.797C18.7227 420.797 20.9727 422.859 20.9961 425.625C20.9727 427.523 20.082 429.023 16.8945 432.164L13.4492 435.656V435.797H21.2773V438H9.86328Z" fill="#FF7710"/>
    <path d="M150.535 438.234C147.02 438.234 144.512 436.336 144.418 433.57H147.043C147.137 435.07 148.613 436.008 150.512 436.008C152.551 436.008 154.051 434.883 154.051 433.242C154.051 431.578 152.645 430.359 150.23 430.359H148.777V428.25H150.23C152.152 428.25 153.512 427.172 153.512 425.555C153.512 424.008 152.363 422.953 150.559 422.953C148.848 422.953 147.348 423.891 147.277 425.438H144.793C144.863 422.672 147.418 420.797 150.582 420.797C153.91 420.797 156.02 422.906 155.996 425.414C156.02 427.336 154.824 428.742 152.996 429.188V429.305C155.316 429.633 156.652 431.18 156.652 433.336C156.652 436.172 154.051 438.234 150.535 438.234Z" fill="black"/>
    <path d="M278.508 434.695V432.609L286.008 421.031H289.195V432.516H291.516V434.695H289.195V438H286.758V434.695H278.508ZM281.227 432.516H286.758V424.102H286.57L281.227 432.375V432.516Z" fill="black"/>
    <path d="M420.488 438.234C417.277 438.234 414.863 436.266 414.746 433.57H417.254C417.395 435.023 418.777 436.078 420.488 436.078C422.551 436.078 424.027 434.578 424.027 432.562C424.027 430.5 422.504 429 420.371 428.977C419.012 428.977 417.98 429.422 417.395 430.477H414.957L416.059 421.031H425.668V423.234H418.191L417.629 427.992H417.793C418.496 427.312 419.691 426.844 420.98 426.844C424.168 426.844 426.535 429.211 426.535 432.492C426.535 435.844 424.027 438.234 420.488 438.234Z" fill="black"/>
    <path d="M555.664 438.234C552.523 438.211 549.242 436.359 549.242 430.078C549.242 424.172 551.797 420.797 555.875 420.797C558.992 420.797 561.172 422.742 561.57 425.438H559.016C558.688 424.055 557.586 423.047 555.875 423.047C553.25 423.047 551.727 425.344 551.727 429.164H551.914C552.828 427.734 554.422 426.867 556.273 426.867C559.297 426.867 561.734 429.188 561.734 432.445C561.734 435.727 559.32 438.258 555.664 438.234ZM555.641 436.078C557.703 436.078 559.227 434.484 559.227 432.492C559.227 430.547 557.75 428.977 555.711 428.977C553.625 428.977 552.055 430.617 552.031 432.516C552.055 434.391 553.555 436.078 555.641 436.078Z" fill="black"/>
    <path d="M685.371 438L692.941 423.375V423.234H684.199V421.031H695.613V423.328L688.066 438H685.371Z" fill="black"/>
    <path d="M825.512 438.234C821.832 438.234 819.254 436.242 819.277 433.477C819.254 431.297 820.824 429.516 822.816 429.211V429.117C821.082 428.719 819.91 427.172 819.91 425.32C819.91 422.719 822.277 420.797 825.512 420.797C828.723 420.797 831.066 422.719 831.09 425.32C831.066 427.172 829.895 428.719 828.184 429.117V429.211C830.152 429.516 831.723 431.297 831.746 433.477C831.723 436.242 829.145 438.234 825.512 438.234ZM825.512 436.102C827.715 436.102 829.121 434.953 829.121 433.289C829.121 431.531 827.598 430.266 825.512 430.266C823.402 430.266 821.855 431.531 821.902 433.289C821.855 434.953 823.262 436.102 825.512 436.102ZM825.512 428.227C827.293 428.227 828.559 427.148 828.559 425.555C828.559 423.984 827.316 422.906 825.512 422.906C823.637 422.906 822.418 423.961 822.418 425.555C822.418 427.148 823.707 428.227 825.512 428.227Z" fill="#FF7710"/>
    <path d="M15.3594 576.797C18.4766 576.82 21.7578 578.695 21.7578 584.906C21.7578 590.859 19.2031 594.234 15.125 594.234C12.0078 594.234 9.80469 592.312 9.40625 589.547H11.9609C12.3125 590.977 13.4141 591.984 15.125 591.984C17.75 591.984 19.2734 589.688 19.2969 585.82H19.0859C18.1719 587.25 16.5781 588.117 14.75 588.117C11.7031 588.117 9.26562 585.797 9.26562 582.539C9.26562 579.305 11.6797 576.773 15.3594 576.797ZM15.3594 578.953C13.2969 578.953 11.7734 580.547 11.7734 582.492C11.7734 584.461 13.25 586.008 15.3125 586.008C17.3516 586.008 18.9453 584.344 18.9453 582.469C18.9453 580.641 17.4453 578.953 15.3594 578.953Z" fill="#FF7710"/>
    <path d="M145.4 577.031V594H142.799V579.609H142.705L138.65 582.258V579.797L142.869 577.031H145.4ZM155.139 594.234C151.201 594.234 148.905 591.07 148.905 585.516C148.905 580.008 151.248 576.797 155.139 576.797C159.03 576.797 161.373 580.008 161.373 585.516C161.373 591.07 159.053 594.234 155.139 594.234ZM155.139 592.008C157.436 592.008 158.795 589.758 158.795 585.516C158.795 581.297 157.412 578.977 155.139 578.977C152.865 578.977 151.483 581.297 151.483 585.516C151.483 589.758 152.842 592.008 155.139 592.008Z" fill="black"/>
    <path d="M282.427 577.031V594H279.826V579.609H279.732L275.677 582.258V579.797L279.896 577.031H282.427ZM292.705 577.031V594H290.104V579.609H290.01L285.955 582.258V579.797L290.174 577.031H292.705Z" fill="black"/>
    <path d="M416.17 577.031V594H413.568V579.609H413.474L409.42 582.258V579.797L413.638 577.031H416.17ZM420.002 594V592.125L425.885 586.195C427.737 584.25 428.674 583.172 428.674 581.695C428.674 580.031 427.315 578.953 425.533 578.953C423.658 578.953 422.44 580.148 422.44 581.953H420.002C419.979 578.859 422.346 576.797 425.58 576.797C428.862 576.797 431.112 578.859 431.135 581.625C431.112 583.523 430.221 585.023 427.033 588.164L423.588 591.656V591.797H431.416V594H420.002Z" fill="black"/>
    <path d="M550.318 577.031V594H547.717V579.609H547.623L543.568 582.258V579.797L547.787 577.031H550.318ZM560.174 594.234C556.658 594.234 554.151 592.336 554.057 589.57H556.682C556.776 591.07 558.252 592.008 560.151 592.008C562.19 592.008 563.69 590.883 563.69 589.242C563.69 587.578 562.283 586.359 559.869 586.359H558.416V584.25H559.869C561.791 584.25 563.151 583.172 563.151 581.555C563.151 580.008 562.002 578.953 560.198 578.953C558.487 578.953 556.987 579.891 556.916 581.438H554.432C554.502 578.672 557.057 576.797 560.221 576.797C563.549 576.797 565.658 578.906 565.635 581.414C565.658 583.336 564.463 584.742 562.635 585.188V585.305C564.955 585.633 566.291 587.18 566.291 589.336C566.291 592.172 563.69 594.234 560.174 594.234Z" fill="black"/>
    <path d="M685.189 577.031V594H682.588V579.609H682.494L678.439 582.258V579.797L682.658 577.031H685.189ZM688.647 590.695V588.609L696.147 577.031H699.334V588.516H701.655V590.695H699.334V594H696.897V590.695H688.647ZM691.365 588.516H696.897V580.102H696.709L691.365 588.375V588.516Z" fill="black"/>
    <path d="M821.029 577.031V594H818.427V579.609H818.334L814.279 582.258V579.797L818.498 577.031H821.029ZM830.627 594.234C827.416 594.234 825.002 592.266 824.885 589.57H827.393C827.533 591.023 828.916 592.078 830.627 592.078C832.69 592.078 834.166 590.578 834.166 588.562C834.166 586.5 832.643 585 830.51 584.977C829.151 584.977 828.119 585.422 827.533 586.477H825.096L826.198 577.031H835.807V579.234H828.33L827.768 583.992H827.932C828.635 583.312 829.83 582.844 831.119 582.844C834.307 582.844 836.674 585.211 836.674 588.492C836.674 591.844 834.166 594.234 830.627 594.234Z" fill="#FF7710"/>
    <path d="M10.3298 733.031V750H7.72828V735.609H7.63453L3.57984 738.258V735.797L7.79859 733.031H10.3298ZM20.303 750.234C17.1623 750.211 13.8811 748.359 13.8811 742.078C13.8811 736.172 16.4358 732.797 20.5139 732.797C23.6311 732.797 25.8108 734.742 26.2092 737.438H23.6545C23.3264 736.055 22.2248 735.047 20.5139 735.047C17.8889 735.047 16.3655 737.344 16.3655 741.164H16.553C17.467 739.734 19.0608 738.867 20.9123 738.867C23.9358 738.867 26.3733 741.188 26.3733 744.445C26.3733 747.727 23.9592 750.258 20.303 750.234ZM20.2795 748.078C22.342 748.078 23.8655 746.484 23.8655 744.492C23.8655 742.547 22.3889 740.977 20.3498 740.977C18.2639 740.977 16.6936 742.617 16.6702 744.516C16.6936 746.391 18.1936 748.078 20.2795 748.078Z" fill="#FF7710"/>
    <path d="M146.092 733.031V750H143.49V735.609H143.396L139.342 738.258V735.797L143.56 733.031H146.092ZM150.51 750L158.08 735.375V735.234H149.338V733.031H160.752V735.328L153.205 750H150.51Z" fill="black"/>
    <path d="M280.388 733.031V750H277.787V735.609H277.693L273.638 738.258V735.797L277.857 733.031H280.388ZM290.151 750.234C286.471 750.234 283.893 748.242 283.916 745.477C283.893 743.297 285.463 741.516 287.455 741.211V741.117C285.721 740.719 284.549 739.172 284.549 737.32C284.549 734.719 286.916 732.797 290.151 732.797C293.362 732.797 295.705 734.719 295.729 737.32C295.705 739.172 294.533 740.719 292.823 741.117V741.211C294.791 741.516 296.362 743.297 296.385 745.477C296.362 748.242 293.783 750.234 290.151 750.234ZM290.151 748.102C292.354 748.102 293.76 746.953 293.76 745.289C293.76 743.531 292.237 742.266 290.151 742.266C288.041 742.266 286.494 743.531 286.541 745.289C286.494 746.953 287.901 748.102 290.151 748.102ZM290.151 740.227C291.932 740.227 293.198 739.148 293.198 737.555C293.198 735.984 291.955 734.906 290.151 734.906C288.276 734.906 287.057 735.961 287.057 737.555C287.057 739.148 288.346 740.227 290.151 740.227Z" fill="black"/>
    <path d="M415.33 733.031V750H412.728V735.609H412.635L408.58 738.258V735.797L412.799 733.031H415.33ZM424.998 732.797C428.115 732.82 431.397 734.695 431.397 740.906C431.397 746.859 428.842 750.234 424.764 750.234C421.647 750.234 419.444 748.312 419.045 745.547H421.6C421.951 746.977 423.053 747.984 424.764 747.984C427.389 747.984 428.912 745.688 428.936 741.82H428.725C427.811 743.25 426.217 744.117 424.389 744.117C421.342 744.117 418.905 741.797 418.905 738.539C418.905 735.305 421.319 732.773 424.998 732.797ZM424.998 734.953C422.936 734.953 421.412 736.547 421.412 738.492C421.412 740.461 422.889 742.008 424.951 742.008C426.99 742.008 428.584 740.344 428.584 738.469C428.584 736.641 427.084 734.953 424.998 734.953Z" fill="black"/>
    <path d="M542.697 750V748.125L548.58 742.195C550.431 740.25 551.369 739.172 551.369 737.695C551.369 736.031 550.01 734.953 548.228 734.953C546.353 734.953 545.135 736.148 545.135 737.953H542.697C542.674 734.859 545.041 732.797 548.275 732.797C551.556 732.797 553.806 734.859 553.83 737.625C553.806 739.523 552.916 741.023 549.728 744.164L546.283 747.656V747.797H554.111V750H542.697ZM562.397 750.234C558.459 750.234 556.162 747.07 556.162 741.516C556.162 736.008 558.506 732.797 562.397 732.797C566.287 732.797 568.631 736.008 568.631 741.516C568.631 747.07 566.311 750.234 562.397 750.234ZM562.397 748.008C564.694 748.008 566.053 745.758 566.053 741.516C566.053 737.297 564.67 734.977 562.397 734.977C560.123 734.977 558.74 737.297 558.74 741.516C558.74 745.758 560.1 748.008 562.397 748.008Z" fill="black"/>
    <path d="M679.724 750V748.125L685.607 742.195C687.459 740.25 688.396 739.172 688.396 737.695C688.396 736.031 687.037 734.953 685.256 734.953C683.381 734.953 682.162 736.148 682.162 737.953H679.724C679.701 734.859 682.068 732.797 685.302 732.797C688.584 732.797 690.834 734.859 690.857 737.625C690.834 739.523 689.943 741.023 686.756 744.164L683.31 747.656V747.797H691.138V750H679.724ZM699.963 733.031V750H697.362V735.609H697.268L693.213 738.258V735.797L697.432 733.031H699.963Z" fill="black"/>
    <path d="M812.967 750V748.125L818.849 742.195C820.701 740.25 821.638 739.172 821.638 737.695C821.638 736.031 820.279 734.953 818.498 734.953C816.623 734.953 815.404 736.148 815.404 737.953H812.967C812.943 734.859 815.31 732.797 818.545 732.797C821.826 732.797 824.076 734.859 824.099 737.625C824.076 739.523 823.185 741.023 819.998 744.164L816.552 747.656V747.797H824.381V750H812.967ZM826.76 750V748.125L832.643 742.195C834.494 740.25 835.432 739.172 835.432 737.695C835.432 736.031 834.073 734.953 832.291 734.953C830.416 734.953 829.198 736.148 829.198 737.953H826.76C826.737 734.859 829.104 732.797 832.338 732.797C835.619 732.797 837.869 734.859 837.893 737.625C837.869 739.523 836.979 741.023 833.791 744.164L830.346 747.656V747.797H838.174V750H826.76Z" fill="#FF7710"/>
    <path d="M2.615 906V904.125L8.49781 898.195C10.3494 896.25 11.2869 895.172 11.2869 893.695C11.2869 892.031 9.9275 890.953 8.14625 890.953C6.27125 890.953 5.0525 892.148 5.0525 893.953H2.615C2.59156 890.859 4.95875 888.797 8.19312 888.797C11.4744 888.797 13.7244 890.859 13.7478 893.625C13.7244 895.523 12.8337 897.023 9.64625 900.164L6.20094 903.656V903.797H14.0291V906H2.615ZM22.4319 906.234C18.9163 906.234 16.4084 904.336 16.3147 901.57H18.9397C19.0334 903.07 20.51 904.008 22.4084 904.008C24.4475 904.008 25.9475 902.883 25.9475 901.242C25.9475 899.578 24.5413 898.359 22.1272 898.359H20.6741V896.25H22.1272C24.0491 896.25 25.4084 895.172 25.4084 893.555C25.4084 892.008 24.26 890.953 22.4553 890.953C20.7444 890.953 19.2444 891.891 19.1741 893.438H16.6897C16.76 890.672 19.3147 888.797 22.4788 888.797C25.8069 888.797 27.9163 890.906 27.8928 893.414C27.9163 895.336 26.7209 896.742 24.8928 897.188V897.305C27.2131 897.633 28.5491 899.18 28.5491 901.336C28.5491 904.172 25.9475 906.234 22.4319 906.234Z" fill="#FF7710"/>
    <path d="M137.674 906V904.125L143.556 898.195C145.408 896.25 146.345 895.172 146.345 893.695C146.345 892.031 144.986 890.953 143.205 890.953C141.33 890.953 140.111 892.148 140.111 893.953H137.674C137.65 890.859 140.017 888.797 143.252 888.797C146.533 888.797 148.783 890.859 148.806 893.625C148.783 895.523 147.892 897.023 144.705 900.164L141.26 903.656V903.797H149.088V906H137.674ZM150.717 902.695V900.609L158.217 889.031H161.405V900.516H163.725V902.695H161.405V906H158.967V902.695H150.717ZM153.436 900.516H158.967V892.102H158.78L153.436 900.375V900.516Z" fill="black"/>
    <path d="M272.826 906V904.125L278.709 898.195C280.56 896.25 281.498 895.172 281.498 893.695C281.498 892.031 280.138 890.953 278.357 890.953C276.482 890.953 275.263 892.148 275.263 893.953H272.826C272.802 890.859 275.17 888.797 278.404 888.797C281.685 888.797 283.935 890.859 283.959 893.625C283.935 895.523 283.045 897.023 279.857 900.164L276.412 903.656V903.797H284.24V906H272.826ZM292.385 906.234C289.174 906.234 286.76 904.266 286.643 901.57H289.151C289.291 903.023 290.674 904.078 292.385 904.078C294.448 904.078 295.924 902.578 295.924 900.562C295.924 898.5 294.401 897 292.268 896.977C290.908 896.977 289.877 897.422 289.291 898.477H286.854L287.955 889.031H297.565V891.234H290.088L289.526 895.992H289.69C290.393 895.312 291.588 894.844 292.877 894.844C296.065 894.844 298.432 897.211 298.432 900.492C298.432 903.844 295.924 906.234 292.385 906.234Z" fill="black"/>
    <path d="M407.627 906V904.125L413.51 898.195C415.361 896.25 416.299 895.172 416.299 893.695C416.299 892.031 414.939 890.953 413.158 890.953C411.283 890.953 410.064 892.148 410.064 893.953H407.627C407.603 890.859 409.97 888.797 413.205 888.797C416.486 888.797 418.736 890.859 418.76 893.625C418.736 895.523 417.845 897.023 414.658 900.164L411.213 903.656V903.797H419.041V906H407.627ZM427.561 906.234C424.42 906.211 421.139 904.359 421.139 898.078C421.139 892.172 423.694 888.797 427.772 888.797C430.889 888.797 433.069 890.742 433.467 893.438H430.912C430.584 892.055 429.483 891.047 427.772 891.047C425.147 891.047 423.623 893.344 423.623 897.164H423.811C424.725 895.734 426.319 894.867 428.17 894.867C431.194 894.867 433.631 897.188 433.631 900.445C433.631 903.727 431.217 906.258 427.561 906.234ZM427.537 904.078C429.6 904.078 431.123 902.484 431.123 900.492C431.123 898.547 429.647 896.977 427.608 896.977C425.522 896.977 423.951 898.617 423.928 900.516C423.951 902.391 425.451 904.078 427.537 904.078Z" fill="black"/>
    <path d="M542.888 906V904.125L548.771 898.195C550.623 896.25 551.56 895.172 551.56 893.695C551.56 892.031 550.201 890.953 548.42 890.953C546.545 890.953 545.326 892.148 545.326 893.953H542.888C542.865 890.859 545.232 888.797 548.467 888.797C551.748 888.797 553.998 890.859 554.021 893.625C553.998 895.523 553.107 897.023 549.92 900.164L546.474 903.656V903.797H554.302V906H542.888ZM557.268 906L564.838 891.375V891.234H556.096V889.031H567.51V891.328L559.963 906H557.268Z" fill="black"/>
    <path d="M677.685 906V904.125L683.568 898.195C685.42 896.25 686.357 895.172 686.357 893.695C686.357 892.031 684.998 890.953 683.217 890.953C681.342 890.953 680.123 892.148 680.123 893.953H677.685C677.662 890.859 680.029 888.797 683.263 888.797C686.545 888.797 688.795 890.859 688.818 893.625C688.795 895.523 687.904 897.023 684.717 900.164L681.271 903.656V903.797H689.099V906H677.685ZM697.408 906.234C693.729 906.234 691.151 904.242 691.174 901.477C691.151 899.297 692.721 897.516 694.713 897.211V897.117C692.979 896.719 691.807 895.172 691.807 893.32C691.807 890.719 694.174 888.797 697.408 888.797C700.619 888.797 702.963 890.719 702.987 893.32C702.963 895.172 701.791 896.719 700.08 897.117V897.211C702.049 897.516 703.619 899.297 703.643 901.477C703.619 904.242 701.041 906.234 697.408 906.234ZM697.408 904.102C699.612 904.102 701.018 902.953 701.018 901.289C701.018 899.531 699.494 898.266 697.408 898.266C695.299 898.266 693.752 899.531 693.799 901.289C693.752 902.953 695.158 904.102 697.408 904.102ZM697.408 896.227C699.19 896.227 700.455 895.148 700.455 893.555C700.455 891.984 699.213 890.906 697.408 890.906C695.533 890.906 694.315 891.961 694.315 893.555C694.315 895.148 695.604 896.227 697.408 896.227Z" fill="black"/>
    <path d="M812.618 904.127L818.502 898.185C819.215 897.445 819.759 896.848 820.135 896.395C820.511 895.942 820.798 895.5 820.997 895.069C821.201 894.633 821.304 894.174 821.304 893.693C821.304 893.146 821.165 892.666 820.889 892.251C820.613 891.837 820.234 891.519 819.754 891.298C819.279 891.072 818.746 890.959 818.154 890.959C817.536 890.959 816.991 891.083 816.522 891.331C816.058 891.575 815.699 891.923 815.444 892.376C815.196 892.829 815.071 893.356 815.071 893.959H812.618C812.618 892.942 812.856 892.044 813.331 891.265C813.812 890.481 814.475 889.873 815.32 889.442C816.171 889.011 817.132 888.796 818.204 888.796C819.276 888.796 820.232 889.006 821.071 889.425C821.911 889.845 822.566 890.423 823.036 891.157C823.511 891.887 823.751 892.707 823.757 893.619C823.751 894.271 823.627 894.895 823.384 895.492C823.141 896.088 822.726 896.754 822.141 897.489C821.56 898.218 820.734 899.108 819.663 900.157L816.215 903.663V903.787H824.03V906H812.627L812.618 904.127ZM832.213 888.796C833.351 888.796 834.401 889.052 835.362 889.566C836.329 890.075 837.119 890.934 837.732 892.144C838.346 893.348 838.652 894.936 838.652 896.909C838.652 898.87 838.384 900.55 837.848 901.948C837.312 903.345 836.544 904.409 835.544 905.138C834.55 905.867 833.376 906.232 832.022 906.232C831 906.232 830.08 906.036 829.263 905.644C828.445 905.246 827.782 904.693 827.274 903.986C826.765 903.279 826.445 902.467 826.312 901.55H828.857C829.039 902.29 829.404 902.881 829.951 903.323C830.498 903.76 831.188 903.978 832.022 903.978C832.89 903.978 833.633 903.735 834.252 903.249C834.876 902.757 835.354 902.05 835.685 901.127C836.017 900.204 836.185 899.099 836.191 897.812H835.984C835.52 898.536 834.906 899.102 834.144 899.511C833.387 899.914 832.553 900.116 831.641 900.116C830.636 900.116 829.713 899.878 828.873 899.403C828.039 898.923 827.379 898.26 826.893 897.414C826.406 896.564 826.163 895.608 826.163 894.547C826.163 893.475 826.415 892.503 826.917 891.63C827.42 890.751 828.13 890.061 829.047 889.558C829.964 889.05 831.02 888.796 832.213 888.796ZM828.674 894.472C828.674 895.124 828.823 895.721 829.122 896.262C829.426 896.804 829.846 897.232 830.381 897.547C830.923 897.862 831.533 898.019 832.213 898.019C832.876 898.019 833.484 897.856 834.036 897.53C834.594 897.199 835.033 896.762 835.354 896.221C835.68 895.674 835.843 895.091 835.843 894.472C835.843 893.859 835.685 893.285 835.37 892.749C835.061 892.207 834.633 891.773 834.086 891.448C833.539 891.122 832.931 890.959 832.263 890.959C831.594 890.959 830.986 891.116 830.439 891.431C829.893 891.746 829.462 892.171 829.147 892.707C828.832 893.243 828.674 893.831 828.674 894.472Z" fill="#FF7710"/>
    <path d="M7.86204 1062.23C6.70735 1062.23 5.67144 1062.04 4.75431 1061.64C3.84271 1061.25 3.12171 1060.7 2.59133 1059.99C2.06646 1059.29 1.79022 1058.48 1.7626 1057.57H4.37309C4.40072 1058.05 4.56923 1058.48 4.87862 1058.85C5.19354 1059.22 5.6079 1059.51 6.12171 1059.71C6.63552 1059.91 7.20735 1060.01 7.83718 1060.01C8.51674 1060.01 9.12447 1059.9 9.66039 1059.66C10.2018 1059.43 10.6217 1059.1 10.9201 1058.69C11.2239 1058.27 11.3759 1057.79 11.3759 1057.25C11.3814 1056.69 11.2322 1056.19 10.9283 1055.75C10.63 1055.31 10.1908 1054.98 9.61066 1054.73C9.03608 1054.49 8.35099 1054.37 7.55541 1054.37H6.11342V1052.26H7.55541C8.1963 1052.26 8.76536 1052.15 9.2626 1051.93C9.75983 1051.7 10.1466 1051.39 10.4228 1050.98C10.7046 1050.57 10.8455 1050.1 10.8455 1049.56C10.8455 1049.05 10.7239 1048.59 10.4808 1048.2C10.2377 1047.8 9.89243 1047.5 9.44492 1047.28C9.00293 1047.07 8.48635 1046.96 7.89519 1046.96C7.32061 1046.96 6.7847 1047.06 6.28746 1047.27C5.79574 1047.46 5.39795 1047.75 5.09409 1048.13C4.79022 1048.5 4.62724 1048.94 4.60514 1049.44H2.11895C2.14657 1048.54 2.42005 1047.73 2.93939 1047.03C3.45873 1046.33 4.15486 1045.78 5.02779 1045.38C5.90072 1044.99 6.86481 1044.8 7.92005 1044.8C8.9974 1044.8 9.94768 1045.01 10.7709 1045.43C11.5996 1045.84 12.235 1046.4 12.677 1047.11C13.1245 1047.81 13.3455 1048.58 13.3399 1049.43C13.3455 1050.06 13.2239 1050.63 12.9753 1051.14C12.7322 1051.66 12.3841 1052.09 11.9311 1052.44C11.4781 1052.78 10.9477 1053.02 10.3399 1053.17V1053.31C11.0969 1053.41 11.7488 1053.65 12.2957 1054.01C12.8482 1054.38 13.2681 1054.84 13.5554 1055.41C13.8427 1055.98 13.9836 1056.62 13.9781 1057.34C13.9836 1058.27 13.7212 1059.11 13.1908 1059.85C12.6659 1060.59 11.9366 1061.18 11.0029 1061.6C10.0692 1062.02 9.02226 1062.23 7.86204 1062.23ZM22.2426 1062.27C20.9387 1062.27 19.8199 1061.93 18.8862 1061.25C17.9581 1060.56 17.2481 1059.56 16.7564 1058.25C16.2647 1056.94 16.0188 1055.36 16.0188 1053.52C16.0188 1051.69 16.2647 1050.13 16.7564 1048.82C17.2536 1047.51 17.9691 1046.52 18.9028 1045.83C19.8365 1045.14 20.9498 1044.8 22.2426 1044.8C23.5354 1044.8 24.6487 1045.14 25.5824 1045.83C26.5216 1046.52 27.2371 1047.51 27.7288 1048.82C28.226 1050.13 28.4746 1051.69 28.4746 1053.52C28.4746 1055.36 28.2288 1056.94 27.7371 1058.25C27.2453 1059.56 26.5326 1060.56 25.5989 1061.25C24.6652 1061.93 23.5465 1062.27 22.2426 1062.27ZM18.5879 1053.52C18.5879 1054.92 18.7315 1056.11 19.0188 1057.09C19.3061 1058.06 19.7232 1058.8 20.2702 1059.3C20.8227 1059.8 21.4802 1060.05 22.2426 1060.05C23.0105 1060.05 23.668 1059.8 24.215 1059.3C24.7619 1058.8 25.179 1058.06 25.4663 1057.09C25.7592 1056.11 25.9056 1054.92 25.9056 1053.52C25.9056 1052.13 25.7592 1050.94 25.4663 1049.97C25.1735 1048.99 24.7536 1048.25 24.2067 1047.75C23.6597 1047.24 23.005 1046.99 22.2426 1046.99C21.4857 1046.99 20.8337 1047.24 20.2868 1047.75C19.7398 1048.25 19.3199 1048.99 19.0271 1049.97C18.7343 1050.94 18.5879 1052.13 18.5879 1053.52Z" fill="#FF7710"/>
    <path opacity="0.3" d="M153.06 1062H150.475V1047.61H150.375L146.323 1050.26V1047.8L150.541 1045.03H153.06V1062Z" fill="black"/>
    <path opacity="0.3" d="M279.855 1060.13L285.739 1054.19C286.452 1053.44 286.996 1052.85 287.372 1052.4C287.747 1051.94 288.035 1051.5 288.233 1051.07C288.438 1050.63 288.54 1050.17 288.54 1049.69C288.54 1049.15 288.402 1048.67 288.126 1048.25C287.849 1047.84 287.471 1047.52 286.99 1047.3C286.515 1047.07 285.982 1046.96 285.391 1046.96C284.772 1046.96 284.228 1047.08 283.758 1047.33C283.294 1047.57 282.935 1047.92 282.681 1048.38C282.432 1048.83 282.308 1049.36 282.308 1049.96H279.855C279.855 1048.94 280.093 1048.04 280.568 1047.27C281.048 1046.48 281.711 1045.87 282.557 1045.44C283.407 1045.01 284.369 1044.8 285.441 1044.8C286.512 1044.8 287.468 1045.01 288.308 1045.43C289.148 1045.85 289.803 1046.42 290.272 1047.16C290.747 1047.89 290.988 1048.71 290.993 1049.62C290.988 1050.27 290.863 1050.9 290.62 1051.49C290.377 1052.09 289.963 1052.75 289.377 1053.49C288.797 1054.22 287.971 1055.11 286.899 1056.16L283.452 1059.66V1059.79H291.267V1062H279.863L279.855 1060.13Z" fill="black"/>
    <path opacity="0.3" d="M420.528 1062.23C419.374 1062.23 418.338 1062.04 417.421 1061.64C416.509 1061.25 415.788 1060.7 415.258 1059.99C414.733 1059.29 414.456 1058.48 414.429 1057.57H417.039C417.067 1058.05 417.235 1058.48 417.545 1058.85C417.86 1059.22 418.274 1059.51 418.788 1059.71C419.302 1059.91 419.874 1060.01 420.503 1060.01C421.183 1060.01 421.791 1059.9 422.327 1059.66C422.868 1059.43 423.288 1059.1 423.586 1058.69C423.89 1058.27 424.042 1057.79 424.042 1057.25C424.048 1056.69 423.898 1056.19 423.595 1055.75C423.296 1055.31 422.857 1054.98 422.277 1054.73C421.702 1054.49 421.017 1054.37 420.222 1054.37H418.78V1052.26H420.222C420.863 1052.26 421.432 1052.15 421.929 1051.93C422.426 1051.7 422.813 1051.39 423.089 1050.98C423.371 1050.57 423.512 1050.1 423.512 1049.56C423.512 1049.05 423.39 1048.59 423.147 1048.2C422.904 1047.8 422.559 1047.5 422.111 1047.28C421.669 1047.07 421.153 1046.96 420.561 1046.96C419.987 1046.96 419.451 1047.06 418.954 1047.27C418.462 1047.46 418.064 1047.75 417.76 1048.13C417.456 1048.5 417.293 1048.94 417.271 1049.44H414.785C414.813 1048.54 415.086 1047.73 415.606 1047.03C416.125 1046.33 416.821 1045.78 417.694 1045.38C418.567 1044.99 419.531 1044.8 420.586 1044.8C421.664 1044.8 422.614 1045.01 423.437 1045.43C424.266 1045.84 424.901 1046.4 425.343 1047.11C425.791 1047.81 426.012 1048.58 426.006 1049.43C426.012 1050.06 425.89 1050.63 425.642 1051.14C425.398 1051.66 425.05 1052.09 424.597 1052.44C424.144 1052.78 423.614 1053.02 423.006 1053.17V1053.31C423.763 1053.41 424.415 1053.65 424.962 1054.01C425.514 1054.38 425.934 1054.84 426.222 1055.41C426.509 1055.98 426.65 1056.62 426.644 1057.34C426.65 1058.27 426.387 1059.11 425.857 1059.85C425.332 1060.59 424.603 1061.18 423.669 1061.6C422.735 1062.02 421.689 1062.23 420.528 1062.23Z" fill="black"/>
    <path opacity="0.3" d="M548.518 1056.6L556.01 1045.03H559.209V1056.51H561.513V1058.69H559.209V1062H556.747V1058.69H548.518V1056.6ZM556.764 1056.51V1048.09H556.582L551.22 1056.37V1056.51H556.764Z" fill="black"/>
    <path opacity="0.3" d="M690.499 1062.23C689.438 1062.23 688.477 1062.03 687.615 1061.64C686.753 1061.23 686.068 1060.68 685.56 1059.97C685.057 1059.26 684.789 1058.46 684.756 1057.57H687.267C687.306 1058.04 687.471 1058.47 687.764 1058.85C688.062 1059.23 688.449 1059.53 688.924 1059.75C689.405 1059.96 689.93 1060.07 690.499 1060.07C691.173 1060.07 691.778 1059.92 692.314 1059.62C692.855 1059.32 693.275 1058.9 693.573 1058.37C693.877 1057.83 694.029 1057.23 694.029 1056.56C694.029 1055.88 693.869 1055.27 693.549 1054.72C693.234 1054.18 692.797 1053.75 692.239 1053.45C691.681 1053.14 691.051 1052.98 690.35 1052.98C688.93 1052.98 687.941 1053.48 687.383 1054.48H684.955L686.065 1045.03H695.678V1047.24H688.203L687.623 1051.98H687.789C688.154 1051.64 688.618 1051.36 689.181 1051.16C689.75 1050.96 690.35 1050.85 690.98 1050.85C692.035 1050.85 692.985 1051.1 693.83 1051.58C694.676 1052.06 695.336 1052.73 695.811 1053.6C696.292 1054.45 696.532 1055.42 696.532 1056.51C696.532 1057.6 696.275 1058.59 695.761 1059.46C695.248 1060.32 694.532 1061 693.615 1061.49C692.698 1061.99 691.659 1062.23 690.499 1062.23Z" fill="black"/>
    <path opacity="0.3" d="M825.706 1062.23C824.557 1062.23 823.499 1061.98 822.532 1061.47C821.565 1060.96 820.775 1060.09 820.162 1058.88C819.554 1057.67 819.25 1056.07 819.25 1054.08C819.25 1052.13 819.518 1050.46 820.054 1049.07C820.59 1047.68 821.355 1046.62 822.349 1045.89C823.344 1045.16 824.518 1044.8 825.872 1044.8C826.894 1044.8 827.811 1044.99 828.623 1045.39C829.441 1045.78 830.104 1046.33 830.612 1047.03C831.12 1047.73 831.441 1048.54 831.573 1049.44H829.029C828.847 1048.72 828.482 1048.14 827.935 1047.7C827.388 1047.27 826.7 1047.05 825.872 1047.05C825.004 1047.05 824.258 1047.29 823.634 1047.78C823.015 1048.27 822.543 1048.97 822.217 1049.89C821.891 1050.81 821.728 1051.9 821.728 1053.17H821.918C822.377 1052.45 822.988 1051.89 823.75 1051.48C824.512 1051.08 825.355 1050.88 826.278 1050.88C827.278 1050.88 828.195 1051.12 829.029 1051.6C829.863 1052.07 830.523 1052.74 831.01 1053.59C831.496 1054.43 831.739 1055.39 831.739 1056.45C831.739 1057.53 831.488 1058.51 830.985 1059.4C830.482 1060.28 829.772 1060.97 828.855 1061.48C827.938 1061.98 826.888 1062.23 825.706 1062.23ZM822.043 1056.52C822.043 1057.15 822.197 1057.73 822.507 1058.28C822.822 1058.82 823.253 1059.25 823.8 1059.58C824.352 1059.91 824.968 1060.07 825.648 1060.07C826.316 1060.07 826.924 1059.91 827.471 1059.6C828.018 1059.28 828.449 1058.84 828.764 1058.3C829.079 1057.75 829.236 1057.15 829.236 1056.49C829.236 1055.85 829.081 1055.26 828.772 1054.72C828.468 1054.18 828.046 1053.75 827.504 1053.44C826.968 1053.12 826.366 1052.97 825.697 1052.97C825.029 1052.97 824.416 1053.13 823.858 1053.46C823.3 1053.78 822.858 1054.22 822.532 1054.77C822.211 1055.31 822.048 1055.89 822.043 1056.52Z" fill="#FF7710"/>
    <path opacity="0.3" d="M2.62672 282V280.125L8.50953 274.195C10.3611 272.25 11.2986 271.172 11.2986 269.695C11.2986 268.031 9.93922 266.953 8.15797 266.953C6.28297 266.953 5.06422 268.148 5.06422 269.953H2.62672C2.60328 266.859 4.97047 264.797 8.20484 264.797C11.4861 264.797 13.7361 266.859 13.7595 269.625C13.7361 271.523 12.8455 273.023 9.65797 276.164L6.21266 279.656V279.797H14.0408V282H2.62672ZM22.5608 282.234C19.4202 282.211 16.1389 280.359 16.1389 274.078C16.1389 268.172 18.6936 264.797 22.7717 264.797C25.8889 264.797 28.0686 266.742 28.467 269.438H25.9123C25.5842 268.055 24.4827 267.047 22.7717 267.047C20.1467 267.047 18.6233 269.344 18.6233 273.164H18.8108C19.7248 271.734 21.3186 270.867 23.1702 270.867C26.1936 270.867 28.6311 273.188 28.6311 276.445C28.6311 279.727 26.217 282.258 22.5608 282.234ZM22.5373 280.078C24.5998 280.078 26.1233 278.484 26.1233 276.492C26.1233 274.547 24.6467 272.977 22.6077 272.977C20.5217 272.977 18.9514 274.617 18.928 276.516C18.9514 278.391 20.4514 280.078 22.5373 280.078Z" fill="#FF7710"/>
    <path opacity="0.3" d="M137.888 282V280.125L143.771 274.195C145.623 272.25 146.56 271.172 146.56 269.695C146.56 268.031 145.201 266.953 143.42 266.953C141.545 266.953 140.326 268.148 140.326 269.953H137.888C137.865 266.859 140.232 264.797 143.467 264.797C146.748 264.797 148.998 266.859 149.021 269.625C148.998 271.523 148.107 273.023 144.92 276.164L141.474 279.656V279.797H149.302V282H137.888ZM152.268 282L159.838 267.375V267.234H151.096V265.031H162.51V267.328L154.963 282H152.268Z" fill="black"/>
    <path opacity="0.3" d="M272.685 282V280.125L278.568 274.195C280.42 272.25 281.357 271.172 281.357 269.695C281.357 268.031 279.998 266.953 278.217 266.953C276.342 266.953 275.123 268.148 275.123 269.953H272.685C272.662 266.859 275.029 264.797 278.263 264.797C281.545 264.797 283.795 266.859 283.818 269.625C283.795 271.523 282.904 273.023 279.717 276.164L276.271 279.656V279.797H284.099V282H272.685ZM292.408 282.234C288.729 282.234 286.151 280.242 286.174 277.477C286.151 275.297 287.721 273.516 289.713 273.211V273.117C287.979 272.719 286.807 271.172 286.807 269.32C286.807 266.719 289.174 264.797 292.408 264.797C295.619 264.797 297.963 266.719 297.987 269.32C297.963 271.172 296.791 272.719 295.08 273.117V273.211C297.049 273.516 298.619 275.297 298.643 277.477C298.619 280.242 296.041 282.234 292.408 282.234ZM292.408 280.102C294.612 280.102 296.018 278.953 296.018 277.289C296.018 275.531 294.494 274.266 292.408 274.266C290.299 274.266 288.752 275.531 288.799 277.289C288.752 278.953 290.158 280.102 292.408 280.102ZM292.408 272.227C294.19 272.227 295.455 271.148 295.455 269.555C295.455 267.984 294.213 266.906 292.408 266.906C290.533 266.906 289.315 267.961 289.315 269.555C289.315 271.148 290.604 272.227 292.408 272.227Z" fill="black"/>
    <path opacity="0.3" d="M407.627 282V280.125L413.51 274.195C415.361 272.25 416.299 271.172 416.299 269.695C416.299 268.031 414.939 266.953 413.158 266.953C411.283 266.953 410.064 268.148 410.064 269.953H407.627C407.603 266.859 409.97 264.797 413.205 264.797C416.486 264.797 418.736 266.859 418.76 269.625C418.736 271.523 417.845 273.023 414.658 276.164L411.213 279.656V279.797H419.041V282H407.627ZM427.256 264.797C430.373 264.82 433.655 266.695 433.655 272.906C433.655 278.859 431.1 282.234 427.022 282.234C423.905 282.234 421.701 280.312 421.303 277.547H423.858C424.209 278.977 425.311 279.984 427.022 279.984C429.647 279.984 431.17 277.688 431.194 273.82H430.983C430.069 275.25 428.475 276.117 426.647 276.117C423.6 276.117 421.162 273.797 421.162 270.539C421.162 267.305 423.576 264.773 427.256 264.797ZM427.256 266.953C425.194 266.953 423.67 268.547 423.67 270.492C423.67 272.461 425.147 274.008 427.209 274.008C429.248 274.008 430.842 272.344 430.842 270.469C430.842 268.641 429.342 266.953 427.256 266.953Z" fill="black"/>
    <path opacity="0.3" d="M547.869 282.234C544.353 282.234 541.845 280.336 541.752 277.57H544.377C544.47 279.07 545.947 280.008 547.845 280.008C549.885 280.008 551.385 278.883 551.385 277.242C551.385 275.578 549.978 274.359 547.564 274.359H546.111V272.25H547.564C549.486 272.25 550.845 271.172 550.845 269.555C550.845 268.008 549.697 266.953 547.892 266.953C546.181 266.953 544.681 267.891 544.611 269.438H542.127C542.197 266.672 544.752 264.797 547.916 264.797C551.244 264.797 553.353 266.906 553.33 269.414C553.353 271.336 552.158 272.742 550.33 273.188V273.305C552.65 273.633 553.986 275.18 553.986 277.336C553.986 280.172 551.385 282.234 547.869 282.234ZM562.248 282.234C558.311 282.234 556.014 279.07 556.014 273.516C556.014 268.008 558.358 264.797 562.248 264.797C566.139 264.797 568.483 268.008 568.483 273.516C568.483 279.07 566.162 282.234 562.248 282.234ZM562.248 280.008C564.545 280.008 565.905 277.758 565.905 273.516C565.905 269.297 564.522 266.977 562.248 266.977C559.975 266.977 558.592 269.297 558.592 273.516C558.592 277.758 559.951 280.008 562.248 280.008Z" fill="black"/>
    <path opacity="0.3" d="M684.896 282.234C681.381 282.234 678.873 280.336 678.779 277.57H681.404C681.498 279.07 682.974 280.008 684.873 280.008C686.912 280.008 688.412 278.883 688.412 277.242C688.412 275.578 687.006 274.359 684.592 274.359H683.138V272.25H684.592C686.513 272.25 687.873 271.172 687.873 269.555C687.873 268.008 686.724 266.953 684.92 266.953C683.209 266.953 681.709 267.891 681.638 269.438H679.154C679.224 266.672 681.779 264.797 684.943 264.797C688.271 264.797 690.381 266.906 690.357 269.414C690.381 271.336 689.185 272.742 687.357 273.188V273.305C689.677 273.633 691.013 275.18 691.013 277.336C691.013 280.172 688.412 282.234 684.896 282.234ZM699.815 265.031V282H697.213V267.609H697.119L693.065 270.258V267.797L697.283 265.031H699.815Z" fill="black"/>
    <path d="M828.066 265.031V282H825.465V267.609H825.371L821.316 270.258V267.797L825.535 265.031H828.066Z" fill="#FF7710"/>
    <g filter="url(#filter0_d_2336_19159)">
    <rect x="304" y="20" width="232" height="76" rx="38" fill="white" shape-rendering="crispEdges"/>
    <path d="M345.937 70H341.23V51.8453H341.097L335.904 55.105V50.9282L341.506 47.3702H345.937V70ZM360.297 70H355.59V51.8453H355.457L350.264 55.105V50.9282L355.866 47.3702H360.297V70ZM388.071 60.9503H384.071V60.0221H378.933V57.6354H384.071V44.4641H388.071V60.9503ZM363.972 54.4862C367.574 54.4862 370.859 54.4494 373.828 54.3757C376.804 54.2947 379.651 54.1289 382.369 53.8785L382.579 56.3536C380.178 56.6703 377.636 56.8987 374.955 57.0387V60.9834H370.999V57.1823C369.732 57.2118 368.351 57.2265 366.856 57.2265C365.743 57.2265 364.922 57.2228 364.392 57.2155L363.972 54.4862ZM365.916 49.1271C365.916 48.2799 366.215 47.5359 366.811 46.895C367.408 46.2468 368.252 45.7459 369.342 45.3923C370.432 45.0313 371.692 44.8508 373.121 44.8508C374.52 44.8508 375.762 45.0313 376.845 45.3923C377.927 45.7459 378.771 46.2468 379.375 46.895C379.979 47.5359 380.285 48.2799 380.292 49.1271C380.285 49.9963 379.979 50.7514 379.375 51.3923C378.778 52.0331 377.939 52.5267 376.856 52.8729C375.773 53.2118 374.528 53.3812 373.121 53.3812C371.684 53.3812 370.421 53.2118 369.331 52.8729C368.241 52.5267 367.397 52.0331 366.8 51.3923C366.211 50.7514 365.916 49.9963 365.916 49.1271ZM368.049 61.7901H388.071V68.4309H372.082V69.9006H388.734V72.6851H368.159V65.8564H384.093V64.4751H368.049V61.7901ZM369.684 49.1271C369.677 49.6501 369.975 50.0552 370.579 50.3425C371.191 50.6225 372.038 50.7624 373.121 50.7624C374.189 50.7624 375.029 50.6225 375.64 50.3425C376.252 50.0552 376.557 49.6501 376.557 49.1271C376.557 48.6114 376.252 48.2063 375.64 47.9116C375.036 47.6096 374.215 47.4586 373.176 47.4586C372.078 47.4586 371.22 47.6059 370.601 47.9006C369.983 48.1952 369.677 48.6041 369.684 49.1271ZM412.32 47.1602C412.312 50.3278 411.951 53.175 411.237 55.7017C410.522 58.221 409.24 60.5709 407.391 62.7514C405.542 64.9245 402.975 66.8656 399.69 68.5746L397.502 65.5691C399.727 64.3978 401.568 63.1418 403.027 61.8011C404.485 60.4604 405.627 58.9945 406.452 57.4033L398.209 58.1657L397.657 54.7735L407.69 54.2099C408.014 53.0313 408.231 51.7459 408.342 50.3536H399.181V47.1602H412.32ZM412.264 55.3702H417.723V44.4199H421.69V72.884H417.723V58.6298H412.264V55.3702ZM448.573 72.9503H444.607V44.4199H448.573V72.9503ZM426.253 46.8177H439.767V57.779H430.386V63.0055C432.669 62.9908 434.772 62.9098 436.695 62.7624C438.618 62.6151 440.577 62.3757 442.573 62.0442L442.916 65.2818C440.728 65.6722 438.544 65.9374 436.363 66.0773C434.19 66.2173 431.678 66.2873 428.828 66.2873H426.275V54.6409H435.7V50.0331H426.253V46.8177ZM474.706 47.779C474.706 49.2523 474.673 50.5267 474.606 51.6022C474.547 52.6777 474.396 53.849 474.153 55.116H477.645V58.2541H471.258V60.2431H474.827V67.779H458.628V69.4807H475.822V72.5635H454.684V64.9282H470.86V63.2818H454.639V60.2431H458.076V58.2541H451.822V55.116H470.142C470.312 54.2836 470.433 53.5064 470.507 52.7845L454.617 53.4586L454.164 50.3536L470.706 50L470.728 48.3978H454.949V45.2707H474.706V47.779ZM467.28 60.2431V58.2541H462.065V60.2431H467.28ZM502.75 72.5635H483.534V62.3978H502.75V72.5635ZM479.843 45.768H492.739V54.453H483.832V57.1492C486.131 57.1344 488.109 57.0755 489.766 56.9724C491.424 56.8692 493.099 56.6851 494.794 56.4199L495.081 59.6243C493.195 59.9411 491.309 60.1473 489.424 60.2431C487.545 60.3389 485.136 60.3867 482.197 60.3867H479.888V51.4696H488.849V48.9724H479.843V45.768ZM498.794 69.3702V65.4807H487.49V69.3702H498.794ZM494.175 50.3425H498.772V44.4641H502.75V61.1713H498.772V53.547H494.175V50.3425Z" fill="#FF7710"/>
    </g>
    <g opacity="0.4">
    <rect x="488" y="301" width="134" height="40" rx="20" fill="url(#paint0_linear_2336_19159)"/>
    <path d="M509.553 316.516C509.553 318.297 510.71 319.969 512.882 320.656L511.944 322.016C510.421 321.5 509.327 320.469 508.725 319.156C508.1 320.656 506.96 321.836 505.335 322.406L504.397 321.047C506.678 320.25 507.803 318.375 507.819 316.359V315.016H509.553V316.516ZM515.694 314.266V317.703H517.663V319.141H515.694V322.719H513.96V314.266H515.694ZM511.1 323.031C514.022 323.016 515.819 324.016 515.835 325.688C515.819 327.391 514.022 328.375 511.1 328.375C508.147 328.375 506.319 327.391 506.319 325.688C506.319 324.016 508.147 323.016 511.1 323.031ZM511.1 324.391C509.163 324.391 508.053 324.859 508.053 325.688C508.053 326.562 509.163 327 511.1 327C513.038 327 514.116 326.562 514.116 325.688C514.116 324.859 513.038 324.391 511.1 324.391ZM530.312 316.156V317.562H518.64V316.156H523.624V314.453H525.343V316.156H530.312ZM530.968 325.469V326.875H518.062V325.469H523.624V323.734C521.179 323.539 519.702 322.562 519.718 321C519.702 319.297 521.53 318.281 524.483 318.281C527.39 318.281 529.233 319.297 529.233 321C529.233 322.555 527.749 323.531 525.343 323.719V325.469H530.968ZM524.483 319.641C522.562 319.656 521.483 320.109 521.499 321C521.483 321.906 522.562 322.359 524.483 322.375C526.374 322.359 527.452 321.906 527.452 321C527.452 320.109 526.374 319.656 524.483 319.641ZM546.843 314.266V328.391H545.093V314.266H546.843ZM543.406 315.641V317.062H542.047V323.391C542.726 323.344 543.39 323.281 544.031 323.203L544.125 324.5C541.093 324.984 537.781 325.047 535.187 325.047L535.015 323.625C535.562 323.625 536.148 323.617 536.765 323.609V317.062H535.39V315.641H543.406ZM538.437 323.562C539.062 323.555 539.703 323.531 540.343 323.5V317.062H538.437V323.562ZM560.023 320.891V322.281H550.117V315.5H559.914V316.906H551.836V320.891H560.023ZM561.461 325.156V326.594H548.555V325.156H561.461ZM564.25 315.172V317.25H566.578V315.172H568.188V321.906H562.61V315.172H564.25ZM564.25 320.531H566.578V318.594H564.25V320.531ZM574.141 314.281V322.766H572.485V319.219H571.078V322.688H569.453V314.547H571.078V317.797H572.485V314.281H574.141ZM574.141 323.484V328.391H572.407V324.891H564.469V323.484H574.141ZM591.235 314.266V328.391H589.548V314.266H591.235ZM588.267 314.547V327.703H586.642V320.922H583.923V319.5H586.642V314.547H588.267ZM584.892 315.922V317.312H581.22V323.703C582.892 323.688 584.087 323.617 585.47 323.328L585.61 324.75C584.017 325.078 582.61 325.141 580.47 325.156H579.517V315.922H584.892ZM604.306 314.266V328.406H602.556V314.266H604.306ZM596.697 315.297C598.822 315.297 600.368 317.234 600.384 320.281C600.368 323.359 598.822 325.281 596.697 325.281C594.556 325.281 593.009 323.359 593.009 320.281C593.009 317.234 594.556 315.297 596.697 315.297ZM596.697 316.859C595.493 316.859 594.681 318.125 594.681 320.281C594.681 322.453 595.493 323.719 596.697 323.719C597.884 323.719 598.697 322.453 598.697 320.281C598.697 318.125 597.884 316.859 596.697 316.859Z" fill="white"/>
    </g>
    <rect x="488" y="613" width="134" height="40" rx="20" fill="url(#paint1_linear_2336_19159)"/>
    <path d="M511.85 628.203C511.85 630.391 513.991 632.578 516.944 633.094L516.163 634.547C513.796 634.047 511.858 632.617 510.944 630.719C510.007 632.602 508.069 634.039 505.71 634.547L504.944 633.094C507.866 632.562 509.991 630.375 510.007 628.203V627.156H511.85V628.203ZM517.46 637.156V638.594H504.553V637.156H517.46ZM529.905 626.266V640.406H528.187V632.781H525.53V631.375H528.187V626.266H529.905ZM525.312 627.484V628.906H520.452V631.438H524.749V632.812H520.452V635.719C522.601 635.711 524.21 635.641 526.03 635.344L526.202 636.75C524.14 637.062 522.343 637.141 519.812 637.156H518.702V627.484H525.312ZM543.32 626.266V640.406H541.57V626.266H543.32ZM539.257 627.547V628.969H534.195V635.531C536.796 635.523 538.429 635.445 540.304 635.109L540.476 636.547C538.46 636.922 536.632 637 533.648 637H532.445V627.547H539.257ZM553.727 628.297C553.711 630.219 554.836 631.969 557.055 632.672L556.117 634.031C554.578 633.492 553.5 632.469 552.898 631.125C552.273 632.664 551.094 633.875 549.383 634.469L548.461 633.062C550.805 632.297 551.977 630.406 551.977 628.375V627.031H553.727V628.297ZM560.383 626.266V634.578H558.648V630.422H555.836V629H558.648V626.266H560.383ZM555.602 634.953C558.602 634.953 560.43 635.953 560.43 637.672C560.43 639.391 558.602 640.375 555.602 640.375C552.617 640.375 550.789 639.391 550.805 637.672C550.789 635.953 552.617 634.953 555.602 634.953ZM555.602 636.297C553.633 636.297 552.523 636.781 552.523 637.672C552.523 638.531 553.633 639.016 555.602 639.016C557.57 639.016 558.695 638.531 558.695 637.672C558.695 636.781 557.57 636.297 555.602 636.297ZM569.953 627.734V628.734C569.953 630 569.953 631.766 569.563 634.203L567.844 634.062C568.18 631.922 568.219 630.344 568.235 629.125H562.688V627.734H569.953ZM566.391 631.766V635.938C567.828 635.883 569.305 635.781 570.657 635.609L570.75 636.906C567.828 637.375 564.594 637.438 562.11 637.422L561.938 636.031C562.774 636.023 563.703 636.016 564.672 635.984V631.766H566.391ZM573.141 626.266V632.016H575.188V633.484H573.141V640.391H571.391V626.266H573.141ZM581.251 626.891V628.688H584.548V626.891H586.267V633.047H579.532V626.891H581.251ZM581.251 631.672H584.548V630H581.251V631.672ZM590.188 626.266V629.125H592.157V630.531H590.188V633.5H588.454V626.266H590.188ZM590.188 634.062V637.766H582.688V638.891H590.626V640.266H580.97V636.5H588.454V635.422H580.954V634.062H590.188ZM605.462 637.359V638.766H592.556V637.359H595.9V634.453H593.665V633.047H595.65V628.859H593.618V627.469H604.337V628.859H602.275V633.047H604.29V634.453H602.056V637.359H605.462ZM597.384 633.047H600.556V628.859H597.384V633.047ZM597.634 637.359H600.322V634.453H597.634V637.359Z" fill="white"/>
    <rect x="456" y="925" width="199" height="40" rx="20" fill="url(#paint2_linear_2336_19159)"/>
    <path d="M477.884 940.812C477.884 942.547 479.009 944.172 481.213 944.844L480.384 946.203C478.798 945.711 477.673 944.703 477.056 943.422C476.431 944.906 475.236 946.086 473.541 946.656L472.666 945.281C474.947 944.531 476.134 942.703 476.134 940.828V940.656H473.15V939.25H480.822V940.656H477.884V940.812ZM483.963 938.266V941.656H485.931V943.078H483.963V946.688H482.228V938.266H483.963ZM479.369 947C482.291 947 484.088 947.984 484.103 949.672C484.088 951.375 482.291 952.375 479.369 952.375C476.416 952.375 474.588 951.375 474.588 949.672C474.588 947.984 476.416 947 479.369 947ZM479.369 948.359C477.431 948.359 476.322 948.812 476.322 949.672C476.322 950.547 477.431 951.016 479.369 951.016C481.306 951.016 482.384 950.547 482.384 949.672C482.384 948.812 481.306 948.359 479.369 948.359ZM498.127 938.266V952.391H496.377V938.266H498.127ZM493.908 939.766C493.908 943.969 492.283 947.547 487.33 949.891L486.424 948.5C490.119 946.742 491.838 944.352 492.143 941.141H487.143V939.766H493.908ZM516.221 949.234V950.688H503.315V949.234H516.221ZM515.096 939.578V940.969H513.034V945.469H515.049V946.844H504.424V945.469H506.409V940.969H504.378V939.578H515.096ZM508.143 945.469H511.315V940.969H508.143V945.469ZM526.12 938.562V946.781H524.464V943.219H522.698V941.812H524.464V938.562H526.12ZM521.183 941.297C521.183 942.812 522.026 944.344 523.823 945.062L522.948 946.391C521.698 945.906 520.854 945 520.37 943.906C519.854 945.133 518.956 946.141 517.62 946.688L516.714 945.328C518.604 944.578 519.495 942.906 519.495 941.297V940.734H517.12V939.344H523.417V940.734H521.183V941.297ZM528.901 938.266V946.875H527.245V938.266H528.901ZM528.901 947.438V952.391H527.167V948.828H519.229V947.438H528.901ZM545.574 938.281V946.266H543.824V938.281H545.574ZM545.574 946.969V952.219H536.199V946.969H545.574ZM537.918 948.344V950.812H543.871V948.344H537.918ZM539.074 940.188C539.074 941.984 540.277 943.672 542.48 944.375L541.636 945.703C540.003 945.195 538.832 944.156 538.199 942.797C537.55 944.258 536.363 945.422 534.668 945.984L533.808 944.609C536.105 943.875 537.277 942.047 537.277 940.188V938.812H539.074V940.188ZM552.363 941.656C552.348 944.172 553.613 946.734 555.801 947.781L554.738 949.172C553.207 948.398 552.105 946.906 551.504 945.109C550.887 947.031 549.73 948.625 548.113 949.438L547.051 948.047C549.316 946.969 550.613 944.266 550.629 941.656V939.406H552.363V941.656ZM558.379 938.266V943.797H560.551V945.281H558.379V952.391H556.644V938.266H558.379ZM571.833 939.141V945.016H565.02V939.141H571.833ZM566.739 940.516V943.656H570.114V940.516H566.739ZM576.036 938.266V946.312H574.317V938.266H576.036ZM576.333 947.141V948.453H572.301C572.465 949.547 574.161 950.75 576.864 951.016L576.27 952.344C573.981 952.109 572.247 951.203 571.395 950.031C570.512 951.219 568.762 952.094 566.458 952.344L565.864 951.016C568.567 950.781 570.301 949.578 570.458 948.453H566.442V947.141H570.504V945.906H572.254V947.141H576.333ZM586.849 945.828V948.109C588.075 948.047 589.31 947.938 590.474 947.766L590.614 949.047C587.443 949.625 584.052 949.656 581.568 949.656L581.349 948.25C582.45 948.242 583.747 948.234 585.114 948.188V945.828H586.849ZM589.896 940V941.406H586.88C586.958 942.914 588.153 944.273 590.286 944.812L589.489 946.172C587.818 945.719 586.622 944.742 585.989 943.484C585.364 944.812 584.185 945.828 582.505 946.281L581.677 944.969C583.81 944.383 584.982 942.992 585.083 941.406H582.099V940H585.114V938.391H586.849V940H589.896ZM593.052 938.266V952.406H591.318V938.266H593.052ZM602.076 943.312V945.109H607.669V946.516H594.794V945.109H600.357V943.312H602.076ZM601.216 947.422C604.279 947.422 606.091 948.297 606.107 949.891C606.091 951.484 604.279 952.375 601.216 952.375C598.138 952.375 596.294 951.484 596.294 949.891C596.294 948.297 598.138 947.422 601.216 947.422ZM601.216 948.75C599.138 948.75 598.044 949.141 598.06 949.891C598.044 950.672 599.138 951.062 601.216 951.062C603.248 951.062 604.357 950.672 604.373 949.891C604.357 949.141 603.248 948.75 601.216 948.75ZM606.513 938.891V940.281H602.451C602.732 941.43 604.427 942.461 607.06 942.719L606.435 944.078C603.873 943.82 601.982 942.82 601.216 941.391C600.451 942.82 598.576 943.82 596.013 944.078L595.404 942.719C598.013 942.461 599.708 941.438 599.998 940.281H595.966V938.891H606.513ZM613.983 938.891V940.688H617.279V938.891H618.998V945.047H612.264V938.891H613.983ZM613.983 943.672H617.279V942H613.983V943.672ZM622.92 938.266V941.125H624.889V942.531H622.92V945.5H621.186V938.266H622.92ZM622.92 946.062V949.766H615.42V950.891H623.358V952.266H613.701V948.5H621.186V947.422H613.686V946.062H622.92ZM638.194 949.359V950.766H625.288V949.359H628.631V946.453H626.397V945.047H628.381V940.859H626.35V939.469H637.069V940.859H635.006V945.047H637.022V946.453H634.788V949.359H638.194ZM630.116 945.047H633.288V940.859H630.116V945.047ZM630.366 949.359H633.053V946.453H630.366V949.359Z" fill="white"/>
    <g opacity="0.4">
    <rect x="497" y="1081" width="117" height="40" rx="20" fill="#F7F7F7"/>
    <path d="M525.343 1094.27V1108.39H523.593V1094.27H525.343ZM521.124 1095.77C521.124 1099.97 519.499 1103.55 514.546 1105.89L513.64 1104.5C517.335 1102.74 519.054 1100.35 519.358 1097.14H514.358V1095.77H521.124ZM538.195 1094.27V1097.11H540.163V1098.55H538.195V1101.36H536.46V1094.27H538.195ZM534.226 1094.98V1100.77H527.538V1094.98H534.226ZM529.242 1096.36V1099.39H532.523V1096.36H529.242ZM538.195 1101.97V1105.67H530.695V1106.84H538.632V1108.22H528.976V1104.41H536.46V1103.31H528.96V1101.97H538.195ZM552.093 1095.56V1096.92C552.078 1098.67 552.078 1100.64 551.531 1103.59L549.781 1103.41C550.328 1100.66 550.328 1098.65 550.343 1096.95H541.906V1095.56H552.093ZM553.437 1105.14V1106.56H540.562V1105.14H545.312V1100.23H547.031V1105.14H553.437ZM559.117 1097.66C559.102 1100.17 560.367 1102.73 562.555 1103.78L561.492 1105.17C559.961 1104.4 558.859 1102.91 558.258 1101.11C557.641 1103.03 556.484 1104.62 554.867 1105.44L553.805 1104.05C556.07 1102.97 557.367 1100.27 557.383 1097.66V1095.41H559.117V1097.66ZM565.133 1094.27V1099.8H567.305V1101.28H565.133V1108.39H563.398V1094.27H565.133ZM583.227 1095.73V1097.11H571.696V1095.73H576.618V1094.23H578.337V1095.73H583.227ZM583.962 1103.3V1104.7H580.837V1108.41H579.087V1104.7H575.915V1108.41H574.18V1104.7H571.055V1103.3H583.962ZM577.477 1097.75C580.462 1097.75 582.258 1098.59 582.258 1100.14C582.258 1101.67 580.462 1102.53 577.477 1102.53C574.493 1102.53 572.696 1101.67 572.696 1100.14C572.696 1098.59 574.493 1097.75 577.477 1097.75ZM577.477 1099.06C575.524 1099.06 574.493 1099.42 574.508 1100.14C574.493 1100.84 575.524 1101.22 577.477 1101.2C579.43 1101.22 580.462 1100.84 580.462 1100.14C580.462 1099.42 579.43 1099.06 577.477 1099.06ZM589.829 1096.28C589.829 1098.14 590.985 1099.89 593.235 1100.59L592.376 1101.97C590.743 1101.42 589.579 1100.35 588.954 1098.97C588.306 1100.45 587.126 1101.63 585.454 1102.2L584.579 1100.84C586.86 1100.06 588.032 1098.2 588.032 1096.28V1094.94H589.829V1096.28ZM596.329 1103.36V1108.39H594.579V1104.75H586.688V1103.36H596.329ZM596.329 1094.27V1102.72H594.579V1094.27H596.329Z" fill="#C4C4C4"/>
    </g>
    <path d="M159.569 1229.81C160.265 1229.81 160.891 1229.94 161.447 1230.21C162.003 1230.48 162.44 1230.85 162.757 1231.33C163.073 1231.8 163.234 1232.34 163.237 1232.94C163.234 1233.55 163.073 1234.08 162.757 1234.56C162.44 1235.03 162.003 1235.4 161.447 1235.66C160.891 1235.93 160.265 1236.06 159.569 1236.06C158.865 1236.06 158.234 1235.93 157.674 1235.66C157.114 1235.4 156.675 1235.03 156.359 1234.56C156.042 1234.09 155.884 1233.55 155.884 1232.94C155.884 1232.34 156.042 1231.8 156.359 1231.33C156.675 1230.85 157.114 1230.48 157.674 1230.21C158.234 1229.94 158.865 1229.81 159.569 1229.81ZM157.331 1232.94C157.327 1233.32 157.421 1233.65 157.613 1233.94C157.804 1234.23 158.071 1234.46 158.414 1234.62C158.757 1234.78 159.141 1234.86 159.569 1234.86C159.992 1234.86 160.373 1234.78 160.712 1234.62C161.051 1234.46 161.316 1234.23 161.508 1233.94C161.703 1233.65 161.801 1233.32 161.801 1232.94C161.801 1232.57 161.703 1232.24 161.508 1231.95C161.316 1231.66 161.051 1231.43 160.712 1231.28C160.373 1231.12 159.992 1231.04 159.569 1231.04C159.141 1231.04 158.757 1231.12 158.414 1231.28C158.071 1231.43 157.804 1231.66 157.613 1231.95C157.421 1232.24 157.327 1232.57 157.331 1232.94ZM158.005 1237.1H167.215V1240.62H159.491V1241.96H167.674V1243.15H158.049V1239.51H165.74V1238.28H158.005V1237.1ZM165.729 1229.33H167.215V1236.45H165.729V1229.33ZM180.778 1237.66H179.298V1234.12H176.685V1232.9H179.298V1229.33H180.778V1237.66ZM169.115 1236.4C169.823 1236.15 170.44 1235.79 170.966 1235.31C171.497 1234.84 171.904 1234.3 172.187 1233.69C172.471 1233.08 172.613 1232.46 172.613 1231.81V1231.5H169.574V1230.29H177.132V1231.5H174.115V1231.8C174.115 1232.39 174.25 1232.97 174.519 1233.52C174.791 1234.08 175.182 1234.58 175.69 1235.01C176.202 1235.45 176.802 1235.78 177.491 1236.01L176.734 1237.19C175.961 1236.92 175.289 1236.52 174.718 1235.99C174.147 1235.46 173.707 1234.85 173.397 1234.14C173.088 1234.94 172.631 1235.63 172.027 1236.23C171.423 1236.82 170.708 1237.27 169.883 1237.57L169.115 1236.4ZM171.359 1240.69C171.355 1240.14 171.543 1239.66 171.922 1239.27C172.301 1238.87 172.847 1238.57 173.557 1238.36C174.268 1238.15 175.112 1238.05 176.088 1238.05C177.064 1238.05 177.906 1238.15 178.613 1238.36C179.324 1238.57 179.869 1238.87 180.248 1239.27C180.631 1239.66 180.823 1240.14 180.823 1240.69C180.823 1241.24 180.631 1241.71 180.248 1242.1C179.869 1242.5 179.324 1242.8 178.613 1243.01C177.906 1243.22 177.064 1243.32 176.088 1243.33C175.112 1243.32 174.268 1243.22 173.557 1243.01C172.847 1242.8 172.301 1242.5 171.922 1242.1C171.543 1241.71 171.355 1241.24 171.359 1240.69ZM172.828 1240.69C172.824 1241 172.952 1241.27 173.209 1241.49C173.467 1241.71 173.841 1241.88 174.331 1241.99C174.821 1242.11 175.406 1242.16 176.088 1242.16C176.766 1242.16 177.349 1242.11 177.839 1241.99C178.329 1241.88 178.703 1241.71 178.961 1241.49C179.222 1241.27 179.353 1241 179.353 1240.69C179.353 1240.38 179.222 1240.11 178.961 1239.88C178.703 1239.66 178.329 1239.49 177.839 1239.38C177.349 1239.26 176.766 1239.2 176.088 1239.2C175.406 1239.2 174.821 1239.26 174.331 1239.38C173.841 1239.49 173.467 1239.66 173.209 1239.88C172.952 1240.11 172.824 1240.38 172.828 1240.69ZM195.381 1237.82H182.618V1236.64H195.381V1237.82ZM183.983 1232.6C183.983 1232.02 184.187 1231.52 184.596 1231.09C185.005 1230.67 185.587 1230.35 186.342 1230.13C187.097 1229.9 187.979 1229.79 188.988 1229.8C189.994 1229.79 190.872 1229.9 191.624 1230.13C192.379 1230.35 192.961 1230.67 193.369 1231.09C193.778 1231.52 193.983 1232.02 193.983 1232.6C193.983 1233.18 193.778 1233.68 193.369 1234.11C192.961 1234.54 192.379 1234.87 191.624 1235.09C190.872 1235.32 189.994 1235.43 188.988 1235.43C187.979 1235.43 187.097 1235.32 186.342 1235.09C185.587 1234.87 185.005 1234.54 184.596 1234.11C184.187 1233.68 183.983 1233.18 183.983 1232.6ZM184.226 1238.96H185.718V1241.82H193.944V1243.04H184.226V1238.96ZM185.524 1232.6C185.52 1232.94 185.657 1233.23 185.933 1233.48C186.213 1233.72 186.613 1233.9 187.132 1234.03C187.655 1234.16 188.274 1234.22 188.988 1234.22C189.703 1234.22 190.32 1234.16 190.839 1234.03C191.362 1233.9 191.764 1233.72 192.043 1233.48C192.323 1233.23 192.463 1232.94 192.463 1232.6C192.463 1232.27 192.323 1231.98 192.043 1231.73C191.764 1231.49 191.362 1231.31 190.839 1231.18C190.316 1231.05 189.699 1230.98 188.988 1230.98C188.277 1230.98 187.66 1231.05 187.137 1231.18C186.618 1231.31 186.218 1231.49 185.939 1231.73C185.659 1231.98 185.52 1232.27 185.524 1232.6ZM211.701 1243.33H210.265V1236.16H208.48V1242.61H207.088V1229.61H208.48V1234.93H210.265V1229.33H211.701V1243.33ZM200.364 1230.98H201.851V1238.46C202.565 1238.45 203.272 1238.41 203.972 1238.35C204.676 1238.28 205.398 1238.18 206.138 1238.03L206.304 1239.33C205.401 1239.49 204.543 1239.6 203.729 1239.67C202.919 1239.73 202.099 1239.77 201.27 1239.77H200.364V1230.98ZM226.011 1238.74H220.298V1243.33H218.839V1238.74H213.198V1237.56H226.011V1238.74ZM214.795 1229.9H216.265V1231.72H222.928V1229.9H224.408V1235.97H214.795V1229.9ZM222.928 1234.78V1232.91H216.265V1234.78H222.928ZM235.166 1232.89C235.162 1233.71 235.308 1234.52 235.602 1235.31C235.901 1236.11 236.317 1236.83 236.851 1237.46C237.389 1238.1 237.998 1238.58 238.68 1238.92L237.768 1240.1C237.013 1239.71 236.348 1239.15 235.774 1238.41C235.199 1237.67 234.755 1236.83 234.442 1235.88C234.125 1236.89 233.669 1237.79 233.072 1238.57C232.475 1239.36 231.785 1239.96 231 1240.37L230.077 1239.18C230.781 1238.84 231.405 1238.34 231.95 1237.68C232.499 1237.02 232.925 1236.27 233.227 1235.43C233.532 1234.59 233.687 1233.74 233.691 1232.89V1230.49H235.166V1232.89ZM239.735 1229.33H241.221V1234.91H243.464V1236.18H241.221V1243.33H239.735V1229.33ZM255.492 1237.66H254.011V1234.12H251.398V1232.9H254.011V1229.33H255.492V1237.66ZM243.829 1236.4C244.536 1236.15 245.153 1235.79 245.679 1235.31C246.21 1234.84 246.617 1234.3 246.9 1233.69C247.184 1233.08 247.326 1232.46 247.326 1231.81V1231.5H244.287V1230.29H251.845V1231.5H248.829V1231.8C248.829 1232.39 248.963 1232.97 249.232 1233.52C249.504 1234.08 249.895 1234.58 250.403 1235.01C250.915 1235.45 251.516 1235.78 252.204 1236.01L251.447 1237.19C250.674 1236.92 250.002 1236.52 249.431 1235.99C248.86 1235.46 248.42 1234.85 248.11 1234.14C247.801 1234.94 247.344 1235.63 246.74 1236.23C246.136 1236.82 245.422 1237.27 244.597 1237.57L243.829 1236.4ZM246.072 1240.69C246.068 1240.14 246.256 1239.66 246.635 1239.27C247.015 1238.87 247.56 1238.57 248.271 1238.36C248.981 1238.15 249.825 1238.05 250.801 1238.05C251.777 1238.05 252.619 1238.15 253.326 1238.36C254.037 1238.57 254.582 1238.87 254.961 1239.27C255.344 1239.66 255.536 1240.14 255.536 1240.69C255.536 1241.24 255.344 1241.71 254.961 1242.1C254.582 1242.5 254.037 1242.8 253.326 1243.01C252.619 1243.22 251.777 1243.32 250.801 1243.33C249.825 1243.32 248.981 1243.22 248.271 1243.01C247.56 1242.8 247.015 1242.5 246.635 1242.1C246.256 1241.71 246.068 1241.24 246.072 1240.69ZM247.541 1240.69C247.538 1241 247.665 1241.27 247.923 1241.49C248.18 1241.71 248.554 1241.88 249.044 1241.99C249.534 1242.11 250.12 1242.16 250.801 1242.16C251.479 1242.16 252.062 1242.11 252.552 1241.99C253.042 1241.88 253.416 1241.71 253.674 1241.49C253.935 1241.27 254.066 1241 254.066 1240.69C254.066 1240.38 253.935 1240.11 253.674 1239.88C253.416 1239.66 253.042 1239.49 252.552 1239.38C252.062 1239.26 251.479 1239.2 250.801 1239.2C250.12 1239.2 249.534 1239.26 249.044 1239.38C248.554 1239.49 248.18 1239.66 247.923 1239.88C247.665 1240.11 247.538 1240.38 247.541 1240.69ZM269.37 1243.33H267.944V1229.33H269.37V1243.33ZM257.486 1235.37C257.486 1234.37 257.609 1233.5 257.856 1232.76C258.107 1232.02 258.458 1231.45 258.911 1231.05C259.364 1230.65 259.893 1230.45 260.497 1230.45C261.06 1230.45 261.56 1230.62 261.994 1230.96C262.432 1231.3 262.782 1231.79 263.044 1232.43C263.309 1233.07 263.471 1233.82 263.53 1234.69H265.11V1229.6H266.525V1242.64H265.11V1235.9H263.536C263.491 1236.8 263.339 1237.59 263.077 1238.25C262.816 1238.92 262.464 1239.43 262.022 1239.78C261.58 1240.14 261.072 1240.31 260.497 1240.31C259.893 1240.31 259.364 1240.12 258.911 1239.72C258.458 1239.32 258.107 1238.74 257.856 1238C257.609 1237.25 257.486 1236.38 257.486 1235.37ZM258.867 1235.37C258.863 1236.11 258.926 1236.74 259.055 1237.27C259.188 1237.8 259.377 1238.21 259.624 1238.49C259.871 1238.77 260.162 1238.9 260.497 1238.9C260.839 1238.9 261.136 1238.77 261.386 1238.49C261.641 1238.21 261.834 1237.81 261.967 1237.28C262.103 1236.74 262.171 1236.11 262.171 1235.37C262.171 1234.63 262.103 1234 261.967 1233.48C261.834 1232.94 261.641 1232.54 261.386 1232.26C261.136 1231.98 260.839 1231.84 260.497 1231.84C260.162 1231.84 259.871 1231.98 259.624 1232.26C259.377 1232.54 259.188 1232.94 259.055 1233.48C258.926 1234.01 258.863 1234.64 258.867 1235.37ZM278.984 1230.32C279.713 1230.32 280.367 1230.46 280.945 1230.75C281.523 1231.03 281.974 1231.42 282.299 1231.93C282.626 1232.43 282.792 1233.01 282.796 1233.66C282.792 1234.31 282.626 1234.88 282.299 1235.39C281.974 1235.9 281.523 1236.29 280.945 1236.57C280.367 1236.85 279.713 1236.99 278.984 1236.99C278.254 1236.99 277.599 1236.85 277.017 1236.57C276.438 1236.29 275.985 1235.9 275.658 1235.39C275.33 1234.88 275.168 1234.31 275.171 1233.66C275.168 1233.01 275.33 1232.44 275.658 1231.93C275.985 1231.43 276.438 1231.03 277.017 1230.75C277.599 1230.46 278.254 1230.32 278.984 1230.32ZM274.978 1239.1C276.584 1239.1 278.107 1239.07 279.547 1239.01C280.991 1238.95 282.356 1238.83 283.641 1238.64L283.757 1239.72C282.777 1239.91 281.761 1240.05 280.707 1240.14C279.658 1240.23 278.672 1240.29 277.752 1240.31C276.834 1240.33 275.81 1240.34 274.68 1240.34L274.497 1239.1H274.978ZM276.636 1233.66C276.632 1234.06 276.729 1234.42 276.928 1234.73C277.131 1235.04 277.411 1235.28 277.768 1235.45C278.129 1235.62 278.534 1235.71 278.984 1235.71C279.433 1235.71 279.836 1235.62 280.194 1235.45C280.555 1235.28 280.836 1235.04 281.039 1234.73C281.245 1234.42 281.348 1234.06 281.348 1233.66C281.348 1233.25 281.245 1232.9 281.039 1232.59C280.836 1232.28 280.555 1232.04 280.194 1231.87C279.836 1231.69 279.433 1231.61 278.984 1231.61C278.534 1231.61 278.129 1231.69 277.768 1231.87C277.411 1232.04 277.131 1232.28 276.928 1232.59C276.729 1232.9 276.632 1233.25 276.636 1233.66ZM284.52 1229.33H286V1243.35H284.52V1229.33ZM294.845 1232.85H287.901V1231.65H290.652V1229.74H292.122V1231.65H294.845V1232.85ZM288.354 1236.91C288.35 1236.29 288.477 1235.73 288.735 1235.24C288.996 1234.75 289.357 1234.37 289.818 1234.1C290.282 1233.82 290.805 1233.69 291.387 1233.69C291.969 1233.69 292.49 1233.82 292.95 1234.1C293.411 1234.37 293.772 1234.75 294.033 1235.24C294.295 1235.73 294.427 1236.29 294.431 1236.91C294.427 1237.54 294.295 1238.1 294.033 1238.59C293.772 1239.08 293.411 1239.47 292.95 1239.75C292.49 1240.02 291.969 1240.16 291.387 1240.16C290.805 1240.16 290.282 1240.02 289.818 1239.75C289.357 1239.47 288.996 1239.08 288.735 1238.59C288.477 1238.09 288.35 1237.53 288.354 1236.91ZM289.657 1236.91C289.657 1237.3 289.731 1237.64 289.878 1237.94C290.026 1238.24 290.23 1238.48 290.492 1238.64C290.753 1238.81 291.052 1238.89 291.387 1238.88C291.718 1238.89 292.015 1238.81 292.276 1238.64C292.541 1238.48 292.748 1238.24 292.895 1237.94C293.042 1237.64 293.116 1237.3 293.116 1236.91C293.116 1236.52 293.042 1236.18 292.895 1235.88C292.748 1235.58 292.541 1235.35 292.276 1235.18C292.015 1235.01 291.718 1234.92 291.387 1234.92C291.052 1234.92 290.753 1235.01 290.492 1235.18C290.23 1235.35 290.026 1235.58 289.878 1235.88C289.731 1236.18 289.657 1236.52 289.657 1236.91ZM295.497 1229.64H296.895V1235.16H298.508V1229.33H299.923V1243.33H298.508V1236.37H296.895V1242.67H295.497V1229.64ZM316.697 1239.69H315.216V1236.04H312.155V1237.35H305.691V1230.26H307.177V1232.64H310.686V1230.26H312.155V1231.83H315.216V1229.34H316.697V1239.69ZM310.686 1236.16V1233.78H307.177V1236.16H310.686ZM307.553 1238.67H309.05V1241.82H317.011V1243.04H307.553V1238.67ZM315.216 1234.83V1233.04H312.155V1234.83H315.216ZM330.205 1237.64H328.724V1235.92H325.194V1234.7H328.724V1233H325.337C324.888 1234.12 324.151 1235.07 323.127 1235.87C322.103 1236.66 320.827 1237.27 319.299 1237.71L318.702 1236.54C319.803 1236.23 320.75 1235.83 321.542 1235.34C322.337 1234.84 322.96 1234.28 323.409 1233.64C323.862 1233 324.131 1232.31 324.216 1231.56H319.426V1230.34H325.829C325.829 1230.85 325.781 1231.34 325.685 1231.82H328.724V1229.34H330.205V1237.64ZM320.873 1240.51C320.873 1239.95 321.067 1239.47 321.453 1239.06C321.84 1238.65 322.389 1238.33 323.1 1238.12C323.811 1237.9 324.643 1237.78 325.597 1237.78C326.536 1237.78 327.359 1237.9 328.067 1238.12C328.774 1238.33 329.321 1238.65 329.707 1239.06C330.098 1239.47 330.293 1239.95 330.293 1240.51C330.293 1241.07 330.098 1241.56 329.707 1241.98C329.321 1242.39 328.774 1242.71 328.067 1242.93C327.359 1243.15 326.536 1243.26 325.597 1243.26C324.643 1243.26 323.811 1243.15 323.1 1242.93C322.389 1242.71 321.84 1242.39 321.453 1241.98C321.067 1241.56 320.873 1241.07 320.873 1240.51ZM322.348 1240.51C322.348 1240.84 322.479 1241.12 322.741 1241.35C323.002 1241.59 323.376 1241.76 323.862 1241.89C324.352 1242.01 324.93 1242.07 325.597 1242.07C326.249 1242.07 326.816 1242.01 327.299 1241.89C327.781 1241.76 328.153 1241.59 328.415 1241.35C328.68 1241.12 328.812 1240.84 328.812 1240.51C328.812 1240.19 328.68 1239.91 328.415 1239.67C328.153 1239.44 327.781 1239.26 327.299 1239.14C326.816 1239.02 326.249 1238.96 325.597 1238.96C324.93 1238.96 324.352 1239.02 323.862 1239.14C323.376 1239.26 323.002 1239.44 322.741 1239.67C322.479 1239.91 322.348 1240.19 322.348 1240.51ZM340.194 1234.03H337.486V1235.28C338.845 1235.22 340.081 1235.13 341.194 1235L341.265 1236.02C339.914 1236.22 338.484 1236.36 336.978 1236.44C335.472 1236.52 333.914 1236.55 332.304 1236.55L332.122 1235.39C333.54 1235.39 334.829 1235.37 335.989 1235.34V1234.03H333.392V1229.93H340.044V1231.06H334.917V1232.88H340.194V1234.03ZM334.293 1237.4H343.674V1240.8H335.779V1242H344.127V1243.19H334.315V1239.69H342.216V1238.57H334.293V1237.4ZM342.205 1229.34H343.674V1236.82H342.205V1229.34ZM356.299 1230.56C356.299 1231.17 356.525 1231.75 356.979 1232.32C357.432 1232.88 358.043 1233.36 358.813 1233.76C359.583 1234.16 360.42 1234.41 361.327 1234.54L360.735 1235.75C359.973 1235.62 359.251 1235.42 358.57 1235.12C357.892 1234.82 357.29 1234.45 356.763 1234.02C356.24 1233.57 355.829 1233.08 355.531 1232.54C355.233 1233.09 354.82 1233.58 354.293 1234.02C353.77 1234.46 353.17 1234.83 352.492 1235.12C351.815 1235.42 351.096 1235.62 350.338 1235.75L349.741 1234.54C350.647 1234.41 351.483 1234.16 352.249 1233.77C353.015 1233.37 353.623 1232.9 354.072 1232.33C354.525 1231.76 354.752 1231.17 354.752 1230.56V1229.8H356.299V1230.56ZM349.139 1237.12H361.901V1238.35H356.216V1243.33H354.758V1238.35H349.139V1237.12ZM371.084 1238.57C371.084 1238.99 371.152 1239.39 371.288 1239.8C371.428 1240.19 371.638 1240.57 371.918 1240.92C372.198 1241.27 372.542 1241.57 372.951 1241.81C373.364 1241.55 373.714 1241.23 374.001 1240.87C374.288 1240.5 374.504 1240.12 374.647 1239.72C374.795 1239.33 374.868 1238.94 374.868 1238.57V1237.91H376.327V1238.57C376.323 1239.07 376.426 1239.54 376.636 1239.99C376.85 1240.45 377.165 1240.85 377.581 1241.21C378.001 1241.57 378.507 1241.84 379.1 1242.04L378.366 1243.12C377.692 1242.89 377.117 1242.55 376.642 1242.11C376.17 1241.67 375.81 1241.15 375.559 1240.56C375.323 1241.16 374.99 1241.69 374.559 1242.16C374.128 1242.63 373.607 1242.99 372.996 1243.25C372.347 1243.01 371.802 1242.66 371.36 1242.2C370.922 1241.74 370.59 1241.21 370.366 1240.61C370.108 1241.18 369.745 1241.68 369.277 1242.12C368.813 1242.55 368.259 1242.89 367.614 1243.12L366.874 1242.04C367.456 1241.83 367.955 1241.54 368.371 1241.17C368.787 1240.8 369.104 1240.39 369.321 1239.94C369.539 1239.49 369.649 1239.03 369.653 1238.57V1237.91H371.084V1238.57ZM366.515 1233.42C366.515 1232.78 366.675 1232.21 366.996 1231.71C367.316 1231.21 367.76 1230.82 368.327 1230.54C368.894 1230.26 369.533 1230.12 370.244 1230.12C370.951 1230.12 371.587 1230.26 372.15 1230.54C372.717 1230.82 373.161 1231.21 373.482 1231.71C373.802 1232.21 373.962 1232.78 373.962 1233.42C373.962 1234.06 373.802 1234.63 373.482 1235.13C373.161 1235.62 372.717 1236.01 372.15 1236.29C371.587 1236.57 370.951 1236.71 370.244 1236.71C369.533 1236.71 368.894 1236.57 368.327 1236.29C367.763 1236.01 367.32 1235.62 366.996 1235.13C366.675 1234.63 366.515 1234.06 366.515 1233.42ZM367.968 1233.42C367.964 1233.82 368.058 1234.18 368.25 1234.49C368.445 1234.8 368.716 1235.04 369.062 1235.22C369.408 1235.39 369.802 1235.48 370.244 1235.48C370.679 1235.48 371.067 1235.39 371.41 1235.22C371.756 1235.04 372.025 1234.8 372.217 1234.49C372.412 1234.18 372.509 1233.82 372.509 1233.42C372.509 1233.02 372.412 1232.66 372.217 1232.35C372.025 1232.04 371.756 1231.8 371.41 1231.63C371.067 1231.46 370.679 1231.37 370.244 1231.38C369.806 1231.37 369.412 1231.46 369.062 1231.63C368.716 1231.8 368.445 1232.04 368.25 1232.35C368.058 1232.66 367.964 1233.02 367.968 1233.42ZM376.36 1229.34H377.846V1237.3H376.36V1229.34ZM386.111 1230.17C387.087 1230.17 387.968 1230.33 388.752 1230.66C389.54 1230.99 390.159 1231.45 390.609 1232.04C391.062 1232.63 391.288 1233.31 391.288 1234.08C391.288 1234.85 391.062 1235.53 390.609 1236.13C390.159 1236.72 389.54 1237.18 388.752 1237.5C387.968 1237.83 387.087 1237.99 386.111 1237.98C385.139 1237.99 384.261 1237.83 383.476 1237.5C382.691 1237.18 382.075 1236.72 381.625 1236.13C381.176 1235.53 380.951 1234.85 380.951 1234.08C380.951 1233.31 381.176 1232.63 381.625 1232.04C382.075 1231.45 382.691 1230.99 383.476 1230.66C384.261 1230.33 385.139 1230.17 386.111 1230.17ZM379.741 1240.29H392.553V1241.51H379.741V1240.29ZM382.377 1234.08C382.377 1234.61 382.537 1235.08 382.857 1235.49C383.178 1235.9 383.621 1236.21 384.189 1236.44C384.76 1236.66 385.401 1236.77 386.111 1236.77C386.822 1236.77 387.461 1236.66 388.028 1236.44C388.596 1236.21 389.04 1235.9 389.36 1235.49C389.68 1235.08 389.841 1234.61 389.841 1234.08C389.841 1233.55 389.679 1233.08 389.354 1232.67C389.034 1232.26 388.59 1231.94 388.023 1231.71C387.459 1231.48 386.822 1231.37 386.111 1231.38C385.401 1231.37 384.761 1231.48 384.194 1231.71C383.627 1231.94 383.181 1232.26 382.857 1232.67C382.537 1233.08 382.377 1233.55 382.377 1234.08ZM400.288 1232.62H403.454V1229.33H404.923V1243.35H403.454V1237.66H400.288V1239.83H393.796V1230.67H400.288V1232.62ZM398.84 1238.65V1231.83H395.266V1238.65H398.84ZM403.454 1236.46V1233.83H400.288V1236.46H403.454ZM408.017 1245.22H406.691L407.525 1240.9H409.271L408.017 1245.22ZM426.123 1243.33H424.714V1236.09H422.902V1242.61H421.532V1229.61H422.902V1234.88H424.714V1229.33H426.123V1243.33ZM414.587 1231.01H419.825V1232.22H416.073V1238.71C416.99 1238.7 417.791 1238.67 418.477 1238.61C419.165 1238.56 419.865 1238.46 420.576 1238.33L420.698 1239.55C419.913 1239.71 419.141 1239.82 418.383 1239.87C417.624 1239.92 416.668 1239.95 415.515 1239.96H414.587V1231.01ZM440.648 1232.69H438.626V1234.42H440.648V1235.65H438.626V1237.85H437.139V1229.34H438.626V1231.47H440.648V1232.69ZM428.178 1230.15H434.559V1234.15H429.681V1235.95C430.977 1235.95 432.09 1235.92 433.018 1235.86C433.95 1235.79 434.902 1235.68 435.874 1235.51L436.029 1236.72C434.99 1236.9 433.968 1237.02 432.963 1237.08C431.957 1237.15 430.745 1237.18 429.327 1237.18H428.206V1233H433.106V1231.35H428.178V1230.15ZM429.371 1238.55H438.626V1243.31H437.139V1239.75H429.371V1238.55ZM446.139 1231.82C446.139 1232.41 446.274 1232.98 446.543 1233.54C446.815 1234.09 447.206 1234.59 447.714 1235.02C448.226 1235.46 448.826 1235.79 449.515 1236.03L448.758 1237.18C447.985 1236.92 447.31 1236.52 446.736 1235.99C446.165 1235.46 445.725 1234.85 445.415 1234.14C445.102 1234.92 444.644 1235.61 444.04 1236.19C443.439 1236.78 442.729 1237.22 441.907 1237.5L441.139 1236.33C441.843 1236.09 442.458 1235.73 442.985 1235.27C443.515 1234.8 443.922 1234.27 444.206 1233.67C444.493 1233.07 444.636 1232.46 444.636 1231.83V1231.43H441.598V1230.23H449.156V1231.43H446.139V1231.82ZM443.31 1238.4H452.802V1243.33H451.322V1239.6H443.31V1238.4ZM448.725 1232.89H451.322V1229.33H452.802V1237.7H451.322V1234.12H448.725V1232.89ZM466.255 1239.51H464.769V1229.34H466.255V1239.51ZM454.924 1233.75C454.924 1233.09 455.086 1232.49 455.41 1231.97C455.738 1231.44 456.185 1231.03 456.752 1230.73C457.323 1230.44 457.957 1230.29 458.653 1230.29C459.349 1230.29 459.981 1230.44 460.548 1230.73C461.115 1231.03 461.561 1231.44 461.885 1231.97C462.209 1232.49 462.371 1233.09 462.371 1233.75C462.371 1234.43 462.209 1235.03 461.885 1235.56C461.561 1236.08 461.115 1236.5 460.548 1236.79C459.981 1237.08 459.349 1237.23 458.653 1237.23C457.953 1237.23 457.32 1237.08 456.752 1236.79C456.185 1236.5 455.738 1236.08 455.41 1235.56C455.086 1235.03 454.924 1234.43 454.924 1233.75ZM456.377 1233.75C456.373 1234.18 456.469 1234.56 456.664 1234.9C456.863 1235.23 457.135 1235.48 457.482 1235.67C457.828 1235.85 458.218 1235.94 458.653 1235.94C459.08 1235.94 459.465 1235.85 459.808 1235.67C460.154 1235.48 460.425 1235.23 460.62 1234.9C460.819 1234.56 460.918 1234.18 460.918 1233.75C460.918 1233.33 460.819 1232.95 460.62 1232.62C460.425 1232.29 460.154 1232.04 459.808 1231.86C459.461 1231.67 459.076 1231.58 458.653 1231.58C458.222 1231.58 457.832 1231.67 457.482 1231.86C457.135 1232.04 456.863 1232.29 456.664 1232.62C456.469 1232.95 456.373 1233.33 456.377 1233.75ZM457.095 1238.48H458.587V1241.82H466.664V1243.04H457.095V1238.48ZM478.874 1230.75C478.871 1232.23 478.677 1233.58 478.294 1234.82C477.915 1236.05 477.259 1237.2 476.327 1238.27C475.399 1239.33 474.136 1240.27 472.537 1241.08L471.709 1239.95C472.913 1239.34 473.909 1238.66 474.698 1237.91C475.486 1237.15 476.097 1236.32 476.532 1235.41L472.007 1235.85L471.758 1234.56L476.99 1234.24C477.208 1233.53 477.344 1232.77 477.399 1231.96H472.482V1230.75H478.874ZM478.836 1234.87H481.924V1229.33H483.394V1243.33H481.924V1236.1H478.836V1234.87ZM496.858 1243.35H495.388V1229.33H496.858V1243.35ZM486.018 1230.59H492.576V1235.71H487.559V1238.77C488.782 1238.76 489.909 1238.72 490.94 1238.65C491.972 1238.58 493.042 1238.45 494.15 1238.27L494.289 1239.49C493.121 1239.68 491.988 1239.82 490.891 1239.89C489.797 1239.96 488.578 1239.99 487.233 1239.99H486.034V1234.51H491.073V1231.8H486.018V1230.59ZM509.94 1230.98C509.94 1231.71 509.922 1232.36 509.885 1232.92C509.852 1233.49 509.765 1234.11 509.625 1234.8H511.498V1235.99H508.167V1237.31H510.029V1240.72H501.73V1241.98H510.526V1243.15H500.255V1239.63H508.554V1238.46H500.222V1237.31H502.073V1235.99H498.769V1234.8H508.134C508.24 1234.31 508.322 1233.79 508.377 1233.25L500.183 1233.61L500.007 1232.43L508.449 1232.2C508.46 1231.93 508.465 1231.55 508.465 1231.05H500.355V1229.86H509.94V1230.98ZM506.692 1237.31V1235.99H503.554V1237.31H506.692ZM523.929 1243.15H514.636V1238.28H523.929V1243.15ZM512.813 1230.02H519.084V1234.03H514.31V1235.83C515.5 1235.83 516.542 1235.8 517.437 1235.75C518.332 1235.69 519.253 1235.59 520.2 1235.44L520.316 1236.65C519.38 1236.8 518.465 1236.91 517.57 1236.96C516.675 1237.02 515.629 1237.04 514.432 1237.04H513.924H512.841V1232.9H517.642V1231.23H512.813V1230.02ZM522.459 1241.94V1239.44H516.106V1241.94H522.459ZM519.913 1232.4H522.448V1229.34H523.929V1237.56H522.448V1233.61H519.913V1232.4ZM537.371 1231.98H535.924V1238.5C536.69 1238.45 537.368 1238.38 537.957 1238.31L538.034 1239.39C536.734 1239.61 535.373 1239.75 533.952 1239.82C532.534 1239.89 530.999 1239.93 529.349 1239.94L529.173 1238.7C529.946 1238.7 530.543 1238.69 530.963 1238.69V1231.98H529.521V1230.76H537.371V1231.98ZM532.405 1238.66C533.189 1238.64 533.887 1238.62 534.499 1238.59V1231.98H532.405V1238.66ZM538.775 1229.33H540.261V1234.85H542.504V1236.07H540.261V1243.33H538.775V1229.33ZM546.802 1230.14C547.506 1230.14 548.139 1230.29 548.703 1230.57C549.27 1230.85 549.714 1231.25 550.034 1231.76C550.358 1232.26 550.522 1232.84 550.526 1233.48C550.522 1234.13 550.358 1234.71 550.034 1235.22C549.714 1235.72 549.272 1236.12 548.708 1236.4C548.145 1236.69 547.509 1236.83 546.802 1236.83C546.091 1236.83 545.452 1236.69 544.885 1236.4C544.318 1236.12 543.872 1235.72 543.548 1235.22C543.228 1234.71 543.069 1234.13 543.073 1233.48C543.069 1232.84 543.228 1232.26 543.548 1231.76C543.872 1231.25 544.318 1230.85 544.885 1230.57C545.452 1230.29 546.091 1230.14 546.802 1230.14ZM544.526 1233.48C544.522 1233.89 544.618 1234.26 544.813 1234.57C545.009 1234.89 545.279 1235.14 545.626 1235.31C545.975 1235.48 546.368 1235.57 546.802 1235.56C547.233 1235.57 547.622 1235.48 547.968 1235.31C548.314 1235.14 548.585 1234.9 548.78 1234.58C548.979 1234.26 549.08 1233.89 549.084 1233.48C549.08 1233.07 548.979 1232.71 548.78 1232.4C548.585 1232.08 548.314 1231.84 547.968 1231.67C547.626 1231.5 547.237 1231.41 546.802 1231.41C546.364 1231.41 545.972 1231.5 545.626 1231.67C545.279 1231.84 545.009 1232.08 544.813 1232.4C544.618 1232.71 544.522 1233.07 544.526 1233.48ZM544.609 1238.23H553.863V1243.35H552.377V1239.44H544.609V1238.23ZM552.377 1229.33H553.863V1232.83H555.891V1234.06H553.863V1237.55H552.377V1229.33ZM562.741 1229.56C563.791 1229.56 564.69 1229.65 565.438 1229.84C566.185 1230.02 566.754 1230.3 567.145 1230.66C567.539 1231.01 567.736 1231.45 567.736 1231.96C567.736 1232.48 567.539 1232.92 567.145 1233.29C566.754 1233.65 566.185 1233.92 565.438 1234.11C564.693 1234.3 563.795 1234.39 562.741 1234.4C561.688 1234.39 560.787 1234.3 560.04 1234.11C559.292 1233.92 558.721 1233.65 558.327 1233.29C557.933 1232.92 557.736 1232.48 557.736 1231.96C557.736 1231.45 557.933 1231.01 558.327 1230.66C558.721 1230.3 559.292 1230.02 560.04 1229.84C560.791 1229.65 561.692 1229.56 562.741 1229.56ZM556.371 1235.25H569.134V1236.44H556.371V1235.25ZM557.891 1237.51H567.515V1240.79H559.371V1242.04H567.918V1243.19H557.918V1239.72H566.056V1238.62H557.891V1237.51ZM559.288 1231.96C559.285 1232.4 559.577 1232.73 560.167 1232.95C560.76 1233.17 561.618 1233.28 562.741 1233.28C563.868 1233.28 564.728 1233.17 565.321 1232.95C565.918 1232.73 566.217 1232.4 566.217 1231.96C566.217 1231.69 566.084 1231.46 565.819 1231.27C565.554 1231.07 565.163 1230.92 564.647 1230.82C564.135 1230.71 563.513 1230.66 562.78 1230.66C562.036 1230.66 561.403 1230.71 560.879 1230.82C560.356 1230.92 559.959 1231.06 559.686 1231.26C559.417 1231.45 559.285 1231.69 559.288 1231.96ZM578.057 1229.97C578.753 1229.97 579.375 1230.09 579.924 1230.33C580.477 1230.57 580.908 1230.92 581.217 1231.36C581.53 1231.8 581.687 1232.31 581.687 1232.87C581.687 1233.44 581.53 1233.94 581.217 1234.38C580.908 1234.82 580.477 1235.17 579.924 1235.41C579.375 1235.66 578.753 1235.78 578.057 1235.77C577.361 1235.78 576.738 1235.66 576.189 1235.41C575.641 1235.17 575.211 1234.82 574.902 1234.38C574.596 1233.94 574.443 1233.44 574.443 1232.87C574.443 1232.31 574.596 1231.8 574.902 1231.36C575.211 1230.92 575.641 1230.57 576.189 1230.33C576.738 1230.09 577.361 1229.97 578.057 1229.97ZM573.449 1236.86C575.125 1236.86 576.736 1236.82 578.283 1236.76C579.834 1236.69 581.294 1236.55 582.664 1236.35L582.769 1237.45C581.609 1237.67 580.315 1237.83 578.885 1237.93V1242.9H577.399V1238.02C576.416 1238.06 575.164 1238.09 573.642 1238.09L573.449 1236.86ZM575.88 1232.87C575.876 1233.21 575.966 1233.5 576.151 1233.76C576.338 1234.01 576.598 1234.21 576.93 1234.35C577.261 1234.49 577.637 1234.56 578.057 1234.55C578.488 1234.56 578.871 1234.49 579.206 1234.35C579.545 1234.21 579.808 1234.02 579.996 1233.76C580.184 1233.5 580.278 1233.21 580.278 1232.87C580.278 1232.54 580.184 1232.24 579.996 1231.98C579.808 1231.73 579.545 1231.53 579.206 1231.39C578.871 1231.24 578.488 1231.17 578.057 1231.18C577.637 1231.17 577.261 1231.24 576.93 1231.39C576.598 1231.53 576.338 1231.73 576.151 1231.98C575.966 1232.24 575.876 1232.54 575.88 1232.87ZM583.637 1229.34H585.095V1243.33H583.637V1229.34ZM593.885 1232.85H586.941V1231.65H589.692V1229.74H591.162V1231.65H593.885V1232.85ZM587.394 1236.91C587.39 1236.29 587.517 1235.73 587.775 1235.24C588.036 1234.75 588.397 1234.37 588.858 1234.1C589.322 1233.82 589.845 1233.69 590.427 1233.69C591.009 1233.69 591.53 1233.82 591.99 1234.1C592.451 1234.37 592.812 1234.75 593.073 1235.24C593.335 1235.73 593.467 1236.29 593.471 1236.91C593.467 1237.54 593.335 1238.1 593.073 1238.59C592.812 1239.08 592.451 1239.47 591.99 1239.75C591.53 1240.02 591.009 1240.16 590.427 1240.16C589.845 1240.16 589.322 1240.02 588.858 1239.75C588.397 1239.47 588.036 1239.08 587.775 1238.59C587.517 1238.09 587.39 1237.53 587.394 1236.91ZM588.697 1236.91C588.697 1237.3 588.771 1237.64 588.918 1237.94C589.066 1238.24 589.27 1238.48 589.532 1238.64C589.793 1238.81 590.092 1238.89 590.427 1238.88C590.758 1238.89 591.055 1238.81 591.316 1238.64C591.581 1238.48 591.788 1238.24 591.935 1237.94C592.082 1237.64 592.156 1237.3 592.156 1236.91C592.156 1236.52 592.082 1236.18 591.935 1235.88C591.788 1235.58 591.581 1235.35 591.316 1235.18C591.055 1235.01 590.758 1234.92 590.427 1234.92C590.092 1234.92 589.793 1235.01 589.532 1235.18C589.27 1235.35 589.066 1235.58 588.918 1235.88C588.771 1236.18 588.697 1236.52 588.697 1236.91ZM594.537 1229.64H595.935V1235.16H597.548V1229.33H598.963V1243.33H597.548V1236.37H595.935V1242.67H594.537V1229.64ZM608.974 1232.22C608.974 1232.76 609.11 1233.28 609.383 1233.77C609.656 1234.27 610.048 1234.7 610.56 1235.08C611.072 1235.46 611.678 1235.75 612.377 1235.96L611.681 1237.11C610.886 1236.87 610.195 1236.52 609.609 1236.05C609.024 1235.58 608.573 1235.02 608.256 1234.38C607.943 1235.08 607.486 1235.7 606.886 1236.22C606.285 1236.73 605.573 1237.12 604.748 1237.37L604.029 1236.22C604.733 1236.01 605.346 1235.71 605.869 1235.3C606.392 1234.9 606.794 1234.43 607.074 1233.9C607.357 1233.37 607.499 1232.8 607.499 1232.22V1232.08H604.455V1230.9H607.499V1229.27H608.996V1230.9H612.013V1232.08H608.974V1232.22ZM606.118 1238.22H615.068V1243.15H606.118V1238.22ZM613.598 1241.94V1239.39H607.576V1241.94H613.598ZM613.582 1229.33H615.068V1232.79H617.096V1234.03H615.068V1237.59H613.582V1229.33ZM628.902 1232.04C628.899 1232.85 628.887 1233.54 628.869 1234.11C628.851 1234.68 628.803 1235.35 628.725 1236.11C628.652 1236.87 628.532 1237.7 628.366 1238.59L626.875 1238.42C627.037 1237.6 627.156 1236.83 627.234 1236.1C627.315 1235.38 627.364 1234.73 627.383 1234.16C627.405 1233.59 627.418 1232.93 627.422 1232.17V1232.04V1231.88H618.919V1230.67H628.902V1232.04ZM617.576 1240.21H622.427V1235.27H623.897V1240.21H630.339V1241.44H617.576V1240.21ZM637.996 1232.85H631.051V1231.65H633.803V1229.74H635.272V1231.65H637.996V1232.85ZM631.504 1236.91C631.501 1236.29 631.628 1235.73 631.885 1235.24C632.147 1234.75 632.508 1234.37 632.968 1234.1C633.432 1233.82 633.955 1233.69 634.537 1233.69C635.119 1233.69 635.641 1233.82 636.101 1234.1C636.561 1234.37 636.922 1234.75 637.184 1235.24C637.445 1235.73 637.578 1236.29 637.582 1236.91C637.578 1237.54 637.445 1238.1 637.184 1238.59C636.922 1239.08 636.561 1239.47 636.101 1239.75C635.641 1240.02 635.119 1240.16 634.537 1240.16C633.955 1240.16 633.432 1240.02 632.968 1239.75C632.508 1239.47 632.147 1239.08 631.885 1238.59C631.628 1238.09 631.501 1237.53 631.504 1236.91ZM632.808 1236.91C632.808 1237.3 632.882 1237.64 633.029 1237.94C633.176 1238.24 633.381 1238.48 633.642 1238.64C633.904 1238.81 634.202 1238.89 634.537 1238.88C634.869 1238.89 635.165 1238.81 635.427 1238.64C635.692 1238.48 635.898 1238.24 636.046 1237.94C636.193 1237.64 636.267 1237.3 636.267 1236.91C636.267 1236.52 636.193 1236.18 636.046 1235.88C635.898 1235.58 635.692 1235.35 635.427 1235.18C635.165 1235.01 634.869 1234.92 634.537 1234.92C634.202 1234.92 633.904 1235.01 633.642 1235.18C633.381 1235.35 633.176 1235.58 633.029 1235.88C632.882 1236.18 632.808 1236.52 632.808 1236.91ZM638.648 1229.64H640.046V1235.16H641.659V1229.33H643.073V1243.33H641.659V1236.37H640.046V1242.67H638.648V1229.64ZM657.355 1238.43H651.67V1243.32H650.211V1238.43H644.592V1237.22H657.355V1238.43ZM645.305 1234.98C646.167 1234.87 646.964 1234.63 647.697 1234.27C648.43 1233.91 649.016 1233.47 649.454 1232.96C649.893 1232.45 650.119 1231.91 650.134 1231.34H645.775V1230.16H656.156V1231.34H651.813C651.825 1231.91 652.047 1232.45 652.482 1232.96C652.917 1233.47 653.5 1233.91 654.233 1234.27C654.97 1234.63 655.775 1234.87 656.648 1234.98L656.101 1236.15C655.335 1236.03 654.615 1235.83 653.941 1235.55C653.266 1235.26 652.672 1234.91 652.156 1234.49C651.644 1234.06 651.248 1233.59 650.968 1233.07C650.688 1233.59 650.292 1234.06 649.78 1234.49C649.268 1234.91 648.677 1235.26 648.007 1235.55C647.336 1235.83 646.622 1236.03 645.863 1236.15L645.305 1234.98ZM662.366 1233.15C662.366 1233.92 662.471 1234.67 662.681 1235.41C662.894 1236.15 663.213 1236.83 663.636 1237.45C664.06 1238.06 664.574 1238.55 665.178 1238.92L664.344 1240.07C663.71 1239.68 663.169 1239.16 662.719 1238.5C662.27 1237.84 661.92 1237.09 661.67 1236.25C661.404 1237.17 661.031 1237.98 660.548 1238.7C660.069 1239.41 659.498 1239.97 658.835 1240.37L657.907 1239.27C658.548 1238.88 659.095 1238.37 659.548 1237.73C660.005 1237.09 660.349 1236.38 660.581 1235.6C660.813 1234.82 660.929 1234.03 660.929 1233.22V1230.6H662.366V1233.15ZM663.653 1234.25H665.835V1229.6H667.233V1242.64H665.835V1235.48H663.653V1234.25ZM668.714 1229.33H670.139V1243.33H668.714V1229.33ZM684.421 1241.58H671.609V1240.35H674.675V1236.69C674.086 1236.37 673.629 1235.96 673.305 1235.47C672.981 1234.97 672.819 1234.42 672.819 1233.8C672.819 1233.08 673.038 1232.44 673.476 1231.89C673.918 1231.33 674.53 1230.9 675.31 1230.6C676.095 1230.3 676.984 1230.14 677.979 1230.14C678.977 1230.14 679.868 1230.3 680.653 1230.6C681.437 1230.9 682.051 1231.33 682.493 1231.89C682.935 1232.44 683.156 1233.08 683.156 1233.8C683.156 1234.41 682.997 1234.96 682.681 1235.45C682.367 1235.93 681.924 1236.34 681.349 1236.66V1240.35H684.421V1241.58ZM674.261 1233.8C674.261 1234.29 674.417 1234.73 674.73 1235.1C675.043 1235.48 675.482 1235.77 676.045 1235.97C676.609 1236.17 677.253 1236.28 677.979 1236.28C678.701 1236.28 679.343 1236.17 679.907 1235.97C680.474 1235.77 680.916 1235.48 681.233 1235.1C681.55 1234.72 681.708 1234.29 681.708 1233.8C681.708 1233.3 681.55 1232.87 681.233 1232.5C680.916 1232.12 680.476 1231.83 679.913 1231.64C679.349 1231.43 678.704 1231.33 677.979 1231.34C677.253 1231.33 676.609 1231.43 676.045 1231.64C675.482 1231.83 675.043 1232.12 674.73 1232.5C674.417 1232.87 674.261 1233.3 674.261 1233.8ZM679.852 1240.35V1237.23C679.262 1237.37 678.638 1237.44 677.979 1237.44C677.338 1237.44 676.723 1237.37 676.134 1237.24V1240.35H679.852Z" fill="#A0A0A0"/>
    <defs>
    <filter id="filter0_d_2336_19159" x="284" y="0" width="272" height="116" filterUnits="userSpaceOnUse" color-interpolation-filters="sRGB">
    <feFlood flood-opacity="0" result="BackgroundImageFix"/>
    <feColorMatrix in="SourceAlpha" type="matrix" values="0 0 0 0 0 0 0 0 0 0 0 0 0 0 0 0 0 0 127 0" result="hardAlpha"/>
    <feOffset/>
    <feGaussianBlur stdDeviation="10"/>
    <feComposite in2="hardAlpha" operator="out"/>
    <feColorMatrix type="matrix" values="0 0 0 0 0 0 0 0 0 0 0 0 0 0 0 0 0 0 0.08 0"/>
    <feBlend mode="normal" in2="BackgroundImageFix" result="effect1_dropShadow_2336_19159"/>
    <feBlend mode="normal" in="SourceGraphic" in2="effect1_dropShadow_2336_19159" result="shape"/>
    </filter>
    <linearGradient id="paint0_linear_2336_19159" x1="488" y1="321" x2="622" y2="321" gradientUnits="userSpaceOnUse">
    <stop stop-color="#FF7710"/>
    <stop offset="1" stop-color="#FFA159"/>
    </linearGradient>
    <linearGradient id="paint1_linear_2336_19159" x1="488" y1="633" x2="622" y2="633" gradientUnits="userSpaceOnUse">
    <stop stop-color="#FF7710"/>
    <stop offset="1" stop-color="#FFA159"/>
    </linearGradient>
    <linearGradient id="paint2_linear_2336_19159" x1="456" y1="945" x2="655" y2="945" gradientUnits="userSpaceOnUse">
    <stop stop-color="#FF7710"/>
    <stop offset="1" stop-color="#FFA159"/>
    </linearGradient>
    </defs>
    </svg>
    