<svg viewBox="0 0 982 1014" fill="none" xmlns="http://www.w3.org/2000/svg">
<path d="M81.8315 174.507C83.0691 174.507 84.1842 174.749 85.1768 175.232C86.1694 175.709 86.9494 176.373 87.5166 177.224C88.0838 178.068 88.3674 179.025 88.3674 180.095C88.3674 181.165 88.0838 182.122 87.5166 182.967C86.9494 183.811 86.1694 184.472 85.1768 184.949C84.1842 185.426 83.0691 185.664 81.8315 185.664C80.581 185.664 79.4563 185.426 78.4572 184.949C77.4581 184.472 76.675 183.811 76.1077 182.967C75.547 182.122 75.2666 181.165 75.2666 180.095C75.2666 179.025 75.547 178.068 76.1077 177.224C76.675 176.373 77.4581 175.709 78.4572 175.232C79.4627 174.749 80.5875 174.507 81.8315 174.507ZM78.2251 180.095C78.2187 180.721 78.3702 181.268 78.6796 181.739C78.989 182.203 79.4176 182.564 79.9655 182.822C80.5134 183.073 81.1354 183.199 81.8315 183.199C82.5212 183.199 83.1367 183.073 83.6782 182.822C84.2261 182.564 84.6515 182.203 84.9544 181.739C85.2638 181.268 85.4185 180.721 85.4185 180.095C85.4185 179.477 85.2638 178.935 84.9544 178.471C84.645 178.007 84.2196 177.649 83.6782 177.398C83.1367 177.146 82.5212 177.021 81.8315 177.021C81.1354 177.021 80.5134 177.146 79.9655 177.398C79.4176 177.649 78.989 178.007 78.6796 178.471C78.3702 178.935 78.2187 179.477 78.2251 180.095ZM78.989 187.279H95.3964V193.738H82.0249V195.72H96.1409V198.127H79.0663V191.494H92.3702V189.648H78.989V187.279ZM92.3508 173.724H95.3964V186.196H92.3508V173.724Z" fill="#FF7710"/>
<path d="M230.551 188.14H227.496V187.153H222.865V185.287H227.496V173.743H230.551V188.14ZM210.876 182.648C213.712 182.648 216.361 182.609 218.823 182.532C221.292 182.454 223.635 182.306 225.852 182.087L226.017 184.001C224.051 184.272 221.762 184.478 219.152 184.62V188.188H216.135V184.736C214.878 184.768 213.428 184.785 211.785 184.785H210.122L209.783 182.648H210.876ZM211.552 177.843C211.552 177.101 211.807 176.45 212.316 175.89C212.832 175.329 213.56 174.897 214.501 174.594C215.442 174.285 216.532 174.13 217.769 174.13C218.988 174.13 220.064 174.285 220.999 174.594C221.933 174.897 222.658 175.329 223.174 175.89C223.696 176.45 223.96 177.101 223.967 177.843C223.96 178.597 223.696 179.254 223.174 179.815C222.658 180.369 221.933 180.795 220.999 181.091C220.07 181.388 218.994 181.536 217.769 181.536C216.525 181.536 215.433 181.388 214.492 181.091C213.557 180.795 212.832 180.369 212.316 179.815C211.807 179.254 211.552 178.597 211.552 177.843ZM213.409 188.923H230.551V194.472H216.493V196.058H231.209V198.214H213.506V192.481H227.525V191.001H213.409V188.923ZM214.424 177.843C214.418 178.184 214.55 178.484 214.82 178.742C215.091 178.993 215.478 179.186 215.981 179.322C216.49 179.457 217.086 179.525 217.769 179.525C218.446 179.525 219.036 179.457 219.539 179.322C220.041 179.186 220.428 178.993 220.699 178.742C220.976 178.484 221.115 178.184 221.115 177.843C221.115 177.501 220.976 177.201 220.699 176.943C220.428 176.686 220.041 176.489 219.539 176.354C219.036 176.212 218.446 176.141 217.769 176.141C217.086 176.141 216.49 176.212 215.981 176.354C215.478 176.489 215.091 176.686 214.82 176.943C214.55 177.201 214.418 177.501 214.424 177.843Z" fill="black"/>
<path d="M364.372 183.924H367.833V186.448H364.372V198.417H361.316V173.724H364.372V183.924ZM344.522 191.581C346.971 191.581 349.079 191.559 350.845 191.514V189.193C349.949 189.045 349.166 188.765 348.496 188.352C347.826 187.94 347.307 187.424 346.939 186.805C346.578 186.186 346.398 185.494 346.398 184.727C346.398 183.811 346.649 183.006 347.152 182.309C347.655 181.607 348.36 181.062 349.269 180.675C350.178 180.289 351.219 180.095 352.392 180.095C353.552 180.095 354.587 180.289 355.496 180.675C356.405 181.062 357.114 181.607 357.623 182.309C358.139 183.012 358.4 183.818 358.406 184.727C358.4 185.494 358.209 186.19 357.836 186.815C357.462 187.434 356.936 187.949 356.26 188.362C355.583 188.774 354.797 189.055 353.901 189.203V191.398C356.157 191.282 358.187 191.098 359.992 190.847L360.195 193.08C357.849 193.506 355.444 193.779 352.982 193.902C350.526 194.024 347.851 194.086 344.957 194.086L344.522 191.581ZM344.986 176.566H350.845V173.82H353.901V176.566H359.721V178.974H344.986V176.566ZM349.279 184.727C349.279 185.197 349.405 185.603 349.656 185.945C349.914 186.286 350.278 186.547 350.749 186.728C351.219 186.902 351.767 186.989 352.392 186.989C353.005 186.989 353.543 186.902 354.007 186.728C354.477 186.547 354.842 186.286 355.099 185.945C355.357 185.603 355.486 185.197 355.486 184.727C355.486 184.256 355.357 183.847 355.099 183.499C354.842 183.151 354.477 182.886 354.007 182.706C353.543 182.519 353.005 182.425 352.392 182.425C351.767 182.425 351.219 182.519 350.749 182.706C350.278 182.886 349.914 183.151 349.656 183.499C349.405 183.847 349.279 184.256 349.279 184.727Z" fill="black"/>
<path d="M492.691 175.773C492.691 176.811 493.058 177.823 493.793 178.809C494.528 179.789 495.559 180.63 496.887 181.333C498.221 182.029 499.739 182.487 501.441 182.706L500.242 185.162C498.856 184.955 497.57 184.601 496.384 184.098C495.198 183.589 494.154 182.96 493.251 182.213C492.355 181.459 491.64 180.617 491.105 179.689C490.564 180.617 489.842 181.459 488.939 182.213C488.043 182.96 487.006 183.589 485.826 184.098C484.646 184.601 483.37 184.955 481.997 185.162L480.789 182.706C482.484 182.487 483.992 182.029 485.314 181.333C486.641 180.63 487.669 179.789 488.398 178.809C489.133 177.83 489.5 176.818 489.5 175.773V174.507H492.691V175.773ZM479.822 187.308H502.34V189.812H492.526V198.417H489.519V189.812H479.822V187.308Z" fill="black"/>
<path d="M634.478 183.305H627.584V185.916H637.34V188.372H614.822V185.916H624.539V183.305H617.655V174.72H634.478V183.305ZM617.316 190.45H634.594V198.417H631.539V192.848H617.316V190.45ZM631.481 180.898V177.108H620.623V180.898H631.481Z" fill="black"/>
<path d="M769.652 176.837C769.652 177.714 769.642 178.474 769.623 179.119C769.604 179.757 769.549 180.482 769.459 181.294C769.368 182.1 769.227 182.954 769.033 183.856H772.417V186.312H749.822V183.856H765.968C766.233 182.664 766.403 181.575 766.481 180.588C766.564 179.596 766.61 178.519 766.616 177.359H752.616V174.913H769.652V176.837ZM752.539 189.193H769.613V198.127H752.539V189.193ZM766.597 195.671V191.572H755.517V195.671H766.597Z" fill="black"/>
<path d="M904.913 188.604H897.613V193.09H907.417V195.546H884.822V193.09H894.558V188.604H887.577V175.541H904.691V177.997H890.662V180.811H904.13V183.209H890.662V186.167H904.913V188.604Z" fill="#FF7710"/>
<path d="M80.8633 398V396.125L86.7461 390.195C88.5977 388.25 89.5352 387.172 89.5352 385.695C89.5352 384.031 88.1758 382.953 86.3945 382.953C84.5195 382.953 83.3008 384.148 83.3008 385.953H80.8633C80.8398 382.859 83.207 380.797 86.4414 380.797C89.7227 380.797 91.9727 382.859 91.9961 385.625C91.9727 387.523 91.082 389.023 87.8945 392.164L84.4492 395.656V395.797H92.2773V398H80.8633Z" fill="#FF7710"/>
<path d="M221.535 398.234C218.02 398.234 215.512 396.336 215.418 393.57H218.043C218.137 395.07 219.613 396.008 221.512 396.008C223.551 396.008 225.051 394.883 225.051 393.242C225.051 391.578 223.645 390.359 221.23 390.359H219.777V388.25H221.23C223.152 388.25 224.512 387.172 224.512 385.555C224.512 384.008 223.363 382.953 221.559 382.953C219.848 382.953 218.348 383.891 218.277 385.438H215.793C215.863 382.672 218.418 380.797 221.582 380.797C224.91 380.797 227.02 382.906 226.996 385.414C227.02 387.336 225.824 388.742 223.996 389.188V389.305C226.316 389.633 227.652 391.18 227.652 393.336C227.652 396.172 225.051 398.234 221.535 398.234Z" fill="black"/>
<path d="M349.508 394.695V392.609L357.008 381.031H360.195V392.516H362.516V394.695H360.195V398H357.758V394.695H349.508ZM352.227 392.516H357.758V384.102H357.57L352.227 392.375V392.516Z" fill="black"/>
<path d="M491.488 398.234C488.277 398.234 485.863 396.266 485.746 393.57H488.254C488.395 395.023 489.777 396.078 491.488 396.078C493.551 396.078 495.027 394.578 495.027 392.562C495.027 390.5 493.504 389 491.371 388.977C490.012 388.977 488.98 389.422 488.395 390.477H485.957L487.059 381.031H496.668V383.234H489.191L488.629 387.992H488.793C489.496 387.312 490.691 386.844 491.98 386.844C495.168 386.844 497.535 389.211 497.535 392.492C497.535 395.844 495.027 398.234 491.488 398.234Z" fill="black"/>
<path d="M626.664 398.234C623.523 398.211 620.242 396.359 620.242 390.078C620.242 384.172 622.797 380.797 626.875 380.797C629.992 380.797 632.172 382.742 632.57 385.438H630.016C629.688 384.055 628.586 383.047 626.875 383.047C624.25 383.047 622.727 385.344 622.727 389.164H622.914C623.828 387.734 625.422 386.867 627.273 386.867C630.297 386.867 632.734 389.188 632.734 392.445C632.734 395.727 630.32 398.258 626.664 398.234ZM626.641 396.078C628.703 396.078 630.227 394.484 630.227 392.492C630.227 390.547 628.75 388.977 626.711 388.977C624.625 388.977 623.055 390.617 623.031 392.516C623.055 394.391 624.555 396.078 626.641 396.078Z" fill="black"/>
<path d="M756.371 398L763.941 383.375V383.234H755.199V381.031H766.613V383.328L759.066 398H756.371Z" fill="black"/>
<path d="M896.512 398.234C892.832 398.234 890.254 396.242 890.277 393.477C890.254 391.297 891.824 389.516 893.816 389.211V389.117C892.082 388.719 890.91 387.172 890.91 385.32C890.91 382.719 893.277 380.797 896.512 380.797C899.723 380.797 902.066 382.719 902.09 385.32C902.066 387.172 900.895 388.719 899.184 389.117V389.211C901.152 389.516 902.723 391.297 902.746 393.477C902.723 396.242 900.145 398.234 896.512 398.234ZM896.512 396.102C898.715 396.102 900.121 394.953 900.121 393.289C900.121 391.531 898.598 390.266 896.512 390.266C894.402 390.266 892.855 391.531 892.902 393.289C892.855 394.953 894.262 396.102 896.512 396.102ZM896.512 388.227C898.293 388.227 899.559 387.148 899.559 385.555C899.559 383.984 898.316 382.906 896.512 382.906C894.637 382.906 893.418 383.961 893.418 385.555C893.418 387.148 894.707 388.227 896.512 388.227Z" fill="#FF7710"/>
<path d="M86.3594 496.797C89.4766 496.82 92.7578 498.695 92.7578 504.906C92.7578 510.859 90.2031 514.234 86.125 514.234C83.0078 514.234 80.8047 512.312 80.4062 509.547H82.9609C83.3125 510.977 84.4141 511.984 86.125 511.984C88.75 511.984 90.2734 509.688 90.2969 505.82H90.0859C89.1719 507.25 87.5781 508.117 85.75 508.117C82.7031 508.117 80.2656 505.797 80.2656 502.539C80.2656 499.305 82.6797 496.773 86.3594 496.797ZM86.3594 498.953C84.2969 498.953 82.7734 500.547 82.7734 502.492C82.7734 504.461 84.25 506.008 86.3125 506.008C88.3516 506.008 89.9453 504.344 89.9453 502.469C89.9453 500.641 88.4453 498.953 86.3594 498.953Z" fill="#FF7710"/>
<path d="M216.4 497.031V514H213.799V499.609H213.705L209.65 502.258V499.797L213.869 497.031H216.4ZM226.139 514.234C222.201 514.234 219.905 511.07 219.905 505.516C219.905 500.008 222.248 496.797 226.139 496.797C230.03 496.797 232.373 500.008 232.373 505.516C232.373 511.07 230.053 514.234 226.139 514.234ZM226.139 512.008C228.436 512.008 229.795 509.758 229.795 505.516C229.795 501.297 228.412 498.977 226.139 498.977C223.865 498.977 222.483 501.297 222.483 505.516C222.483 509.758 223.842 512.008 226.139 512.008Z" fill="black"/>
<path d="M353.427 497.031V514H350.826V499.609H350.732L346.677 502.258V499.797L350.896 497.031H353.427ZM363.705 497.031V514H361.104V499.609H361.01L356.955 502.258V499.797L361.174 497.031H363.705Z" fill="black"/>
<path d="M487.17 497.031V514H484.568V499.609H484.474L480.42 502.258V499.797L484.638 497.031H487.17ZM491.002 514V512.125L496.885 506.195C498.737 504.25 499.674 503.172 499.674 501.695C499.674 500.031 498.315 498.953 496.533 498.953C494.658 498.953 493.44 500.148 493.44 501.953H491.002C490.979 498.859 493.346 496.797 496.58 496.797C499.862 496.797 502.112 498.859 502.135 501.625C502.112 503.523 501.221 505.023 498.033 508.164L494.588 511.656V511.797H502.416V514H491.002Z" fill="black"/>
<path d="M621.318 497.031V514H618.717V499.609H618.623L614.568 502.258V499.797L618.787 497.031H621.318ZM631.174 514.234C627.658 514.234 625.151 512.336 625.057 509.57H627.682C627.776 511.07 629.252 512.008 631.151 512.008C633.19 512.008 634.69 510.883 634.69 509.242C634.69 507.578 633.283 506.359 630.869 506.359H629.416V504.25H630.869C632.791 504.25 634.151 503.172 634.151 501.555C634.151 500.008 633.002 498.953 631.198 498.953C629.487 498.953 627.987 499.891 627.916 501.438H625.432C625.502 498.672 628.057 496.797 631.221 496.797C634.549 496.797 636.658 498.906 636.635 501.414C636.658 503.336 635.463 504.742 633.635 505.188V505.305C635.955 505.633 637.291 507.18 637.291 509.336C637.291 512.172 634.69 514.234 631.174 514.234Z" fill="black"/>
<path d="M756.189 497.031V514H753.588V499.609H753.494L749.439 502.258V499.797L753.658 497.031H756.189ZM759.647 510.695V508.609L767.147 497.031H770.334V508.516H772.655V510.695H770.334V514H767.897V510.695H759.647ZM762.365 508.516H767.897V500.102H767.709L762.365 508.375V508.516Z" fill="black"/>
<path d="M892.029 497.031V514H889.427V499.609H889.334L885.279 502.258V499.797L889.498 497.031H892.029ZM901.627 514.234C898.416 514.234 896.002 512.266 895.885 509.57H898.393C898.533 511.023 899.916 512.078 901.627 512.078C903.69 512.078 905.166 510.578 905.166 508.562C905.166 506.5 903.643 505 901.51 504.977C900.151 504.977 899.119 505.422 898.533 506.477H896.096L897.198 497.031H906.807V499.234H899.33L898.768 503.992H898.932C899.635 503.312 900.83 502.844 902.119 502.844C905.307 502.844 907.674 505.211 907.674 508.492C907.674 511.844 905.166 514.234 901.627 514.234Z" fill="#FF7710"/>
<path d="M81.3298 613.031V630H78.7283V615.609H78.6345L74.5798 618.258V615.797L78.7986 613.031H81.3298ZM91.303 630.234C88.1623 630.211 84.8811 628.359 84.8811 622.078C84.8811 616.172 87.4358 612.797 91.5139 612.797C94.6311 612.797 96.8108 614.742 97.2092 617.438H94.6545C94.3264 616.055 93.2248 615.047 91.5139 615.047C88.8889 615.047 87.3655 617.344 87.3655 621.164H87.553C88.467 619.734 90.0608 618.867 91.9123 618.867C94.9358 618.867 97.3733 621.188 97.3733 624.445C97.3733 627.727 94.9592 630.258 91.303 630.234ZM91.2795 628.078C93.342 628.078 94.8655 626.484 94.8655 624.492C94.8655 622.547 93.3889 620.977 91.3498 620.977C89.2639 620.977 87.6936 622.617 87.6702 624.516C87.6936 626.391 89.1936 628.078 91.2795 628.078Z" fill="#FF7710"/>
<path d="M217.092 613.031V630H214.49V615.609H214.396L210.342 618.258V615.797L214.56 613.031H217.092ZM221.51 630L229.08 615.375V615.234H220.338V613.031H231.752V615.328L224.205 630H221.51Z" fill="black"/>
<path d="M351.388 613.031V630H348.787V615.609H348.693L344.638 618.258V615.797L348.857 613.031H351.388ZM361.151 630.234C357.471 630.234 354.893 628.242 354.916 625.477C354.893 623.297 356.463 621.516 358.455 621.211V621.117C356.721 620.719 355.549 619.172 355.549 617.32C355.549 614.719 357.916 612.797 361.151 612.797C364.362 612.797 366.705 614.719 366.729 617.32C366.705 619.172 365.533 620.719 363.823 621.117V621.211C365.791 621.516 367.362 623.297 367.385 625.477C367.362 628.242 364.783 630.234 361.151 630.234ZM361.151 628.102C363.354 628.102 364.76 626.953 364.76 625.289C364.76 623.531 363.237 622.266 361.151 622.266C359.041 622.266 357.494 623.531 357.541 625.289C357.494 626.953 358.901 628.102 361.151 628.102ZM361.151 620.227C362.932 620.227 364.198 619.148 364.198 617.555C364.198 615.984 362.955 614.906 361.151 614.906C359.276 614.906 358.057 615.961 358.057 617.555C358.057 619.148 359.346 620.227 361.151 620.227Z" fill="black"/>
<path d="M486.33 613.031V630H483.728V615.609H483.635L479.58 618.258V615.797L483.799 613.031H486.33ZM495.998 612.797C499.115 612.82 502.397 614.695 502.397 620.906C502.397 626.859 499.842 630.234 495.764 630.234C492.647 630.234 490.444 628.312 490.045 625.547H492.6C492.951 626.977 494.053 627.984 495.764 627.984C498.389 627.984 499.912 625.688 499.936 621.82H499.725C498.811 623.25 497.217 624.117 495.389 624.117C492.342 624.117 489.905 621.797 489.905 618.539C489.905 615.305 492.319 612.773 495.998 612.797ZM495.998 614.953C493.936 614.953 492.412 616.547 492.412 618.492C492.412 620.461 493.889 622.008 495.951 622.008C497.99 622.008 499.584 620.344 499.584 618.469C499.584 616.641 498.084 614.953 495.998 614.953Z" fill="black"/>
<path d="M613.697 630V628.125L619.58 622.195C621.431 620.25 622.369 619.172 622.369 617.695C622.369 616.031 621.01 614.953 619.228 614.953C617.353 614.953 616.135 616.148 616.135 617.953H613.697C613.674 614.859 616.041 612.797 619.275 612.797C622.556 612.797 624.806 614.859 624.83 617.625C624.806 619.523 623.916 621.023 620.728 624.164L617.283 627.656V627.797H625.111V630H613.697ZM633.397 630.234C629.459 630.234 627.162 627.07 627.162 621.516C627.162 616.008 629.506 612.797 633.397 612.797C637.287 612.797 639.631 616.008 639.631 621.516C639.631 627.07 637.311 630.234 633.397 630.234ZM633.397 628.008C635.694 628.008 637.053 625.758 637.053 621.516C637.053 617.297 635.67 614.977 633.397 614.977C631.123 614.977 629.74 617.297 629.74 621.516C629.74 625.758 631.1 628.008 633.397 628.008Z" fill="black"/>
<path d="M750.724 630V628.125L756.607 622.195C758.459 620.25 759.396 619.172 759.396 617.695C759.396 616.031 758.037 614.953 756.256 614.953C754.381 614.953 753.162 616.148 753.162 617.953H750.724C750.701 614.859 753.068 612.797 756.302 612.797C759.584 612.797 761.834 614.859 761.857 617.625C761.834 619.523 760.943 621.023 757.756 624.164L754.31 627.656V627.797H762.138V630H750.724ZM770.963 613.031V630H768.362V615.609H768.268L764.213 618.258V615.797L768.432 613.031H770.963Z" fill="black"/>
<path d="M883.967 630V628.125L889.849 622.195C891.701 620.25 892.638 619.172 892.638 617.695C892.638 616.031 891.279 614.953 889.498 614.953C887.623 614.953 886.404 616.148 886.404 617.953H883.967C883.943 614.859 886.31 612.797 889.545 612.797C892.826 612.797 895.076 614.859 895.099 617.625C895.076 619.523 894.185 621.023 890.998 624.164L887.552 627.656V627.797H895.381V630H883.967ZM897.76 630V628.125L903.643 622.195C905.494 620.25 906.432 619.172 906.432 617.695C906.432 616.031 905.073 614.953 903.291 614.953C901.416 614.953 900.198 616.148 900.198 617.953H897.76C897.737 614.859 900.104 612.797 903.338 612.797C906.619 612.797 908.869 614.859 908.893 617.625C908.869 619.523 907.979 621.023 904.791 624.164L901.346 627.656V627.797H909.174V630H897.76Z" fill="#FF7710"/>
<path d="M73.615 746V744.125L79.4978 738.195C81.3494 736.25 82.2869 735.172 82.2869 733.695C82.2869 732.031 80.9275 730.953 79.1462 730.953C77.2712 730.953 76.0525 732.148 76.0525 733.953H73.615C73.5916 730.859 75.9587 728.797 79.1931 728.797C82.4744 728.797 84.7244 730.859 84.7478 733.625C84.7244 735.523 83.8337 737.023 80.6462 740.164L77.2009 743.656V743.797H85.0291V746H73.615ZM93.4319 746.234C89.9163 746.234 87.4084 744.336 87.3147 741.57H89.9397C90.0334 743.07 91.51 744.008 93.4084 744.008C95.4475 744.008 96.9475 742.883 96.9475 741.242C96.9475 739.578 95.5413 738.359 93.1272 738.359H91.6741V736.25H93.1272C95.0491 736.25 96.4084 735.172 96.4084 733.555C96.4084 732.008 95.26 730.953 93.4553 730.953C91.7444 730.953 90.2444 731.891 90.1741 733.438H87.6897C87.76 730.672 90.3147 728.797 93.4788 728.797C96.8069 728.797 98.9163 730.906 98.8928 733.414C98.9163 735.336 97.7209 736.742 95.8928 737.188V737.305C98.2131 737.633 99.5491 739.18 99.5491 741.336C99.5491 744.172 96.9475 746.234 93.4319 746.234Z" fill="#FF7710"/>
<path d="M208.674 746V744.125L214.556 738.195C216.408 736.25 217.345 735.172 217.345 733.695C217.345 732.031 215.986 730.953 214.205 730.953C212.33 730.953 211.111 732.148 211.111 733.953H208.674C208.65 730.859 211.017 728.797 214.252 728.797C217.533 728.797 219.783 730.859 219.806 733.625C219.783 735.523 218.892 737.023 215.705 740.164L212.26 743.656V743.797H220.088V746H208.674ZM221.717 742.695V740.609L229.217 729.031H232.405V740.516H234.725V742.695H232.405V746H229.967V742.695H221.717ZM224.436 740.516H229.967V732.102H229.78L224.436 740.375V740.516Z" fill="black"/>
<path d="M343.826 746V744.125L349.709 738.195C351.56 736.25 352.498 735.172 352.498 733.695C352.498 732.031 351.138 730.953 349.357 730.953C347.482 730.953 346.263 732.148 346.263 733.953H343.826C343.802 730.859 346.17 728.797 349.404 728.797C352.685 728.797 354.935 730.859 354.959 733.625C354.935 735.523 354.045 737.023 350.857 740.164L347.412 743.656V743.797H355.24V746H343.826ZM363.385 746.234C360.174 746.234 357.76 744.266 357.643 741.57H360.151C360.291 743.023 361.674 744.078 363.385 744.078C365.448 744.078 366.924 742.578 366.924 740.562C366.924 738.5 365.401 737 363.268 736.977C361.908 736.977 360.877 737.422 360.291 738.477H357.854L358.955 729.031H368.565V731.234H361.088L360.526 735.992H360.69C361.393 735.312 362.588 734.844 363.877 734.844C367.065 734.844 369.432 737.211 369.432 740.492C369.432 743.844 366.924 746.234 363.385 746.234Z" fill="black"/>
<path d="M478.627 746V744.125L484.51 738.195C486.361 736.25 487.299 735.172 487.299 733.695C487.299 732.031 485.939 730.953 484.158 730.953C482.283 730.953 481.064 732.148 481.064 733.953H478.627C478.603 730.859 480.97 728.797 484.205 728.797C487.486 728.797 489.736 730.859 489.76 733.625C489.736 735.523 488.845 737.023 485.658 740.164L482.213 743.656V743.797H490.041V746H478.627ZM498.561 746.234C495.42 746.211 492.139 744.359 492.139 738.078C492.139 732.172 494.694 728.797 498.772 728.797C501.889 728.797 504.069 730.742 504.467 733.438H501.912C501.584 732.055 500.483 731.047 498.772 731.047C496.147 731.047 494.623 733.344 494.623 737.164H494.811C495.725 735.734 497.319 734.867 499.17 734.867C502.194 734.867 504.631 737.188 504.631 740.445C504.631 743.727 502.217 746.258 498.561 746.234ZM498.537 744.078C500.6 744.078 502.123 742.484 502.123 740.492C502.123 738.547 500.647 736.977 498.608 736.977C496.522 736.977 494.951 738.617 494.928 740.516C494.951 742.391 496.451 744.078 498.537 744.078Z" fill="black"/>
<path d="M613.888 746V744.125L619.771 738.195C621.623 736.25 622.56 735.172 622.56 733.695C622.56 732.031 621.201 730.953 619.42 730.953C617.545 730.953 616.326 732.148 616.326 733.953H613.888C613.865 730.859 616.232 728.797 619.467 728.797C622.748 728.797 624.998 730.859 625.021 733.625C624.998 735.523 624.107 737.023 620.92 740.164L617.474 743.656V743.797H625.302V746H613.888ZM628.268 746L635.838 731.375V731.234H627.096V729.031H638.51V731.328L630.963 746H628.268Z" fill="black"/>
<path d="M748.685 746V744.125L754.568 738.195C756.42 736.25 757.357 735.172 757.357 733.695C757.357 732.031 755.998 730.953 754.217 730.953C752.342 730.953 751.123 732.148 751.123 733.953H748.685C748.662 730.859 751.029 728.797 754.263 728.797C757.545 728.797 759.795 730.859 759.818 733.625C759.795 735.523 758.904 737.023 755.717 740.164L752.271 743.656V743.797H760.099V746H748.685ZM768.408 746.234C764.729 746.234 762.151 744.242 762.174 741.477C762.151 739.297 763.721 737.516 765.713 737.211V737.117C763.979 736.719 762.807 735.172 762.807 733.32C762.807 730.719 765.174 728.797 768.408 728.797C771.619 728.797 773.963 730.719 773.987 733.32C773.963 735.172 772.791 736.719 771.08 737.117V737.211C773.049 737.516 774.619 739.297 774.643 741.477C774.619 744.242 772.041 746.234 768.408 746.234ZM768.408 744.102C770.612 744.102 772.018 742.953 772.018 741.289C772.018 739.531 770.494 738.266 768.408 738.266C766.299 738.266 764.752 739.531 764.799 741.289C764.752 742.953 766.158 744.102 768.408 744.102ZM768.408 736.227C770.19 736.227 771.455 735.148 771.455 733.555C771.455 731.984 770.213 730.906 768.408 730.906C766.533 730.906 765.315 731.961 765.315 733.555C765.315 735.148 766.604 736.227 768.408 736.227Z" fill="black"/>
<path opacity="0.3" d="M899.066 729.031V746H896.465V731.609H896.371L892.316 734.258V731.797L896.535 729.031H899.066Z" fill="#FF7710"/>
<path opacity="0.3" d="M80.8633 862V860.125L86.7461 854.195C88.5977 852.25 89.5352 851.172 89.5352 849.695C89.5352 848.031 88.1758 846.953 86.3945 846.953C84.5195 846.953 83.3008 848.148 83.3008 849.953H80.8633C80.8398 846.859 83.207 844.797 86.4414 844.797C89.7227 844.797 91.9727 846.859 91.9961 849.625C91.9727 851.523 91.082 853.023 87.8945 856.164L84.4492 859.656V859.797H92.2773V862H80.8633Z" fill="#FF7710"/>
<path opacity="0.3" d="M221.535 862.234C218.02 862.234 215.512 860.336 215.418 857.57H218.043C218.137 859.07 219.613 860.008 221.512 860.008C223.551 860.008 225.051 858.883 225.051 857.242C225.051 855.578 223.645 854.359 221.23 854.359H219.777V852.25H221.23C223.152 852.25 224.512 851.172 224.512 849.555C224.512 848.008 223.363 846.953 221.559 846.953C219.848 846.953 218.348 847.891 218.277 849.438H215.793C215.863 846.672 218.418 844.797 221.582 844.797C224.91 844.797 227.02 846.906 226.996 849.414C227.02 851.336 225.824 852.742 223.996 853.188V853.305C226.316 853.633 227.652 855.18 227.652 857.336C227.652 860.172 225.051 862.234 221.535 862.234Z" fill="black"/>
<path opacity="0.3" d="M349.508 858.695V856.609L357.008 845.031H360.195V856.516H362.516V858.695H360.195V862H357.758V858.695H349.508ZM352.227 856.516H357.758V848.102H357.57L352.227 856.375V856.516Z" fill="black"/>
<path opacity="0.3" d="M491.488 862.234C488.277 862.234 485.863 860.266 485.746 857.57H488.254C488.395 859.023 489.777 860.078 491.488 860.078C493.551 860.078 495.027 858.578 495.027 856.562C495.027 854.5 493.504 853 491.371 852.977C490.012 852.977 488.98 853.422 488.395 854.477H485.957L487.059 845.031H496.668V847.234H489.191L488.629 851.992H488.793C489.496 851.312 490.691 850.844 491.98 850.844C495.168 850.844 497.535 853.211 497.535 856.492C497.535 859.844 495.027 862.234 491.488 862.234Z" fill="black"/>
<path opacity="0.3" d="M626.664 862.234C623.523 862.211 620.242 860.359 620.242 854.078C620.242 848.172 622.797 844.797 626.875 844.797C629.992 844.797 632.172 846.742 632.57 849.438H630.016C629.688 848.055 628.586 847.047 626.875 847.047C624.25 847.047 622.727 849.344 622.727 853.164H622.914C623.828 851.734 625.422 850.867 627.273 850.867C630.297 850.867 632.734 853.188 632.734 856.445C632.734 859.727 630.32 862.258 626.664 862.234ZM626.641 860.078C628.703 860.078 630.227 858.484 630.227 856.492C630.227 854.547 628.75 852.977 626.711 852.977C624.625 852.977 623.055 854.617 623.031 856.516C623.055 858.391 624.555 860.078 626.641 860.078Z" fill="black"/>
<path opacity="0.3" d="M756.371 862L763.941 847.375V847.234H755.199V845.031H766.613V847.328L759.066 862H756.371Z" fill="black"/>
<path opacity="0.3" d="M896.512 862.234C892.832 862.234 890.254 860.242 890.277 857.477C890.254 855.297 891.824 853.516 893.816 853.211V853.117C892.082 852.719 890.91 851.172 890.91 849.32C890.91 846.719 893.277 844.797 896.512 844.797C899.723 844.797 902.066 846.719 902.09 849.32C902.066 851.172 900.895 852.719 899.184 853.117V853.211C901.152 853.516 902.723 855.297 902.746 857.477C902.723 860.242 900.145 862.234 896.512 862.234ZM896.512 860.102C898.715 860.102 900.121 858.953 900.121 857.289C900.121 855.531 898.598 854.266 896.512 854.266C894.402 854.266 892.855 855.531 892.902 857.289C892.855 858.953 894.262 860.102 896.512 860.102ZM896.512 852.227C898.293 852.227 899.559 851.148 899.559 849.555C899.559 847.984 898.316 846.906 896.512 846.906C894.637 846.906 893.418 847.961 893.418 849.555C893.418 851.148 894.707 852.227 896.512 852.227Z" fill="#FF7710"/>
<path opacity="0.3" d="M73.6267 282V280.125L79.5095 274.195C81.3611 272.25 82.2986 271.172 82.2986 269.695C82.2986 268.031 80.9392 266.953 79.158 266.953C77.283 266.953 76.0642 268.148 76.0642 269.953H73.6267C73.6033 266.859 75.9705 264.797 79.2048 264.797C82.4861 264.797 84.7361 266.859 84.7595 269.625C84.7361 271.523 83.8455 273.023 80.658 276.164L77.2127 279.656V279.797H85.0408V282H73.6267ZM93.5608 282.234C90.4202 282.211 87.1389 280.359 87.1389 274.078C87.1389 268.172 89.6936 264.797 93.7717 264.797C96.8889 264.797 99.0686 266.742 99.467 269.438H96.9123C96.5842 268.055 95.4827 267.047 93.7717 267.047C91.1467 267.047 89.6233 269.344 89.6233 273.164H89.8108C90.7248 271.734 92.3186 270.867 94.1702 270.867C97.1936 270.867 99.6311 273.188 99.6311 276.445C99.6311 279.727 97.217 282.258 93.5608 282.234ZM93.5373 280.078C95.5998 280.078 97.1233 278.484 97.1233 276.492C97.1233 274.547 95.6467 272.977 93.6077 272.977C91.5217 272.977 89.9514 274.617 89.928 276.516C89.9514 278.391 91.4514 280.078 93.5373 280.078Z" fill="#FF7710"/>
<path opacity="0.3" d="M208.888 282V280.125L214.771 274.195C216.623 272.25 217.56 271.172 217.56 269.695C217.56 268.031 216.201 266.953 214.42 266.953C212.545 266.953 211.326 268.148 211.326 269.953H208.888C208.865 266.859 211.232 264.797 214.467 264.797C217.748 264.797 219.998 266.859 220.021 269.625C219.998 271.523 219.107 273.023 215.92 276.164L212.474 279.656V279.797H220.302V282H208.888ZM223.268 282L230.838 267.375V267.234H222.096V265.031H233.51V267.328L225.963 282H223.268Z" fill="black"/>
<path opacity="0.3" d="M343.685 282V280.125L349.568 274.195C351.42 272.25 352.357 271.172 352.357 269.695C352.357 268.031 350.998 266.953 349.217 266.953C347.342 266.953 346.123 268.148 346.123 269.953H343.685C343.662 266.859 346.029 264.797 349.263 264.797C352.545 264.797 354.795 266.859 354.818 269.625C354.795 271.523 353.904 273.023 350.717 276.164L347.271 279.656V279.797H355.099V282H343.685ZM363.408 282.234C359.729 282.234 357.151 280.242 357.174 277.477C357.151 275.297 358.721 273.516 360.713 273.211V273.117C358.979 272.719 357.807 271.172 357.807 269.32C357.807 266.719 360.174 264.797 363.408 264.797C366.619 264.797 368.963 266.719 368.987 269.32C368.963 271.172 367.791 272.719 366.08 273.117V273.211C368.049 273.516 369.619 275.297 369.643 277.477C369.619 280.242 367.041 282.234 363.408 282.234ZM363.408 280.102C365.612 280.102 367.018 278.953 367.018 277.289C367.018 275.531 365.494 274.266 363.408 274.266C361.299 274.266 359.752 275.531 359.799 277.289C359.752 278.953 361.158 280.102 363.408 280.102ZM363.408 272.227C365.19 272.227 366.455 271.148 366.455 269.555C366.455 267.984 365.213 266.906 363.408 266.906C361.533 266.906 360.315 267.961 360.315 269.555C360.315 271.148 361.604 272.227 363.408 272.227Z" fill="black"/>
<path opacity="0.3" d="M478.627 282V280.125L484.51 274.195C486.361 272.25 487.299 271.172 487.299 269.695C487.299 268.031 485.939 266.953 484.158 266.953C482.283 266.953 481.064 268.148 481.064 269.953H478.627C478.603 266.859 480.97 264.797 484.205 264.797C487.486 264.797 489.736 266.859 489.76 269.625C489.736 271.523 488.845 273.023 485.658 276.164L482.213 279.656V279.797H490.041V282H478.627ZM498.256 264.797C501.373 264.82 504.655 266.695 504.655 272.906C504.655 278.859 502.1 282.234 498.022 282.234C494.905 282.234 492.701 280.312 492.303 277.547H494.858C495.209 278.977 496.311 279.984 498.022 279.984C500.647 279.984 502.17 277.688 502.194 273.82H501.983C501.069 275.25 499.475 276.117 497.647 276.117C494.6 276.117 492.162 273.797 492.162 270.539C492.162 267.305 494.576 264.773 498.256 264.797ZM498.256 266.953C496.194 266.953 494.67 268.547 494.67 270.492C494.67 272.461 496.147 274.008 498.209 274.008C500.248 274.008 501.842 272.344 501.842 270.469C501.842 268.641 500.342 266.953 498.256 266.953Z" fill="black"/>
<path opacity="0.3" d="M618.869 282.234C615.353 282.234 612.845 280.336 612.752 277.57H615.377C615.47 279.07 616.947 280.008 618.845 280.008C620.885 280.008 622.385 278.883 622.385 277.242C622.385 275.578 620.978 274.359 618.564 274.359H617.111V272.25H618.564C620.486 272.25 621.845 271.172 621.845 269.555C621.845 268.008 620.697 266.953 618.892 266.953C617.181 266.953 615.681 267.891 615.611 269.438H613.127C613.197 266.672 615.752 264.797 618.916 264.797C622.244 264.797 624.353 266.906 624.33 269.414C624.353 271.336 623.158 272.742 621.33 273.188V273.305C623.65 273.633 624.986 275.18 624.986 277.336C624.986 280.172 622.385 282.234 618.869 282.234ZM633.248 282.234C629.311 282.234 627.014 279.07 627.014 273.516C627.014 268.008 629.358 264.797 633.248 264.797C637.139 264.797 639.483 268.008 639.483 273.516C639.483 279.07 637.162 282.234 633.248 282.234ZM633.248 280.008C635.545 280.008 636.905 277.758 636.905 273.516C636.905 269.297 635.522 266.977 633.248 266.977C630.975 266.977 629.592 269.297 629.592 273.516C629.592 277.758 630.951 280.008 633.248 280.008Z" fill="black"/>
<path opacity="0.3" d="M755.896 282.234C752.381 282.234 749.873 280.336 749.779 277.57H752.404C752.498 279.07 753.974 280.008 755.873 280.008C757.912 280.008 759.412 278.883 759.412 277.242C759.412 275.578 758.006 274.359 755.592 274.359H754.138V272.25H755.592C757.513 272.25 758.873 271.172 758.873 269.555C758.873 268.008 757.724 266.953 755.92 266.953C754.209 266.953 752.709 267.891 752.638 269.438H750.154C750.224 266.672 752.779 264.797 755.943 264.797C759.271 264.797 761.381 266.906 761.357 269.414C761.381 271.336 760.185 272.742 758.357 273.188V273.305C760.677 273.633 762.013 275.18 762.013 277.336C762.013 280.172 759.412 282.234 755.896 282.234ZM770.815 265.031V282H768.213V267.609H768.119L764.065 270.258V267.797L768.283 265.031H770.815Z" fill="black"/>
<path d="M899.066 265.031V282H896.465V267.609H896.371L892.316 270.258V267.797L896.535 265.031H899.066Z" fill="#FF7710"/>
<path d="M714 671.5C714 659.074 724.074 649 736.5 649H928V694H736.5C724.074 694 714 683.926 714 671.5Z" fill="url(#paint0_linear_1330_19407)"/>
<path d="M740.913 678.5H738.358V666.836H738.275L734.967 668.949V666.622L738.475 664.356H740.913V678.5ZM749.092 678.693C748.097 678.693 747.206 678.523 746.419 678.182C745.632 677.842 745.013 677.367 744.561 676.76C744.11 676.147 743.873 675.448 743.85 674.66H746.419C746.438 675.033 746.564 675.365 746.799 675.655C747.038 675.94 747.356 676.161 747.752 676.318C748.153 676.474 748.597 676.552 749.085 676.552C749.601 676.552 750.061 676.465 750.466 676.29C750.876 676.11 751.194 675.862 751.419 675.544C751.649 675.222 751.764 674.856 751.764 674.446C751.769 674.018 751.654 673.64 751.419 673.314C751.184 672.982 750.844 672.724 750.397 672.54C749.955 672.351 749.433 672.257 748.829 672.257H747.573V670.296H748.829C749.327 670.296 749.769 670.21 750.155 670.04C750.542 669.865 750.844 669.621 751.06 669.308C751.276 668.99 751.385 668.629 751.385 668.224C751.385 667.832 751.29 667.487 751.102 667.188C750.917 666.884 750.653 666.649 750.307 666.483C749.967 666.318 749.571 666.235 749.119 666.235C748.673 666.235 748.259 666.315 747.876 666.477C747.494 666.633 747.186 666.859 746.951 667.153C746.721 667.443 746.599 667.779 746.585 668.162H744.147C744.166 667.388 744.396 666.698 744.838 666.09C745.28 665.482 745.876 665.01 746.626 664.674C747.377 664.333 748.212 664.163 749.133 664.163C750.063 664.163 750.885 664.338 751.599 664.688C752.317 665.033 752.869 665.505 753.256 666.104C753.648 666.698 753.841 667.356 753.836 668.079C753.841 668.604 753.735 669.078 753.519 669.501C753.307 669.925 753.005 670.277 752.614 670.558C752.223 670.834 751.767 671.028 751.247 671.138V671.249C751.905 671.336 752.469 671.529 752.939 671.829C753.408 672.128 753.765 672.512 754.009 672.982C754.253 673.452 754.373 673.983 754.368 674.577C754.373 675.36 754.147 676.064 753.691 676.691C753.24 677.317 752.612 677.807 751.806 678.162C751.005 678.516 750.1 678.693 749.092 678.693ZM770.341 680.227H768.152V662.588H770.341V680.227ZM755.721 675.372C757.249 674.644 758.518 673.827 759.526 672.92C760.539 672.008 761.317 670.998 761.86 669.888C762.404 668.774 762.74 667.538 762.869 666.18H756.619V664.46H765.079C765.074 666.297 764.807 667.987 764.277 669.529C763.753 671.067 762.882 672.478 761.667 673.762C760.456 675.047 758.854 676.163 756.86 677.112L755.721 675.372ZM781.572 663.866C782.456 663.866 783.246 664.124 783.941 664.64C784.636 665.151 785.18 665.878 785.571 666.822C785.962 667.761 786.16 668.855 786.165 670.102C786.16 671.359 785.962 672.462 785.571 673.41C785.18 674.354 784.636 675.081 783.941 675.593C783.246 676.099 782.456 676.352 781.572 676.352C780.684 676.352 779.892 676.099 779.197 675.593C778.501 675.081 777.958 674.354 777.567 673.41C777.18 672.462 776.987 671.359 776.987 670.102C776.987 668.855 777.18 667.761 777.567 666.822C777.958 665.878 778.501 665.151 779.197 664.64C779.892 664.124 780.684 663.866 781.572 663.866ZM779.079 670.102C779.079 670.991 779.183 671.757 779.39 672.402C779.597 673.047 779.889 673.539 780.267 673.88C780.645 674.221 781.08 674.391 781.572 674.391C782.074 674.391 782.511 674.223 782.884 673.887C783.262 673.546 783.554 673.053 783.761 672.409C783.969 671.764 784.072 670.995 784.072 670.102C784.072 669.218 783.969 668.456 783.761 667.816C783.554 667.172 783.262 666.679 782.884 666.338C782.511 665.998 782.074 665.827 781.572 665.827C781.08 665.827 780.645 665.998 780.267 666.338C779.889 666.679 779.597 667.172 779.39 667.816C779.183 668.456 779.079 669.218 779.079 670.102ZM788.485 662.588H790.661V669.37H793.382V671.193H790.661V680.227H788.485V662.588ZM808.457 680.227H806.268V662.588H808.457V680.227ZM793.837 675.372C795.366 674.644 796.634 673.827 797.642 672.92C798.655 672.008 799.433 670.998 799.977 669.888C800.52 668.774 800.856 667.538 800.985 666.18H794.735V664.46H803.195C803.19 666.297 802.923 667.987 802.394 669.529C801.869 671.067 800.999 672.478 799.783 673.762C798.572 675.047 796.97 676.163 794.977 677.112L793.837 675.372ZM816.91 666.829C816.906 667.883 817.074 668.917 817.414 669.93C817.755 670.938 818.25 671.843 818.899 672.644C819.548 673.44 820.317 674.052 821.206 674.481L819.887 676.221C818.952 675.751 818.142 675.077 817.456 674.198C816.77 673.318 816.233 672.301 815.847 671.145C815.446 672.379 814.884 673.465 814.162 674.405C813.443 675.339 812.592 676.055 811.606 676.552L810.267 674.798C811.187 674.366 811.984 673.733 812.656 672.899C813.333 672.061 813.849 671.115 814.203 670.061C814.558 669.002 814.737 667.924 814.742 666.829V664.004H816.91V666.829ZM822.256 662.588H824.431V669.508H827.152V671.352H824.431V680.227H822.256V662.588ZM833.823 667.595C833.818 668.516 833.991 669.446 834.341 670.385C834.695 671.325 835.207 672.179 835.874 672.948C836.546 673.716 837.331 674.31 838.229 674.729L837.014 676.442C836.047 675.991 835.197 675.326 834.465 674.446C833.738 673.562 833.169 672.549 832.759 671.407C832.35 672.651 831.767 673.756 831.012 674.722C830.257 675.685 829.385 676.405 828.395 676.884L827.117 675.171C828.024 674.743 828.821 674.124 829.507 673.314C830.193 672.499 830.72 671.589 831.088 670.586C831.457 669.582 831.643 668.585 831.648 667.595V666.11H827.801V664.329H837.511V666.11H833.823V667.595ZM839.141 662.588H841.316V669.453H844.037V671.276H841.316V680.227H839.141V662.588ZM864.861 678.093H848.721V676.311H855.676V672.464H850.496V663.949H862.996V672.464H857.831V676.311H864.861V678.093ZM860.855 670.758V665.689H852.63V670.758H860.855ZM876.028 665.372H872.312C872.322 666.067 872.494 666.737 872.83 667.381C873.166 668.026 873.659 668.597 874.308 669.094C874.957 669.591 875.733 669.966 876.636 670.22L875.551 671.912C874.548 671.617 873.677 671.166 872.941 670.558C872.209 669.95 871.638 669.23 871.228 668.396C870.823 669.294 870.245 670.075 869.495 670.738C868.744 671.396 867.853 671.889 866.822 672.215L865.717 670.51C866.633 670.238 867.421 669.84 868.079 669.315C868.737 668.79 869.237 668.187 869.578 667.506C869.923 666.824 870.1 666.113 870.109 665.372H866.311V663.631H876.028V665.372ZM868.638 672.927H870.772V674.743H878.141V672.927H880.303V680.019H868.638V672.927ZM878.141 678.265V676.435H870.772V678.265H878.141ZM878.127 662.588H880.303V672.153H878.127V662.588Z" fill="white"/>
<rect width="878" height="45" transform="translate(50 765)" fill="url(#paint1_linear_1330_19407)"/>
<path d="M76.913 794.5H74.3577V782.836H74.2749L70.9669 784.949V782.622L74.4751 780.356H76.913V794.5ZM85.0918 794.693C84.0974 794.693 83.2065 794.523 82.4192 794.182C81.6319 793.842 81.0127 793.367 80.5615 792.76C80.1103 792.147 79.8732 791.448 79.8501 790.66H82.4192C82.4376 791.033 82.5642 791.365 82.799 791.655C83.0384 791.94 83.3561 792.161 83.7521 792.318C84.1526 792.474 84.5969 792.552 85.0849 792.552C85.6006 792.552 86.061 792.465 86.4662 792.29C86.8759 792.11 87.1936 791.862 87.4192 791.544C87.6494 791.222 87.7645 790.856 87.7645 790.446C87.7691 790.018 87.654 789.64 87.4192 789.314C87.1844 788.982 86.8437 788.724 86.3971 788.54C85.9551 788.351 85.4325 788.257 84.8294 788.257H83.5725V786.296H84.8294C85.3266 786.296 85.7686 786.21 86.1554 786.04C86.5421 785.865 86.8437 785.621 87.0601 785.308C87.2765 784.99 87.3847 784.629 87.3847 784.224C87.3847 783.832 87.2903 783.487 87.1015 783.188C86.9173 782.884 86.6526 782.649 86.3073 782.483C85.9666 782.318 85.5707 782.235 85.1195 782.235C84.6729 782.235 84.2585 782.315 83.8764 782.477C83.4942 782.633 83.1858 782.859 82.951 783.153C82.7208 783.443 82.5987 783.779 82.5849 784.162H80.1471C80.1655 783.388 80.3957 782.698 80.8377 782.09C81.2797 781.482 81.8759 781.01 82.6264 780.674C83.3768 780.333 84.2125 780.163 85.1333 780.163C86.0633 780.163 86.8851 780.338 87.5987 780.688C88.317 781.033 88.8695 781.505 89.2562 782.104C89.6476 782.698 89.8409 783.356 89.8363 784.079C89.8409 784.604 89.735 785.078 89.5186 785.501C89.3069 785.925 89.0053 786.277 88.6139 786.558C88.2226 786.834 87.7668 787.028 87.2465 787.138V787.249C87.9049 787.336 88.4689 787.529 88.9385 787.829C89.4081 788.128 89.765 788.512 90.009 788.982C90.253 789.452 90.3727 789.983 90.3681 790.577C90.3727 791.36 90.1471 792.064 89.6913 792.691C89.2401 793.317 88.6116 793.807 87.8059 794.162C87.0048 794.516 86.1001 794.693 85.0918 794.693ZM106.341 796.227H104.152V778.588H106.341V796.227ZM91.7208 791.372C93.2494 790.644 94.5178 789.827 95.5261 788.92C96.539 788.008 97.3171 786.998 97.8603 785.888C98.4036 784.774 98.7397 783.538 98.8686 782.18H92.6186V780.46H101.079C101.074 782.297 100.807 783.987 100.277 785.529C99.7526 787.067 98.8824 788.478 97.667 789.762C96.4561 791.047 94.8539 792.163 92.8603 793.112L91.7208 791.372ZM117.572 779.866C118.456 779.866 119.246 780.124 119.941 780.64C120.636 781.151 121.18 781.878 121.571 782.822C121.962 783.761 122.16 784.855 122.165 786.102C122.16 787.359 121.962 788.462 121.571 789.41C121.18 790.354 120.636 791.081 119.941 791.593C119.246 792.099 118.456 792.352 117.572 792.352C116.684 792.352 115.892 792.099 115.197 791.593C114.501 791.081 113.958 790.354 113.567 789.41C113.18 788.462 112.987 787.359 112.987 786.102C112.987 784.855 113.18 783.761 113.567 782.822C113.958 781.878 114.501 781.151 115.197 780.64C115.892 780.124 116.684 779.866 117.572 779.866ZM115.079 786.102C115.079 786.991 115.183 787.757 115.39 788.402C115.597 789.047 115.889 789.539 116.267 789.88C116.645 790.221 117.08 790.391 117.572 790.391C118.074 790.391 118.511 790.223 118.884 789.887C119.262 789.546 119.554 789.053 119.761 788.409C119.969 787.764 120.072 786.995 120.072 786.102C120.072 785.218 119.969 784.456 119.761 783.816C119.554 783.172 119.262 782.679 118.884 782.338C118.511 781.998 118.074 781.827 117.572 781.827C117.08 781.827 116.645 781.998 116.267 782.338C115.889 782.679 115.597 783.172 115.39 783.816C115.183 784.456 115.079 785.218 115.079 786.102ZM124.485 778.588H126.661V785.37H129.382V787.193H126.661V796.227H124.485V778.588ZM144.457 796.227H142.268V778.588H144.457V796.227ZM129.837 791.372C131.366 790.644 132.634 789.827 133.642 788.92C134.655 788.008 135.433 786.998 135.977 785.888C136.52 784.774 136.856 783.538 136.985 782.18H130.735V780.46H139.195C139.19 782.297 138.923 783.987 138.394 785.529C137.869 787.067 136.999 788.478 135.783 789.762C134.572 791.047 132.97 792.163 130.977 793.112L129.837 791.372ZM152.91 782.829C152.906 783.883 153.074 784.917 153.414 785.93C153.755 786.938 154.25 787.843 154.899 788.644C155.548 789.44 156.317 790.052 157.206 790.481L155.887 792.221C154.952 791.751 154.142 791.077 153.456 790.198C152.77 789.318 152.233 788.301 151.847 787.145C151.446 788.379 150.884 789.465 150.162 790.405C149.443 791.339 148.592 792.055 147.606 792.552L146.267 790.798C147.187 790.366 147.984 789.733 148.656 788.899C149.333 788.061 149.849 787.115 150.203 786.061C150.558 785.002 150.737 783.924 150.742 782.829V780.004H152.91V782.829ZM158.256 778.588H160.431V785.508H163.152V787.352H160.431V796.227H158.256V778.588ZM169.823 783.595C169.818 784.516 169.991 785.446 170.341 786.385C170.695 787.325 171.207 788.179 171.874 788.948C172.546 789.716 173.331 790.31 174.229 790.729L173.014 792.442C172.047 791.991 171.197 791.326 170.465 790.446C169.738 789.562 169.169 788.549 168.759 787.407C168.35 788.651 167.767 789.756 167.012 790.722C166.257 791.685 165.385 792.405 164.395 792.884L163.117 791.171C164.024 790.743 164.821 790.124 165.507 789.314C166.193 788.499 166.72 787.589 167.088 786.586C167.457 785.582 167.643 784.585 167.648 783.595V782.11H163.801V780.329H173.511V782.11H169.823V783.595ZM175.141 778.588H177.316V785.453H180.037V787.276H177.316V796.227H175.141V778.588ZM200.861 794.093H184.721V792.311H191.676V788.464H186.496V779.949H198.996V788.464H193.831V792.311H200.861V794.093ZM196.855 786.758V781.689H188.63V786.758H196.855ZM212.028 781.372H208.312C208.322 782.067 208.494 782.737 208.83 783.381C209.166 784.026 209.659 784.597 210.308 785.094C210.957 785.591 211.733 785.966 212.636 786.22L211.551 787.912C210.548 787.617 209.677 787.166 208.941 786.558C208.209 785.95 207.638 785.23 207.228 784.396C206.823 785.294 206.245 786.075 205.495 786.738C204.744 787.396 203.853 787.889 202.822 788.215L201.717 786.51C202.633 786.238 203.421 785.84 204.079 785.315C204.737 784.79 205.237 784.187 205.578 783.506C205.923 782.824 206.1 782.113 206.109 781.372H202.311V779.631H212.028V781.372ZM204.638 788.927H206.772V790.743H214.141V788.927H216.303V796.019H204.638V788.927ZM214.141 794.265V792.435H206.772V794.265H214.141ZM214.127 778.588H216.303V788.153H214.127V778.588Z" fill="white"/>
<g opacity="0.4">
<path d="M50 881H515.5C527.926 881 538 891.074 538 903.5C538 915.926 527.926 926 515.5 926H50V881Z" fill="url(#paint2_linear_1330_19407)"/>
<path d="M76.913 910.5H74.3577V898.836H74.2749L70.9669 900.949V898.622L74.4751 896.356H76.913V910.5ZM85.0918 910.693C84.0974 910.693 83.2065 910.523 82.4192 910.182C81.6319 909.842 81.0127 909.367 80.5615 908.76C80.1103 908.147 79.8732 907.448 79.8501 906.66H82.4192C82.4376 907.033 82.5642 907.365 82.799 907.655C83.0384 907.94 83.3561 908.161 83.7521 908.318C84.1526 908.474 84.5969 908.552 85.0849 908.552C85.6006 908.552 86.061 908.465 86.4662 908.29C86.8759 908.11 87.1936 907.862 87.4192 907.544C87.6494 907.222 87.7645 906.856 87.7645 906.446C87.7691 906.018 87.654 905.64 87.4192 905.314C87.1844 904.982 86.8437 904.724 86.3971 904.54C85.9551 904.351 85.4325 904.257 84.8294 904.257H83.5725V902.296H84.8294C85.3266 902.296 85.7686 902.21 86.1554 902.04C86.5421 901.865 86.8437 901.621 87.0601 901.308C87.2765 900.99 87.3847 900.629 87.3847 900.224C87.3847 899.832 87.2903 899.487 87.1015 899.188C86.9173 898.884 86.6526 898.649 86.3073 898.483C85.9666 898.318 85.5707 898.235 85.1195 898.235C84.6729 898.235 84.2585 898.315 83.8764 898.477C83.4942 898.633 83.1858 898.859 82.951 899.153C82.7208 899.443 82.5987 899.779 82.5849 900.162H80.1471C80.1655 899.388 80.3957 898.698 80.8377 898.09C81.2797 897.482 81.8759 897.01 82.6264 896.674C83.3768 896.333 84.2125 896.163 85.1333 896.163C86.0633 896.163 86.8851 896.338 87.5987 896.688C88.317 897.033 88.8695 897.505 89.2562 898.104C89.6476 898.698 89.8409 899.356 89.8363 900.079C89.8409 900.604 89.735 901.078 89.5186 901.501C89.3069 901.925 89.0053 902.277 88.6139 902.558C88.2226 902.834 87.7668 903.028 87.2465 903.138V903.249C87.9049 903.336 88.4689 903.529 88.9385 903.829C89.4081 904.128 89.765 904.512 90.009 904.982C90.253 905.452 90.3727 905.983 90.3681 906.577C90.3727 907.36 90.1471 908.064 89.6913 908.691C89.2401 909.317 88.6116 909.807 87.8059 910.162C87.0048 910.516 86.1001 910.693 85.0918 910.693ZM106.341 912.227H104.152V894.588H106.341V912.227ZM91.7208 907.372C93.2494 906.644 94.5178 905.827 95.5261 904.92C96.539 904.008 97.3171 902.998 97.8603 901.888C98.4036 900.774 98.7397 899.538 98.8686 898.18H92.6186V896.46H101.079C101.074 898.297 100.807 899.987 100.277 901.529C99.7526 903.067 98.8824 904.478 97.667 905.762C96.4561 907.047 94.8539 908.163 92.8603 909.112L91.7208 907.372ZM117.572 895.866C118.456 895.866 119.246 896.124 119.941 896.64C120.636 897.151 121.18 897.878 121.571 898.822C121.962 899.761 122.16 900.855 122.165 902.102C122.16 903.359 121.962 904.462 121.571 905.41C121.18 906.354 120.636 907.081 119.941 907.593C119.246 908.099 118.456 908.352 117.572 908.352C116.684 908.352 115.892 908.099 115.197 907.593C114.501 907.081 113.958 906.354 113.567 905.41C113.18 904.462 112.987 903.359 112.987 902.102C112.987 900.855 113.18 899.761 113.567 898.822C113.958 897.878 114.501 897.151 115.197 896.64C115.892 896.124 116.684 895.866 117.572 895.866ZM115.079 902.102C115.079 902.991 115.183 903.757 115.39 904.402C115.597 905.047 115.889 905.539 116.267 905.88C116.645 906.221 117.08 906.391 117.572 906.391C118.074 906.391 118.511 906.223 118.884 905.887C119.262 905.546 119.554 905.053 119.761 904.409C119.969 903.764 120.072 902.995 120.072 902.102C120.072 901.218 119.969 900.456 119.761 899.816C119.554 899.172 119.262 898.679 118.884 898.338C118.511 897.998 118.074 897.827 117.572 897.827C117.08 897.827 116.645 897.998 116.267 898.338C115.889 898.679 115.597 899.172 115.39 899.816C115.183 900.456 115.079 901.218 115.079 902.102ZM124.485 894.588H126.661V901.37H129.382V903.193H126.661V912.227H124.485V894.588ZM144.457 912.227H142.268V894.588H144.457V912.227ZM129.837 907.372C131.366 906.644 132.634 905.827 133.642 904.92C134.655 904.008 135.433 902.998 135.977 901.888C136.52 900.774 136.856 899.538 136.985 898.18H130.735V896.46H139.195C139.19 898.297 138.923 899.987 138.394 901.529C137.869 903.067 136.999 904.478 135.783 905.762C134.572 907.047 132.97 908.163 130.977 909.112L129.837 907.372ZM152.91 898.829C152.906 899.883 153.074 900.917 153.414 901.93C153.755 902.938 154.25 903.843 154.899 904.644C155.548 905.44 156.317 906.052 157.206 906.481L155.887 908.221C154.952 907.751 154.142 907.077 153.456 906.198C152.77 905.318 152.233 904.301 151.847 903.145C151.446 904.379 150.884 905.465 150.162 906.405C149.443 907.339 148.592 908.055 147.606 908.552L146.267 906.798C147.187 906.366 147.984 905.733 148.656 904.899C149.333 904.061 149.849 903.115 150.203 902.061C150.558 901.002 150.737 899.924 150.742 898.829V896.004H152.91V898.829ZM158.256 894.588H160.431V901.508H163.152V903.352H160.431V912.227H158.256V894.588ZM169.823 899.595C169.818 900.516 169.991 901.446 170.341 902.385C170.695 903.325 171.207 904.179 171.874 904.948C172.546 905.716 173.331 906.31 174.229 906.729L173.014 908.442C172.047 907.991 171.197 907.326 170.465 906.446C169.738 905.562 169.169 904.549 168.759 903.407C168.35 904.651 167.767 905.756 167.012 906.722C166.257 907.685 165.385 908.405 164.395 908.884L163.117 907.171C164.024 906.743 164.821 906.124 165.507 905.314C166.193 904.499 166.72 903.589 167.088 902.586C167.457 901.582 167.643 900.585 167.648 899.595V898.11H163.801V896.329H173.511V898.11H169.823V899.595ZM175.141 894.588H177.316V901.453H180.037V903.276H177.316V912.227H175.141V894.588ZM200.861 910.093H184.721V908.311H191.676V904.464H186.496V895.949H198.996V904.464H193.831V908.311H200.861V910.093ZM196.855 902.758V897.689H188.63V902.758H196.855ZM212.028 897.372H208.312C208.322 898.067 208.494 898.737 208.83 899.381C209.166 900.026 209.659 900.597 210.308 901.094C210.957 901.591 211.733 901.966 212.636 902.22L211.551 903.912C210.548 903.617 209.677 903.166 208.941 902.558C208.209 901.95 207.638 901.23 207.228 900.396C206.823 901.294 206.245 902.075 205.495 902.738C204.744 903.396 203.853 903.889 202.822 904.215L201.717 902.51C202.633 902.238 203.421 901.84 204.079 901.315C204.737 900.79 205.237 900.187 205.578 899.506C205.923 898.824 206.1 898.113 206.109 897.372H202.311V895.631H212.028V897.372ZM204.638 904.927H206.772V906.743H214.141V904.927H216.303V912.019H204.638V904.927ZM214.141 910.265V908.435H206.772V910.265H214.141ZM214.127 894.588H216.303V904.153H214.127V894.588Z" fill="white"/>
</g>
<g filter="url(#filter0_d_1330_19407)">
<rect x="378" y="20" width="222" height="76" rx="38" fill="white" shape-rendering="crispEdges"/>
<path d="M410.107 69L410.076 65.5938L418.201 58.125C420.326 56.0938 421.451 54.8438 421.451 53.0625C421.451 51.0625 419.92 49.8125 417.857 49.8125C415.732 49.8125 414.357 51.1562 414.357 53.3125H409.889C409.857 48.875 413.139 46.0625 417.92 46.0625C422.764 46.0625 425.982 48.8125 425.982 52.75C425.982 55.3125 424.732 57.4375 420.076 61.6562L416.639 65V65.125H426.295V69H410.107ZM452.155 43.4688V59.9375H448.155V59.0312H442.999V56.625H448.155V43.4688H452.155ZM428.061 53.4688C433.561 53.5 440.374 53.4375 446.467 52.875L446.655 55.3438C444.139 55.6875 441.561 55.9062 439.03 56.0312V60H435.092V56.1875C432.764 56.25 430.53 56.25 428.467 56.2188L428.061 53.4688ZM452.155 60.7812V67.4375H436.155V68.9062H452.811V71.6875H432.249V64.875H448.186V63.4688H432.124V60.7812H452.155ZM437.217 43.8438C441.436 43.8438 444.342 45.5625 444.374 48.125C444.342 50.7812 441.436 52.375 437.217 52.375C432.874 52.375 429.999 50.7812 429.999 48.125C429.999 45.5625 432.874 43.8438 437.217 43.8438ZM437.217 46.4688C435.061 46.4375 433.749 47.0938 433.78 48.125C433.749 49.1875 435.061 49.7812 437.217 49.7812C439.311 49.7812 440.655 49.1875 440.655 48.125C440.655 47.0938 439.311 46.4375 437.217 46.4688ZM476.406 46.1562C476.375 54.9062 474.031 62.25 463.781 67.5625L461.594 64.5625C466.094 62.1875 468.891 59.5469 470.531 56.4062L462.281 57.1562L461.75 53.7812L471.781 53.1875C472.109 51.9844 472.312 50.7031 472.438 49.3438H463.281V46.1562H476.406ZM485.781 43.4375V71.875H481.812V57.625H476.344V54.375H481.812V43.4375H485.781ZM512.673 43.4375V71.9375H508.704V43.4375H512.673ZM503.86 45.8125V56.7812H494.485V62C498.813 61.9844 502.501 61.7344 506.673 61.0625L507.016 64.2812C502.329 65.0938 498.11 65.2812 492.923 65.2812H490.36V53.625H499.798V49.0312H490.329V45.8125H503.86ZM538.783 44.2812V46.7812C538.783 48.9688 538.783 51.2812 538.251 54.125H541.72V57.25H535.345V59.25H538.908V66.7812H522.72V68.5H539.908V71.5625H518.751V63.9375H534.939V62.2812H518.72V59.25H522.158V57.25H515.908V54.125H534.251C534.392 53.2969 534.517 52.5156 534.595 51.7812L518.689 52.4688L518.251 49.3438L534.814 49C534.814 48.4531 534.814 47.9375 534.814 47.4062H519.033V44.2812H538.783ZM526.158 59.25H531.376V57.25H526.158V59.25ZM566.83 61.4062V71.5625H547.611V61.4062H566.83ZM551.58 64.4688V68.375H562.893V64.4688H551.58ZM566.83 43.4688V60.1562H562.861V52.5625H558.268V49.3438H562.861V43.4688H566.83ZM556.83 44.75V53.4688H547.924V56.1562C552.236 56.125 555.33 55.9844 558.893 55.4062L559.174 58.625C555.111 59.3125 551.549 59.4062 546.299 59.375H543.986V50.4688H552.924V47.9688H543.924V44.75H556.83Z" fill="#FF7710"/>
</g>
<defs>
<filter id="filter0_d_1330_19407" x="358" y="0" width="262" height="116" filterUnits="userSpaceOnUse" color-interpolation-filters="sRGB">
<feFlood flood-opacity="0" result="BackgroundImageFix"/>
<feColorMatrix in="SourceAlpha" type="matrix" values="0 0 0 0 0 0 0 0 0 0 0 0 0 0 0 0 0 0 127 0" result="hardAlpha"/>
<feOffset/>
<feGaussianBlur stdDeviation="10"/>
<feComposite in2="hardAlpha" operator="out"/>
<feColorMatrix type="matrix" values="0 0 0 0 0 0 0 0 0 0 0 0 0 0 0 0 0 0 0.08 0"/>
<feBlend mode="normal" in2="BackgroundImageFix" result="effect1_dropShadow_1330_19407"/>
<feBlend mode="normal" in="SourceGraphic" in2="effect1_dropShadow_1330_19407" result="shape"/>
</filter>
<linearGradient id="paint0_linear_1330_19407" x1="714" y1="671.5" x2="928" y2="671.5" gradientUnits="userSpaceOnUse">
<stop stop-color="#FF7710"/>
<stop offset="1" stop-color="#FFA159"/>
</linearGradient>
<linearGradient id="paint1_linear_1330_19407" x1="878" y1="22.5" x2="0" y2="22.5" gradientUnits="userSpaceOnUse">
<stop stop-color="#FFAF72"/>
<stop offset="1" stop-color="#FF8528"/>
</linearGradient>
<linearGradient id="paint2_linear_1330_19407" x1="538" y1="903.5" x2="50" y2="903.5" gradientUnits="userSpaceOnUse">
<stop stop-color="#FFA159"/>
<stop offset="1" stop-color="#FFA159"/>
</linearGradient>
</defs>
</svg>
