<svg width="436" height="322" viewBox="0 0 436 322" fill="none" xmlns="http://www.w3.org/2000/svg">
<g opacity="0.1">
<mask id="path-1-inside-1_1674_26256" fill="white">
<path d="M410.043 20.961C423.869 22.4452 433.873 34.8558 432.389 48.6812L421.774 147.562C420.29 161.387 407.879 171.392 394.054 169.908L329.061 162.931L310.545 185.046C308.244 187.794 303.89 187.326 302.225 184.153L288.824 158.612L223.829 151.634C210.003 150.15 199.999 137.738 201.483 123.913L212.098 25.0329C213.582 11.2076 225.993 1.20321 239.818 2.68729L410.043 20.961Z"/>
</mask>
<path d="M410.043 20.961L411.538 7.04093L411.537 7.04093L410.043 20.961ZM421.774 147.562L435.694 149.057L435.694 149.057L421.774 147.562ZM394.054 169.908L392.559 183.828L392.559 183.828L394.054 169.908ZM329.061 162.931L330.555 149.011L323.124 148.213L318.327 153.943L329.061 162.931ZM310.545 185.046L321.279 194.033L321.279 194.033L310.545 185.046ZM302.225 184.153L289.827 190.657L289.827 190.657L302.225 184.153ZM288.824 158.612L301.222 152.107L297.75 145.489L290.319 144.692L288.824 158.612ZM223.829 151.634L222.334 165.554L222.334 165.554L223.829 151.634ZM239.818 2.68729L241.312 -11.2327L241.312 -11.2327L239.818 2.68729ZM410.043 20.961L408.549 34.881C414.686 35.5399 419.128 41.0494 418.469 47.1869L432.389 48.6812L446.309 50.1755C448.618 28.6623 433.051 9.35045 411.538 7.04093L410.043 20.961ZM432.389 48.6812L418.469 47.1869L407.854 146.068L421.774 147.562L435.694 149.057L446.309 50.1755L432.389 48.6812ZM421.774 147.562L407.854 146.068C407.195 152.205 401.685 156.647 395.548 155.988L394.054 169.908L392.559 183.828C414.073 186.137 433.384 170.569 435.694 149.057L421.774 147.562ZM394.054 169.908L395.548 155.988L330.555 149.011L329.061 162.931L327.567 176.851L392.559 183.828L394.054 169.908ZM329.061 162.931L318.327 153.943L299.811 176.058L310.545 185.046L321.279 194.033L339.795 171.918L329.061 162.931ZM310.545 185.046L299.811 176.058C303.907 171.166 311.657 171.998 314.622 177.648L302.225 184.153L289.827 190.657C296.122 202.655 312.581 204.422 321.279 194.033L310.545 185.046ZM302.225 184.153L314.622 177.648L301.222 152.107L288.824 158.612L276.427 165.116L289.827 190.657L302.225 184.153ZM288.824 158.612L290.319 144.692L225.323 137.714L223.829 151.634L222.334 165.554L287.33 172.532L288.824 158.612ZM223.829 151.634L225.323 137.714C219.186 137.055 214.744 131.546 215.403 125.407L201.483 123.913L187.563 122.419C185.254 143.931 200.821 163.245 222.334 165.554L223.829 151.634ZM201.483 123.913L215.403 125.407L226.018 26.5272L212.098 25.0329L198.178 23.5386L187.563 122.419L201.483 123.913ZM212.098 25.0329L226.018 26.5272C226.677 20.3898 232.186 15.9485 238.324 16.6073L239.818 2.68729L241.312 -11.2327C219.799 -13.5421 200.487 2.02539 198.178 23.5386L212.098 25.0329ZM239.818 2.68729L238.324 16.6073L408.549 34.881L410.043 20.961L411.537 7.04093L241.312 -11.2327L239.818 2.68729Z" fill="#FF7710" mask="url(#path-1-inside-1_1674_26256)"/>
<path d="M390.703 82.2182C394.547 82.6308 397.997 79.8492 398.41 76.0053C398.823 72.1614 396.041 68.7108 392.197 68.2982L390.703 82.2182ZM240 59L239.253 65.96L390.703 82.2182L391.45 75.2582L392.197 68.2982L240.747 52.04L240 59Z" fill="#FF7710"/>
<path d="M364.811 115.459C368.655 115.872 372.105 113.09 372.518 109.246C372.931 105.402 370.149 101.952 366.305 101.539L364.811 115.459ZM240.393 95.0625L239.645 102.023L364.811 115.459L365.558 108.499L366.305 101.539L241.14 88.1025L240.393 95.0625Z" fill="#FF7710"/>
</g>
<g opacity="0.1">
<mask id="mask0_1674_26256" style="mask-type:alpha" maskUnits="userSpaceOnUse" x="0" y="135" width="200" height="222">
<path d="M37.4827 331.399L7.55969 186.929C5.04144 174.77 12.8562 162.873 25.0145 160.354L106.706 143.434C112.544 142.225 118.624 143.385 123.608 146.658L157.868 169.161C162.851 172.434 166.33 177.554 167.54 183.392L191.584 299.481C194.102 311.639 186.288 323.537 174.129 326.055L64.0569 348.854C51.8986 351.372 40.0009 343.557 37.4827 331.399Z" fill="#F7F8F8" stroke="#FF7710" stroke-width="14"/>
</mask>
<g mask="url(#mask0_1674_26256)">
<path d="M37.4827 331.399L7.55969 186.929C5.04144 174.77 12.8562 162.873 25.0145 160.354L106.706 143.434C112.544 142.225 118.624 143.385 123.608 146.658L157.868 169.161C162.851 172.434 166.33 177.554 167.54 183.392L191.584 299.481C194.102 311.639 186.288 323.537 174.129 326.055L64.0569 348.854C51.8986 351.372 40.0009 343.557 37.4827 331.399Z" fill="#F7F7F7" stroke="#FF7710" stroke-width="14"/>
<path d="M118.819 181.74L109.699 137.711L176.135 181.348L132.106 190.467C126.027 191.726 120.078 187.819 118.819 181.74Z" fill="#FFE0C7" stroke="#FF7710" stroke-width="14"/>
<path d="M143.082 229.851C146.868 229.067 149.301 225.362 148.517 221.577C147.733 217.791 144.029 215.358 140.243 216.142L143.082 229.851ZM53.5332 241.25L54.9529 248.105L143.082 229.851L141.663 222.996L140.243 216.142L52.1135 234.395L53.5332 241.25Z" fill="#FF7710"/>
<path d="M133.905 264.432C137.691 263.648 140.124 259.943 139.34 256.158C138.556 252.372 134.851 249.939 131.066 250.723L133.905 264.432ZM60.0234 272.586L61.4432 279.44L133.905 264.432L132.485 257.577L131.066 250.723L58.6037 265.731L60.0234 272.586Z" fill="#FF7710"/>
<path d="M140.393 295.768C144.179 294.984 146.612 291.279 145.828 287.494C145.044 283.708 141.34 281.275 137.554 282.059L140.393 295.768ZM66.5117 303.922L67.9314 310.776L140.393 295.768L138.974 288.913L137.554 282.059L65.092 297.067L66.5117 303.922Z" fill="#FF7710"/>
</g>
</g>
</svg>
