<svg height="352" viewBox="0 0 1440 352" fill="none" xmlns="http://www.w3.org/2000/svg">
<g clip-path="url(#clip0_1330_20437)">
<rect width="1440" height="352" fill="#F7F7F7"/>
<path d="M217.646 154.79H213.743V144.286H207.354V150.091H192.436V135.634H207.354V141.104H213.743V133.359H217.646V154.79ZM194.773 161.901C196.796 161.586 198.59 161.014 200.156 160.185C201.731 159.348 202.949 158.362 203.811 157.227C204.681 156.083 205.12 154.914 205.128 153.721V152.727H209.144V153.721C209.135 154.972 209.554 156.17 210.399 157.314C211.244 158.449 212.454 159.423 214.029 160.235C215.604 161.047 217.439 161.602 219.536 161.901L217.994 164.959C215.475 164.577 213.271 163.823 211.381 162.696C209.492 161.569 208.066 160.181 207.105 158.532C206.45 159.617 205.588 160.599 204.519 161.478C203.459 162.348 202.22 163.081 200.802 163.678C199.385 164.275 197.844 164.702 196.178 164.959L194.773 161.901ZM203.512 146.959V138.816H196.315V146.959H203.512ZM231.221 139.624C231.212 140.876 231.42 142.048 231.842 143.142C232.273 144.236 232.928 145.21 233.806 146.064C234.685 146.909 235.783 147.584 237.1 148.09L235.049 151.086C233.715 150.564 232.576 149.843 231.631 148.923C230.694 148.003 229.953 146.925 229.406 145.691C228.817 147.116 228.013 148.363 226.994 149.432C225.983 150.501 224.761 151.33 223.327 151.919L221.189 148.898C222.581 148.326 223.745 147.559 224.682 146.598C225.618 145.637 226.315 144.559 226.77 143.366C227.234 142.173 227.466 140.925 227.466 139.624V138.953H222.121V135.808H236.355V138.953H231.221V139.624ZM227.019 159.166C227.011 157.948 227.446 156.895 228.324 156.008C229.203 155.122 230.462 154.442 232.103 153.97C233.744 153.497 235.675 153.261 237.896 153.261C240.1 153.261 242.019 153.497 243.652 153.97C245.292 154.442 246.556 155.122 247.443 156.008C248.338 156.895 248.786 157.948 248.786 159.166C248.786 160.384 248.338 161.436 247.443 162.323C246.556 163.218 245.292 163.902 243.652 164.374C242.019 164.847 240.1 165.083 237.896 165.083C235.675 165.083 233.744 164.847 232.103 164.374C230.462 163.902 229.203 163.218 228.324 162.323C227.446 161.436 227.011 160.384 227.019 159.166ZM230.91 159.166C230.902 160.11 231.507 160.831 232.725 161.329C233.943 161.826 235.667 162.075 237.896 162.075C240.1 162.075 241.812 161.826 243.03 161.329C244.248 160.831 244.862 160.11 244.87 159.166C244.862 158.552 244.58 158.026 244.024 157.587C243.469 157.148 242.67 156.812 241.625 156.58C240.581 156.348 239.338 156.232 237.896 156.232C236.437 156.232 235.182 156.348 234.129 156.58C233.085 156.812 232.286 157.148 231.73 157.587C231.183 158.026 230.91 158.552 230.91 159.166ZM238.132 133.968H241.837V141.327H244.907V133.384H248.624V152.677H244.907V144.51H241.837V151.695H238.132V133.968ZM278.284 165.182H274.343V133.359H278.284V165.182ZM252.863 146.884C252.863 144.638 253.215 142.67 253.919 140.979C254.632 139.28 255.614 137.971 256.865 137.051C258.125 136.123 259.559 135.659 261.166 135.659C262.749 135.659 264.166 136.123 265.418 137.051C266.677 137.971 267.659 139.28 268.364 140.979C269.077 142.67 269.433 144.638 269.433 146.884C269.433 149.146 269.077 151.131 268.364 152.838C267.659 154.537 266.677 155.847 265.418 156.767C264.166 157.678 262.749 158.134 261.166 158.134C259.559 158.134 258.125 157.678 256.865 156.767C255.606 155.847 254.624 154.537 253.919 152.838C253.215 151.131 252.863 149.146 252.863 146.884ZM256.629 146.884C256.629 148.483 256.816 149.867 257.188 151.036C257.57 152.196 258.1 153.083 258.78 153.696C259.468 154.301 260.263 154.604 261.166 154.604C262.053 154.604 262.832 154.297 263.503 153.684C264.183 153.07 264.709 152.184 265.082 151.023C265.463 149.863 265.654 148.483 265.654 146.884C265.654 145.293 265.463 143.921 265.082 142.769C264.709 141.609 264.183 140.722 263.503 140.109C262.832 139.496 262.053 139.189 261.166 139.189C260.263 139.189 259.468 139.496 258.78 140.109C258.1 140.722 257.57 141.609 257.188 142.769C256.816 143.921 256.629 145.293 256.629 146.884ZM293.586 140.992C293.578 142.89 293.88 144.75 294.493 146.573C295.107 148.388 295.998 150.017 297.166 151.459C298.335 152.892 299.719 153.994 301.318 154.765L298.944 157.898C297.261 157.052 295.803 155.838 294.568 154.256C293.333 152.673 292.368 150.841 291.672 148.761C290.951 150.982 289.94 152.938 288.638 154.628C287.346 156.311 285.812 157.599 284.039 158.494L281.627 155.337C283.285 154.558 284.719 153.419 285.928 151.919C287.147 150.41 288.075 148.707 288.713 146.809C289.351 144.903 289.674 142.964 289.683 140.992V135.907H293.586V140.992ZM303.207 133.359H307.123V145.815H312.021V149.134H307.123V165.108H303.207V133.359ZM324.029 142.372C324.021 144.029 324.331 145.703 324.961 147.394C325.599 149.084 326.519 150.622 327.721 152.006C328.931 153.39 330.344 154.459 331.96 155.213L329.772 158.296C328.032 157.483 326.503 156.286 325.185 154.703C323.876 153.112 322.852 151.289 322.115 149.233C321.377 151.471 320.329 153.46 318.97 155.2C317.61 156.932 316.04 158.229 314.258 159.091L311.958 156.008C313.591 155.238 315.025 154.123 316.26 152.664C317.494 151.198 318.443 149.561 319.106 147.754C319.769 145.948 320.105 144.153 320.113 142.372V139.699H313.189V136.492H330.667V139.699H324.029V142.372ZM333.601 133.359H337.516V145.715H342.414V148.997H337.516V165.108H333.601V133.359ZM369.687 165.182H365.759V148.91H359.618V145.753H365.759V133.359H369.687V165.182ZM342.948 156.095C344.548 155.366 345.936 154.33 347.113 152.988C348.29 151.645 349.185 150.141 349.798 148.475C350.411 146.809 350.718 145.131 350.718 143.441V141.775H343.906V138.655H350.743V134.03H354.646V138.655H361.309V141.775H354.609V143.441C354.6 145.057 354.911 146.66 355.541 148.251C356.171 149.843 357.082 151.285 358.276 152.577C359.469 153.862 360.878 154.865 362.502 155.586L360.389 158.581C358.616 157.819 357.07 156.696 355.752 155.213C354.443 153.729 353.424 152.01 352.694 150.054C351.99 152.126 350.983 153.953 349.674 155.536C348.364 157.119 346.823 158.312 345.049 159.116L342.948 156.095ZM400.031 164.735H378.762V153.547H400.031V164.735ZM374.647 134.888H388.955V144.286H378.563V147.829C381.19 147.82 383.473 147.758 385.412 147.642C387.36 147.518 389.344 147.294 391.367 146.971L391.652 150.153C389.597 150.485 387.567 150.713 385.561 150.837C383.556 150.953 381.194 151.011 378.476 151.011H377.22H374.697V141.34H385.139V138.058H374.647V134.888ZM396.152 161.577V156.568H382.64V161.577H396.152ZM390.695 140.134H396.128V133.384H400.031V152.043H396.128V143.304H390.695V140.134ZM414.115 135.547C415.772 135.547 417.264 135.874 418.59 136.529C419.916 137.184 420.956 138.095 421.71 139.264C422.464 140.424 422.841 141.746 422.841 143.229C422.841 144.713 422.464 146.039 421.71 147.207C420.956 148.376 419.916 149.287 418.59 149.942C417.272 150.588 415.781 150.912 414.115 150.912C412.466 150.912 410.974 150.588 409.64 149.942C408.314 149.287 407.274 148.376 406.52 147.207C405.765 146.039 405.388 144.713 405.388 143.229C405.388 141.754 405.765 140.432 406.52 139.264C407.274 138.095 408.314 137.184 409.64 136.529C410.974 135.874 412.466 135.547 414.115 135.547ZM405.04 155.3C408.637 155.3 412.055 155.233 415.296 155.101C418.536 154.96 421.598 154.682 424.482 154.268L424.781 157.102C422.584 157.525 420.305 157.84 417.944 158.047C415.59 158.254 413.373 158.387 411.293 158.445C409.221 158.494 406.934 158.519 404.431 158.519L403.959 155.3H405.04ZM409.267 143.229C409.259 144.099 409.462 144.858 409.876 145.504C410.299 146.151 410.879 146.648 411.616 146.996C412.354 147.344 413.187 147.518 414.115 147.518C415.051 147.518 415.892 147.344 416.638 146.996C417.384 146.648 417.968 146.151 418.391 145.504C418.814 144.858 419.025 144.099 419.025 143.229C419.025 142.367 418.814 141.613 418.391 140.967C417.968 140.32 417.384 139.823 416.638 139.475C415.892 139.119 415.051 138.941 414.115 138.941C413.187 138.941 412.354 139.119 411.616 139.475C410.879 139.823 410.299 140.32 409.876 140.967C409.462 141.613 409.259 142.367 409.267 143.229ZM426.372 133.359H430.275V165.182H426.372V133.359ZM199.87 189.329C201.18 189.329 202.385 189.548 203.488 189.988C204.598 190.419 205.535 191.028 206.297 191.815H213.768V188.359H217.659V204.395H213.768V201.349H206.359C205.597 202.162 204.656 202.791 203.537 203.239C202.419 203.686 201.196 203.91 199.87 203.91C198.279 203.91 196.845 203.604 195.569 202.99C194.293 202.369 193.29 201.503 192.561 200.392C191.84 199.282 191.483 198.018 191.492 196.601C191.483 195.192 191.84 193.936 192.561 192.834C193.29 191.732 194.293 190.874 195.569 190.261C196.845 189.64 198.279 189.329 199.87 189.329ZM195.209 196.601C195.209 197.43 195.407 198.159 195.805 198.789C196.203 199.41 196.754 199.895 197.459 200.243C198.163 200.583 198.967 200.757 199.87 200.765C200.749 200.757 201.536 200.583 202.232 200.243C202.936 199.895 203.483 199.41 203.873 198.789C204.271 198.159 204.47 197.43 204.47 196.601C204.47 195.78 204.271 195.064 203.873 194.45C203.483 193.829 202.936 193.352 202.232 193.021C201.536 192.681 200.749 192.511 199.87 192.511C198.967 192.511 198.163 192.681 197.459 193.021C196.754 193.352 196.203 193.829 195.805 194.45C195.407 195.064 195.209 195.78 195.209 196.601ZM196.713 205.849H217.659V214.091H200.666V216.64H218.678V219.735H196.75V211.207H213.768V208.87H196.713V205.849ZM207.988 194.873C208.128 195.436 208.199 196.012 208.199 196.601C208.199 197.156 208.133 197.72 208 198.291H213.768V194.873H207.988ZM248.065 207.242H244.161V199.472H238.729V196.278H244.161V188.359H248.065V207.242ZM221.35 204.047C223 203.483 224.408 202.671 225.577 201.61C226.754 200.541 227.641 199.331 228.237 197.981C228.842 196.63 229.145 195.242 229.145 193.816V193.58H222.519V190.423H239.699V193.58H233.123V193.779C233.123 195.097 233.408 196.377 233.98 197.62C234.552 198.855 235.397 199.965 236.516 200.952C237.643 201.93 239.002 202.684 240.594 203.214L238.642 206.309C236.918 205.729 235.426 204.867 234.167 203.724C232.907 202.58 231.921 201.238 231.208 199.696C230.495 201.428 229.476 202.941 228.15 204.233C226.824 205.526 225.237 206.496 223.389 207.142L221.35 204.047ZM226.497 214.079C226.497 212.819 226.928 211.738 227.79 210.834C228.66 209.923 229.907 209.227 231.531 208.746C233.156 208.265 235.083 208.025 237.312 208.025C239.549 208.025 241.48 208.265 243.105 208.746C244.729 209.227 245.976 209.923 246.846 210.834C247.716 211.738 248.152 212.819 248.152 214.079C248.152 215.338 247.716 216.42 246.846 217.323C245.976 218.235 244.729 218.931 243.105 219.412C241.48 219.892 239.549 220.133 237.312 220.133C235.083 220.133 233.156 219.892 231.531 219.412C229.907 218.931 228.66 218.235 227.79 217.323C226.928 216.42 226.497 215.338 226.497 214.079ZM230.388 214.079C230.379 215.065 230.976 215.819 232.178 216.341C233.379 216.863 235.091 217.116 237.312 217.099C239.533 217.116 241.244 216.863 242.446 216.341C243.656 215.819 244.265 215.065 244.273 214.079C244.265 213.093 243.66 212.338 242.458 211.816C241.257 211.294 239.541 211.033 237.312 211.033C235.083 211.033 233.367 211.294 232.165 211.816C230.972 212.338 230.379 213.093 230.388 214.079ZM286.281 219.735H265.273V207.95H286.281V219.735ZM261.494 190.124H265.36V201.772C267.63 201.747 269.806 201.64 271.886 201.449C273.966 201.258 276.058 200.952 278.163 200.529L278.586 203.811C276.249 204.291 273.916 204.623 271.587 204.805C269.259 204.988 266.748 205.075 264.054 205.066H261.494V190.124ZM282.452 216.577V211.058H269.139V216.577H282.452ZM274.074 193.928H282.377V188.359H286.281V206.57H282.377V197.086H274.074V193.928ZM316.463 220.108H312.559V188.359H316.463V220.108ZM290.37 211.095C292.011 210.366 293.437 209.334 294.646 208C295.856 206.666 296.776 205.166 297.406 203.5C298.044 201.834 298.363 200.148 298.363 198.441V196.775H291.377V193.655H298.338V189.03H302.229V193.655H309.091V196.775H302.242V198.441C302.242 200.065 302.565 201.681 303.211 203.289C303.858 204.888 304.79 206.33 306.008 207.615C307.235 208.899 308.677 209.89 310.334 210.586L308.209 213.594C306.419 212.84 304.848 211.717 303.497 210.225C302.155 208.733 301.111 207.01 300.365 205.054C299.635 207.134 298.595 208.97 297.245 210.561C295.894 212.144 294.311 213.329 292.496 214.116L290.37 211.095ZM346.197 200.43H324.17V189.503H328.06V197.334H346.197V200.43ZM320.415 204.134H349.467V207.217H320.415V204.134ZM323.909 210.026H327.812V216.217H346.396V219.387H323.909V210.026ZM543.532 196.178H547.969V199.435H543.532V206.906H539.603V188.359H543.532V196.178ZM518.483 191.318H525.979V188.11H529.87V191.318H537.341V194.425H518.483V191.318ZM520.124 201.101C520.124 199.99 520.447 199.012 521.094 198.167C521.748 197.322 522.664 196.667 523.841 196.203C525.026 195.739 526.389 195.507 527.931 195.507C529.447 195.507 530.79 195.743 531.958 196.215C533.127 196.68 534.038 197.334 534.693 198.18C535.348 199.017 535.675 199.99 535.675 201.101C535.675 202.22 535.348 203.206 534.693 204.059C534.038 204.905 533.127 205.559 531.958 206.023C530.79 206.479 529.447 206.703 527.931 206.695C526.389 206.703 525.026 206.479 523.841 206.023C522.664 205.559 521.748 204.905 521.094 204.059C520.447 203.206 520.124 202.22 520.124 201.101ZM522.983 208.174H526.862V210.921H539.603V208.174H543.532V219.735H522.983V208.174ZM523.916 201.101C523.907 201.664 524.069 202.153 524.4 202.568C524.732 202.974 525.2 203.285 525.805 203.5C526.41 203.715 527.119 203.823 527.931 203.823C528.735 203.823 529.439 203.715 530.044 203.5C530.649 203.285 531.117 202.974 531.449 202.568C531.788 202.153 531.963 201.664 531.971 201.101C531.963 200.554 531.788 200.077 531.449 199.671C531.109 199.257 530.637 198.942 530.032 198.727C529.427 198.511 528.726 198.407 527.931 198.416C527.127 198.407 526.418 198.511 525.805 198.727C525.2 198.942 524.732 199.257 524.4 199.671C524.069 200.077 523.907 200.554 523.916 201.101ZM539.603 216.64V213.954H526.862V216.64H539.603ZM575.379 220.108H571.488V188.359H575.379V220.108ZM550.679 191.43H554.545V208.808C559.41 208.75 564.104 208.273 568.629 207.378L569.127 210.635C566.475 211.182 563.856 211.576 561.27 211.816C558.685 212.048 556.062 212.164 553.401 212.164H550.679V191.43ZM604.132 200.405H609.029V203.612H604.132V220.182H600.216V188.359H604.132V200.405ZM580.55 191.355H595.418V194.525H584.441V209.144C587.085 209.127 589.43 209.044 591.477 208.895C593.524 208.738 595.592 208.472 597.68 208.099L598.128 211.394C595.882 211.783 593.665 212.048 591.477 212.189C589.297 212.322 586.732 212.388 583.782 212.388H583.161H580.55V191.355Z" fill="#151515"/>
<path d="M373.126 190.137C375.389 190.137 377.419 190.497 379.217 191.218C381.016 191.931 382.425 192.938 383.444 194.239C384.463 195.532 384.973 197.019 384.973 198.702C384.973 200.268 384.554 201.66 383.717 202.878C382.889 204.097 381.724 205.079 380.224 205.825C378.733 206.57 377.013 207.039 375.065 207.229V213.059H387.72V216.267H358.669V213.059H371.187V207.229C369.256 207.039 367.545 206.57 366.053 205.825C364.561 205.079 363.401 204.097 362.572 202.878C361.744 201.652 361.329 200.26 361.329 198.702C361.329 197.019 361.835 195.532 362.846 194.239C363.865 192.938 365.27 191.931 367.06 191.218C368.858 190.497 370.88 190.137 373.126 190.137ZM365.158 198.702C365.158 199.829 365.494 200.807 366.165 201.635C366.844 202.464 367.785 203.098 368.987 203.537C370.188 203.977 371.568 204.2 373.126 204.209C374.692 204.2 376.081 203.977 377.291 203.537C378.5 203.098 379.441 202.464 380.112 201.635C380.792 200.807 381.132 199.829 381.132 198.702C381.132 197.616 380.792 196.663 380.112 195.843C379.441 195.022 378.496 194.392 377.278 193.953C376.068 193.514 374.684 193.294 373.126 193.294C371.576 193.294 370.197 193.514 368.987 193.953C367.785 194.392 366.844 195.022 366.165 195.843C365.494 196.663 365.158 197.616 365.158 198.702ZM414.72 198.316H392.779V188.782H396.633V195.184H414.72V198.316ZM389.025 200.778H418.076V203.885H389.025V200.778ZM392.456 206.123H414.508V214.228H396.446V216.689H415.553V219.735H392.506V211.381H410.642V209.144H392.456V206.123ZM433.913 188.844C436.324 188.844 438.384 189.055 440.091 189.478C441.798 189.892 443.099 190.506 443.994 191.318C444.898 192.13 445.349 193.116 445.349 194.276C445.349 195.453 444.898 196.452 443.994 197.272C443.099 198.093 441.798 198.714 440.091 199.137C438.384 199.551 436.324 199.762 433.913 199.771C431.501 199.762 429.438 199.551 427.722 199.137C426.015 198.714 424.71 198.093 423.806 197.272C422.911 196.452 422.464 195.453 422.464 194.276C422.464 193.116 422.911 192.13 423.806 191.318C424.71 190.506 426.015 189.892 427.722 189.478C429.438 189.055 431.501 188.844 433.913 188.844ZM419.456 201.474H448.407V204.594H419.456V201.474ZM422.862 206.72H444.802V214.501H426.728V216.863H445.672V219.847H422.899V211.729H440.949V209.628H422.862V206.72ZM426.554 194.276C426.545 195.146 427.154 195.793 428.381 196.215C429.616 196.638 431.46 196.854 433.913 196.862C436.391 196.854 438.247 196.638 439.482 196.215C440.717 195.793 441.334 195.146 441.334 194.276C441.334 193.456 440.704 192.826 439.444 192.387C438.185 191.948 436.341 191.728 433.913 191.728C431.501 191.728 429.665 191.948 428.406 192.387C427.154 192.826 426.537 193.456 426.554 194.276ZM484.199 220.108H480.259V188.359H484.199V220.108ZM457.883 211.369C460.634 210.059 462.918 208.588 464.733 206.956C466.556 205.315 467.956 203.496 468.934 201.499C469.912 199.493 470.517 197.268 470.749 194.823H459.499V191.728H474.727C474.719 195.035 474.238 198.076 473.285 200.852C472.34 203.62 470.774 206.16 468.586 208.472C466.407 210.785 463.523 212.794 459.934 214.501L457.883 211.369ZM517.079 208.696H488.028V205.539H500.62V202.891H491.707V194.475H509.583V192.101H491.633V189.043H513.486V197.322H495.586V199.858H514.108V202.891H504.486V205.539H517.079V208.696ZM491.272 210.698H513.66V219.921H509.732V213.805H491.272V210.698Z" fill="#FF7710"/>
<g opacity="0.1">
<path d="M958.654 350.425L933.719 261.868C930.726 251.236 936.918 240.19 947.55 237.196L973.117 229.998L982.513 193.069C983.394 189.607 986.055 186.877 989.494 185.909L1031.12 174.188C1034.56 173.22 1038.25 174.16 1040.81 176.654L1065.62 200.837L1093.05 193.113C1103.68 190.119 1114.73 196.312 1117.72 206.944L1143.47 298.388C1146.46 309.021 1140.27 320.067 1129.64 323.06L983.326 364.256C972.693 367.25 961.647 361.057 958.654 350.425Z" fill="white"/>
<path d="M1023.11 215.921L973.117 229.998M973.117 229.998L947.55 237.196C936.918 240.19 930.726 251.236 933.719 261.868L958.654 350.425C961.647 361.057 972.693 367.25 983.326 364.256L1129.64 323.06C1140.27 320.067 1146.46 309.021 1143.47 298.388L1117.72 206.944C1114.73 196.312 1103.68 190.119 1093.05 193.113L1065.62 200.837L1040.81 176.654C1038.25 174.16 1034.56 173.22 1031.12 174.188L989.494 185.909C986.055 186.877 983.394 189.607 982.513 193.069L973.117 229.998Z" stroke="#FF7710" stroke-width="14" stroke-linecap="round"/>
<circle cx="1037.77" cy="280.881" r="33" transform="rotate(-15.7252 1037.77 280.881)" stroke="#FF7710" stroke-width="14"/>
<circle cx="1082.26" cy="230.437" r="7.5" transform="rotate(-15.7252 1082.26 230.437)" fill="#FF7710"/>
</g>
<g opacity="0.1">
<path d="M1298.86 130.099L1266.03 139.654C1264.32 140.154 1263 141.53 1262.57 143.265L1257.23 165.062C1256.85 166.626 1257.24 168.279 1258.29 169.502L1281.98 197.207C1284.63 200.303 1289.67 199.104 1290.64 195.148L1305.11 136.09C1306.03 132.352 1302.55 129.023 1298.86 130.099Z" stroke="#FF7710" stroke-width="14" stroke-linecap="round"/>
<rect x="1143.92" y="91.9963" width="123.237" height="71.9127" rx="13" transform="rotate(13.7709 1143.92 91.9963)" stroke="#FF7710" stroke-width="14"/>
<circle cx="1177.14" cy="75.144" r="22.0616" transform="rotate(13.7709 1177.14 75.144)" stroke="#FF7710" stroke-width="14"/>
<circle cx="1239.86" cy="84.2787" r="29.6024" transform="rotate(13.7709 1239.86 84.2787)" stroke="#FF7710" stroke-width="14"/>
</g>
</g>
<defs>
<clipPath id="clip0_1330_20437">
<rect width="1440" height="352" fill="white"/>
</clipPath>
</defs>
</svg>
