<svg width="405" height="347" viewBox="0 0 405 347" fill="none" xmlns="http://www.w3.org/2000/svg">
<g opacity="0.1">
<path d="M40.6537 325.109L15.7194 236.552C12.7258 225.92 18.9181 214.874 29.5504 211.88L55.117 204.681L64.5126 167.753C65.3935 164.29 68.0547 161.561 71.4936 160.593L113.121 148.872C116.56 147.904 120.254 148.844 122.812 151.338L147.615 175.521L175.048 167.796C185.681 164.803 196.727 170.995 199.72 181.627L225.468 273.072C228.461 283.704 222.269 294.75 211.637 297.744L65.3256 338.939C54.6933 341.933 43.6473 335.741 40.6537 325.109Z" fill="white"/>
<path d="M105.112 190.605L55.117 204.681M55.117 204.681L29.5504 211.88C18.9181 214.874 12.7258 225.92 15.7194 236.552L40.6537 325.109C43.6473 335.741 54.6933 341.933 65.3256 338.939L211.637 297.744C222.269 294.75 228.461 283.704 225.468 273.072L199.72 181.627C196.727 170.995 185.681 164.803 175.048 167.796L147.615 175.521L122.812 151.338C120.254 148.844 116.56 147.904 113.121 148.872L71.4936 160.593C68.0547 161.561 65.3935 164.29 64.5126 167.753L55.117 204.681Z" stroke="#FF7710" stroke-width="14" stroke-linecap="round"/>
<circle cx="119.767" cy="255.564" r="33" transform="rotate(-15.7252 119.767 255.564)" stroke="#FF7710" stroke-width="14"/>
<circle cx="164.26" cy="205.116" r="7.5" transform="rotate(-15.7252 164.26 205.116)" fill="#FF7710"/>
</g>
<g opacity="0.1">
<path d="M380.858 104.783L348.03 114.338C346.315 114.837 344.997 116.214 344.571 117.949L339.229 139.746C338.846 141.309 339.239 142.962 340.286 144.186L363.981 171.891C366.628 174.986 371.667 173.787 372.637 169.831L387.111 110.773C388.027 107.035 384.553 103.707 380.858 104.783Z" stroke="#FF7710" stroke-width="14" stroke-linecap="round"/>
<rect x="225.917" y="66.676" width="123.237" height="71.9127" rx="13" transform="rotate(13.7709 225.917 66.676)" stroke="#FF7710" stroke-width="14"/>
<circle cx="259.144" cy="49.8276" r="22.0616" transform="rotate(13.7709 259.144 49.8276)" stroke="#FF7710" stroke-width="14"/>
<circle cx="321.863" cy="58.9623" r="29.6024" transform="rotate(13.7709 321.863 58.9623)" stroke="#FF7710" stroke-width="14"/>
</g>
</svg>
