<svg width="368" height="254" viewBox="0 0 368 254" fill="none" xmlns="http://www.w3.org/2000/svg">
<path opacity="0.1" d="M12.6201 108.057L7.55507 71.9105C7.24851 69.7228 8.77353 67.7007 10.9613 67.3942L80.8778 57.5973C82.0687 57.4304 83.2715 57.8082 84.1532 58.626L121.061 92.8624M12.6201 108.057L31.4923 242.742C31.7989 244.929 33.8209 246.454 36.0087 246.148L213.277 221.309C215.465 221.002 216.99 218.98 216.683 216.792L198.366 86.0693C198.059 83.8815 196.037 82.3565 193.85 82.6631L121.061 92.8624M12.6201 108.057L121.061 92.8624" stroke="#FF7710" stroke-width="14"/>
<path opacity="0.1" d="M323.782 25.7418C323.691 24.7456 323.337 23.7916 322.755 22.9778C322.173 22.1641 321.385 21.52 320.472 21.1119C319.559 20.7038 318.553 20.5465 317.559 20.656C316.565 20.7655 315.618 21.138 314.815 21.7352C312.911 23.1769 311.037 24.6611 309.192 26.1878C303.367 31.0227 297.904 36.2771 292.846 41.909C291.105 43.8456 288.241 44.4488 285.732 43.4098C278.133 40.2509 270.313 37.6512 262.335 35.6313C257.952 34.5296 254.356 38.4773 255.981 42.5918C256.35 43.5333 256.729 44.4692 257.12 45.3994C260.024 52.3895 263.356 59.1937 267.099 65.7733C268.394 68.0464 268.105 70.8207 266.381 72.7077C259.82 79.8722 253.947 87.6367 248.838 95.8989C246.542 99.6278 249.533 104.321 254.063 104.078C263.045 103.597 271.973 102.379 280.756 100.437C282.126 100.145 283.555 100.295 284.834 100.867C286.113 101.439 287.178 102.402 287.875 103.618C292.285 111.458 297.334 118.921 302.97 125.932C305.805 129.466 311.303 128.566 312.549 124.368C313.01 122.79 313.449 121.212 313.864 119.634C315.9 111.821 317.324 103.862 318.122 95.828C318.377 93.2842 320.246 91.216 322.809 90.6671C331.197 88.8605 339.446 86.4601 347.494 83.4841C351.644 81.95 352.19 76.6394 348.441 74.1074C341.618 69.5046 334.464 65.4132 327.037 61.8667C325.858 61.3171 324.877 60.4172 324.228 59.2898C323.579 58.1623 323.293 56.8621 323.41 55.5664C324.489 45.6615 324.616 35.6704 323.782 25.7418Z" fill="#FFC497" stroke="#FF7710" stroke-width="14" stroke-linecap="round" stroke-linejoin="round"/>
</svg>
