<svg width="54" height="54" viewBox="0 0 54 54" fill="none" xmlns="http://www.w3.org/2000/svg">
<circle cx="27" cy="27" r="27" fill="#151515"/>
<path d="M27 13C23.1978 13 22.7211 13.0161 21.2278 13.0842C19.7377 13.1522 18.72 13.3889 17.8294 13.7349C16.9088 14.0927 16.1281 14.5715 15.3498 15.3497C14.5715 16.128 14.0927 16.9089 13.735 17.8295C13.3889 18.72 13.1523 19.7377 13.0842 21.2278C13.0161 22.7211 13 23.1978 13 27C13 30.8022 13.0161 31.2789 13.0842 32.7722C13.1523 34.2623 13.3889 35.28 13.735 36.1705C14.0928 37.0911 14.5715 37.8719 15.3498 38.6503C16.1281 39.4285 16.9088 39.9073 17.8294 40.2651C18.72 40.6111 19.7377 40.8477 21.2278 40.9158C22.7211 40.9839 23.1978 41 27 41C30.8022 41 31.2789 40.9839 32.7722 40.9158C34.2623 40.8478 35.28 40.6111 36.1705 40.2651C37.0911 39.9073 37.8719 39.4285 38.6503 38.6503C39.4285 37.8719 39.9073 37.0911 40.2651 36.1705C40.6111 35.28 40.8478 34.2623 40.9158 32.7722C40.9839 31.2789 41 30.8022 41 27C41 23.1978 40.9839 22.7211 40.9158 21.2278C40.8478 19.7377 40.6111 18.72 40.2651 17.8295C39.9073 16.9089 39.4285 16.128 38.6503 15.3497C37.8719 14.5715 37.0911 14.0927 36.1705 13.7349C35.28 13.3889 34.2623 13.1522 32.7722 13.0842C31.2789 13.0161 30.8022 13 27 13ZM27 15.5225C30.7381 15.5225 31.1809 15.5368 32.6572 15.6042C34.0222 15.6664 34.7635 15.8945 35.2568 16.0862C35.9103 16.3402 36.3767 16.6435 36.8665 17.1334C37.3565 17.6233 37.6598 18.0897 37.9138 18.7432C38.1055 19.2365 38.3336 19.9778 38.3958 21.3428C38.4632 22.8191 38.4775 23.2619 38.4775 27C38.4775 30.7381 38.4632 31.1809 38.3958 32.6572C38.3336 34.0222 38.1055 34.7635 37.9138 35.2568C37.6598 35.9103 37.3565 36.3767 36.8665 36.8665C36.3767 37.3565 35.9103 37.6598 35.2568 37.9138C34.7635 38.1055 34.0222 38.3336 32.6572 38.3958C31.1812 38.4632 30.7384 38.4775 27 38.4775C23.2616 38.4775 22.8189 38.4632 21.3428 38.3958C19.9778 38.3336 19.2365 38.1055 18.7432 37.9138C18.0897 37.6598 17.6233 37.3565 17.1335 36.8665C16.6436 36.3767 16.3402 35.9103 16.0862 35.2568C15.8945 34.7635 15.6664 34.0222 15.6042 32.6572C15.5368 31.1809 15.5225 30.7381 15.5225 27C15.5225 23.2619 15.5368 22.8191 15.6042 21.3428C15.6664 19.9778 15.8945 19.2365 16.0862 18.7432C16.3402 18.0897 16.6436 17.6233 17.1334 17.1335C17.6233 16.6435 18.0897 16.3402 18.7432 16.0862C19.2365 15.8945 19.9778 15.6664 21.3428 15.6042C22.8191 15.5368 23.2619 15.5225 27 15.5225" fill="#F7F7F7"/>
<path d="M26.9998 31.6637C24.4224 31.6637 22.3331 29.5744 22.3331 26.9971C22.3331 24.4197 24.4224 22.3303 26.9998 22.3303C29.5771 22.3303 31.6664 24.4197 31.6664 26.9971C31.6664 29.5744 29.5771 31.6637 26.9998 31.6637ZM26.9998 19.8078C23.0292 19.8078 19.8105 23.0265 19.8105 26.9971C19.8105 30.9675 23.0292 34.1862 26.9998 34.1862C30.9702 34.1862 34.1889 30.9675 34.1889 26.9971C34.1889 23.0265 30.9702 19.8078 26.9998 19.8078ZM36.153 19.5238C36.153 20.4517 35.4008 21.2038 34.473 21.2038C33.5452 21.2038 32.793 20.4517 32.793 19.5238C32.793 18.5959 33.5452 17.8438 34.473 17.8438C35.4008 17.8438 36.153 18.5959 36.153 19.5238Z" fill="#F7F7F7"/>
</svg>
