<svg width="54" height="54" viewBox="0 0 54 54" fill="none" xmlns="http://www.w3.org/2000/svg">
<circle cx="27" cy="27" r="27" fill="#151515"/>
<path fill-rule="evenodd" clip-rule="evenodd" d="M27.0007 13.875C19.5879 13.875 13.584 19.879 13.584 27.2917C13.584 33.2285 17.4245 38.243 22.7576 40.0207C23.4285 40.1381 23.68 39.7356 23.68 39.3834C23.68 39.0648 23.6633 38.0082 23.6633 36.8846C20.2923 37.5051 19.4202 36.0628 19.1519 35.3081C19.001 34.9224 18.3469 33.7317 17.7767 33.413C17.3071 33.1615 16.6363 32.5409 17.7599 32.5242C18.8165 32.5074 19.5712 33.4969 19.8227 33.8994C21.0302 35.9286 22.9589 35.3584 23.7303 35.0063C23.8477 34.1342 24.1999 33.5472 24.5857 33.2118C21.6004 32.8764 18.4811 31.7192 18.4811 26.5873C18.4811 25.1282 19.001 23.9207 19.8563 22.9816C19.7221 22.6461 19.2525 21.2709 19.9904 19.4261C19.9904 19.4261 21.1141 19.074 23.68 20.8014C24.7534 20.4995 25.8938 20.3485 27.0342 20.3485C28.1746 20.3485 29.315 20.4995 30.3884 20.8014C32.9543 19.0572 34.0779 19.4261 34.0779 19.4261C34.8159 21.2709 34.3463 22.6461 34.2121 22.9816C35.0674 23.9207 35.5873 25.1115 35.5873 26.5873C35.5873 31.7359 32.4512 32.8764 29.466 33.2118C29.9523 33.631 30.3716 34.436 30.3716 35.6939C30.3716 37.4883 30.3548 38.9306 30.3548 39.3834C30.3548 39.7356 30.6064 40.1549 31.2772 40.0207C36.5768 38.243 40.4173 33.2118 40.4173 27.2917C40.4173 19.879 34.4134 13.875 27.0007 13.875Z" fill="#F7F7F7"/>
</svg>
