<svg width="92" height="92" viewBox="0 0 92 92" fill="none" xmlns="http://www.w3.org/2000/svg">
    <g filter="url(#filter0_d_795_15531)">
    <rect x="10" y="10" width="72" height="72" rx="29.9221" fill="#FF7710"/>
    <path d="M58.5293 30.9102L58.5294 29.5255H58.5293V30.9102ZM63.75 36.1309H65.1346V36.1308L63.75 36.1309ZM63.75 51.2832L65.1346 51.2833V51.2832H63.75ZM58.5293 56.5039V57.8885H58.5294L58.5293 56.5039ZM57.3779 56.5039V55.1193H55.9933V56.5039H57.3779ZM57.3779 61.4521L58.7625 61.4529V61.4521H57.3779ZM56.8555 61.6846L57.7817 60.6554L57.7817 60.6553L56.8555 61.6846ZM51.0986 56.5039L52.0248 55.4747L51.6299 55.1193H51.0986V56.5039ZM33.4678 56.5039L33.4677 57.8885H33.4678V56.5039ZM28.2471 51.2832H26.8625V51.2833L28.2471 51.2832ZM28.2471 36.1309L26.8625 36.1308V36.1309H28.2471ZM33.4678 30.9102V29.5255H33.4677L33.4678 30.9102ZM58.5293 30.9102L58.5292 32.2948C60.6478 32.2949 62.3653 34.0123 62.3654 36.1309L63.75 36.1309L65.1346 36.1308C65.1344 32.4829 62.1773 29.5257 58.5294 29.5255L58.5293 30.9102ZM63.75 36.1309H62.3654V51.2832H63.75H65.1346V36.1309H63.75ZM63.75 51.2832L62.3654 51.2831C62.3652 53.4017 60.6478 55.1192 58.5292 55.1193L58.5293 56.5039L58.5294 57.8885C62.1773 57.8883 65.1343 54.9311 65.1346 51.2833L63.75 51.2832ZM58.5293 56.5039V55.1193H57.3779V56.5039V57.8885H58.5293V56.5039ZM57.3779 56.5039H55.9933V61.4521H57.3779H58.7625V56.5039H57.3779ZM57.3779 61.4521L55.9933 61.4514C55.9938 60.5235 57.0929 60.0355 57.7817 60.6554L56.8555 61.6846L55.9292 62.7137C57.0211 63.6964 58.7618 62.923 58.7625 61.4529L57.3779 61.4521ZM56.8555 61.6846L57.7817 60.6553L52.0248 55.4747L51.0986 56.5039L50.1724 57.5331L55.9293 62.7138L56.8555 61.6846ZM51.0986 56.5039V55.1193H33.4678V56.5039V57.8885H51.0986V56.5039ZM33.4678 56.5039L33.4679 55.1193C31.3493 55.1192 29.6318 53.4017 29.6317 51.2831L28.2471 51.2832L26.8625 51.2833C26.8627 54.9311 29.8198 57.8883 33.4677 57.8885L33.4678 56.5039ZM28.2471 51.2832H29.6317V36.1309H28.2471H26.8625V51.2832H28.2471ZM28.2471 36.1309L29.6317 36.1309C29.6318 34.0123 31.3493 32.2949 33.4679 32.2948L33.4678 30.9102L33.4677 29.5255C29.8198 29.5258 26.8627 32.4829 26.8625 36.1308L28.2471 36.1309ZM33.4678 30.9102V32.2948H58.5293V30.9102V29.5255H33.4678V30.9102Z" fill="white"/>
    <path d="M51.1757 48.6352V51.6704H40.2986V42.944L32.6846 38.0117H41.7488V48.6352H51.1757Z" fill="white"/>
    <path d="M51.1757 42.944V38.0117H58.7897L51.1757 42.944Z" fill="white"/>
    </g>
    <defs>
    <filter id="filter0_d_795_15531" x="0.64935" y="0.64935" width="90.7013" height="90.7013" filterUnits="userSpaceOnUse" color-interpolation-filters="sRGB">
    <feFlood flood-opacity="0" result="BackgroundImageFix"/>
    <feColorMatrix in="SourceAlpha" type="matrix" values="0 0 0 0 0 0 0 0 0 0 0 0 0 0 0 0 0 0 127 0" result="hardAlpha"/>
    <feOffset/>
    <feGaussianBlur stdDeviation="4.67532"/>
    <feComposite in2="hardAlpha" operator="out"/>
    <feColorMatrix type="matrix" values="0 0 0 0 1 0 0 0 0 0.466667 0 0 0 0 0.0627451 0 0 0 0.5 0"/>
    <feBlend mode="normal" in2="BackgroundImageFix" result="effect1_dropShadow_795_15531"/>
    <feBlend mode="normal" in="SourceGraphic" in2="effect1_dropShadow_795_15531" result="shape"/>
    </filter>
    </defs>
    </svg>
    