<svg width="9" height="8" viewBox="0 0 9 8" fill="none" xmlns="http://www.w3.org/2000/svg">
<path fill-rule="evenodd" clip-rule="evenodd" d="M4.29307 0.936378C4.26638 0.898132 4.23084 0.866897 4.18949 0.84533C4.14813 0.823762 4.10218 0.8125 4.05554 0.8125C4.00889 0.8125 3.96294 0.823762 3.92159 0.84533C3.88023 0.866897 3.84469 0.898132 3.818 0.936378L1.98837 3.55046L0.494776 2.05628C0.454261 2.01567 0.402599 1.98799 0.346338 1.97677C0.290077 1.96555 0.231751 1.97129 0.178755 1.99326C0.125759 2.01523 0.0804787 2.05244 0.0486552 2.10017C0.0168317 2.1479 -0.000102179 2.20401 4.63867e-07 2.26138V6.02723C4.63867e-07 6.33455 0.12208 6.62927 0.339383 6.84657C0.556686 7.06388 0.851412 7.18596 1.15872 7.18596H6.95235C7.25966 7.18596 7.55438 7.06388 7.77169 6.84657C7.98899 6.62927 8.11107 6.33455 8.11107 6.02723V2.26138C8.11117 2.20401 8.09424 2.1479 8.06242 2.10017C8.03059 2.05244 7.98531 2.01523 7.93232 1.99326C7.87932 1.97129 7.82099 1.96555 7.76473 1.97677C7.70847 1.98799 7.65681 2.01567 7.61629 2.05628L6.1227 3.55046L4.29307 0.936378Z" fill="#FF7710"/>
</svg>
