<svg id="logo" xmlns="http://www.w3.org/2000/svg" viewBox="0 0 494 72"><defs><style>.cls-1{fill:#ff7710;}</style></defs><path class="cls-1" d="M50.26,55.12h51.92V72H41.82V69.91h0V26.17L0,0H50.26Zm51.92-28.95L144,0H102.18ZM208.41,41.06l-6.31,5.68L181,65.73,186.66,72l21.75-19.58L230.16,72l5.65-6.27-21.09-19Zm2.16-5.2H176V1.29h34.57Zm-8.1-25.93H184.1V27.22h18.37Zm12.25,11h10.74V40.31h8.44V0h-8.44V12.45H214.72Zm138.14-8.41h23.91V5H344v46.7h33.43V44.26H352.86Zm47.58,13.91h-7.81V.64h-8.44V71.16h8.44V34.83h7.81V71.16h8.44V.64h-8.44ZM308,0h-8.42V70H308V34.1H320V25.68H308ZM273,2.35h-8.85V15.67L244.55,47l7.13,4.46,16.87-27,16.87,27L292.56,47,273,15.67Zm210.28,14V0h-8.44V45h8.44V24.83H494V16.39ZM428.46,57h46.36V72h8.44V49.59h-54.8Zm-3-31.37a18.14,18.14,0,0,1,4.26-11.7H421V6.52h18.09V0h9.19V6.52h18.09V13.9h-8.75a18.2,18.2,0,1,1-32.13,11.7Zm27.95,0a9.76,9.76,0,1,0-9.76,9.76A9.75,9.75,0,0,0,453.43,25.6Z"/></svg>