<svg width="32" height="32" viewBox="0 0 32 32" fill="none" xmlns="http://www.w3.org/2000/svg">
<g clip-path="url(#clip0_20_85)">
<rect width="32" height="32" rx="16" fill="white"/>
<path d="M9.12809 3.3423L7.87865 4.06296C7.87865 4.06296 7.87498 4.06785 7.87621 4.07029L8.03086 4.3368C8.03086 4.3368 8.03514 4.34046 8.03819 4.33924L8.95816 3.80868C8.97344 3.79951 8.9875 3.79523 8.99483 3.79829C8.99972 3.79951 9.00889 3.80623 9.02234 3.82824L9.56759 4.77445C9.57004 4.77751 9.57309 4.77873 9.57737 4.7769L9.89034 4.59658C9.89401 4.59413 9.89523 4.59046 9.8934 4.5868L9.18677 3.36125C9.16843 3.32885 9.13909 3.33619 9.12931 3.34169L9.12809 3.3423Z" fill="#615F5F"/>
<path d="M10.4056 4.8606C10.4142 4.87527 10.7693 5.49141 10.7693 5.49141C10.7706 5.49385 10.7736 5.49446 10.7767 5.49324L11.0915 5.31231C11.0915 5.31231 11.0952 5.30742 11.0939 5.30559C11.0939 5.30559 10.3158 3.95657 10.3109 3.9474C10.3201 3.9419 10.6336 3.76158 10.6336 3.76158C10.6361 3.76036 10.6379 3.75608 10.6367 3.75424L10.4833 3.48774C10.4833 3.48774 10.4808 3.48529 10.4796 3.48529C10.479 3.48529 10.4772 3.48529 10.4759 3.48591C10.4759 3.48591 10.1611 3.66683 10.1526 3.67234C10.1471 3.66317 9.63422 2.7738 9.63422 2.7738C9.63238 2.77075 9.62933 2.77014 9.62688 2.77136L9.31208 2.9529C9.31208 2.9529 9.30841 2.95718 9.30963 2.96023C9.30963 2.96023 10.2437 4.57881 10.2467 4.58493C10.2467 4.58493 9.38298 5.08309 9.37443 5.08798C9.36831 5.07881 8.94165 4.33798 8.94165 4.33798C8.94042 4.33615 8.93676 4.33493 8.93431 4.33676L8.61951 4.51769C8.61951 4.51769 8.61584 4.52319 8.61706 4.52503C8.61706 4.52503 9.04495 5.26586 9.04984 5.27503C9.04128 5.28053 8.58833 5.54092 8.58833 5.54092C8.58589 5.54214 8.58466 5.54581 8.58589 5.54825L8.74054 5.81537C8.74054 5.81537 8.74482 5.81842 8.74787 5.8172L10.4056 4.86121V4.8606Z" fill="#615F5F"/>
<path d="M24.416 3.92359C24.416 3.92359 24.4148 3.92054 24.4129 3.91993L24.1171 3.74266C24.1171 3.74266 24.1103 3.74144 24.1091 3.7445C24.1091 3.7445 23.6323 4.53973 23.6268 4.5489L23.4581 4.44743C23.4636 4.43765 23.9416 3.64303 23.9416 3.64303C23.9422 3.64181 23.9422 3.64059 23.9422 3.63875C23.9422 3.63753 23.941 3.63631 23.9398 3.6357L23.6439 3.45843C23.6439 3.45843 23.6378 3.45782 23.636 3.46027L22.6714 5.06663L21.8492 4.57396C21.8389 4.56785 21.8327 4.5599 21.8297 4.54829C21.8272 4.53667 21.8309 4.52384 21.8401 4.50856C21.8401 4.50856 22.4862 3.43215 22.4911 3.42298C22.5003 3.42787 23.1237 3.80257 23.1237 3.80257C23.1256 3.8044 23.1299 3.80257 23.1311 3.80073L23.2894 3.53729C23.2894 3.53729 23.2894 3.53117 23.2876 3.52995L22.3352 2.95905C22.3352 2.95905 22.3291 2.95782 22.3279 2.96027L21.5387 4.27567C21.466 4.39731 21.4373 4.50428 21.4544 4.5923C21.4721 4.68154 21.532 4.75733 21.6347 4.81907L22.1133 5.10575C22.128 5.1143 22.3438 5.24389 22.507 5.34107L22.1329 5.96394C22.1329 5.96394 22.1317 5.96944 22.1347 5.97127L22.4306 6.14975C22.4306 6.14975 22.4336 6.15159 22.4348 6.15037C22.4361 6.14976 22.4373 6.14914 22.4379 6.14731C22.4379 6.14731 23.2894 4.73044 23.2949 4.72127C23.3041 4.72677 23.4551 4.81724 23.4636 4.82274C23.4581 4.83191 22.6066 6.24755 22.6066 6.24755C22.6054 6.25 22.606 6.25367 22.6084 6.25489L22.9037 6.43398C22.9037 6.43398 22.9061 6.43521 22.908 6.43398C22.9092 6.43398 22.911 6.43276 22.9116 6.43154L24.4148 3.92665C24.4148 3.92665 24.416 3.9242 24.416 3.92298V3.92359Z" fill="#615F5F"/>
<path d="M28.8929 9.37716L27.88 7.69806C27.88 7.69806 27.8751 7.6944 27.8721 7.69562L27.6092 7.85454C27.6092 7.85454 27.6056 7.86004 27.6068 7.86249L28.4192 9.2109C28.4259 9.22129 28.4314 9.23352 28.4302 9.24452C28.4283 9.25797 28.4149 9.26775 28.4014 9.27508L27.1392 10.0373C27.1355 10.0398 27.1349 10.0434 27.1361 10.0465L27.3274 10.3631C27.3293 10.3668 27.3336 10.3674 27.3366 10.3649L28.8752 9.43706C28.9088 9.40894 28.8929 9.37838 28.8929 9.37777V9.37716Z" fill="#615F5F"/>
<path d="M27.2254 10.7268C27.2254 10.7268 27.2254 10.7231 27.2247 10.7225C27.2247 10.7225 26.7357 9.91321 26.7308 9.90343C26.7394 9.89792 27.7064 9.31479 27.7064 9.31479C27.7095 9.31296 27.7101 9.30929 27.7089 9.30685L27.5261 9.00367C27.5261 9.00367 27.5212 9.00061 27.5182 9.00184C27.5182 9.00184 26.5511 9.58558 26.5426 9.59108L26.4124 9.37531C26.4209 9.36981 27.388 8.78668 27.388 8.78668C27.391 8.78484 27.3916 8.78179 27.3904 8.77873L27.2076 8.47555C27.2076 8.47555 27.2027 8.4725 27.2003 8.47372C27.2003 8.47372 26.2333 9.05685 26.2241 9.06235C26.2186 9.05379 25.8977 8.52201 25.8977 8.52201C25.8958 8.51956 25.8928 8.51895 25.8903 8.52017L25.6238 8.68032C25.6238 8.68032 25.6202 8.68521 25.622 8.68827L26.9491 10.8875C26.9491 10.8875 26.9546 10.8918 26.957 10.89L27.2229 10.7292C27.2229 10.7292 27.2247 10.7274 27.2247 10.7256L27.2254 10.7268Z" fill="#615F5F"/>
<path d="M20.8199 3.42421L18.3778 2.73105C18.3778 2.73105 18.3748 2.73044 18.3742 2.73105C18.3729 2.73166 18.3717 2.73289 18.3705 2.73411L18.2886 3.02506C18.2886 3.02506 18.2898 3.03118 18.2923 3.03179C18.2923 3.03179 19.3033 3.31846 19.3143 3.32152L19.2709 3.47494C19.2599 3.47188 18.5135 3.25978 18.5135 3.25978C18.5099 3.25917 18.5068 3.261 18.5056 3.26345L18.4261 3.54707C18.4261 3.54707 18.4261 3.55318 18.4298 3.55379C18.4298 3.55379 19.9445 3.9835 19.9543 3.98655C19.9506 3.99572 19.9146 4.1247 19.9121 4.13386C19.9023 4.13081 18.3876 3.70171 18.3876 3.70171C18.3864 3.7011 18.3839 3.7011 18.3833 3.70171C18.3821 3.70171 18.3815 3.70355 18.3815 3.70477L18.2599 4.13203C18.2354 4.21638 18.2177 4.31113 18.2666 4.37897C18.2965 4.42176 18.3442 4.45171 18.4176 4.4725L20.0723 4.94193C20.0753 4.94254 20.0784 4.94071 20.0796 4.93765L20.1615 4.64792C20.1627 4.64487 20.1609 4.64181 20.1579 4.64059L18.6517 4.21333C18.6443 4.21088 18.6376 4.20477 18.6401 4.19621C18.6401 4.19621 18.6719 4.0868 18.6737 4.07702C18.6847 4.08007 20.1322 4.49022 20.1322 4.49022C20.1579 4.49817 20.1768 4.49633 20.1921 4.48472C20.2061 4.47311 20.2159 4.45783 20.2214 4.43888L20.3901 3.84352C20.3963 3.82152 20.3901 3.7934 20.3639 3.78607C20.3639 3.78607 19.6798 3.5923 19.6701 3.58924L19.7141 3.4346C19.7239 3.43765 20.7349 3.72555 20.7349 3.72555C20.7361 3.72555 20.738 3.72555 20.7392 3.72555C20.7404 3.72494 20.7416 3.72433 20.7422 3.7225L20.8248 3.43338C20.8248 3.43032 20.8235 3.42665 20.8205 3.42604L20.8199 3.42421Z" fill="#615F5F"/>
<path d="M20.7722 2.9933C20.7141 2.97435 20.6579 2.95173 20.6022 2.92362C20.2887 2.76897 19.9726 2.49574 20.0802 2.11066L20.1346 1.91628C20.1346 1.91628 20.1334 1.91017 20.1316 1.90956L19.7397 1.79831C19.7367 1.7977 19.7336 1.80014 19.7324 1.80198L19.6774 1.99635C19.5661 2.38083 19.1535 2.44684 18.8063 2.41384C18.744 2.40833 18.6835 2.39794 18.6242 2.38327C18.5997 2.38083 18.6034 2.40895 18.6034 2.40895L18.6688 2.65956C18.6688 2.65956 18.6743 2.66811 18.6816 2.66995C18.8833 2.7274 19.0948 2.74758 19.2978 2.7109C19.4115 2.69012 19.5227 2.65039 19.6279 2.59476C19.667 2.57337 19.7098 2.55198 19.744 2.52264C19.7581 2.56542 19.7831 2.60638 19.8064 2.6455C19.8657 2.74758 19.9402 2.84049 20.0258 2.9175C20.1792 3.05503 20.3693 3.14855 20.5717 3.20601C20.5784 3.20785 20.5863 3.20357 20.5882 3.20357L20.7758 3.02508C20.7758 3.02508 20.7942 3.00369 20.7703 2.99269L20.7722 2.9933Z" fill="#615F5F"/>
<path d="M3.50564 12.1381C3.50442 12.3906 3.29598 12.5954 3.04108 12.5954C2.78618 12.5954 2.57712 12.3881 2.57957 12.1351C2.57957 11.8784 2.7874 11.6687 3.0423 11.6687C3.29903 11.6705 3.50625 11.879 3.50564 12.1375V12.1381Z" fill="#615F5F"/>
<path d="M29.4327 12.1528C29.4327 12.4108 29.2242 12.6168 28.9675 12.6149C28.7101 12.6149 28.5066 12.4083 28.5066 12.1516C28.5066 11.8961 28.712 11.6877 28.9675 11.6889C29.2254 11.6889 29.4333 11.8985 29.432 12.1534L29.4327 12.1528Z" fill="#615F5F"/>
<path d="M27.3965 4.7066C24.3793 1.67909 20.3632 0.0079437 16.0899 -2.50703e-06C11.8152 -0.00672622 7.79369 1.65036 4.76729 4.66687C1.74028 7.68459 0.0690704 11.6974 0.0611239 15.9676C0.0531774 20.2427 1.71094 24.2647 4.72817 27.2928C7.74479 30.3197 11.7596 31.9914 16.0336 31.9994C20.3064 32.0067 24.3286 30.3484 27.3568 27.3313C30.3826 24.3148 32.0538 20.2995 32.0617 16.0238V15.9921C32.0617 11.7329 30.4058 7.72677 27.3965 4.70599V4.7066ZM27.0597 27.033C24.1103 29.9713 20.1958 31.5856 16.033 31.5776C11.8733 31.5709 7.96363 29.9425 5.02525 26.9939C2.08626 24.0452 0.47312 20.1302 0.480455 15.9676C0.487179 11.8099 2.1156 7.90281 5.06437 4.96516C8.01192 2.0275 11.9271 0.413812 16.0899 0.421147C20.252 0.429093 24.1623 2.05684 27.0988 5.00428C30.0366 7.95049 31.6503 11.8649 31.643 16.0232C31.6351 20.1852 30.0079 24.096 27.0603 27.0324L27.0597 27.033Z" fill="#3B3B3B"/>
<path d="M7.62743 25.5067L7.62621 25.5055L7.59503 25.4737C7.58403 25.4627 7.56997 25.4493 7.5553 25.4383C7.54002 25.426 7.52718 25.4169 7.51373 25.4083L7.50273 25.4016C7.50273 25.4016 6.73926 26.1999 6.65918 26.2836C6.69524 26.1724 7.07362 24.9902 7.07362 24.9902L7.06995 24.9835C7.06078 24.9701 7.04917 24.956 7.03939 24.945C7.03022 24.9322 7.01861 24.9205 7.00577 24.9095C6.99599 24.8998 6.98437 24.8888 6.9697 24.8778L6.94403 24.8588L6.9208 24.8429L6.91163 24.8527L5.73127 26.0862L5.73861 26.096C5.74594 26.107 5.75389 26.1198 5.76611 26.1333C5.76672 26.1333 5.77039 26.1375 5.77039 26.1375L5.80218 26.1705L5.83519 26.1993L5.83947 26.2035C5.85352 26.2152 5.86636 26.2237 5.87981 26.2329L5.8902 26.239C5.8902 26.239 6.65001 25.4444 6.72947 25.3606C6.69463 25.4719 6.32115 26.6522 6.32115 26.6522L6.34927 26.6883L6.35538 26.6956C6.36577 26.7084 6.37738 26.7194 6.389 26.7311C6.40122 26.7439 6.41284 26.7537 6.42567 26.7628C6.43851 26.7738 6.45196 26.7836 6.46602 26.791L6.4758 26.7971L7.66411 25.5544L7.62743 25.5067Z" fill="#615F5F"/>
<path d="M12.2627 28.1326L12.2113 28.1204C12.1942 28.1168 12.1765 28.1149 12.1606 28.1131L12.1484 28.1119L12.1447 28.1235L11.6569 29.7616L11.7144 29.7873L11.7492 29.7995L11.7651 29.805L11.8104 29.816L11.8171 29.8185L11.836 29.8203L11.88 29.8258L11.8825 29.813L12.3709 28.176L12.3134 28.1504C12.2981 28.1443 12.2804 28.1375 12.2627 28.132V28.1326Z" fill="#615F5F"/>
<path d="M8.31021 26.0752C8.29615 26.0599 8.2821 26.0452 8.26865 26.0324C8.25581 26.0208 8.23992 26.0067 8.22464 25.9945C8.20691 25.9804 8.19041 25.9688 8.1739 25.9578C8.15923 25.9474 8.14273 25.937 8.125 25.9279L8.11705 25.9236L8.10972 25.9291L6.6824 26.981L6.69218 26.9933C6.70257 27.0049 6.71358 27.0171 6.72825 27.0299C6.74169 27.0434 6.75453 27.0544 6.7692 27.0666C6.78326 27.0788 6.79854 27.088 6.8126 27.0972C6.8285 27.1088 6.84378 27.1174 6.85906 27.1247L6.86762 27.1284C6.86762 27.1284 7.16775 26.8973 7.18487 26.8833C7.20198 26.8973 7.57486 27.1907 7.59136 27.2042C7.5828 27.2243 7.42693 27.5709 7.42693 27.5709L7.43304 27.5782C7.44404 27.5917 7.45627 27.6045 7.46972 27.6167L7.51067 27.6516L7.55835 27.6864L7.60481 27.7139L7.61948 27.7225L7.62559 27.7072L8.31877 26.0819L8.31205 26.0752H8.31021ZM7.69039 26.9786C7.6641 26.9584 7.40615 26.7537 7.37986 26.7335C7.40737 26.7127 7.94406 26.2977 8.02353 26.2366C7.98257 26.3282 7.70445 26.948 7.69039 26.9786Z" fill="#615F5F"/>
<path d="M10.6655 27.5617C10.6386 27.5434 10.6086 27.5251 10.5744 27.5079C10.542 27.4921 10.509 27.4792 10.4778 27.4688L10.4662 27.4652L10.0303 28.3362C9.98572 28.4248 9.94538 28.4951 9.90503 28.5507C9.86591 28.607 9.82618 28.6485 9.78706 28.6748C9.74794 28.7017 9.70881 28.7158 9.66969 28.7158C9.62935 28.7176 9.58534 28.706 9.53399 28.6815C9.48509 28.6565 9.44964 28.6278 9.42518 28.5947C9.40135 28.5605 9.38851 28.522 9.38667 28.4749C9.38362 28.4291 9.39279 28.3735 9.41479 28.3056C9.43619 28.2414 9.46797 28.1644 9.51198 28.0764L9.94782 27.2054L9.93682 27.198C9.91114 27.1797 9.88119 27.1626 9.84941 27.1461C9.81273 27.129 9.78155 27.1149 9.75221 27.1057L9.7406 27.1015L9.73449 27.1131L9.28582 28.011C9.23325 28.1161 9.19596 28.2097 9.17151 28.2977C9.14767 28.3906 9.13972 28.4713 9.14828 28.5446C9.15684 28.618 9.18495 28.687 9.22897 28.7476C9.2742 28.8081 9.34022 28.8594 9.42396 28.901C9.50832 28.9419 9.589 28.9633 9.66297 28.9633C9.73693 28.9633 9.81028 28.9444 9.87386 28.9071C9.93865 28.8704 9.99978 28.8154 10.0578 28.7402C10.1123 28.6705 10.1654 28.5844 10.2186 28.4774L10.674 27.5678L10.6636 27.5605L10.6655 27.5617Z" fill="#615F5F"/>
<path d="M10.438 29.357H10.4374L10.4368 29.3564H10.438V29.357Z" fill="#615F5F"/>
<path d="M11.8464 28.0214L11.8122 28.0018L11.8061 27.9994C11.7914 27.9908 11.7767 27.9841 11.7621 27.9792L11.7541 27.9762C11.7401 27.9719 11.7266 27.9664 11.7113 27.9621C11.7107 27.9621 11.6502 27.9487 11.6502 27.9487L11.6453 27.9603C11.6453 27.9603 11.2578 28.9829 11.2168 29.0917C11.2064 28.9756 11.0927 27.739 11.0927 27.739L11.0866 27.7353C11.0719 27.7256 11.0573 27.7176 11.0444 27.7103C11.0432 27.7103 11.0291 27.7035 11.0291 27.7035L11.0004 27.6907L10.9534 27.6773C10.9387 27.673 10.9228 27.6681 10.9051 27.6656H10.8941L10.8898 27.6754L10.2858 29.272L10.2956 29.2781C10.306 29.2855 10.3189 29.294 10.3366 29.3026C10.3519 29.3093 10.3678 29.3172 10.3843 29.3227C10.3983 29.3289 10.4142 29.3331 10.4332 29.3374C10.4313 29.3374 10.4753 29.3478 10.4753 29.3478L10.4912 29.3515C10.4912 29.3515 10.8806 28.3221 10.9222 28.2152C10.932 28.3307 11.0499 29.5636 11.0499 29.5636L11.0988 29.5911L11.1019 29.5923C11.1153 29.5984 11.1294 29.6045 11.1428 29.6088C11.1557 29.6149 11.1691 29.6192 11.1881 29.6247L11.2278 29.6326L11.248 29.6369L11.2523 29.6253L11.8562 28.0275L11.8458 28.0208L11.8464 28.0214Z" fill="#615F5F"/>
<path d="M8.97223 26.5556C8.95818 26.5428 8.94656 26.5318 8.93434 26.5214C8.91905 26.5092 8.90561 26.4988 8.89094 26.4896C8.8726 26.4768 8.85854 26.4688 8.84448 26.4609C8.83042 26.4529 8.81575 26.4462 8.80047 26.4407L8.78946 26.437L8.78274 26.4468L7.83649 27.8698L8.49178 28.3069L8.50033 28.2965C8.52601 28.2653 8.54679 28.2372 8.56452 28.2084C8.5743 28.195 8.58408 28.1803 8.59325 28.1644C8.60303 28.1479 8.6122 28.1314 8.61953 28.1155L8.62442 28.1039C8.62442 28.1039 8.18492 27.8111 8.16169 27.7958C8.17819 27.7714 8.98018 26.5624 8.98018 26.5624L8.97162 26.5544L8.97223 26.5556Z" fill="#615F5F"/>
<path d="M5.84313 23.5477C5.83641 23.5306 5.82785 23.5153 5.81868 23.5006C5.80951 23.4859 5.80035 23.4713 5.78995 23.4572L5.76122 23.4211L5.75756 23.4163L5.7276 23.3857L5.71171 23.3704L5.70193 23.3777L4.32352 24.3845L4.32718 24.3943C4.33269 24.4077 4.34124 24.423 4.35164 24.4395L4.38159 24.4841C4.39259 24.4988 4.40359 24.5134 4.4146 24.5263C4.4256 24.5385 4.43721 24.5507 4.45066 24.5623L4.45983 24.5709L5.84864 23.5575L5.84375 23.5471L5.84313 23.5477Z" fill="#615F5F"/>
<path d="M30.4358 17.3362C30.4358 17.2579 30.4211 17.187 30.3924 17.1216C30.3551 17.041 30.2988 16.9701 30.2249 16.9114C30.1503 16.8545 30.0592 16.8081 29.9553 16.7738C29.8465 16.7396 29.7279 16.7164 29.6057 16.706C29.481 16.6932 29.3605 16.6938 29.2493 16.7072C29.1399 16.7213 29.0427 16.75 28.9577 16.7928C28.8734 16.8362 28.8049 16.8949 28.7529 16.967C28.701 17.0391 28.6692 17.1296 28.6594 17.2347C28.6496 17.3405 28.6637 17.4352 28.7016 17.5147C28.7389 17.5954 28.7963 17.6657 28.8703 17.7243C28.9424 17.7818 29.0304 17.8264 29.1399 17.8631C29.2432 17.8979 29.3575 17.9205 29.4895 17.9334C29.616 17.945 29.7328 17.9438 29.8459 17.9297C29.9553 17.9156 30.0531 17.8863 30.1368 17.8435C30.22 17.802 30.2891 17.7427 30.3404 17.6699C30.3917 17.5984 30.4229 17.5079 30.4321 17.4022C30.4345 17.3796 30.4358 17.3576 30.4358 17.3368V17.3362ZM30.1961 17.3796C30.1906 17.4432 30.1717 17.4951 30.1381 17.5385C30.1044 17.5819 30.0586 17.6149 29.9999 17.64C29.9412 17.665 29.8703 17.6828 29.7884 17.6907C29.7077 17.6987 29.6167 17.698 29.5121 17.6889C29.4119 17.6791 29.322 17.6632 29.2419 17.64C29.1582 17.6149 29.0928 17.5856 29.0433 17.5507C28.9901 17.5141 28.9522 17.4725 28.9284 17.4242C28.9033 17.3753 28.8941 17.3203 28.9002 17.2579C28.9057 17.1956 28.9253 17.1436 28.9602 17.099C28.9925 17.0562 29.0378 17.022 29.0971 16.9963C29.1551 16.9707 29.2242 16.9542 29.308 16.9462C29.3911 16.9389 29.484 16.9395 29.583 16.9493C29.6808 16.9572 29.7725 16.9737 29.8563 16.9976C29.9345 17.022 29.9993 17.0507 30.0549 17.0868C30.1063 17.1235 30.1454 17.1657 30.1705 17.2127C30.1955 17.2616 30.2041 17.3166 30.1974 17.3808L30.1961 17.3796Z" fill="#615F5F"/>
<path d="M1.65348 16.3313H1.66693C1.7085 16.3313 1.74212 16.3301 1.77207 16.3258L1.78491 16.324C1.78491 16.324 1.79041 15.7573 1.79102 15.7298C1.81791 15.7298 2.31365 15.7341 2.34055 15.7341C2.34055 15.7622 2.33688 16.1968 2.33688 16.1968L2.3485 16.198L2.39862 16.2042L2.40168 16.2054L2.4084 16.206L2.45791 16.2072L2.49337 16.206H2.51109C2.53004 16.2042 2.54777 16.2029 2.56428 16.1999L2.57589 16.198C2.57589 16.198 2.58017 15.7641 2.58139 15.7359C2.60829 15.7359 3.0105 15.7396 3.03801 15.7402C3.0374 15.7677 3.03251 16.3185 3.03251 16.3185L3.04412 16.3203C3.05818 16.3227 3.07469 16.3246 3.09853 16.3258L3.15293 16.3276C3.1896 16.3276 3.22567 16.3258 3.25868 16.3221L3.27213 16.3209L3.27885 15.5092L1.55385 15.4945V15.5092L1.54712 16.3209L1.55935 16.3221C1.57524 16.3252 1.59358 16.327 1.61253 16.3276L1.65348 16.3289V16.3313Z" fill="#615F5F"/>
<path d="M3.34671 17.0703C3.33693 16.9658 3.30698 16.8753 3.25624 16.8013C3.20429 16.728 3.13521 16.6681 3.05208 16.6247C2.97078 16.5813 2.87359 16.5513 2.76295 16.5361C2.6517 16.5202 2.53189 16.5171 2.40597 16.5281C2.28005 16.5391 2.16268 16.5611 2.05571 16.5947C1.94935 16.629 1.85705 16.6742 1.78431 16.7304C1.70912 16.7885 1.65166 16.8582 1.61498 16.9383C1.57709 17.0183 1.56241 17.1125 1.57036 17.2176C1.58014 17.324 1.60887 17.412 1.65961 17.4866C1.71034 17.5593 1.77575 17.6167 1.86194 17.6632C1.94262 17.7054 2.04043 17.7353 2.15229 17.7512C2.26293 17.7665 2.38274 17.7683 2.50866 17.7579C2.63764 17.7457 2.755 17.7243 2.85831 17.6925C2.96589 17.6601 3.05697 17.6143 3.13032 17.5575C3.20551 17.5006 3.26297 17.4309 3.30148 17.3515C3.3406 17.2689 3.35527 17.1779 3.34732 17.0715L3.34671 17.0703ZM3.07531 17.2573C3.05025 17.3044 3.01051 17.3472 2.95794 17.382C2.90476 17.4169 2.83752 17.4462 2.75928 17.4676C2.67921 17.4908 2.58996 17.5061 2.48727 17.5153C2.38518 17.5232 2.29227 17.5226 2.2122 17.5141C2.12906 17.5061 2.0606 17.489 2.00131 17.4615C1.9414 17.4358 1.89678 17.4016 1.86377 17.3576C1.83076 17.3148 1.81242 17.2628 1.80692 17.1987C1.80142 17.1357 1.81059 17.0813 1.83688 17.0312C1.86194 16.9829 1.89984 16.9419 1.95424 16.9065C2.00742 16.8716 2.07283 16.8435 2.15351 16.8197C2.23298 16.7977 2.32528 16.7818 2.42614 16.7738C2.52517 16.7659 2.61808 16.7659 2.70121 16.7744C2.7819 16.7836 2.85342 16.8001 2.9121 16.827C2.96956 16.8533 3.01479 16.8875 3.0478 16.9309C3.08081 16.9749 3.09915 17.0269 3.10465 17.0917C3.10954 17.154 3.09976 17.2103 3.07531 17.2579V17.2573Z" fill="#615F5F"/>
<path d="M5.3529 23.3191L5.37063 23.3099C5.38408 23.3044 5.39752 23.2983 5.4122 23.2885C5.42564 23.2824 5.43726 23.2751 5.44826 23.2689L5.45987 23.2616L5.46843 23.2561L5.5045 23.2311L5.54362 23.198L5.5534 23.1889L5.54606 23.1785L5.02954 22.3741L5.01854 22.3784C5.00509 22.3839 4.98981 22.3918 4.97208 22.401C4.97269 22.401 4.93724 22.4211 4.93724 22.4211L4.92379 22.4279L4.87856 22.4603L4.84188 22.489L4.82721 22.5024L4.83454 22.5134C4.83454 22.5134 5.01181 22.7891 5.02648 22.8117C5.00142 22.8276 3.77888 23.6137 3.77888 23.6137L3.78377 23.6247C3.79722 23.6559 3.81372 23.687 3.8339 23.7176C3.85162 23.7451 3.87118 23.7726 3.89563 23.7989L3.90358 23.8093C3.90358 23.8093 5.12795 23.0238 5.15179 23.0086C5.16708 23.0318 5.35168 23.3185 5.35168 23.3185L5.3529 23.3191Z" fill="#615F5F"/>
<path d="M2.28187 19.1491C2.37539 19.1498 2.47809 19.1406 2.58934 19.1186L3.58877 18.9273V18.9138C3.58693 18.8796 3.58204 18.8441 3.57532 18.8075C3.56982 18.7744 3.56187 18.7414 3.55026 18.7054L3.54598 18.6932L2.58751 18.8771C2.4952 18.8949 2.41268 18.9053 2.34116 18.9077C2.27026 18.9101 2.21585 18.904 2.17123 18.8881C2.12722 18.8741 2.09176 18.8509 2.0667 18.8185C2.04103 18.7842 2.0233 18.7421 2.01352 18.6877C2.00374 18.632 2.00435 18.585 2.01658 18.5452C2.02758 18.5061 2.05203 18.4713 2.0881 18.4395C2.12722 18.4083 2.17857 18.3814 2.2403 18.3588C2.30571 18.3356 2.3864 18.3148 2.47992 18.2971L3.43778 18.1131V18.1002C3.43717 18.0715 3.4335 18.0373 3.42678 17.9976C3.42067 17.9652 3.41272 17.9328 3.40049 17.8936L3.39622 17.8808L3.38399 17.8839L2.39618 18.0727C2.28676 18.0929 2.18957 18.121 2.0991 18.1589C2.01413 18.1925 1.94323 18.2372 1.88821 18.291C1.8332 18.3447 1.79591 18.4089 1.77574 18.4817C1.75434 18.5562 1.75373 18.6412 1.77085 18.7347C1.78919 18.8301 1.81914 18.9065 1.86437 18.9682C1.90899 19.0281 1.96707 19.0733 2.03797 19.1039C2.10644 19.1333 2.1859 19.1485 2.28187 19.1491Z" fill="#615F5F"/>
<path d="M2.07159 15.1846C2.13699 15.1913 2.19873 15.1889 2.25314 15.1779C2.30876 15.1663 2.35522 15.1473 2.39495 15.1204C2.43591 15.0929 2.47319 15.0599 2.50437 15.0214C2.53493 14.9835 2.5655 14.9395 2.59728 14.8863L2.65841 14.7793C2.67552 14.7518 2.69142 14.7262 2.70609 14.706C2.72259 14.6846 2.74154 14.6644 2.76294 14.6485C2.7825 14.6326 2.80389 14.621 2.83018 14.6125C2.85646 14.6039 2.88458 14.6009 2.91331 14.6045C2.99033 14.6106 3.04351 14.6357 3.07713 14.6809C3.11014 14.7256 3.12359 14.7867 3.11686 14.8674C3.11136 14.9273 3.10097 14.9774 3.08446 15.022C3.06857 15.066 3.05084 15.1051 3.03312 15.1388L3.02517 15.1528L3.03984 15.1595C3.10036 15.1877 3.16393 15.2078 3.23484 15.2219L3.24584 15.2243L3.25073 15.2146C3.27457 15.1699 3.29474 15.1198 3.31186 15.066C3.32958 15.0086 3.3412 14.9493 3.34731 14.8845C3.36076 14.7335 3.32897 14.61 3.25317 14.519C3.17677 14.4279 3.06429 14.3747 2.91881 14.3625C2.85768 14.3564 2.80572 14.3588 2.75927 14.3686C2.71281 14.379 2.67247 14.393 2.63579 14.4144C2.59973 14.4352 2.56794 14.4609 2.54104 14.4921C2.51782 14.519 2.49459 14.5513 2.46891 14.5935L2.40412 14.7011C2.3815 14.7384 2.35766 14.7757 2.33321 14.8124C2.31182 14.8435 2.28859 14.8692 2.26658 14.8875C2.24336 14.9065 2.21646 14.9205 2.18712 14.9279C2.15411 14.9358 2.11743 14.9377 2.07831 14.934C1.9909 14.926 1.92672 14.8961 1.88271 14.8411C1.83686 14.7867 1.81975 14.709 1.82769 14.6027C1.83442 14.5342 1.84603 14.478 1.86253 14.4352C1.87965 14.3918 1.89982 14.349 1.92427 14.3038L1.93161 14.2891L1.91633 14.2836C1.88332 14.2708 1.84848 14.2567 1.81302 14.2445C1.77023 14.2298 1.73722 14.2207 1.70544 14.2158L1.69505 14.2139L1.69077 14.2243L1.65287 14.3032C1.64187 14.3264 1.63147 14.3539 1.62231 14.3851C1.61375 14.4095 1.60641 14.4389 1.59969 14.4774C1.59296 14.5092 1.5893 14.5465 1.58502 14.585L1.5838 14.588C1.56974 14.7604 1.6058 14.901 1.6926 15.0049C1.78001 15.1088 1.90777 15.1693 2.07281 15.1834L2.07159 15.1846Z" fill="#615F5F"/>
<path d="M30.4834 15.7341C30.4804 15.7029 30.4767 15.6675 30.4694 15.6284C30.4645 15.5966 30.4578 15.5599 30.4462 15.5251C30.437 15.4969 30.4248 15.4645 30.4089 15.434L30.4046 15.426H30.3954L29.5555 15.4279L29.5525 15.4425C29.55 15.4566 29.547 15.4719 29.5458 15.4878C29.5439 15.5049 29.5427 15.5226 29.5427 15.5397C29.5427 15.5568 29.5439 15.5752 29.5458 15.5905C29.547 15.607 29.55 15.6253 29.5537 15.6418L29.5568 15.6528C29.5568 15.6528 30.198 15.6516 30.2194 15.6516C30.2267 15.6718 30.2316 15.6944 30.2353 15.7188C30.2414 15.7469 30.2438 15.7799 30.2438 15.8246V15.8307C30.2438 15.8936 30.2316 15.9523 30.2078 16.0055C30.1821 16.0599 30.1436 16.1082 30.0922 16.1473C30.0372 16.1877 29.97 16.2194 29.8936 16.2408C29.8141 16.2628 29.7218 16.2744 29.6087 16.2751C29.503 16.2751 29.407 16.2647 29.3239 16.2427C29.2407 16.2213 29.1723 16.1925 29.1166 16.1528C29.0616 16.1161 29.0188 16.0691 28.9901 16.0153C28.9608 15.9609 28.9467 15.9016 28.9467 15.835C28.9461 15.7751 28.951 15.7231 28.962 15.6803C28.9724 15.6388 28.9852 15.6009 28.9993 15.5648L29.0054 15.5507L28.9907 15.5452C28.9571 15.5336 28.9253 15.5238 28.8954 15.5153L28.8923 15.5141C28.8666 15.5086 28.8293 15.5006 28.7878 15.4988H28.778L28.7737 15.5073C28.7523 15.5532 28.7352 15.6039 28.7248 15.6571C28.7126 15.7145 28.7065 15.7799 28.7071 15.8521C28.7071 15.9511 28.7297 16.0416 28.7725 16.1222C28.8141 16.2035 28.8752 16.2738 28.9547 16.3331C29.0323 16.3918 29.1289 16.437 29.2401 16.467C29.3477 16.4982 29.4693 16.5134 29.6105 16.5134C29.7518 16.5134 29.8691 16.4982 29.9773 16.4664C30.0861 16.4364 30.179 16.3906 30.2548 16.3319C30.3312 16.2738 30.3899 16.2017 30.429 16.1174C30.4688 16.0342 30.4889 15.9383 30.4889 15.8331C30.4889 15.7989 30.4865 15.7634 30.4834 15.7323V15.7341Z" fill="#615F5F"/>
<path d="M3.75258 19.4425V19.4297C3.75075 19.4138 3.7483 19.3973 3.74525 19.3808V19.3796C3.74219 19.3613 3.73791 19.3435 3.73241 19.3276C3.72813 19.3105 3.72263 19.294 3.71652 19.2763C3.71652 19.2757 3.71285 19.2677 3.71285 19.2677L3.68962 19.2207L3.67862 19.2249L2.03186 19.687L2.24458 20.4456L2.25741 20.4438C2.29409 20.437 2.32954 20.4297 2.36316 20.4199C2.36316 20.4193 2.37906 20.415 2.37906 20.415L2.41451 20.4034C2.4304 20.3985 2.44752 20.3924 2.46586 20.3845L2.47747 20.3796C2.47747 20.3796 2.33443 19.8698 2.3271 19.8429C2.35522 19.835 3.75319 19.4438 3.75319 19.4438L3.75258 19.4425Z" fill="#615F5F"/>
<path d="M4.8376 21.9688L4.81559 21.9224L4.81192 21.9156L4.77953 21.8619C4.76791 21.8423 4.75691 21.8264 4.74591 21.8142L4.73979 21.8075L4.73124 21.8093L3.0044 22.2097L3.00806 22.2243C3.01173 22.2396 3.01785 22.2543 3.02579 22.2726C3.03252 22.2885 3.04107 22.305 3.05085 22.3227C3.05819 22.3362 3.06614 22.3527 3.07714 22.368L3.10648 22.4083L3.11443 22.4181C3.11443 22.4181 3.4818 22.3246 3.50319 22.3191C3.51359 22.338 3.73914 22.7567 3.74954 22.7751C3.73364 22.7903 3.45429 23.0465 3.45429 23.0465L3.45674 23.055C3.46102 23.0709 3.46713 23.088 3.47569 23.1057C3.4818 23.1198 3.48913 23.1363 3.49769 23.1528C3.50808 23.1724 3.51725 23.1889 3.52887 23.2035C3.54048 23.2219 3.5521 23.2384 3.56065 23.2482L3.57104 23.2604L4.86388 22.0318L4.83882 21.9682L4.8376 21.9688ZM3.93169 22.6076C3.91641 22.5782 3.75932 22.2879 3.74342 22.2586C3.77582 22.2506 4.43416 22.0825 4.53196 22.0575C4.45678 22.1253 3.95676 22.5844 3.93169 22.6076Z" fill="#615F5F"/>
<path d="M4.45983 21.2989C4.45861 21.2842 4.45494 21.2696 4.44883 21.2512C4.44272 21.2329 4.43783 21.2188 4.43294 21.2072C4.42683 21.1919 4.41949 21.1773 4.41032 21.1589C4.40238 21.1424 4.39198 21.1271 4.3822 21.1143L4.37548 21.1051C4.37548 21.1051 3.35771 21.5318 3.25074 21.577C3.32776 21.4884 4.14809 20.555 4.14809 20.555L4.14686 20.5477C4.14442 20.5324 4.14014 20.5177 4.13525 20.5006L4.11813 20.456C4.11813 20.4554 4.11508 20.4487 4.11508 20.4487C4.11019 20.4377 4.10469 20.4248 4.09735 20.412C4.09002 20.3979 4.08085 20.3833 4.07107 20.3698L4.06434 20.36L4.05334 20.3643L2.47993 21.0245L2.48115 21.0361C2.48299 21.0495 2.48665 21.063 2.49093 21.077L2.49216 21.0813C2.49643 21.0966 2.50255 21.1113 2.51111 21.132C2.51538 21.1436 2.52272 21.1601 2.5325 21.176L2.55695 21.2176L2.56367 21.2286L2.57529 21.2231C2.57529 21.2231 3.57838 20.802 3.68413 20.7579C3.60772 20.846 2.79473 21.7793 2.79473 21.7793V21.7861C2.79779 21.8013 2.80207 21.8166 2.80635 21.8337L2.82346 21.879L2.82469 21.8808L2.84425 21.9224C2.85219 21.9377 2.86014 21.9499 2.87053 21.9639L2.87726 21.9743L4.46167 21.3093L4.46045 21.2983L4.45983 21.2989Z" fill="#615F5F"/>
<path d="M6.53021 24.456C6.51432 24.3667 6.47153 24.2818 6.40368 24.2023C6.33522 24.1223 6.25819 24.0672 6.17384 24.0361C6.0901 24.0079 5.99963 23.9994 5.9061 24.011C5.80952 24.0257 5.71294 24.0587 5.6182 24.1088C5.521 24.1589 5.42503 24.2243 5.32356 24.3105C5.22331 24.3955 5.14324 24.4798 5.07783 24.5691C5.0112 24.6571 4.96352 24.7476 4.93602 24.8362C4.90912 24.9242 4.90301 25.0147 4.91829 25.1039C4.93479 25.1907 4.97758 25.2757 5.04605 25.3576C5.1139 25.4377 5.19092 25.4927 5.27466 25.5232C5.35841 25.5544 5.44582 25.5623 5.5424 25.5495C5.63348 25.5367 5.73067 25.5037 5.82969 25.4517C5.9275 25.401 6.02652 25.3325 6.12188 25.25C6.22091 25.1663 6.30404 25.0789 6.36883 24.9921C6.4373 24.9016 6.48498 24.8123 6.51248 24.7249C6.53938 24.6345 6.54549 24.5446 6.53021 24.456ZM6.26981 24.6815C6.24719 24.7421 6.20929 24.805 6.15795 24.868C6.10843 24.9309 6.04486 24.9951 5.96479 25.0642C5.8841 25.1314 5.81013 25.1846 5.73923 25.2243C5.66893 25.2641 5.60047 25.2903 5.53812 25.3044C5.47577 25.3166 5.41953 25.316 5.36635 25.3001C5.315 25.2842 5.26855 25.2518 5.22759 25.2042C5.18603 25.1553 5.1628 25.1051 5.15485 25.0507C5.15363 25.0379 5.1518 25.0232 5.1518 25.0098C5.1518 24.9682 5.16035 24.9254 5.17747 24.8808C5.2007 24.8203 5.23798 24.7586 5.28933 24.695C5.33946 24.6326 5.40242 24.5685 5.4831 24.4988C5.56012 24.4334 5.63592 24.3796 5.70744 24.3392C5.77713 24.2989 5.84498 24.2714 5.90855 24.2586C5.97151 24.2463 6.02775 24.2488 6.0797 24.2647C6.13105 24.28 6.17812 24.3123 6.21846 24.36C6.25942 24.4077 6.28448 24.4603 6.29181 24.5134C6.29976 24.5672 6.29181 24.6222 6.26981 24.6822V24.6815Z" fill="#615F5F"/>
<path d="M30.0146 19.555C29.9987 19.4701 29.9602 19.3881 29.8997 19.313C29.8385 19.2402 29.7621 19.1767 29.6656 19.1186C29.5745 19.0636 29.4681 19.0165 29.3398 18.9749C29.2199 18.9346 29.1026 18.9089 28.9925 18.8979C28.8819 18.8869 28.7792 18.8936 28.6894 18.9156C28.5983 18.9389 28.5188 18.9804 28.451 19.0397C28.3837 19.0996 28.3336 19.1803 28.3 19.28C28.2682 19.3808 28.2602 19.4762 28.2798 19.5617C28.2981 19.6504 28.3367 19.7298 28.3972 19.8044C28.4565 19.8771 28.5329 19.9407 28.6301 19.9994C28.723 20.0556 28.8324 20.1045 28.9546 20.1461C29.0824 20.187 29.1955 20.2121 29.3037 20.2207C29.4174 20.2317 29.5158 20.2256 29.6069 20.2017C29.6967 20.1797 29.7768 20.1369 29.8434 20.077C29.9101 20.0165 29.9602 19.9377 29.9926 19.8362C30.0115 19.7787 30.0225 19.7231 30.025 19.6699C30.0262 19.6302 30.0238 19.5917 30.0146 19.555ZM29.7683 19.7634C29.7475 19.8234 29.7169 19.8704 29.6747 19.904C29.6332 19.9389 29.5818 19.9615 29.5176 19.9743C29.4534 19.9859 29.3795 19.9866 29.3 19.9762C29.2163 19.9652 29.1258 19.9438 29.0311 19.912C28.9351 19.8808 28.8501 19.8447 28.778 19.8044C28.7022 19.7616 28.6453 19.7194 28.6056 19.6736C28.5616 19.6284 28.5341 19.5795 28.52 19.5251C28.5066 19.4719 28.5096 19.4163 28.5304 19.3564C28.5506 19.2965 28.5812 19.2488 28.6221 19.2146C28.6655 19.1791 28.7175 19.1559 28.778 19.1461C28.8422 19.1339 28.9155 19.1326 28.9962 19.143C29.0781 19.154 29.1649 19.1742 29.264 19.2066C29.3605 19.239 29.4467 19.2751 29.517 19.3148C29.5885 19.3545 29.6472 19.3985 29.6912 19.445C29.7346 19.4933 29.7652 19.5428 29.7768 19.5947C29.7829 19.6192 29.786 19.6449 29.7848 19.6724C29.7835 19.7017 29.7774 19.7329 29.7683 19.7647V19.7634Z" fill="#615F5F"/>
<path d="M25.8781 26.2818C25.8781 26.2818 25.7204 26.2573 25.7009 26.2549C25.6862 26.0868 25.6098 25.8979 25.4582 25.6595L25.4484 25.6449L25.2925 25.7812L25.2999 25.7922C25.4099 25.9584 25.4765 26.0996 25.5034 26.2219C25.3751 26.1999 25.1801 26.1632 24.9612 26.1204C24.9967 26.0202 25.0144 25.9328 25.0144 25.8539C25.0144 25.7439 24.9796 25.6522 24.908 25.5709C24.8359 25.4884 24.7479 25.4419 24.6538 25.4358C24.567 25.4297 24.4802 25.4609 24.4099 25.5232C24.3157 25.6057 24.276 25.7072 24.276 25.8068C24.276 25.9132 24.32 26.0183 24.3909 26.0996C24.4643 26.1828 24.5749 26.2445 24.7124 26.2787C24.6917 26.3496 24.68 26.4163 24.68 26.4798C24.68 26.6137 24.7259 26.7335 24.8176 26.8368C24.9025 26.9334 25.0138 26.9939 25.1312 27.0061C25.2583 27.0202 25.3818 26.978 25.4875 26.8851C25.6141 26.7738 25.6813 26.6357 25.6941 26.4645C25.7161 26.4664 25.7883 26.4762 25.7883 26.4762L25.8952 26.4902L25.9007 26.4859L26.097 26.3142L25.8769 26.2812L25.8781 26.2818ZM24.7943 26.0892C24.6886 26.0623 24.603 26.0263 24.5352 25.9499C24.4887 25.8961 24.4618 25.8356 24.4618 25.7818C24.4618 25.7775 24.4624 25.7738 24.4624 25.7702C24.4655 25.7298 24.4826 25.6956 24.515 25.6681C24.515 25.6681 24.5156 25.6663 24.5162 25.6663C24.5969 25.5947 24.7002 25.6381 24.765 25.7115C24.8108 25.7635 24.828 25.8215 24.828 25.8906C24.828 25.9487 24.8145 26.0153 24.7937 26.0899L24.7943 26.0892ZM25.3891 26.7188L25.3879 26.7201H25.3867C25.2614 26.8295 25.0829 26.8087 24.9612 26.6699C24.9007 26.6015 24.8708 26.5202 24.8708 26.4273C24.8708 26.3924 24.8763 26.3557 24.8842 26.3185C25.1177 26.3631 25.3647 26.4053 25.5132 26.4291C25.5132 26.4303 25.5132 26.4309 25.5132 26.4322C25.5132 26.5049 25.4942 26.6253 25.3879 26.7188H25.3891Z" fill="#615F5F"/>
<path d="M24.6207 27.5428L24.5908 27.4976C24.5688 27.4652 24.548 27.437 24.5266 27.4132L24.518 27.4034C24.518 27.4034 24.0492 27.7213 24.0254 27.7372C24.0101 27.7152 23.7326 27.3056 23.7167 27.283C23.7393 27.2671 24.0987 27.0244 24.0987 27.0244L24.0932 27.0128C24.0865 26.9976 24.0779 26.9823 24.0675 26.9652C24.059 26.9505 24.0498 26.9352 24.0388 26.9187C24.0388 26.9181 24.0333 26.9108 24.0333 26.9108L24.0064 26.8741L23.9832 26.8466L23.9636 26.8252L23.9532 26.8325C23.9532 26.8325 23.6042 27.0685 23.5816 27.0844C23.5663 27.0623 23.3401 26.7292 23.3248 26.7066C23.3475 26.6907 23.8041 26.3814 23.8041 26.3814L23.7986 26.3692C23.7912 26.3551 23.7833 26.3405 23.7729 26.3221C23.7613 26.3038 23.7509 26.2891 23.7417 26.2769C23.7222 26.2469 23.7014 26.2188 23.6776 26.1932L23.669 26.1834L23.6586 26.1907L22.9972 26.6388L23.9667 28.0666L24.6507 27.6015L24.6458 27.5911C24.6379 27.5721 24.6287 27.5568 24.6189 27.5428H24.6207Z" fill="#615F5F"/>
<path d="M25.9056 24.3778L25.8983 24.368C25.8879 24.3557 25.8769 24.3435 25.8641 24.3301L25.8629 24.3276L25.8231 24.2885L25.7828 24.2531C25.7669 24.2396 25.7528 24.2304 25.7394 24.2225L25.729 24.2164L25.721 24.2255L25.0719 24.9285L25.1147 24.978L25.1232 24.9866L25.1544 25.0165C25.166 25.0281 25.1807 25.0397 25.1953 25.052C25.2088 25.0623 25.2241 25.074 25.2387 25.0831L25.2491 25.0899C25.2491 25.0899 25.479 24.8405 25.4973 24.8203C25.5187 24.8399 26.5878 25.827 26.5878 25.827L26.5976 25.8191C26.6227 25.7983 26.6489 25.7738 26.6746 25.7469C26.6972 25.7213 26.7186 25.6956 26.7376 25.6669L26.7449 25.6565C26.7449 25.6565 25.677 24.6699 25.655 24.6498C25.674 24.6296 25.905 24.379 25.905 24.379L25.9056 24.3778Z" fill="#615F5F"/>
<path d="M30.2328 18.0501L30.1827 18.041C30.1607 18.0385 30.1423 18.0367 30.1265 18.0361H30.113L30.1106 18.0477C30.1106 18.0477 30.0158 18.555 30.0103 18.5825C29.9822 18.5776 28.5543 18.3105 28.5543 18.3105L28.55 18.3221C28.5439 18.3374 28.539 18.3545 28.5341 18.3704C28.5298 18.3881 28.5249 18.4053 28.5225 18.423L28.5164 18.4676L28.5151 18.4756V18.478L28.5127 18.5373L28.5249 18.5391L30.2065 18.8527L30.3508 18.0789L30.3386 18.0752C30.3068 18.0648 30.2725 18.0556 30.2328 18.0501Z" fill="#615F5F"/>
<path d="M27.6948 24.3839L27.6526 24.3496C27.6196 24.3227 27.5915 24.3038 27.5652 24.2885L27.5542 24.2818C27.5542 24.2818 27.204 24.7256 27.1862 24.7476C27.1649 24.7304 26.7761 24.4242 26.7541 24.4083C26.7712 24.3857 27.0402 24.0458 27.0402 24.0458L27.0322 24.0361C27.0224 24.0257 27.0133 24.0165 27.0023 24.0067L26.9937 23.9988L26.9527 23.9621H26.9521C26.9405 23.9523 26.9265 23.9425 26.9087 23.9309C26.8947 23.9205 26.8788 23.9108 26.8635 23.9034L26.8531 23.8985C26.8531 23.8985 26.5841 24.2378 26.5664 24.2598C26.545 24.2427 26.2308 23.9939 26.2094 23.9768C26.2266 23.9548 26.5664 23.5232 26.5664 23.5232L26.5585 23.5141C26.5487 23.5024 26.5365 23.4908 26.5194 23.4762L26.4784 23.4419C26.4442 23.415 26.4167 23.3955 26.3916 23.3802L26.38 23.3735L26.372 23.3839L25.8775 24.011L27.2321 25.0801L27.7437 24.4315L27.7364 24.4224C27.7254 24.4095 27.7113 24.3973 27.6967 24.3845L27.6948 24.3839Z" fill="#615F5F"/>
<path d="M23.4911 28.0562L23.4783 28.0465L23.4697 28.0599C23.4447 28.0972 23.4171 28.1302 23.3835 28.1601C23.3524 28.1907 23.3138 28.2176 23.2637 28.2463C23.202 28.28 23.1421 28.2995 23.0816 28.3032C23.021 28.3081 22.9611 28.2977 22.9 28.2732C22.8395 28.2469 22.7802 28.2035 22.724 28.1449C22.6641 28.0862 22.6072 28.0067 22.5546 27.912C22.4605 27.7457 22.4134 27.5966 22.4134 27.4676C22.4134 27.4529 22.4134 27.4383 22.4147 27.4242C22.4281 27.2873 22.4935 27.1877 22.6158 27.1192C22.6457 27.1033 22.6702 27.0899 22.6934 27.0795C22.7136 27.0703 22.7337 27.0623 22.7582 27.055C22.779 27.0489 22.8016 27.0446 22.8169 27.041L22.8297 27.0391L22.8915 27.0281L22.8896 27.0134L22.8682 26.9126C22.8603 26.8808 22.8487 26.8478 22.8328 26.8136L22.8285 26.8038L22.8169 26.805C22.7655 26.8117 22.7166 26.8233 22.6659 26.8386C22.6109 26.8545 22.5504 26.8814 22.485 26.9175C22.3945 26.9676 22.3242 27.0318 22.2698 27.1112C22.2172 27.1883 22.1848 27.2769 22.1726 27.3747C22.161 27.4707 22.1683 27.5764 22.1952 27.6877C22.2221 27.7989 22.2692 27.915 22.3358 28.0336C22.4031 28.1528 22.4758 28.2518 22.5534 28.3289C22.6366 28.4114 22.7185 28.4694 22.8059 28.5067C22.8951 28.544 22.9868 28.5605 23.0791 28.555C23.1739 28.5495 23.2674 28.5214 23.3579 28.4694C23.4202 28.434 23.4716 28.3979 23.5156 28.3594C23.5632 28.3166 23.603 28.2714 23.6366 28.22L23.6427 28.2109L23.6366 28.2029C23.5963 28.1491 23.5467 28.1002 23.4899 28.0562H23.4911Z" fill="#615F5F"/>
<path d="M28.1019 20.0746L28.0769 20.1143L28.075 20.1168L28.0555 20.1577C28.0487 20.1724 28.042 20.1889 28.0377 20.2066C28.031 20.2256 28.0267 20.2414 28.0237 20.2561L28.0219 20.2677C28.0219 20.2677 29.0366 20.7048 29.1423 20.7506C29.0256 20.7561 27.7853 20.8154 27.7853 20.8154L27.781 20.8203C27.7725 20.8319 27.7639 20.8447 27.7559 20.8619C27.7456 20.879 27.7388 20.893 27.7339 20.9053L27.7168 20.9505L27.7058 20.9884L27.7009 21.0092L27.7119 21.0147L29.2811 21.6895L29.2982 21.6632L29.3135 21.6394L29.3208 21.6223L29.3349 21.5923C29.3422 21.577 29.3471 21.5617 29.352 21.5458C29.3581 21.5312 29.3618 21.5159 29.3648 21.4982L29.3673 21.4866C29.3673 21.4866 28.3574 21.0526 28.2511 21.0067C28.3678 21.0006 29.6038 20.9383 29.6038 20.9383L29.6081 20.9328C29.6173 20.9199 29.6252 20.9065 29.6338 20.8906C29.6417 20.8778 29.6478 20.8637 29.6552 20.8472L29.6594 20.8356L29.6711 20.8032C29.6772 20.7855 29.6815 20.7696 29.6845 20.7543L29.6857 20.7427L28.1056 20.0642L28.0989 20.0746H28.1019Z" fill="#615F5F"/>
<path d="M27.5842 21.294C27.5732 21.3068 27.564 21.3209 27.5542 21.3344L27.553 21.3362L27.5359 21.3637L27.5249 21.3826H27.5243L27.5017 21.4309C27.4937 21.448 27.4882 21.4639 27.4839 21.4768L27.4809 21.4884C27.4809 21.4884 28.0671 21.8075 28.0922 21.8209C28.0787 21.8454 27.8287 22.3038 27.8153 22.3276C27.7902 22.3142 27.2046 21.9945 27.2046 21.9945L27.1973 22.0043C27.1887 22.0147 27.1765 22.03 27.1667 22.0465C27.1667 22.0458 27.1392 22.0911 27.1392 22.0911C27.1386 22.0917 27.138 22.0935 27.138 22.0935C27.13 22.1088 27.1221 22.1241 27.1166 22.1394C27.1166 22.1388 27.0982 22.1877 27.0982 22.1877L27.0933 22.1993L27.105 22.2054L28.6044 23.0214L28.6123 23.0122C28.6227 23 28.6325 22.9866 28.6435 22.9713L28.6716 22.9254L28.6955 22.8771V22.8759L28.7016 22.86L28.7169 22.8166L28.7053 22.8111C28.7053 22.8111 28.0543 22.4566 28.0286 22.4432C28.0426 22.4187 28.2914 21.9615 28.3055 21.937C28.3299 21.9511 28.9926 22.3099 28.9926 22.3099L28.9999 22.3013C29.0097 22.2903 29.0182 22.2787 29.0305 22.2604L29.0567 22.2176L29.0586 22.2146C29.0671 22.1974 29.0757 22.1803 29.0824 22.1644L29.0983 22.1216L29.1044 22.107L27.5928 21.2836L27.5854 21.2934L27.5842 21.294Z" fill="#615F5F"/>
<path d="M28.1869 23.2268L28.171 23.2243L28.1692 23.2396C28.1655 23.2879 28.1576 23.3307 28.1459 23.3698C28.1313 23.4163 28.1105 23.4621 28.0848 23.5055C28.0512 23.5642 28.0078 23.6112 27.9571 23.6455C27.9045 23.6815 27.8489 23.7023 27.7853 23.7084C27.7199 23.7182 27.649 23.7103 27.5683 23.6889C27.4894 23.6681 27.4039 23.6302 27.3042 23.5734C27.119 23.4639 26.9955 23.3454 26.9387 23.2213C26.9155 23.1705 26.902 23.121 26.899 23.0715C26.8953 22.9994 26.9148 22.9279 26.957 22.8557L26.9637 22.8447C26.9778 22.8221 26.9913 22.8013 27.0041 22.7842C27.0212 22.7604 27.034 22.7427 27.0475 22.7292C27.0622 22.7133 27.0768 22.6993 27.0909 22.6877L27.1215 22.6632L27.1502 22.64L27.1398 22.629C27.1147 22.6002 27.0921 22.5746 27.0701 22.5526C27.0499 22.5306 27.0249 22.5086 26.9913 22.4847L26.9821 22.4786L26.9735 22.4859C26.9381 22.5128 26.899 22.5483 26.8592 22.5899C26.8189 22.6333 26.7798 22.687 26.7431 22.7506C26.6905 22.8386 26.6612 22.9309 26.6551 23.0263C26.6489 23.1198 26.6655 23.2127 26.7033 23.3026C26.7406 23.3924 26.7993 23.4768 26.8812 23.5611C26.9601 23.6449 27.0597 23.7213 27.1771 23.7897C27.2944 23.8594 27.4051 23.9071 27.5151 23.9346C27.6245 23.9639 27.7272 23.9719 27.822 23.9615C27.9167 23.9499 28.0047 23.9175 28.0818 23.8655C28.1612 23.8136 28.226 23.7433 28.2792 23.6516C28.3128 23.5966 28.3397 23.5373 28.3605 23.4774C28.3788 23.4205 28.3898 23.3612 28.3947 23.2958V23.2855L28.3862 23.2818C28.3281 23.2567 28.2609 23.2384 28.1857 23.2286L28.1869 23.2268Z" fill="#615F5F"/>
<path d="M19.4904 28.2249L19.4788 28.2262L19.4402 28.231L19.4268 28.2335C19.4078 28.2366 19.3907 28.2408 19.3754 28.2451C19.3571 28.2494 19.34 28.2555 19.3241 28.261C19.3082 28.2665 19.2935 28.2732 19.2776 28.2806L19.2666 28.2861L19.7086 29.9487H19.7208C19.7373 29.9468 19.7538 29.945 19.7709 29.9419C19.7715 29.9413 19.7862 29.9383 19.7862 29.9383L19.8241 29.9285C19.8431 29.9242 19.8602 29.9199 19.8755 29.9132C19.8761 29.9132 19.8938 29.9059 19.8938 29.9059L19.9335 29.8894L19.9305 29.8765L19.4916 28.2249H19.4904Z" fill="#615F5F"/>
<path d="M15.4016 29.2506C15.3875 29.1418 15.3588 29.044 15.316 28.9609C15.2726 28.8765 15.2133 28.8075 15.1412 28.7555C15.069 28.7035 14.9798 28.6718 14.874 28.6626C14.7695 28.6534 14.6754 28.6681 14.5947 28.7054C14.5134 28.7433 14.4425 28.8001 14.385 28.8747C14.3288 28.9493 14.2823 29.0403 14.2469 29.1455C14.212 29.25 14.1894 29.3649 14.1778 29.4951C14.1668 29.621 14.168 29.7414 14.1827 29.8515C14.1968 29.9627 14.2261 30.0599 14.2695 30.1424C14.3111 30.2255 14.3697 30.294 14.4437 30.3466C14.5171 30.3967 14.6075 30.4285 14.7114 30.4376C14.8154 30.4462 14.9095 30.4334 14.9914 30.3967C15.0709 30.3594 15.1412 30.3032 15.1998 30.228C15.2573 30.1534 15.3025 30.063 15.3362 29.9566C15.3704 29.8515 15.3936 29.7341 15.4046 29.607C15.4162 29.478 15.415 29.3582 15.401 29.2512L15.4016 29.2506ZM15.1632 29.585C15.1522 29.6925 15.1363 29.7818 15.1149 29.8588C15.0923 29.9364 15.0617 30.0031 15.0269 30.0562C14.9926 30.1088 14.9498 30.1473 14.9009 30.1736C14.8514 30.1993 14.7958 30.2078 14.7341 30.2011C14.6711 30.1956 14.6167 30.1766 14.5745 30.143C14.5317 30.1106 14.4975 30.0642 14.4724 30.0055C14.4474 29.9499 14.4303 29.8808 14.4205 29.794C14.4125 29.7115 14.4131 29.6198 14.4223 29.5183C14.4321 29.4181 14.448 29.327 14.4712 29.2476C14.4938 29.1681 14.5232 29.1015 14.558 29.0501C14.5941 28.9963 14.6369 28.9572 14.6845 28.9346C14.7328 28.9089 14.7872 28.8985 14.8514 28.9034C14.9162 28.9108 14.9682 28.9303 15.0104 28.9633C15.0538 28.9957 15.0886 29.0403 15.1143 29.1002C15.1399 29.1614 15.1577 29.2323 15.1656 29.3105C15.173 29.3912 15.1723 29.4835 15.1638 29.5856L15.1632 29.585Z" fill="#615F5F"/>
<path d="M13.6552 28.4976L13.6466 28.4951L13.6008 28.4835C13.5684 28.4762 13.5335 28.47 13.4913 28.4664H13.481C13.481 28.4664 12.8837 29.6595 12.8336 29.7579C12.8312 29.6479 12.8018 28.3136 12.8018 28.3136L12.7933 28.3093C12.7749 28.302 12.7572 28.2958 12.7383 28.2897L12.6832 28.2745L12.6405 28.2665L12.6246 28.2641C12.602 28.261 12.5842 28.2592 12.5696 28.2592H12.5537L12.6325 30.041L12.6777 30.0562L12.6973 30.063L12.7401 30.0752L12.7554 30.0789L12.8159 30.0892C12.8348 30.0923 12.8538 30.0954 12.8746 30.096H12.8844L13.7218 28.522L13.7071 28.5153C13.6912 28.5079 13.6729 28.5024 13.6558 28.4969L13.6552 28.4976Z" fill="#615F5F"/>
<path d="M16.4731 28.7958L16.4664 28.7421H16.453H15.6931V28.7573L15.6907 30.4652L15.7023 30.4676C15.7158 30.4701 15.7304 30.4719 15.7531 30.4743C15.7714 30.4762 15.7891 30.4762 15.8068 30.4762C15.8227 30.4768 15.8399 30.4762 15.8612 30.4743C15.8619 30.4743 15.9108 30.4676 15.9108 30.4676L15.923 30.4658V30.4523C15.923 30.4523 15.9236 29.7207 15.9236 29.6919H16.3772L16.3827 29.6253L16.3851 29.5709V29.5324L16.3839 29.5171L16.3784 29.4676L16.3759 29.4499C16.3759 29.4499 15.9511 29.4487 15.9236 29.4487C15.9236 29.4218 15.9242 29.0086 15.9242 28.9817C15.9523 28.9817 16.4652 28.9829 16.4652 28.9829L16.4731 28.9169C16.475 28.8949 16.475 28.8771 16.475 28.8613C16.475 28.8429 16.475 28.8246 16.4731 28.8062V28.7952V28.7958Z" fill="#615F5F"/>
<path d="M17.9665 29.6149C17.9463 29.566 17.9188 29.5238 17.8827 29.4878C17.8491 29.4517 17.8087 29.4224 17.7647 29.3985C17.7201 29.3753 17.6694 29.3539 17.6144 29.335L17.4994 29.2946C17.4683 29.2848 17.442 29.2745 17.4169 29.2616C17.3919 29.2494 17.3699 29.2353 17.3497 29.2182C17.3307 29.2017 17.3142 29.1809 17.3002 29.1583C17.2886 29.1369 17.2806 29.1112 17.2757 29.0789C17.2678 29.0031 17.2831 28.945 17.321 28.9034C17.357 28.8619 17.4163 28.8374 17.4958 28.8289C17.5526 28.8215 17.6052 28.8221 17.6523 28.8301C17.6999 28.8374 17.7427 28.8472 17.7782 28.8576L17.7935 28.8631L17.7971 28.8478C17.8124 28.78 17.8204 28.7115 17.8198 28.6449V28.6339L17.8087 28.6314C17.7586 28.6161 17.7054 28.6051 17.651 28.5996C17.5911 28.5929 17.5288 28.5929 17.4664 28.6002C17.313 28.6174 17.2018 28.6705 17.1272 28.7634C17.0514 28.8545 17.022 28.9749 17.0373 29.1216C17.044 29.184 17.0563 29.2347 17.074 29.2769C17.0923 29.3203 17.1162 29.3576 17.1431 29.3894C17.1718 29.4211 17.2024 29.4474 17.2378 29.4664C17.2721 29.4866 17.31 29.5037 17.3509 29.5196L17.4695 29.5611C17.5153 29.5782 17.5575 29.5947 17.5924 29.6094C17.6272 29.6247 17.6559 29.6412 17.6798 29.6608C17.7024 29.6779 17.7207 29.7017 17.7342 29.7304C17.7482 29.7586 17.7574 29.7928 17.7623 29.8368C17.7721 29.923 17.7543 29.9914 17.7079 30.0465C17.6633 30.1009 17.5887 30.1345 17.486 30.1461C17.4194 30.1522 17.3613 30.151 17.3142 30.143C17.2672 30.1345 17.2195 30.1235 17.1749 30.1088L17.1584 30.1039L17.1376 30.2298C17.1315 30.2708 17.1296 30.3075 17.1315 30.3411V30.3515L17.1914 30.3674L17.225 30.3759C17.2519 30.382 17.2806 30.3869 17.3112 30.3912C17.3436 30.3943 17.3741 30.3949 17.4071 30.3943C17.4426 30.3943 17.4793 30.3918 17.5202 30.3869C17.6932 30.368 17.8228 30.3056 17.9059 30.1993C17.9921 30.0941 18.0264 29.9566 18.0086 29.7928C18.0007 29.7225 17.9866 29.6644 17.9658 29.6155L17.9665 29.6149Z" fill="#615F5F"/>
<path d="M21.0968 29.4022L21.0864 29.3716C21.0754 29.3399 21.0638 29.3087 21.0479 29.2732L21.043 29.2604C21.043 29.2604 20.5038 29.4395 20.4769 29.4487C20.4684 29.423 20.3119 28.9535 20.3027 28.9273C20.3296 28.9187 20.7422 28.78 20.7422 28.78L20.7276 28.7158L20.7141 28.6663V28.6638C20.7062 28.6449 20.7013 28.6284 20.6933 28.6125C20.6866 28.5954 20.6799 28.5801 20.6719 28.5648L20.6658 28.5538C20.6658 28.5538 20.2538 28.6901 20.2269 28.6987C20.219 28.673 20.0918 28.2922 20.0833 28.2665C20.1102 28.2573 20.6322 28.0837 20.6322 28.0837L20.631 28.0709C20.6273 28.0507 20.6236 28.0336 20.6181 28.0189L20.6023 27.9664C20.5906 27.9297 20.5772 27.8967 20.5631 27.868L20.5582 27.8564L20.546 27.8606L19.7874 28.1125L20.3333 29.7488L21.1182 29.489L21.1035 29.4242L21.0968 29.4022Z" fill="#615F5F"/>
<path d="M13.4797 29.9205C13.3911 29.9046 13.3135 29.9609 13.2976 30.0538C13.289 30.1015 13.2976 30.1461 13.3226 30.1809C13.3446 30.2115 13.3777 30.2329 13.4174 30.2402L13.4204 30.2414H13.4211C13.4638 30.2488 13.5042 30.2414 13.5372 30.2176C13.5714 30.1932 13.5947 30.154 13.6032 30.1076C13.6112 30.0599 13.6026 30.0147 13.5775 29.9804C13.5549 29.948 13.5207 29.9285 13.4797 29.9211V29.9205Z" fill="#615F5F"/>
<path d="M19.2562 29.8068L19.2477 29.7934L19.2348 29.8038C19.1988 29.8307 19.1609 29.8545 19.1224 29.8722C19.082 29.8912 19.0343 29.9059 18.9806 29.9169C18.9139 29.9297 18.8497 29.9297 18.7892 29.9144C18.7305 29.8991 18.6774 29.8704 18.6278 29.8276C18.5796 29.7836 18.5362 29.7243 18.4995 29.6516C18.4622 29.5776 18.4335 29.4872 18.4127 29.3771C18.3943 29.2873 18.3858 29.2054 18.3858 29.129C18.3858 29.0293 18.4011 28.9425 18.4335 28.8692C18.4873 28.7457 18.5832 28.6693 18.7183 28.643C18.7532 28.6357 18.7843 28.632 18.8051 28.6296C18.8302 28.6271 18.8546 28.6259 18.8742 28.6259H18.8779C18.8968 28.6271 18.9164 28.629 18.9329 28.632C18.9335 28.632 18.9842 28.6388 18.9842 28.6388L19.0081 28.643L19.0105 28.6277C19.0154 28.5917 19.0191 28.5581 19.0227 28.5263C19.0246 28.4933 19.024 28.4584 19.0197 28.4211L19.0178 28.4108L19.0081 28.4083C18.964 28.3998 18.9139 28.3955 18.8546 28.393C18.7972 28.3918 18.7305 28.3973 18.6566 28.4114C18.5545 28.4309 18.4646 28.4707 18.3913 28.5287C18.3161 28.5868 18.2593 28.6601 18.2165 28.7482C18.1755 28.8356 18.1492 28.9376 18.1413 29.0532C18.1321 29.1693 18.1413 29.294 18.1663 29.4254C18.1926 29.5581 18.2311 29.676 18.2819 29.7744C18.3332 29.8753 18.395 29.9578 18.4659 30.0202C18.5392 30.085 18.6211 30.1296 18.7104 30.1534C18.8021 30.1773 18.8999 30.1785 19.0019 30.1577C19.0722 30.1443 19.1328 30.1265 19.1866 30.1027C19.2385 30.0807 19.2899 30.0501 19.3449 30.0079L19.3528 30.0012L19.3491 29.9914C19.3296 29.9291 19.299 29.868 19.2562 29.8056V29.8068Z" fill="#615F5F"/>
<path d="M21.7533 27.338L21.708 27.3509C21.6903 27.3564 21.6763 27.3612 21.6622 27.368C21.6457 27.3741 21.6292 27.3833 21.6145 27.3906L21.5705 27.4175L21.5595 27.4236L21.5644 27.4358C21.5644 27.4358 22.007 28.4377 22.0534 28.544C21.9629 28.4682 21.0081 27.6626 21.0081 27.6626L20.9929 27.6663C20.9806 27.6687 20.9678 27.6724 20.9537 27.6773L20.933 27.6846L20.9097 27.6932L20.9054 27.6956L20.8651 27.7145C20.8498 27.7249 20.8358 27.7323 20.8248 27.7402L20.8144 27.7476L21.5094 29.324L21.5295 29.3191C21.5412 29.3166 21.554 29.3136 21.5674 29.3093C21.5846 29.3038 21.6011 29.2977 21.617 29.2897C21.631 29.2836 21.6445 29.2769 21.6616 29.2677C21.675 29.261 21.6891 29.2524 21.7031 29.2421L21.7129 29.2341C21.7129 29.2341 21.2685 28.2274 21.2227 28.1222C21.3125 28.1968 22.2655 28.9963 22.2655 28.9963L22.2722 28.9945L22.312 28.9841L22.3199 28.9823C22.3346 28.9774 22.3487 28.9725 22.3658 28.9652L22.4092 28.9444C22.4232 28.9364 22.4379 28.9279 22.4513 28.9181L22.4611 28.9114L21.7655 27.3337L21.7539 27.3368L21.7533 27.338Z" fill="#615F5F"/>
<path d="M28.6166 14.2677C28.6166 14.2873 28.6178 14.3062 28.6203 14.3227C28.6221 14.3411 28.6246 14.3594 28.627 14.3771L28.6295 14.3851L28.6417 14.4383L28.6496 14.4395C28.6496 14.4395 29.4162 14.6595 29.4822 14.6785C29.4204 14.7103 28.7004 15.0764 28.7004 15.0764L28.6985 15.14L28.7022 15.1962L28.7089 15.2549V15.2573L28.7224 15.3136L28.7266 15.3325L28.7438 15.3227C28.7438 15.3227 29.7646 14.7769 29.7701 14.7732C29.775 14.7732 30.3972 14.7145 30.3972 14.7145L30.3985 14.7023C30.3997 14.6846 30.4003 14.6687 30.4003 14.6528L30.3985 14.599L30.3966 14.5868L30.3899 14.5465L30.3826 14.5116L30.3759 14.4829H30.3624C30.3624 14.4829 29.753 14.541 29.7475 14.541C29.7414 14.5397 28.6203 14.1919 28.6203 14.1919L28.6185 14.2103C28.6178 14.2243 28.6166 14.2384 28.6166 14.2518C28.6166 14.2567 28.6166 14.2622 28.6166 14.2665V14.2677Z" fill="#615F5F"/>
<path d="M6.12799 5.26039C5.94522 5.2714 5.78323 5.34536 5.64692 5.48105C5.51 5.61614 5.43603 5.77873 5.42564 5.95966C5.41464 6.14181 5.47026 6.2989 5.59313 6.42054C5.71661 6.54462 5.87187 6.60086 6.05464 6.58986C6.23557 6.57947 6.39817 6.50673 6.53326 6.37103C6.6708 6.23411 6.74415 6.07213 6.75576 5.8912C6.76616 5.70844 6.70931 5.55318 6.58705 5.42971C6.46419 5.30685 6.30954 5.25 6.12738 5.26101L6.12799 5.26039ZM6.40795 5.9346C6.4104 6.02323 6.38106 6.09719 6.32176 6.15648C6.26064 6.217 6.18667 6.24572 6.09926 6.24328C6.01124 6.23961 5.93544 6.20416 5.87248 6.14242C5.80891 6.08008 5.77529 6.00306 5.77162 5.91443C5.76979 5.82641 5.79913 5.75123 5.85781 5.69255C5.91771 5.63325 5.9929 5.60453 6.08092 5.60636C6.16956 5.61003 6.24597 5.64426 6.30954 5.70844C6.3725 5.77201 6.40612 5.84719 6.40856 5.9346H6.40795Z" fill="#615F5F"/>
<path d="M7.496 5.54034L5.70254 7.33069C5.70254 7.33069 5.69948 7.33558 5.70192 7.33802L5.91893 7.55563C5.91893 7.55563 5.92504 7.55746 5.92626 7.55501C5.92626 7.55501 6.67079 6.81418 6.67812 6.80501L6.7906 6.91871C6.78326 6.92665 6.23312 7.47555 6.23312 7.47555C6.23067 7.478 6.23067 7.48167 6.23495 7.4835L6.44278 7.69193C6.44278 7.69193 6.44706 7.69377 6.4489 7.69193C6.4489 7.69193 7.56141 6.58191 7.56997 6.57213C7.57547 6.58191 7.66043 6.66443 7.66838 6.67299C7.66043 6.68032 6.54731 7.78973 6.54731 7.78973C6.54609 7.7934 6.54609 7.79585 6.54731 7.79829L6.87495 8.12592C6.94342 8.19438 6.99537 8.23472 7.06322 8.23839C7.13474 8.24083 7.18609 8.20599 7.24294 8.14854L8.45814 6.93582C8.45814 6.93582 8.4612 6.93093 8.45875 6.9291L8.25092 6.71944C8.25092 6.71944 8.24481 6.71638 8.24298 6.71944L7.13474 7.82396C7.13046 7.82824 7.12068 7.8313 7.11457 7.8258C7.11457 7.8258 7.02655 7.73717 7.01982 7.72861C7.02655 7.72127 8.09077 6.66015 8.09077 6.66015C8.10789 6.64242 8.11644 6.62409 8.11461 6.60575C8.11278 6.58374 8.10055 6.56846 8.08894 6.55501L7.65799 6.12286C7.62437 6.09291 7.59686 6.11553 7.59381 6.11797C7.59381 6.11797 7.09195 6.61858 7.0834 6.62775L6.97092 6.51345C6.97826 6.5055 7.72217 5.76406 7.72217 5.76406C7.7234 5.76162 7.72462 5.75978 7.72217 5.75734L7.50517 5.53912C7.50212 5.53668 7.49906 5.53668 7.49661 5.53912L7.496 5.54034Z" fill="#615F5F"/>
<path d="M3.88891 7.71946L3.70919 8.03486C3.70919 8.03486 3.70858 8.04097 3.71103 8.04342C3.71103 8.04342 4.33513 8.39672 4.34308 8.40161C4.3388 8.41016 4.03011 8.95356 4.03011 8.95356C4.02828 8.95723 4.02828 8.96151 4.03133 8.96212L4.30763 9.11921C4.30763 9.11921 4.31068 9.12105 4.31129 9.12043C4.31252 9.12043 4.31435 9.11921 4.31435 9.11799C4.31435 9.11799 4.62426 8.57337 4.62977 8.5642C4.63893 8.56909 6.25024 9.48351 6.25024 9.48351C6.25269 9.48413 6.25636 9.48413 6.25758 9.48229L6.43668 9.16689C6.43668 9.16689 6.43729 9.16078 6.43362 9.15955L3.89502 7.71701C3.89502 7.71701 3.88891 7.7164 3.8883 7.71946H3.88891Z" fill="#615F5F"/>
<path d="M4.96841 9.0648L4.95435 9.07702C4.84493 9.17788 4.67989 9.25184 4.46472 9.29279C4.23672 9.3368 3.99221 9.28423 3.73364 9.13876L3.24524 8.86186C3.24524 8.86186 3.23851 8.86125 3.23668 8.86431L3.05147 9.19071C3.05147 9.19071 3.05024 9.19805 3.0533 9.19866L3.54232 9.47678C3.79966 9.62286 3.96898 9.80807 4.04845 10.0251C4.12302 10.2304 4.14381 10.4095 4.11385 10.5569L4.1108 10.5746C4.10896 10.5825 4.1108 10.5868 4.11202 10.5892C4.11752 10.5947 4.12608 10.5966 4.12669 10.5966L4.14808 10.5929L4.42866 10.5538C4.43294 10.5538 4.44455 10.5489 4.447 10.5348C4.47634 10.4114 4.47206 10.2647 4.43294 10.0892C4.39015 9.89731 4.3333 9.75551 4.25689 9.66015C4.37853 9.67543 4.52891 9.65404 4.71596 9.5923C4.88711 9.53484 5.01487 9.46333 5.10533 9.37531C5.11695 9.36614 5.11389 9.35514 5.11145 9.35025L5.00142 9.08925L4.99408 9.06908C4.99408 9.06908 4.98797 9.06235 4.98002 9.05991C4.97697 9.05991 4.97147 9.06235 4.96596 9.0648H4.96841Z" fill="#615F5F"/>
<path d="M16.3228 1.60269H15.0238C15.0238 1.60269 15.0189 1.60514 15.0189 1.60697V1.91565C15.0189 1.91932 15.022 1.92054 15.0238 1.92054H15.9676C15.9676 2.37592 15.8527 2.68032 15.6296 2.88876C15.4034 3.09902 15.1522 3.23839 14.8832 3.30624L14.8667 3.30929C14.8667 3.30929 14.8557 3.31357 14.8539 3.32274C14.8526 3.32519 14.852 3.32702 14.852 3.32946C14.852 3.33313 14.8539 3.33741 14.8563 3.34108L14.8685 3.35453L15.0232 3.5489C15.0232 3.5489 15.0299 3.55746 15.0409 3.55563C15.33 3.51039 15.6265 3.3478 15.9211 3.0813C16.2158 2.81174 16.3655 2.42971 16.3655 1.88325V1.64854C16.3655 1.64854 16.3674 1.6247 16.3576 1.61308C16.3472 1.60269 16.3289 1.60269 16.3246 1.60269H16.3228Z" fill="#615F5F"/>
<path d="M17.1846 1.3588H16.824C16.824 1.3588 16.8191 1.36186 16.8191 1.36369V4.2824C16.8191 4.2824 16.8209 4.28668 16.824 4.28668H17.1846C17.1846 4.28668 17.1895 4.28423 17.1895 4.2824V1.3643C17.1895 1.3643 17.1871 1.35941 17.1846 1.35941V1.3588Z" fill="#615F5F"/>
<path d="M13.7475 3.38142L11.9986 3.82885C11.9949 3.82885 11.9931 3.8313 11.9949 3.83435L12.0714 4.13264C12.0714 4.13264 12.0744 4.13692 12.0775 4.13692L13.5036 3.77262C13.5133 3.77078 13.5243 3.77812 13.525 3.7879L13.6998 4.47188C13.7004 4.47555 13.7034 4.47677 13.7059 4.47616L14.0727 4.38386C14.0727 4.38386 14.0769 4.37897 14.0757 4.37714L13.8367 3.4401C13.8306 3.41687 13.8208 3.40037 13.8043 3.38998C13.7878 3.37897 13.7689 3.37531 13.7475 3.38142Z" fill="#615F5F"/>
<path d="M12.7762 1.94193C12.7762 1.94193 12.1728 2.09719 12.1612 2.10025C12.1588 2.08986 12.1013 1.86797 12.1013 1.86797C12.1007 1.86492 12.0983 1.86369 12.0958 1.86492L11.7223 1.96027C11.7193 1.96088 11.718 1.96333 11.718 1.96638C11.718 1.96638 11.7761 2.18827 11.7786 2.19805C11.7669 2.20171 11.1673 2.35391 11.1673 2.35391C11.1642 2.35391 11.163 2.35697 11.1636 2.36003L11.24 2.65832C11.24 2.65832 11.2437 2.66259 11.2455 2.66137C11.2455 2.66137 11.3941 2.6247 11.4815 2.60269C11.4387 2.71088 11.435 2.83619 11.465 2.95416C11.5078 3.11858 11.6105 3.24511 11.7706 3.32702C11.9295 3.41015 12.1038 3.42788 12.2878 3.38142C12.4711 3.33313 12.616 3.23533 12.7163 3.08558C12.8177 2.93704 12.8471 2.7769 12.8043 2.61125C12.7743 2.49634 12.7108 2.38753 12.6227 2.31174C12.7095 2.28729 12.8556 2.25061 12.8556 2.25061C12.8593 2.25061 12.8605 2.24817 12.8605 2.24511L12.7829 1.9456C12.7829 1.9456 12.7798 1.94132 12.7762 1.94193ZM12.3984 2.95049C12.3574 3.02445 12.2957 3.07457 12.215 3.09475C12.1343 3.11492 12.0567 3.10391 11.984 3.05624C11.9112 3.00917 11.8623 2.94316 11.8397 2.85819C11.8183 2.77262 11.825 2.67788 11.8666 2.60269C11.9094 2.5269 11.9711 2.478 12.0506 2.45783C12.1313 2.43704 12.2095 2.44988 12.281 2.49695C12.355 2.54218 12.4057 2.62103 12.4283 2.70783C12.4497 2.7934 12.44 2.8747 12.3978 2.9511L12.3984 2.95049Z" fill="#615F5F"/>
<path d="M13.8648 2.05009C13.8648 2.05009 13.5152 2.13872 13.5048 2.14116C13.5023 2.13138 13.3538 1.54948 13.3538 1.54948C13.352 1.5452 13.3495 1.54337 13.3465 1.54459L12.9956 1.63444C12.9956 1.63444 12.9913 1.63811 12.9913 1.63994L13.4125 3.28481C13.4125 3.28481 13.4149 3.2897 13.4192 3.28909L13.7695 3.19984C13.7731 3.19984 13.7744 3.19618 13.7737 3.19373C13.7737 3.19373 13.5946 2.4908 13.5922 2.4798C13.6026 2.47796 13.9522 2.3875 13.9522 2.3875C13.9547 2.3875 13.9565 2.38505 13.9559 2.382L13.8722 2.0507C13.8722 2.0507 13.8673 2.04887 13.8642 2.04887L13.8648 2.05009Z" fill="#615F5F"/>
<path d="M25.5774 7.49755L24.3334 6.18704C24.3322 6.18398 24.3292 6.18398 24.3261 6.18582L24.1024 6.39975C24.1024 6.39975 24.1012 6.40403 24.1024 6.40587L25.1177 7.47433C25.122 7.48044 25.1189 7.49205 25.114 7.49817L24.6012 7.98655C24.6012 7.98655 24.5987 7.99205 24.6012 7.9945L24.861 8.26834C24.861 8.26834 24.8665 8.26956 24.8683 8.26834L25.57 7.60208C25.5872 7.58557 25.5957 7.56785 25.5982 7.5489C25.5988 7.52995 25.5939 7.51222 25.5774 7.49694V7.49755Z" fill="#615F5F"/>
<path d="M26.3598 5.9462C26.3598 5.9462 25.9307 5.49266 25.9233 5.4841C25.9313 5.47738 26.0963 5.3209 26.0963 5.3209C26.0994 5.31784 26.0982 5.3154 26.0963 5.31295L25.8317 5.03483C25.8298 5.03056 25.8255 5.03056 25.8237 5.03361C25.8237 5.03361 25.6568 5.1907 25.6507 5.19743C25.6422 5.19009 25.2167 4.74144 25.2167 4.74144C25.2143 4.73899 25.2112 4.73899 25.2094 4.74021L24.9857 4.9517C24.9857 4.9517 24.9838 4.95904 24.9857 4.96026C24.9857 4.96026 25.0902 5.06968 25.1519 5.13508C25.0376 5.15281 24.9258 5.21087 24.8402 5.29278C24.7149 5.41136 24.6556 5.56173 24.6611 5.74144C24.6666 5.92053 24.735 6.08251 24.8659 6.22004C24.9967 6.35757 25.1531 6.43581 25.3329 6.44987C25.512 6.46637 25.6648 6.4132 25.7895 6.29645C25.8757 6.2121 25.9411 6.10513 25.9643 5.99021C26.0242 6.05623 26.13 6.16503 26.13 6.16503C26.1324 6.16809 26.1355 6.16809 26.1373 6.16625L26.3598 5.95415C26.3629 5.95048 26.3629 5.94743 26.3598 5.94559V5.9462ZM25.2974 6.10757C25.2112 6.10879 25.1379 6.07762 25.0798 6.01711C25.0229 5.95598 24.9961 5.88202 25.0016 5.79645C25.0071 5.70965 25.0413 5.63508 25.1061 5.57457C25.1697 5.51405 25.2546 5.47493 25.342 5.47432C25.4282 5.47432 25.501 5.50427 25.5578 5.56479C25.6147 5.6253 25.6409 5.69865 25.6373 5.78483C25.6312 5.87102 25.5878 5.95415 25.5236 6.01527C25.46 6.0764 25.383 6.10635 25.298 6.10757H25.2974Z" fill="#615F5F"/>
<path d="M26.7969 6.94866C26.7969 6.94866 26.5481 6.68643 26.5401 6.68032C26.5475 6.67176 26.9845 6.25795 26.9845 6.25795C26.9857 6.25489 26.987 6.25183 26.9845 6.25122L26.7345 5.98716C26.7345 5.98716 26.729 5.98411 26.7278 5.98716L25.4949 7.15648C25.4949 7.15648 25.4936 7.16198 25.4949 7.16381L25.7449 7.42604C25.7449 7.42604 25.7498 7.4291 25.7528 7.42604C25.7528 7.42604 26.2785 6.92726 26.2858 6.91993C26.2932 6.92848 26.542 7.1901 26.542 7.1901C26.5444 7.19132 26.5475 7.19193 26.5499 7.1901L26.7962 6.9566C26.7962 6.9566 26.7987 6.9511 26.7962 6.94866H26.7969Z" fill="#615F5F"/>
<path d="M14.4804 24.4932C14.6791 24.4896 14.8209 24.4205 14.9046 24.2878C14.9841 24.1589 15.0263 24.0128 15.0311 23.8471L15.0238 23.8429C14.9187 23.9841 14.7695 24.055 14.577 24.0513C14.1295 24.0391 13.9064 23.827 13.904 23.4125C13.9052 23.1815 13.9681 22.9981 14.0935 22.8655C14.22 22.7322 14.4125 22.6656 14.6723 22.6625C14.8325 22.6656 14.9639 22.6943 15.0672 22.7444C15.1705 22.797 15.25 22.8716 15.3044 22.9627C15.4077 23.1558 15.4566 23.3808 15.4511 23.6363C15.4541 23.9321 15.3887 24.1998 15.2592 24.4407C15.1186 24.687 14.8673 24.8147 14.503 24.8221C14.3355 24.8221 14.1723 24.7933 14.0164 24.7383L14.0757 24.4076C14.1949 24.4621 14.33 24.4908 14.4798 24.492L14.4804 24.4932ZM14.9217 23.6191C14.9682 23.5458 14.9908 23.4529 14.9908 23.3453C14.9908 23.2463 14.9664 23.1576 14.9199 23.088C14.8685 23.0158 14.7854 22.9792 14.6717 22.9779C14.5635 22.9798 14.4871 23.0158 14.4382 23.0892C14.3899 23.1662 14.3649 23.2518 14.3649 23.3502C14.3649 23.4486 14.3899 23.5427 14.4394 23.6173C14.4914 23.6968 14.5702 23.7371 14.6791 23.7402C14.7921 23.7389 14.8722 23.6992 14.9217 23.6198V23.6191Z" fill="#ACADAE"/>
<path d="M17.1076 22.7054H17.5135V24.7891H17.0538V23.1791L16.6638 23.4645L16.4328 23.1925L17.1082 22.7054H17.1076Z" fill="#ACADAE"/>
<path d="M12.4094 22.7035H12.8153V24.7873H12.355V23.1779L11.9656 23.4627L11.734 23.1901L12.4094 22.7029V22.7035Z" fill="#ACADAE"/>
<path d="M18.9268 24.7182C18.8173 24.651 18.7367 24.5623 18.6823 24.4529C18.6266 24.3435 18.5924 24.2268 18.5734 24.1015C18.5551 23.981 18.5478 23.8649 18.5478 23.7555C18.5478 23.6216 18.5612 23.4902 18.5869 23.3619C18.615 23.2329 18.6578 23.1167 18.7177 23.0153C18.7794 22.9101 18.862 22.8282 18.9653 22.7628C19.0674 22.7017 19.1945 22.6711 19.3485 22.6711C19.5154 22.6742 19.6536 22.7066 19.7618 22.7714C19.8669 22.838 19.947 22.9266 20.0044 23.0312C20.0619 23.1369 20.0998 23.2531 20.1218 23.3808C20.1407 23.5086 20.1517 23.6351 20.1505 23.7586C20.1505 23.8796 20.1395 24.0018 20.1206 24.1259C20.0986 24.2506 20.057 24.3655 19.9977 24.4737C19.9402 24.5795 19.8583 24.6638 19.7538 24.7286C19.6475 24.7946 19.5099 24.8295 19.3437 24.8313C19.1707 24.8282 19.0301 24.7891 18.9262 24.7182H18.9268ZM19.5503 24.4358C19.5967 24.3808 19.6297 24.3154 19.6493 24.2353C19.6719 24.154 19.6853 24.0703 19.6896 23.9835V23.7586C19.6909 23.6858 19.689 23.6076 19.6878 23.5189C19.6829 23.4328 19.6701 23.3502 19.6475 23.2689C19.6273 23.1846 19.5943 23.1149 19.5503 23.0642C19.5001 23.0128 19.4335 22.9853 19.3479 22.9853C19.2624 22.9853 19.2012 23.0128 19.1548 23.0642C19.1095 23.1143 19.0735 23.1834 19.0521 23.2677C19.0337 23.3484 19.0221 23.4315 19.0148 23.5165C19.0105 23.6057 19.0081 23.684 19.0081 23.7567C19.0081 23.8209 19.0111 23.8973 19.0148 23.9823C19.0203 24.0697 19.0325 24.1528 19.0509 24.2341C19.0722 24.3148 19.1077 24.3796 19.1517 24.434C19.1994 24.489 19.2642 24.5153 19.3449 24.5153C19.4353 24.5159 19.5014 24.4896 19.5509 24.4352L19.5503 24.4358Z" fill="#ACADAE"/>
<path d="M19.6829 21.0269V18.4818H13.1743V11.1858H12.173H6.5406L12.173 14.7638V21.0269H19.6829Z" fill="#00387F"/>
<path d="M24.8787 11.1858L19.255 14.7922V11.1858H24.8787Z" fill="#BA000C"/>
</g>
<defs>
<clipPath id="clip0_20_85">
<rect width="32" height="32" rx="16" fill="white"/>
</clipPath>
</defs>
</svg>
