<svg viewBox="0 0 268 20" fill="none" xmlns="http://www.w3.org/2000/svg" preserveAspectRatio="xMidYMid meet">
<g clip-path="url(#clip0_829_15848)">
<path d="M48.3481 16.0632H59.0078V19.3579H44.8077V0.536842H48.3481V16.0596V16.0632ZM62.51 19.3544H66.0505V0.536842H62.51V19.3544ZM26.4961 7.37895L37.3403 0.536842H26.4961V7.37895ZM85.027 0.536842H79.9617L73.678 7.95439V0.536842H70.1375V19.3544H73.678V11.9404L80.6719 19.3544H85.7372L76.5605 9.92632L85.027 0.536842ZM13.0305 0.536842H0L10.8442 7.37895V19.3544H26.4961V14.9404H13.0305V0.536842ZM122.959 19.3544H126.5V0.536842H122.959V19.3544ZM165.417 0.536842V12.9789L155.008 0.536842H151.589V19.3544H155.13V6.80702L165.626 19.3544H168.957V0.536842H165.417ZM91.248 11.5123H100.244V8.27368H91.248V3.82807H101.441V0.536842H87.7076V19.3544H101.574V16.0596H91.248V11.5123ZM148.992 9.89123C148.992 15.5263 144.644 19.8947 139.095 19.8947C133.546 19.8947 129.253 15.6421 129.253 10.0035C129.253 4.36491 133.601 0 139.151 0C144.7 0 148.992 4.25263 148.992 9.89123ZM145.525 9.90877C145.525 6.25263 142.782 3.49474 139.14 3.49474C135.499 3.49474 132.721 6.32982 132.721 9.98246C132.721 13.6351 135.464 16.3965 139.105 16.3965C142.747 16.3965 145.525 13.5614 145.525 9.90877ZM108.641 0.536842H105.1V19.3544H119.3V16.0596H108.641V0.536842Z" fill="#FF7710"/>
<path d="M267.372 19.4433H265.874V14.7813H261.002V19.4433H259.518V9.11133H261.002V13.4933H265.874V9.11133H267.372V19.4433Z" fill="#FF7710"/>
<path d="M254.335 19.556C253.346 19.556 252.464 19.332 251.689 18.884C250.924 18.436 250.322 17.8107 249.883 17.008C249.454 16.2053 249.239 15.2953 249.239 14.278C249.239 13.2513 249.454 12.3413 249.883 11.548C250.322 10.7453 250.924 10.12 251.689 9.672C252.464 9.224 253.346 9 254.335 9C255.026 9 255.679 9.13533 256.295 9.406C256.911 9.67667 257.457 10.0547 257.933 10.54L256.953 11.506C256.636 11.1327 256.244 10.8387 255.777 10.624C255.32 10.4093 254.835 10.302 254.321 10.302C253.612 10.302 252.987 10.47 252.445 10.806C251.904 11.1327 251.484 11.5993 251.185 12.206C250.887 12.8033 250.737 13.494 250.737 14.278C250.737 15.062 250.887 15.7573 251.185 16.364C251.484 16.9613 251.904 17.428 252.445 17.764C252.987 18.0907 253.612 18.254 254.321 18.254C254.844 18.254 255.325 18.1467 255.763 17.932C256.202 17.7173 256.58 17.4327 256.897 17.078L257.933 18.016C256.907 19.052 255.707 19.5653 254.335 19.556Z" fill="#FF7710"/>
<path d="M247.952 10.4133H242.758V13.4793H247.224V14.7673H242.758V18.1413H247.952V19.4433H241.274V9.11133H247.952V10.4133Z" fill="#FF7710"/>
<path d="M239.892 10.4133H236.98V19.4433H235.482V10.4133H232.556V9.11133H239.892V10.4133Z" fill="#FF7710"/>
<path d="M227.312 18.1413H231.988V19.4433H225.828V9.11133H227.312V18.1413Z" fill="#FF7710"/>
<path d="M219.968 19.5413C219.156 19.5413 218.451 19.364 217.854 19.0093C217.256 18.6547 216.799 18.1647 216.482 17.5393C216.174 16.9047 216.02 16.1767 216.02 15.3553V9.11133H217.504V15.3553C217.504 16.2233 217.714 16.9093 218.134 17.4133C218.554 17.9173 219.165 18.1693 219.968 18.1693C220.77 18.1693 221.382 17.9173 221.802 17.4133C222.222 16.9093 222.432 16.2233 222.432 15.3553V9.11133H223.93V15.3553C223.93 16.1767 223.771 16.9047 223.454 17.5393C223.136 18.1647 222.679 18.6547 222.082 19.0093C221.484 19.364 220.78 19.5413 219.968 19.5413Z" fill="#FF7710"/>
<path d="M209.39 18.254C210.109 18.254 210.743 18.0907 211.294 17.764C211.854 17.428 212.283 16.9613 212.582 16.364C212.89 15.7573 213.044 15.062 213.044 14.278C213.044 13.494 212.89 12.8033 212.582 12.206C212.283 11.5993 211.854 11.1327 211.294 10.806C210.743 10.47 210.109 10.302 209.39 10.302C208.671 10.302 208.037 10.47 207.486 10.806C206.935 11.1327 206.506 11.5993 206.198 12.206C205.899 12.8033 205.75 13.494 205.75 14.278C205.75 15.062 205.899 15.7573 206.198 16.364C206.506 16.9613 206.935 17.428 207.486 17.764C208.037 18.0907 208.671 18.254 209.39 18.254ZM209.39 9C210.389 9 211.275 9.224 212.05 9.672C212.834 10.12 213.445 10.7453 213.884 11.548C214.323 12.3507 214.542 13.2607 214.542 14.278C214.542 15.2953 214.323 16.2053 213.884 17.008C213.445 17.8107 212.834 18.436 212.05 18.884C211.275 19.332 210.389 19.556 209.39 19.556C208.401 19.556 207.514 19.332 206.73 18.884C205.955 18.436 205.349 17.8107 204.91 17.008C204.471 16.2053 204.252 15.2953 204.252 14.278C204.252 13.2607 204.471 12.3507 204.91 11.548C205.349 10.7453 205.955 10.12 206.73 9.672C207.514 9.224 208.401 9 209.39 9Z" fill="#FF7710"/>
<path d="M202.923 10.4133H197.729V13.4793H202.195V14.7673H197.729V18.1413H202.923V19.4433H196.245V9.11133H202.923V10.4133Z" fill="#FF7710"/>
<path d="M188.613 16.504C188.912 17.0827 189.266 17.5213 189.677 17.82C190.097 18.1187 190.54 18.268 191.007 18.268C191.651 18.268 192.15 18.1233 192.505 17.834C192.86 17.5353 193.037 17.1387 193.037 16.644C193.037 16.3173 192.939 16.042 192.743 15.818C192.556 15.594 192.318 15.4167 192.029 15.286C191.749 15.146 191.357 14.9827 190.853 14.796C190.209 14.5627 189.686 14.3387 189.285 14.124C188.884 13.9093 188.543 13.606 188.263 13.214C187.983 12.822 187.843 12.318 187.843 11.702C187.843 11.1513 187.983 10.6707 188.263 10.26C188.543 9.84933 188.93 9.53667 189.425 9.322C189.92 9.10733 190.484 9 191.119 9C191.838 9 192.482 9.20067 193.051 9.602C193.63 9.994 194.059 10.582 194.339 11.366L193.009 11.842C192.832 11.3287 192.58 10.946 192.253 10.694C191.926 10.4327 191.558 10.2973 191.147 10.288C190.596 10.288 190.153 10.4187 189.817 10.68C189.49 10.932 189.327 11.2727 189.327 11.702C189.327 12.0287 189.42 12.304 189.607 12.528C189.803 12.752 190.046 12.9387 190.335 13.088C190.634 13.228 191.03 13.3913 191.525 13.578C192.169 13.83 192.687 14.0633 193.079 14.278C193.471 14.4927 193.807 14.796 194.087 15.188C194.367 15.5707 194.507 16.0607 194.507 16.658C194.507 17.2273 194.367 17.7313 194.087 18.17C193.807 18.6087 193.401 18.9493 192.869 19.192C192.346 19.4347 191.73 19.556 191.021 19.556C190.265 19.556 189.579 19.3553 188.963 18.954C188.347 18.5433 187.82 17.9553 187.381 17.19L188.613 16.504Z" fill="#FF7710"/>
<path d="M179.258 14.2633L182.786 19.4433H180.938L178.334 15.5373L175.73 19.4433H173.882L177.41 14.2633L173.882 9.11133H175.73L178.334 13.0033L180.938 9.12533L182.786 9.11133L179.258 14.2633Z" fill="#FF7710"/>
</g>
<defs>
<clipPath id="clip0_829_15848">
<rect width="268" height="20" fill="white"/>
</clipPath>
</defs>
</svg>
