<svg viewBox="0 0 151 151" fill="none" preserveAspectRatio="xMidYMid slice" xmlns="http://www.w3.org/2000/svg">
<g opacity="0.5">
<circle cx="75.5215" cy="75.9258" r="68" fill="white" stroke="url(#paint0_linear_2199_28364)" stroke-width="14"/>
<path d="M65.2597 90.6807C65.2976 86.1346 65.7144 82.4598 66.5099 79.6563C67.3055 76.815 68.442 74.5419 69.9195 72.8371C71.4349 71.1323 73.4428 69.5033 75.9432 67.95C78.7088 66.1316 80.8303 64.2942 82.3078 62.4378C83.8232 60.5815 84.5809 58.441 84.5809 56.0164C84.5809 54.1601 84.1452 52.531 83.2738 51.1293C82.4025 49.6897 81.2091 48.5721 79.6937 47.7765C78.1784 46.9809 76.5114 46.5831 74.693 46.5831C72.8745 46.5831 71.1697 46.9809 69.5786 47.7765C68.0253 48.5721 66.7562 49.7465 65.7712 51.2998C64.8241 52.8152 64.3126 54.6526 64.2369 56.812H48.0981C48.2117 51.6597 49.443 47.3219 51.7918 43.7986C54.1785 40.2375 57.3608 37.5856 61.3387 35.8429C65.3545 34.0623 69.8438 33.172 74.8066 33.172C80.0726 33.172 84.7513 34.0623 88.8429 35.8429C92.9344 37.6235 96.1167 40.1996 98.3898 43.5713C100.701 46.9052 101.856 50.8641 101.856 55.4481C101.856 59.9185 100.795 63.7448 98.6739 66.9271C96.5902 70.1094 93.5595 72.875 89.5816 75.2238C87.3464 76.5877 85.5658 77.9515 84.2399 79.3154C82.9518 80.6413 81.9668 82.2135 81.2849 84.032C80.6409 85.8505 80.2999 88.0667 80.262 90.6807V91.9309H65.2597V90.6807ZM73.1018 117.617C71.3592 117.617 69.7491 117.181 68.2716 116.31C66.7941 115.438 65.6196 114.283 64.7483 112.843C63.9148 111.366 63.5171 109.775 63.5549 108.07C63.5171 106.365 63.9148 104.793 64.7483 103.353C65.6196 101.913 66.7941 100.777 68.2716 99.9435C69.7491 99.0722 71.3592 98.6365 73.1018 98.6365C74.7309 98.6365 76.2652 99.0722 77.7048 99.9435C79.1823 100.777 80.3567 101.913 81.2281 103.353C82.0994 104.793 82.5351 106.365 82.5351 108.07C82.5351 109.775 82.0994 111.366 81.2281 112.843C80.3567 114.283 79.1823 115.438 77.7048 116.31C76.2652 117.181 74.7309 117.617 73.1018 117.617Z" fill="#FF7710"/>
</g>
<defs>
<linearGradient id="paint0_linear_2199_28364" x1="75.5215" y1="0.925781" x2="75.5215" y2="150.926" gradientUnits="userSpaceOnUse">
<stop stop-color="#FF7710"/>
<stop offset="1" stop-color="#FD903D"/>
</linearGradient>
</defs>
</svg>
