<svg viewBox="0 0 304 191" fill="none" preserveAspectRatio="xMidYMid slice" xmlns="http://www.w3.org/2000/svg">
<g filter="url(#filter0_d_2199_28354)">
<rect x="20.3516" y="20.9258" width="262.67" height="150" rx="30.9278" fill="url(#paint0_linear_2199_28354)"/>
<path d="M54.1436 60.7227H68.792V119.316H99.2607V131.426H54.1436V60.7227ZM123.382 131.426H108.733V60.7227H123.382V131.426ZM135.296 60.7227H149.944V92.0703H150.921L176.604 60.7227H194.28L167.913 92.3633L194.573 131.426H176.995L157.366 102.227L149.944 111.211V131.426H135.296V60.7227ZM201.604 60.7227H249.065V72.832H216.253V90.0195H246.624V102.129H216.253V119.316H249.163V131.426H201.604V60.7227Z" fill="white"/>
</g>
<defs>
<filter id="filter0_d_2199_28354" x="0.351562" y="0.925781" width="302.67" height="190" filterUnits="userSpaceOnUse" color-interpolation-filters="sRGB">
<feFlood flood-opacity="0" result="BackgroundImageFix"/>
<feColorMatrix in="SourceAlpha" type="matrix" values="0 0 0 0 0 0 0 0 0 0 0 0 0 0 0 0 0 0 127 0" result="hardAlpha"/>
<feOffset/>
<feGaussianBlur stdDeviation="10"/>
<feComposite in2="hardAlpha" operator="out"/>
<feColorMatrix type="matrix" values="0 0 0 0 1 0 0 0 0 0.466667 0 0 0 0 0.0627451 0 0 0 0.3 0"/>
<feBlend mode="normal" in2="BackgroundImageFix" result="effect1_dropShadow_2199_28354"/>
<feBlend mode="normal" in="SourceGraphic" in2="effect1_dropShadow_2199_28354" result="shape"/>
</filter>
<linearGradient id="paint0_linear_2199_28354" x1="151.687" y1="20.9258" x2="151.687" y2="170.926" gradientUnits="userSpaceOnUse">
<stop stop-color="#FF7710"/>
<stop offset="1" stop-color="#FF903B"/>
</linearGradient>
</defs>
</svg>
