<svg viewBox="0 0 325 191" fill="none" preserveAspectRatio="xMidYMid slice" xmlns="http://www.w3.org/2000/svg">
<g filter="url(#filter0_d_2199_28352)">
<rect x="20.8516" y="20.9258" width="283.67" height="150" rx="30.9278" fill="url(#paint0_linear_2199_28352)"/>
<path d="M54.6436 60.7227H69.292V119.316H99.7607V131.426H54.6436V60.7227ZM123.882 131.426H109.233V60.7227H123.882V131.426ZM200.542 96.0742C200.542 103.561 199.11 110.055 196.245 115.557C193.381 121.025 189.442 125.208 184.429 128.105C179.448 130.97 173.817 132.402 167.534 132.402C161.219 132.402 155.555 130.954 150.542 128.057C145.529 125.16 141.59 120.977 138.726 115.508C135.861 110.007 134.429 103.529 134.429 96.0742C134.429 88.5872 135.861 82.1094 138.726 76.6406C141.59 71.1393 145.529 66.9564 150.542 64.0918C155.555 61.1947 161.219 59.7461 167.534 59.7461C173.817 59.7461 179.448 61.1947 184.429 64.0918C189.442 66.9564 193.381 71.1393 196.245 76.6406C199.11 82.1094 200.542 88.5872 200.542 96.0742ZM185.601 96.0742C185.601 91.0938 184.852 86.862 183.354 83.3789C181.89 79.8958 179.806 77.2591 177.104 75.4688C174.403 73.6458 171.213 72.7344 167.534 72.7344C163.856 72.7344 160.649 73.6458 157.915 75.4688C155.213 77.2591 153.114 79.9121 151.616 83.4277C150.119 86.9108 149.37 91.1263 149.37 96.0742C149.37 101.022 150.119 105.254 151.616 108.77C153.114 112.253 155.213 114.906 157.915 116.729C160.649 118.519 163.856 119.414 167.534 119.414C171.213 119.414 174.403 118.519 177.104 116.729C179.806 114.906 181.89 112.253 183.354 108.77C184.852 105.286 185.601 101.055 185.601 96.0742ZM270.073 131.426H257.378L226.323 86.5039H225.737V131.426H211.089V60.7227H223.979L254.839 105.645H255.522V60.7227H270.073V131.426Z" fill="white"/>
</g>
<defs>
<filter id="filter0_d_2199_28352" x="0.851562" y="0.925781" width="323.67" height="190" filterUnits="userSpaceOnUse" color-interpolation-filters="sRGB">
<feFlood flood-opacity="0" result="BackgroundImageFix"/>
<feColorMatrix in="SourceAlpha" type="matrix" values="0 0 0 0 0 0 0 0 0 0 0 0 0 0 0 0 0 0 127 0" result="hardAlpha"/>
<feOffset/>
<feGaussianBlur stdDeviation="10"/>
<feComposite in2="hardAlpha" operator="out"/>
<feColorMatrix type="matrix" values="0 0 0 0 1 0 0 0 0 0.466667 0 0 0 0 0.0627451 0 0 0 0.3 0"/>
<feBlend mode="normal" in2="BackgroundImageFix" result="effect1_dropShadow_2199_28352"/>
<feBlend mode="normal" in="SourceGraphic" in2="effect1_dropShadow_2199_28352" result="shape"/>
</filter>
<linearGradient id="paint0_linear_2199_28352" x1="162.687" y1="20.9258" x2="162.687" y2="170.926" gradientUnits="userSpaceOnUse">
<stop stop-color="#FF7710"/>
<stop offset="1" stop-color="#FF903B"/>
</linearGradient>
</defs>
</svg>
