<svg width="20" height="20" viewBox="0 0 20 20" fill="none" xmlns="http://www.w3.org/2000/svg">
<path d="M12.5 6.66667H12.5083M10.4167 17.5H5C4.33696 17.5 3.70107 17.2366 3.23223 16.7678C2.76339 16.2989 2.5 15.663 2.5 15V5C2.5 4.33696 2.76339 3.70107 3.23223 3.23223C3.70107 2.76339 4.33696 2.5 5 2.5H15C15.663 2.5 16.2989 2.76339 16.7678 3.23223C17.2366 3.70107 17.5 4.33696 17.5 5V10.4167" stroke="#C4C4C4" stroke-width="1.25" stroke-linecap="round" stroke-linejoin="round"/>
<path d="M2.5 13.3342L6.66667 9.1675C7.44 8.42333 8.39333 8.42333 9.16667 9.1675L12.5 12.5008" stroke="#C4C4C4" stroke-width="1.25" stroke-linecap="round" stroke-linejoin="round"/>
<path d="M11.668 11.6654L12.5013 10.8321C13.0596 10.2954 13.7096 10.1454 14.3196 10.3821M13.3346 15.8321H18.3346M15.8346 13.3321V18.3321" stroke="#C4C4C4" stroke-width="1.25" stroke-linecap="round" stroke-linejoin="round"/>
</svg>
