<svg width="20" height="20" viewBox="0 0 20 20" fill="none" xmlns="http://www.w3.org/2000/svg">
<path d="M10.0013 2.5V17.5C7.08464 17.5 4.91755 13.6833 4.91755 13.6833H2.5013C2.28029 13.6833 2.06833 13.5955 1.91205 13.4393C1.75577 13.283 1.66797 13.071 1.66797 12.85V7.0875C1.66797 6.86649 1.75577 6.65452 1.91205 6.49824C2.06833 6.34196 2.28029 6.25417 2.5013 6.25417H4.91755C4.91755 6.25417 7.08464 2.5 10.0013 2.5Z" stroke="#C4C4C4" stroke-width="1.25" stroke-linejoin="round"/>
<path d="M13.3359 6.25C13.5962 6.48297 13.8314 6.74259 14.0376 7.02458C14.6674 7.8886 15.0054 8.93083 15.0026 10C15.0026 11.1058 14.6501 12.1279 14.0534 12.9542C13.8435 13.2444 13.6029 13.5112 13.3359 13.75" stroke="#C4C4C4" stroke-width="1.25" stroke-linecap="round" stroke-linejoin="round"/>
<path d="M14.2656 17.1627C16.7023 15.7085 18.334 13.0456 18.334 10.0018C18.334 7.00516 16.7523 4.37849 14.3785 2.91016" stroke="#C4C4C4" stroke-width="1.25" stroke-linecap="round"/>
</svg>
