<svg width="20" height="20" viewBox="0 0 20 20" fill="none" xmlns="http://www.w3.org/2000/svg">
<path d="M10.0013 10H15.8346M15.8346 10L13.3346 12.5M15.8346 10L13.3346 7.5M15.8346 5V4.16667C15.8346 3.72464 15.659 3.30072 15.3465 2.98816C15.0339 2.67559 14.61 2.5 14.168 2.5H5.83464C5.39261 2.5 4.96868 2.67559 4.65612 2.98816C4.34356 3.30072 4.16797 3.72464 4.16797 4.16667V15.8333C4.16797 16.2754 4.34356 16.6993 4.65612 17.0118C4.96868 17.3244 5.39261 17.5 5.83464 17.5H14.168C14.61 17.5 15.0339 17.3244 15.3465 17.0118C15.659 16.6993 15.8346 16.2754 15.8346 15.8333V15" stroke="#C4C4C4" stroke-width="1.25" stroke-linecap="round" stroke-linejoin="round"/>
</svg>
