<svg width="20" height="20" viewBox="0 0 20 20" fill="none" xmlns="http://www.w3.org/2000/svg">
<path d="M9.99797 9.9974H10.0046M6.66797 9.9974H6.67547M18.3346 9.63656C18.3346 14.0391 14.603 17.6082 10.0013 17.6082C9.45852 17.6088 8.92102 17.5593 8.3888 17.4599C8.0063 17.3874 7.81547 17.3516 7.68214 17.3724C7.5488 17.3924 7.3588 17.4932 6.98047 17.6941C5.90242 18.2682 4.66197 18.4611 3.46047 18.2416C3.91943 17.6742 4.23064 17.0019 4.3663 16.2849C4.44964 15.8432 4.24297 15.4141 3.93297 15.0999C2.52964 13.6732 1.66797 11.7516 1.66797 9.63656C1.66797 5.23406 5.39964 1.66406 10.0013 1.66406C10.5735 1.66517 11.1291 1.71823 11.668 1.82323" stroke="#C4C4C4" stroke-width="1.25" stroke-linecap="round" stroke-linejoin="round"/>
<path d="M17.3676 2.06171L17.9443 2.63921C18.1786 2.87362 18.3103 3.19151 18.3103 3.52296C18.3103 3.85442 18.1786 4.1723 17.9443 4.40671L14.9218 7.48671C14.684 7.72456 14.3799 7.88492 14.0493 7.94671L12.1751 8.35338C12.107 8.36819 12.0362 8.36568 11.9694 8.34606C11.9025 8.32644 11.8415 8.29036 11.7922 8.2411C11.7429 8.19185 11.7067 8.131 11.687 8.06414C11.6672 7.99727 11.6646 7.92653 11.6793 7.85838L12.0785 5.99588C12.1402 5.6653 12.3006 5.36114 12.5385 5.12338L15.5993 2.06171C15.7154 1.94555 15.8532 1.85341 16.0049 1.79054C16.1566 1.72767 16.3192 1.69531 16.4835 1.69531C16.6477 1.69531 16.8103 1.72767 16.962 1.79054C17.1137 1.85341 17.2515 1.94555 17.3676 2.06171Z" stroke="#C4C4C4" stroke-width="1.25" stroke-linecap="round" stroke-linejoin="round"/>
</svg>
